<?xml version="1.0" standalone="no"?>
<!DOCTYPE svg PUBLIC "-//W3C//DTD SVG 1.1//EN" "http://www.w3.org/Graphics/SVG/1.1/DTD/svg11.dtd" >
<svg xmlns="http://www.w3.org/2000/svg" xmlns:xlink="http://www.w3.org/1999/xlink" version="1.1">
<metadata>
Created by FontForge 20170731 at Wed Feb 10 19:25:33 2016
 By Aleksey,,,
Copyright (c) 2016 by Iulian Maftei All rights reserved.
</metadata>
<defs>
<font id="MoskSemi-Bold600" horiz-adv-x="641" >
  <font-face 
    font-family="Mosk Semi-Bold 600"
    font-weight="600"
    font-stretch="normal"
    units-per-em="1000"
    panose-1="2 0 5 6 0 0 0 2 0 4"
    ascent="800"
    descent="-200"
    x-height="485"
    cap-height="680"
    bbox="-62 -230 1260 934"
    underline-thickness="50"
    underline-position="-175"
    unicode-range="U+0020-FB02"
  />
<missing-glyph horiz-adv-x="228" 
 />
    <glyph glyph-name=".notdef" horiz-adv-x="228" 
 />
    <glyph glyph-name=".null" horiz-adv-x="0" 
 />
    <glyph glyph-name="nonmarkingreturn" horiz-adv-x="333" 
 />
    <glyph glyph-name="space" unicode=" " horiz-adv-x="228" 
 />
    <glyph glyph-name="exclam" unicode="!" horiz-adv-x="194" 
d="M142 196l-88 41l-17 465h120zM30 66q0 28 19.5 47.5t47.5 19.5t47.5 -19.5t19.5 -47.5t-19.5 -47t-47.5 -19t-47.5 19t-19.5 47z" />
    <glyph glyph-name="quotedbl" unicode="&#x22;" horiz-adv-x="371" 
d="M32 664q0 25 19.5 46.5t46.5 21.5q28 0 48.5 -23t20.5 -58q0 -54 -35 -110t-87 -84l-25 53q30 26 44.5 43.5t19.5 45.5q-18 1 -35 21t-17 44zM207 664q0 25 20 46.5t47 21.5q28 0 47.5 -23t19.5 -58q0 -54 -34.5 -110t-85.5 -84l-27 53q31 25 46 43t20 46q-19 1 -36 21
t-17 44z" />
    <glyph glyph-name="numbersign" unicode="#" horiz-adv-x="561" 
d="M376 398l26 117l97 -2l-26 -115h49l9 -84h-78l-27 -118h96l9 -84h-125l-27 -123l-95 5l26 118h-124l-28 -123l-95 5l27 118h-50l-10 84h79l27 118h-96l-10 84h126l28 117l95 -2l-27 -115h124zM329 196l27 118h-123l-27 -118h123z" />
    <glyph glyph-name="dollar" unicode="$" horiz-adv-x="522" 
d="M452 648l-38 -89q-38 18 -70.5 28t-73.5 10q-52 0 -85 -20t-33 -59q0 -28 17.5 -49.5t46 -38t89.5 -47.5q64 -33 102.5 -59.5t63 -64t24.5 -87.5q0 -57 -32 -100t-92 -65v-130h-78v113q-22 -3 -44 -3h-16v-110h-77v123q-71 18 -106 41l25 90q34 -17 81 -31t88 -14
q66 0 101 22.5t35 63.5q0 26 -19 47.5t-48.5 38.5t-85.5 45q-94 48 -141.5 95.5t-47.5 118.5q0 55 32 98t91 64v115l77 12v-110h21q18 0 38 -2v100l79 12v-128q37 -11 76 -30z" />
    <glyph glyph-name="percent" unicode="%" horiz-adv-x="908" 
d="M245 0l301 710l112 -4l-300 -710zM191 363q-44 0 -81 20.5t-59.5 58.5t-22.5 90q0 50 22.5 89t60 60t80.5 21q44 0 81.5 -20.5t59.5 -59t22 -90.5q0 -50 -22.5 -88.5t-60 -59.5t-80.5 -21zM191 619q-27 0 -46.5 -22.5t-19.5 -63.5q0 -43 18.5 -65.5t47.5 -22.5
q27 0 47 22.5t20 64.5t-19 64.5t-48 22.5zM719 0q-44 0 -81.5 20t-60 58.5t-22.5 90.5q0 51 22.5 89.5t60 59t81.5 20.5t80.5 -20t58.5 -58.5t22 -90.5q0 -50 -22.5 -88.5t-59.5 -59.5t-79 -21zM719 256q-27 0 -47 -22.5t-20 -63.5q0 -43 19 -66t48 -23q27 0 46.5 23
t19.5 65q0 41 -19 64t-47 23z" />
    <glyph glyph-name="ampersand" unicode="&#x26;" horiz-adv-x="678" 
d="M312 696q85 0 177 -48l-38 -89q-41 20 -69.5 29.5t-68.5 9.5q-41 0 -65 -24.5t-24 -59.5q0 -34 20 -64t68 -72l173 -159q29 67 33 155l99 -40q-6 -109 -47 -192l80 -71l-65 -82l-78 71q-78 -72 -207 -72q-74 1 -133.5 27t-94 77t-34.5 124q0 56 27.5 108.5t72.5 88.5
q-29 42 -29 96q0 51 25 93.5t71 68t107 25.5zM300 88q76 0 127 45l-187 171q-18 16 -32 32q-24 -22 -38 -52.5t-15 -65.5q0 -64 42 -97t103 -33z" />
    <glyph glyph-name="quotesingle" unicode="'" horiz-adv-x="197" 
d="M32 664q0 25 19.5 46.5t46.5 21.5q28 0 48.5 -23t20.5 -58q0 -54 -35 -110t-87 -84l-25 53q30 26 44.5 43.5t19.5 45.5q-18 1 -35 21t-17 44z" />
    <glyph glyph-name="parenleft" unicode="(" horiz-adv-x="293" 
d="M155 321q0 -77 33 -177t75 -150l-88 -32q-60 78 -92.5 171t-32.5 187q0 92 32 183.5t93 176.5l88 -32q-43 -56 -75.5 -154.5t-32.5 -172.5z" />
    <glyph glyph-name="parenright" unicode=")" horiz-adv-x="293" 
d="M137 320q0 76 -32.5 176.5t-74.5 150.5l88 33q60 -79 92.5 -172.5t32.5 -187.5q0 -90 -32 -181t-93 -177l-88 31q43 56 75 154.5t32 172.5z" />
    <glyph glyph-name="asterisk" unicode="*" horiz-adv-x="375" 
d="M144 769h88l1 -104l107 23l25 -77l-107 -21l74 -105l-67 -52l-77 104l-77 -104l-68 52l74 104l-107 22l25 77l107 -23z" />
    <glyph glyph-name="plus" unicode="+" horiz-adv-x="537" 
d="M325 317h172l10 -86h-182v-227l-105 4v223h-182l-8 86h190v217l105 -3v-214z" />
    <glyph glyph-name="comma" unicode="," horiz-adv-x="198" 
d="M33 66q0 26 19.5 46.5t46.5 20.5q29 0 49 -23t20 -58q0 -53 -35 -109.5t-87 -84.5l-26 53q30 24 45 42.5t20 46.5q-18 1 -35 21.5t-17 44.5z" />
    <glyph glyph-name="hyphen" unicode="-" horiz-adv-x="328" 
d="M30 318h258l10 -89h-258z" />
    <glyph glyph-name="period" unicode="." horiz-adv-x="193" 
d="M163 66q0 -28 -19 -47t-47 -19t-47.5 19t-19.5 47t19.5 47.5t47.5 19.5t47 -19.5t19 -47.5z" />
    <glyph glyph-name="slash" unicode="/" horiz-adv-x="436" 
d="M10 0l301 710l115 -4l-302 -710z" />
    <glyph glyph-name="zero" unicode="0" horiz-adv-x="601" 
d="M301 -13q-78 0 -140.5 38.5t-97.5 107t-35 153.5q0 84 35 151t97.5 104.5t140.5 37.5t140.5 -37.5t97.5 -104t35 -149.5q0 -86 -35 -155t-97.5 -107.5t-140.5 -38.5zM301 483q-48 0 -86.5 -25t-60 -69t-21.5 -100q0 -59 21.5 -106t60 -73.5t86.5 -26.5q49 0 87.5 26
t60 71.5t21.5 103.5q0 57 -22 102.5t-60.5 71t-86.5 25.5z" />
    <glyph glyph-name="one" unicode="1" horiz-adv-x="346" 
d="M278 566v-566h-112v441l-110 -51l-46 87l193 89h75z" />
    <glyph glyph-name="two" unicode="2" horiz-adv-x="484" 
d="M38 527q87 52 187 52q96 0 152 -45.5t56 -122.5q0 -63 -31.5 -114t-112.5 -118l-112 -93h272l15 -86h-439v75l207 178q53 47 78 81.5t25 67.5q0 42 -31.5 64t-85.5 22q-44 0 -81 -14t-76 -37l-23 90v0z" />
    <glyph glyph-name="three" unicode="3" horiz-adv-x="477" 
d="M17 512q50 32 101 49.5t107 17.5q66 0 113 -23t70.5 -62t23.5 -86q0 -46 -27 -84.5t-63 -52.5q25 -6 48.5 -27t38.5 -54t15 -73q0 -54 -29 -98t-82 -69.5t-122 -25.5q-51 0 -106.5 17t-104.5 43l57 76q40 -24 75.5 -34.5t80.5 -10.5q51 0 88.5 28t37.5 73q0 52 -39.5 81
t-122.5 29h-36l-16 87h58q66 0 105 25.5t39 67.5q0 34 -29 58t-76 24q-76 0 -152 -52l-53 76v0z" />
    <glyph glyph-name="four" unicode="4" horiz-adv-x="548" 
d="M423 155h105l-12 -92h-93v-132h-113v132h-285l-15 92l330 416h83v-416zM310 155v232l-179 -232h179z" />
    <glyph glyph-name="five" unicode="5" horiz-adv-x="506" 
d="M264 260q-33 0 -58 -15t-36 -33h-102l17 354h358l-13 -92h-248l-7 -145q37 21 84 21q72 0 121 -28t73.5 -75t25.5 -105q0 -63 -29.5 -112.5t-84.5 -77.5t-129 -28q-52 0 -107 17t-101 42l55 79q41 -23 76 -33.5t81 -10.5q59 0 96.5 33.5t37.5 90.5q0 55 -30.5 86.5
t-79.5 31.5z" />
    <glyph glyph-name="six" unicode="6" horiz-adv-x="522" 
d="M495 192q0 -59 -28 -106t-77 -73t-111 -26q-73 0 -130 30t-89 90t-32 145q0 110 59 193t147 130.5t176 58.5l18 -91q-92 -21 -167 -66t-107 -119q56 36 122 36q63 0 113 -26t78 -72.5t28 -103.5zM393 187q0 52 -33.5 85t-86.5 33q-75 0 -139 -53q2 -84 41 -128t100 -44
q51 0 84.5 31t33.5 76z" />
    <glyph glyph-name="seven" unicode="7" horiz-adv-x="462" 
d="M442 520l-205 -589l-105 31l185 512h-293l-14 92h398z" />
    <glyph glyph-name="eight" unicode="8" horiz-adv-x="515" 
d="M54 471q0 47 24.5 86t71 62.5t108.5 23.5t108 -23.5t70.5 -62.5t24.5 -86q0 -42 -26 -77.5t-66 -54.5q30 -9 57.5 -33t44 -57t16.5 -68q0 -54 -27.5 -98t-79.5 -70t-122 -26q-71 0 -123 26t-79.5 70t-27.5 98q0 33 16.5 66.5t44 58.5t57.5 33q-41 18 -66.5 53.5
t-25.5 78.5zM358 471q0 33 -28.5 56.5t-73.5 23.5q-43 0 -71.5 -24t-28.5 -56q0 -36 26.5 -61t75.5 -32q48 7 74 32t26 61zM384 179q0 43 -33 75t-93 41q-61 -9 -94 -41t-33 -75q0 -46 37 -73.5t90 -27.5q51 0 88.5 28t37.5 73z" />
    <glyph glyph-name="nine" unicode="9" horiz-adv-x="522" 
d="M495 314q0 -110 -59 -193t-147 -130.5t-176 -58.5l-18 91q92 21 167 66t107 119q-56 -36 -122 -36q-63 0 -113 26t-78 72.5t-28 103.5q0 59 27.5 106t77 73t111.5 26q73 0 130 -30t89 -90t32 -145zM250 261q75 0 139 53q-2 84 -41 128t-100 44q-51 0 -84.5 -31t-33.5 -76
q0 -53 33 -85.5t87 -32.5z" />
    <glyph glyph-name="colon" unicode=":" horiz-adv-x="193" 
d="M163 401q0 -28 -19 -47.5t-47 -19.5t-47.5 19.5t-19.5 47.5q0 27 19.5 47t47.5 20q27 0 46.5 -20t19.5 -47zM163 76q0 -28 -19 -47.5t-47 -19.5t-47.5 19.5t-19.5 47.5t19.5 47t47.5 19t47 -19t19 -47z" />
    <glyph glyph-name="semicolon" unicode=";" horiz-adv-x="199" 
d="M34 401q0 27 20 47t48 20t47.5 -20t19.5 -47q0 -28 -19.5 -47.5t-47.5 -19.5t-48 19.5t-20 47.5zM33 75q0 26 19.5 46.5t46.5 20.5q29 0 49 -22.5t20 -58.5q0 -53 -35 -109.5t-87 -84.5l-26 53q30 24 45 42.5t20 46.5q-18 1 -35 21.5t-17 44.5z" />
    <glyph glyph-name="less" unicode="&#x3c;" horiz-adv-x="341" 
d="M141 245l180 -134l-23 -92l-268 198v55l268 198l23 -91z" />
    <glyph glyph-name="equal" unicode="=" horiz-adv-x="511" 
d="M30 398h442l9 -84h-441zM30 196h442l9 -84h-441z" />
    <glyph glyph-name="greater" unicode="&#x3e;" horiz-adv-x="341" 
d="M43 470l268 -198v-55l-268 -198l-23 92l180 134l-180 134z" />
    <glyph glyph-name="question" unicode="?" horiz-adv-x="427" 
d="M10 644q46 29 90.5 43t98.5 14q97 0 147.5 -47t50.5 -128q0 -54 -47.5 -111.5t-121.5 -94.5l-15 -151l-80 33l-8 176q75 24 121 63t46 83q0 40 -26 61.5t-70 21.5q-78 0 -172 -63zM101 66q0 28 19.5 47.5t46.5 19.5q28 0 47.5 -19.5t19.5 -47.5t-19.5 -47t-47.5 -19
q-27 0 -46.5 19t-19.5 47z" />
    <glyph glyph-name="at" unicode="@" horiz-adv-x="764" 
d="M520 427l32 -40l-23 -199q-1 -18 9 -28.5t22 -10.5q22 0 41 18.5t30.5 53t11.5 79.5q0 61 -28.5 109t-79.5 75t-116 27q-75 0 -142 -35.5t-107.5 -101.5t-40.5 -152q0 -69 32 -121.5t86.5 -80.5t118.5 -28q42 0 86 8.5t80 27.5l28 -86q-47 -24 -96.5 -33t-107.5 -9
q-83 0 -159 40.5t-122.5 114t-46.5 167.5q0 103 48.5 189.5t138 137.5t206.5 51q90 0 162 -38t113 -105t41 -151q0 -118 -50.5 -181.5t-132.5 -63.5q-48 0 -80 27q-19 -11 -42 -18.5t-46 -7.5q-86 0 -129.5 42.5t-43.5 115.5q0 61 32 108t84.5 73t112.5 26h78zM313 220
q0 -29 17.5 -50t54.5 -21q20 0 33.5 13t17.5 35l19 148h-12q-54 0 -92 -34t-38 -91z" />
    <glyph glyph-name="A" unicode="A" 
d="M10 0l260 680h99l262 -673l-111 -16l-67 180h-267l-65 -171h-111zM218 262h201l-102 265z" />
    <glyph glyph-name="B" unicode="B" horiz-adv-x="616" 
d="M588 197q0 -95 -66.5 -146t-177.5 -51h-256v680h238q107 0 167.5 -44.5t60.5 -142.5q0 -69 -80 -126q53 -24 83.5 -66t30.5 -104zM437 492q0 53 -31.5 73.5t-93.5 20.5h-112v-190h94q65 1 104 24t39 72zM472 195q0 54 -33.5 82t-91.5 28h-147v-212h137q62 0 98.5 25.5
t36.5 76.5z" />
    <glyph glyph-name="C" unicode="C" horiz-adv-x="561" 
d="M363 694q36 0 88 -11t88 -31l-34 -81q-53 17 -78.5 22.5t-66.5 5.5q-58 0 -104.5 -32.5t-73.5 -92t-27 -137.5q0 -71 23.5 -129t68 -92.5t105.5 -34.5q78 0 149 31l43 -84q-36 -18 -89.5 -30t-97.5 -12q-102 0 -174 46.5t-108.5 126t-36.5 177.5q0 103 40 184.5
t113.5 127.5t171.5 46z" />
    <glyph glyph-name="D" unicode="D" horiz-adv-x="684" 
d="M647 344q0 -103 -36 -180.5t-106 -120.5t-168 -43h-249v680h251q152 0 230 -92t78 -244zM532 343q0 114 -47 177.5t-142 63.5h-143v-490h136q91 0 143.5 62.5t52.5 186.5z" />
    <glyph glyph-name="E" unicode="E" horiz-adv-x="561" 
d="M524 88l17 -88h-453v680h436l16 -88h-340v-203h226l17 -88h-243v-213h324z" />
    <glyph glyph-name="F" unicode="F" horiz-adv-x="500" 
d="M200 383h217l15 -86h-232v-297h-112v680h375l17 -88h-280v-209z" />
    <glyph glyph-name="G" unicode="G" horiz-adv-x="629" 
d="M479 278h-145l9 86h238v-329q-38 -22 -92.5 -35.5t-111.5 -13.5q-103 0 -180 46t-118 126t-41 178q0 103 45.5 185t126 127.5t180.5 45.5q37 0 90.5 -11t90.5 -31l-35 -81q-54 17 -78.5 22.5t-65.5 5.5q-65 0 -119 -30t-86 -89.5t-32 -142.5q0 -77 28 -135t77.5 -89.5
t113.5 -31.5q53 0 105 14v183z" />
    <glyph glyph-name="H" unicode="H" horiz-adv-x="685" 
d="M597 680v-680h-112v296h-285v-296h-112v680l112 5v-299h285v294h112z" />
    <glyph glyph-name="I" unicode="I" horiz-adv-x="287" 
d="M200 680v-680h-112v680h112z" />
    <glyph glyph-name="J" unicode="J" horiz-adv-x="281" 
d="M10 -20q36 13 52.5 24t22 27.5t5.5 48.5v600h113v-619q0 -45 -13.5 -74.5t-45 -50t-89.5 -38.5l-45 82v0z" />
    <glyph glyph-name="K" unicode="K" 
d="M200 224v-224h-112v680h112v-300l303 315l81 -65l-237 -251l284 -379h-138l-223 299z" />
    <glyph glyph-name="L" unicode="L" horiz-adv-x="529" 
d="M200 88h303l16 -88h-431v680h112v-592z" />
    <glyph glyph-name="M" unicode="M" horiz-adv-x="767" 
d="M566 433l-148 -215l-43 -6l-175 237v-449h-112v680h70l234 -325l219 325h69v-680h-114v433z" />
    <glyph glyph-name="N" unicode="N" horiz-adv-x="729" 
d="M200 482v-482h-112v680h106l334 -479v479h113v-680h-107z" />
    <glyph glyph-name="O" unicode="O" horiz-adv-x="733" 
d="M38 337q0 102 41.5 183t116.5 127.5t170 48.5q98 0 173 -46t115.5 -126t40.5 -180q0 -103 -42 -184t-117 -127t-171 -47q-97 0 -171.5 45.5t-115 125.5t-40.5 180zM368 600q-59 0 -108 -33t-77 -93t-28 -136q0 -74 26 -132.5t73.5 -91.5t109.5 -33q60 0 108.5 32
t76.5 91.5t28 139.5q0 74 -26 132t-73.5 91t-109.5 33z" />
    <glyph glyph-name="P" unicode="P" horiz-adv-x="582" 
d="M200 244v-244h-112v680h203q118 0 190.5 -52.5t72.5 -162.5q0 -73 -37.5 -123t-99 -74t-135.5 -24h-82zM436 459q0 69 -37.5 98t-109.5 29h-89v-249h87q67 0 106.5 30t42.5 92z" />
    <glyph glyph-name="Q" unicode="Q" horiz-adv-x="733" 
d="M609 96l70 -69l-65 -57l-72 67q-77 -50 -177 -51q-97 0 -171.5 45.5t-115 125.5t-40.5 180q0 102 41.5 183t116.5 127.5t170 48.5q98 0 173 -46t115.5 -126t40.5 -180q0 -74 -22 -137.5t-64 -110.5zM465 108l-85 79l77 59l75 -74q45 71 45 172q0 74 -26 132t-73.5 91
t-109.5 33q-59 0 -108 -33t-77 -93t-28 -136q0 -74 26 -132.5t73.5 -91.5t109.5 -33q56 0 101 27z" />
    <glyph glyph-name="R" unicode="R" horiz-adv-x="616" 
d="M88 0v680h203q117 0 190 -51.5t73 -153.5q0 -63 -32 -109t-85 -70l169 -296h-121l-148 268q-20 -3 -55 -3h-82v-265h-112zM436 470q0 62 -38 89t-109 27h-89v-229h87q67 0 108 27t41 86z" />
    <glyph glyph-name="S" unicode="S" horiz-adv-x="522" 
d="M245 -13q-43 0 -106 17.5t-89 36.5l25 90q34 -17 81 -31t88 -14q66 0 101 22.5t35 63.5q0 26 -19 47.5t-48.5 38.5t-85.5 45q-94 48 -141.5 95.5t-47.5 118.5q0 51 27.5 91.5t79 64t121.5 23.5q47 0 95.5 -13.5t90.5 -34.5l-38 -89q-38 18 -70.5 28t-73.5 10
q-52 0 -85 -20t-33 -59q0 -28 17.5 -49.5t46 -38t89.5 -47.5q64 -33 102.5 -59.5t63 -64t24.5 -87.5q0 -54 -29 -96t-85.5 -65.5t-135.5 -23.5z" />
    <glyph glyph-name="T" unicode="T" horiz-adv-x="581" 
d="M10 680h544l17 -89h-233v-591h-114v591h-214v89z" />
    <glyph glyph-name="U" unicode="U" horiz-adv-x="700" 
d="M78 680h113v-426q0 -83 43 -128t116 -45t116 45.5t43 127.5v426h113v-435q0 -73 -33.5 -131.5t-95 -91.5t-143.5 -33t-143.5 33t-95 91.5t-33.5 131.5v435z" />
    <glyph glyph-name="V" unicode="V" 
d="M10 673l112 16l202 -536l196 527h111l-260 -680h-98z" />
    <glyph glyph-name="W" unicode="W" horiz-adv-x="909" 
d="M600 0l-146 520l-143 -520h-98l-203 673l112 16l142 -536l136 527h111l140 -527l136 527h112l-201 -680h-98z" />
    <glyph glyph-name="X" unicode="X" horiz-adv-x="620" 
d="M308 266l-182 -266h-116l241 344l-221 314l95 42l195 -285l173 265h117l-233 -343l220 -337h-119z" />
    <glyph glyph-name="Y" unicode="Y" horiz-adv-x="593" 
d="M347 266l-1 -266h-112v268l-224 392l110 36l169 -315l175 299h119z" />
    <glyph glyph-name="Z" unicode="Z" horiz-adv-x="570" 
d="M140 88h399l12 -88h-520l-13 88l401 503h-359l-14 89h490l13 -89z" />
    <glyph glyph-name="bracketleft" unicode="[" horiz-adv-x="339" 
d="M329 -88h-229v784h229l-17 -88h-102v-609h102z" />
    <glyph glyph-name="backslash" unicode="\" horiz-adv-x="436" 
d="M125 710l301 -710l-115 -4l-301 710z" />
    <glyph glyph-name="bracketright" unicode="]" horiz-adv-x="339" 
d="M10 696h229v-784h-229l15 87h102v609h-102z" />
    <glyph glyph-name="asciicircum" unicode="^" horiz-adv-x="443" 
d="M318 143l-97 137l-96 -137h-115l175 247h74l174 -247h-115z" />
    <glyph glyph-name="underscore" unicode="_" horiz-adv-x="441" 
d="M30 88h371l10 -88h-371z" />
    <glyph glyph-name="grave" unicode="`" horiz-adv-x="190" 
d="M180 610l-78 -21l-92 161h118z" />
    <glyph glyph-name="a" unicode="a" horiz-adv-x="498" 
d="M243 396q-66 0 -140 -33l-31 92q26 17 80.5 30t88.5 13q56 0 102.5 -23t73.5 -62.5t27 -88.5v-324h-75l-17 49q-28 -27 -64 -44t-72 -17q-84 0 -127.5 42t-43.5 112q0 73 49.5 113t130.5 40h106q-2 101 -88 101zM223 220q-37 0 -58.5 -22.5t-21.5 -55.5q0 -26 19 -45.5
t52 -19.5q31 0 62 15t56 41v87h-109z" />
    <glyph glyph-name="b" unicode="b" horiz-adv-x="545" 
d="M518 241q0 -75 -30 -132.5t-85.5 -89.5t-129.5 -32q-27 0 -60.5 12t-62.5 32l-23 -31h-59v695l112 11v-234q49 26 95 26q74 0 129 -31.5t84.5 -89.5t29.5 -136zM402 241q0 72 -34 116.5t-95 44.5q-26 0 -48.5 -8t-44.5 -24v-256q41 -30 93 -30q60 0 94.5 44t34.5 113z
" />
    <glyph glyph-name="c" unicode="c" horiz-adv-x="468" 
d="M277 84q37 0 67 8t66 25l33 -82q-31 -22 -81 -35t-85 -13q-76 0 -132 32t-86.5 89.5t-30.5 134.5q0 76 30.5 133.5t87.5 89.5t133 32q34 0 84 -13.5t81 -35.5l-32 -80q-39 17 -68.5 25t-64.5 8q-60 0 -97.5 -45t-38.5 -114q0 -71 36.5 -115t97.5 -44z" />
    <glyph glyph-name="d" unicode="d" horiz-adv-x="558" 
d="M490 0h-61l-24 40q-31 -25 -66.5 -39t-68.5 -14q-74 0 -128.5 32t-84 90t-29.5 135q0 76 29.5 133.5t85 89t129.5 31.5q23 0 51 -8.5t54 -24.5v230l113 10v-705zM272 84q30 0 55 9.5t50 30.5v238q-24 21 -49 30.5t-56 9.5q-60 0 -94.5 -44t-34.5 -113q0 -73 34.5 -117
t94.5 -44z" />
    <glyph glyph-name="e" unicode="e" horiz-adv-x="509" 
d="M265 498q107 0 162 -71t55 -181v-33h-336q15 -130 155 -130q39 0 69.5 10.5t73.5 32.5l34 -82q-81 -56 -179 -56q-132 0 -201.5 68.5t-69.5 186.5q0 76 28.5 133.5t82 89.5t126.5 32zM262 402q-48 0 -77.5 -30t-36.5 -84h226q-9 56 -37 85t-75 29z" />
    <glyph glyph-name="f" unicode="f" horiz-adv-x="348" 
d="M88 395h-74v86h74v51q0 79 45.5 124.5t125.5 45.5q22 0 48.5 -7.5t40.5 -18.5l-31 -84q-32 12 -50 12q-34 0 -50 -23t-16 -63v-37h90l36 -86h-126v-625h-113v625z" />
    <glyph glyph-name="g" unicode="g" horiz-adv-x="554" 
d="M490 -33q0 -91 -65.5 -144t-179.5 -53q-36 0 -93.5 14t-90.5 37l34 81q45 -21 77.5 -31t69.5 -10q60 0 97.5 28.5t37.5 78.5v52q-26 -16 -54 -24.5t-53 -8.5q-74 0 -128.5 32t-84 90t-29.5 135q0 76 29.5 133.5t85 89t129.5 31.5q30 0 67 -14t66 -38l24 39h61v-518z
M377 124v238q-24 21 -49 30.5t-56 9.5q-60 0 -94.5 -44t-34.5 -113q0 -73 34.5 -117t94.5 -44q30 0 55 9.5t50 30.5z" />
    <glyph glyph-name="h" unicode="h" horiz-adv-x="563" 
d="M509 312v-312h-112v305q0 101 -76 101q-60 0 -141 -67v-339h-112v695l112 11v-266q41 28 85 44.5t83 16.5q161 0 161 -189z" />
    <glyph glyph-name="i" unicode="i" horiz-adv-x="228" 
d="M180 630q0 -28 -19.5 -47.5t-47.5 -19.5t-46.5 19.5t-18.5 47.5q0 27 19 46.5t46 19.5q28 0 47.5 -19.5t19.5 -46.5zM171 485v-485h-113v485h113z" />
    <glyph glyph-name="j" unicode="j" horiz-adv-x="250" 
d="M63 630q0 27 19 46.5t47 19.5t48 -19.5t20 -46.5q0 -28 -20 -47.5t-48 -19.5t-47 19.5t-19 47.5zM186 485v-715h-113v715h113z" />
    <glyph glyph-name="k" unicode="k" horiz-adv-x="502" 
d="M180 167v-167h-112v695l112 11v-409l212 201l64 -77l-140 -129l186 -292h-130l-135 220z" />
    <glyph glyph-name="l" unicode="l" horiz-adv-x="247" 
d="M180 706v-706h-112v695z" />
    <glyph glyph-name="m" unicode="m" horiz-adv-x="848" 
d="M795 322v-322h-113v305q0 50 -15.5 75.5t-52.5 25.5q-29 0 -61 -17t-69 -46l1 -21v-322h-113v305q0 50 -15.5 75.5t-52.5 25.5q-53 0 -134 -67v-339h-112v485h75l20 -58q42 33 90 53.5t88 20.5q98 0 133 -73q42 33 89.5 53t87.5 20q79 0 116.5 -47t37.5 -132z" />
    <glyph glyph-name="n" unicode="n" horiz-adv-x="553" 
d="M312 406q-61 0 -142 -67v-339h-112v485h75l20 -58q42 34 92 54t94 20q85 0 123 -50.5t38 -138.5v-312h-113v305q0 101 -75 101z" />
    <glyph glyph-name="o" unicode="o" horiz-adv-x="556" 
d="M277 -13q-76 0 -132 32t-86.5 89.5t-30.5 134.5q0 76 30.5 133.5t87.5 89.5t133 32t132.5 -31.5t87 -89.5t30.5 -134t-31 -134t-88 -90t-133 -32zM413 242q0 71 -36.5 115.5t-97.5 44.5q-60 0 -97.5 -45t-38.5 -114q0 -71 36.5 -115t97.5 -44t98.5 45t37.5 113z" />
    <glyph glyph-name="p" unicode="p" horiz-adv-x="541" 
d="M514 241q0 -75 -30 -132.5t-85.5 -89.5t-129.5 -32q-44 0 -93 26v-243h-112v715h59l24 -32q29 22 62 33.5t62 11.5q74 0 129 -31.5t84.5 -89.5t29.5 -136zM398 241q0 72 -34 116.5t-95 44.5q-26 0 -48.5 -8t-44.5 -24v-256q41 -30 93 -30q60 0 94.5 44t34.5 113z" />
    <glyph glyph-name="q" unicode="q" horiz-adv-x="554" 
d="M490 -230h-113v250q-26 -16 -54 -24.5t-53 -8.5q-74 0 -128.5 32t-84 90t-29.5 135q0 76 29.5 133.5t85 89t129.5 31.5q29 0 66 -14t66 -37l25 38h61v-715zM377 124v238q-24 21 -49 30.5t-56 9.5q-60 0 -94.5 -44t-34.5 -113q0 -73 34.5 -117t94.5 -44q30 0 55 9.5
t50 30.5z" />
    <glyph glyph-name="r" unicode="r" horiz-adv-x="352" 
d="M342 395q-36 0 -84 -25t-88 -61v-309h-112v485h60l37 -80q36 30 82.5 55t81.5 25l23 -90v0z" />
    <glyph glyph-name="s" unicode="s" horiz-adv-x="421" 
d="M194 -13q-36 0 -84.5 12.5t-78.5 34.5l34 78q69 -33 129 -33q38 0 65 14t27 38q0 44 -96 75q-160 52 -160 148q0 67 50 105.5t136 38.5q34 0 81.5 -13t79.5 -35l-35 -76q-35 16 -64.5 24.5t-63.5 8.5q-31 0 -52 -15t-21 -37q1 -17 24 -31t64 -28q165 -59 165 -160
q0 -71 -51.5 -110t-148.5 -39z" />
    <glyph glyph-name="t" unicode="t" horiz-adv-x="360" 
d="M192 481h88l34 -86h-122v-231q0 -39 17.5 -62.5t52.5 -23.5q23 0 50 12l31 -83q-15 -10 -41.5 -17.5t-48.5 -7.5q-81 0 -127 42t-46 121v250h-67v86h67v119l112 22v-141z" />
    <glyph glyph-name="u" unicode="u" horiz-adv-x="553" 
d="M241 79q61 0 142 67v339h113v-485h-76l-20 58q-42 -34 -92 -54t-94 -20q-160 0 -160 189v312h112v-305q0 -101 75 -101z" />
    <glyph glyph-name="v" unicode="v" horiz-adv-x="487" 
d="M477 485l-187 -485h-100l-180 467l109 36l123 -341l118 323h117z" />
    <glyph glyph-name="w" unicode="w" horiz-adv-x="709" 
d="M699 485l-153 -485h-98l-99 322l-94 -322h-99l-146 467l109 35l88 -330l83 313h122l87 -313l83 313h117z" />
    <glyph glyph-name="x" unicode="x" horiz-adv-x="489" 
d="M239 160l-104 -160h-125l164 247l-146 219l102 36l118 -184l108 167h123l-166 -255l151 -230h-124z" />
    <glyph glyph-name="y" unicode="y" horiz-adv-x="488" 
d="M477 485l-187 -485v-230h-100v230l-180 467l109 36l123 -341l118 323h117z" />
    <glyph glyph-name="z" unicode="z" horiz-adv-x="438" 
d="M32 485h379l6 -63l-261 -332h257l10 -90h-393l-14 59l257 334h-218z" />
    <glyph glyph-name="braceleft" unicode="{" horiz-adv-x="286" 
d="M218 411q0 -37 -10 -61.5t-32 -39.5q42 -34 42 -104q0 -16 -4.5 -31t-13.5 -34q-9 -22 -13 -35.5t-4 -28.5q0 -13 12.5 -23t34.5 -10h35l11 -86h-42q-145 0 -145 121q0 14 5.5 33.5t11.5 37.5q17 45 17 67q0 23 -15.5 38.5t-35.5 15.5h-42v74h42q20 0 34 16t14 41
q0 21 -14 65q-16 48 -16 76q0 56 36.5 86t107.5 30h42l-11 -86h-35q-23 0 -35 -10.5t-12 -22.5q0 -15 4 -27t12 -32q9 -20 14 -35.5t5 -34.5z" />
    <glyph glyph-name="bar" unicode="|" horiz-adv-x="287" 
d="M88 0v712l111 -8v-712z" />
    <glyph glyph-name="braceright" unicode="}" horiz-adv-x="285" 
d="M67 206q0 70 42 104q-22 15 -32 39.5t-10 61.5q0 19 5 34.5t14 35.5q8 20 12 32t4 27q0 12 -12 22.5t-35 10.5h-36l-10 86h42q71 0 107.5 -30t36.5 -86q0 -28 -16 -76q-14 -44 -14 -65q0 -25 14 -41t34 -16h42v-74h-42q-20 0 -35.5 -15.5t-15.5 -38.5q0 -22 17 -67
q6 -18 11.5 -37.5t5.5 -33.5q0 -121 -145 -121h-42l10 86h36q22 0 34.5 10t12.5 23q0 15 -4 28.5t-13 35.5q-9 19 -13.5 34t-4.5 31z" />
    <glyph glyph-name="asciitilde" unicode="~" horiz-adv-x="454" 
d="M159 219q-11 0 -20.5 -9.5t-10.5 -29.5h-98q0 75 33 111.5t85 36.5q25 0 42 -5t39 -14q18 -9 32 -13t33 -4q11 0 21 9.5t11 30.5h98q0 -77 -33 -113t-84 -36q-24 0 -41 4.5t-39 14.5q-18 8 -33 12.5t-35 4.5z" />
    <glyph glyph-name="uni00A0" unicode="&#xa0;" horiz-adv-x="236" 
 />
    <glyph glyph-name="exclamdown" unicode="&#xa1;" horiz-adv-x="194" 
d="M164 635q0 -28 -19.5 -47.5t-47.5 -19.5t-47.5 19.5t-19.5 47.5t19.5 47.5t47.5 19.5t47.5 -19.5t19.5 -47.5zM53 505l89 -40l14 -465h-119z" />
    <glyph glyph-name="cent" unicode="&#xa2;" horiz-adv-x="468" 
d="M343 -4v-110h-108v104q-96 13 -151.5 81t-55.5 172q0 102 55 170t150 82v103l109 11v-119q65 -16 102 -41l-32 -80q-39 17 -68.5 25t-64.5 8q-60 0 -97.5 -45t-38.5 -114q0 -71 36.5 -115t97.5 -44q37 0 67 8t66 25l33 -82q-39 -27 -100 -39z" />
    <glyph glyph-name="sterling" unicode="&#xa3;" horiz-adv-x="486" 
d="M476 0h-417l-9 88q39 0 55.5 22t16.5 63v128h-74v85h74v119q0 84 44.5 131.5t127.5 47.5q23 0 49 -8t40 -19l-31 -82q-29 11 -50 11q-34 0 -50 -23t-16 -62v-115h122l38 -85h-160v-95q0 -81 -25 -118h249z" />
    <glyph glyph-name="currency" unicode="&#xa4;" horiz-adv-x="691" 
d="M661 3l-68 -81l-106 106q-63 -41 -142 -41q-76 1 -141 42l-106 -107l-68 81l99 102q-37 61 -37 137q0 38 10.5 73.5t28.5 62.5l-101 102l68 82l107 -107q67 42 143 43q75 -1 140 -42l105 106l68 -82l-97 -99q37 -59 39 -139q-1 -78 -40 -139zM345 92q38 0 70.5 20t52 54
t19.5 75q0 42 -19 76.5t-51 54t-70 19.5q-37 0 -69 -20t-51 -54t-19 -74q0 -41 18.5 -75.5t49.5 -55t69 -20.5z" />
    <glyph glyph-name="yen" unicode="&#xa5;" horiz-adv-x="593" 
d="M347 266l-1 -266h-112v268l-224 392l110 36l169 -315l175 299h119zM301 266v9h-9v-9h9zM292 116v-10h9v10h-9z" />
    <glyph glyph-name="brokenbar" unicode="&#xa6;" horiz-adv-x="287" 
d="M88 415v297l111 -8v-298zM88 0v295l111 -7v-296z" />
    <glyph glyph-name="section" unicode="&#xa7;" horiz-adv-x="592" 
d="M488 116q7 -21 7 -50q0 -54 -29 -96t-85.5 -65.5t-135.5 -23.5q-43 0 -106 17.5t-89 36.5l25 90q34 -17 81 -31t88 -14q66 0 101 22.5t35 63.5q0 26 -19 47.5t-48.5 38.5t-85.5 45q-94 48 -141.5 95.5t-47.5 118.5q0 43 20 78.5t57 60.5q-8 24 -8 51q0 51 27.5 91.5
t79 64t121.5 23.5q47 0 96 -14t90 -34l-37 -89q-38 18 -70.5 28t-73.5 10q-53 0 -86 -20t-33 -59q0 -28 17.5 -49.5t46 -38t89.5 -47.5q64 -33 102.5 -59.5t63 -64t24.5 -87.5q0 -44 -19.5 -79.5t-56.5 -60.5zM425 203q24 21 24 53q0 26 -19 47.5t-48.5 38.5t-85.5 45
q-82 43 -121 76q-23 -21 -23 -51q0 -28 17.5 -49.5t46 -38t89.5 -47.5q49 -26 74 -41t46 -33z" />
    <glyph glyph-name="dieresis" unicode="&#xa8;" horiz-adv-x="321" 
d="M128 665q0 -24 -16.5 -41t-41.5 -17t-42.5 17t-17.5 41q0 25 17.5 42.5t42.5 17.5t41.5 -17.5t16.5 -42.5zM311 665q0 -24 -17 -41t-42 -17q-24 0 -42 17t-18 41q0 25 18 42.5t42 17.5q25 0 42 -17.5t17 -42.5z" />
    <glyph glyph-name="copyright" unicode="&#xa9;" horiz-adv-x="815" 
d="M407 712q114 0 200 -50t133 -135.5t47 -190.5q0 -104 -47 -189.5t-133 -135.5t-200 -50t-200 50t-132.5 135.5t-46.5 189.5q0 105 46.5 190.5t132.5 135.5t200 50zM407 645q-91 0 -160 -40t-106 -110t-37 -158t37 -158t106 -110t160 -40q92 0 160.5 40t105.5 110t37 158
t-37 158t-105.5 110t-160.5 40zM573 148q-28 -21 -72 -33t-77 -12q-106 0 -166 64t-60 171q0 70 29 123t80.5 82t118.5 29q32 0 75 -12t73 -32l-31 -85q-36 18 -59 25t-57 7q-54 0 -84 -37t-30 -99q0 -68 28.5 -104t84.5 -36q33 0 57.5 7.5t57.5 24.5z" />
    <glyph glyph-name="ordfeminine" unicode="&#xaa;" horiz-adv-x="329" 
d="M160 622q-38 0 -94 -21l-20 72q18 11 52 20t61 9q64 0 103 -34.5t39 -85.5v-211h-47l-21 29q-19 -15 -42.5 -26t-46.5 -11q-55 0 -85.5 28.5t-30.5 75.5q0 48 34 76.5t88 27.5h63q-2 23 -15 37t-38 14zM158 503q-21 0 -33 -8.5t-12 -22.5q0 -13 9 -21.5t25 -8.5
q38 0 68 27v34h-57z" />
    <glyph glyph-name="guillemotleft" unicode="&#xab;" horiz-adv-x="391" 
d="M185 83l-155 139v46l155 139l22 -75l-92 -87l92 -87zM350 83l-156 139v46l156 139l21 -75l-92 -87l92 -87z" />
    <glyph glyph-name="logicalnot" unicode="&#xac;" horiz-adv-x="514" 
d="M10 406h466l8 -50v-244l-96 5v200h-370z" />
    <glyph glyph-name="registered" unicode="&#xae;" horiz-adv-x="726" 
d="M363 820q101 0 177 -43.5t117 -119.5t41 -170q0 -92 -41 -167.5t-117 -119.5t-177 -44q-100 0 -176.5 44t-117.5 119.5t-41 167.5q0 94 41 169.5t117 119.5t177 44zM363 755q-81 0 -140.5 -34t-91.5 -94.5t-32 -138.5q0 -76 32 -136.5t91.5 -95.5t140.5 -35
q80 0 139.5 35t91.5 95.5t32 136.5q0 77 -32 138t-91.5 95t-139.5 34zM512 568q0 -36 -17.5 -61t-46.5 -39l84 -164h-91l-70 147h-58v-147h-81v376h136q65 0 104.5 -28t39.5 -84zM428 564q0 31 -19.5 40.5t-61.5 9.5h-34v-98h33q40 0 61 10t21 38z" />
    <glyph glyph-name="degree" unicode="&#xb0;" horiz-adv-x="252" 
d="M10 607q0 46 34 78.5t82 32.5q47 0 81.5 -32.5t34.5 -78.5q0 -47 -34.5 -78.5t-81.5 -31.5q-48 0 -82 31.5t-34 78.5zM127 573q11 0 18 6q13 9 13 26q0 11 -6 20q-9 12 -25 12q-12 0 -20 -5q-13 -10 -13 -26q0 -12 7 -19q9 -14 26 -14z" />
    <glyph glyph-name="plusminus" unicode="&#xb1;" horiz-adv-x="475" 
d="M288 377h148l9 -78h-157v-167l-97 5v162h-152l-9 78h161v157l97 -3v-154zM32 79h408l5 -79h-406z" />
    <glyph glyph-name="twosuperior" unicode="&#xb2;" horiz-adv-x="367" 
d="M15 726q34 19 72 32t87 13q53 0 89 -19.5t53.5 -49.5t17.5 -63q0 -43 -24.5 -80.5t-80.5 -85.5l-70 -58h176l12 -79h-322v73l142 118q34 29 48.5 54.5t14.5 57.5q0 20 -16.5 34.5t-44.5 14.5q-29 0 -57.5 -10t-58.5 -25l-38 73v0z" />
    <glyph glyph-name="threesuperior" unicode="&#xb3;" horiz-adv-x="366" 
d="M13 720q39 25 76 38t80 13q75 0 116 -36.5t41 -92.5q0 -34 -20.5 -63.5t-47.5 -39.5q29 -6 52.5 -38.5t23.5 -76.5q0 -41 -21.5 -74.5t-61.5 -52.5t-93 -19q-40 0 -82.5 13t-75.5 33l43 71q33 -19 55 -26.5t51 -7.5q36 0 58.5 17t22.5 45q0 76 -98 76h-26l-11 78h42
q46 0 65.5 18t19.5 46q0 21 -17 33.5t-50 12.5q-31 0 -54.5 -10t-46.5 -28l-41 71v0z" />
    <glyph glyph-name="acute" unicode="&#xb4;" horiz-adv-x="190" 
d="M180 750l-92 -161l-78 21l53 140h117z" />
    <glyph glyph-name="mu" unicode="&#xb5;" horiz-adv-x="563" 
d="M506 0h-76l-20 58q-42 -34 -92 -54t-94 -20q-25 0 -48 5v-197l-112 -11v704h112v-305q0 -101 75 -101q61 0 142 67v339h113v-485z" />
    <glyph glyph-name="paragraph" unicode="&#xb6;" horiz-adv-x="885" 
d="M440 591v-591h-112v244h-28q-75 0 -137 24t-98.5 74t-36.5 123q0 110 72 162.5t189 52.5h568v-89h-95v-591h-113v591h-209z" />
    <glyph glyph-name="cedilla" unicode="&#xb8;" horiz-adv-x="232" 
d="M140 -124q0 18 -25 30.5t-64 16.5l36 90h82l-20 -49q31 -10 52 -34.5t21 -51.5q0 -48 -36 -73.5t-87 -25.5q-20 0 -47.5 7t-41.5 18l26 68q14 -7 32.5 -13t30.5 -6q16 0 28.5 6t12.5 17z" />
    <glyph glyph-name="onesuperior" unicode="&#xb9;" horiz-adv-x="293" 
d="M225 764v-428h-102v324l-73 -36l-40 72l149 68h66z" />
    <glyph glyph-name="ordmasculine" unicode="&#xba;" horiz-adv-x="384" 
d="M28 532q0 78 44.5 124t118.5 46q77 0 121.5 -46t44.5 -125q0 -77 -46.5 -122.5t-122.5 -45.5q-75 0 -117.5 45.5t-42.5 123.5zM259 531q0 91 -66 91q-31 0 -49.5 -22t-18.5 -68q0 -45 16.5 -67.5t48.5 -22.5q33 0 51 22t18 67z" />
    <glyph glyph-name="guillemotright" unicode="&#xbb;" horiz-adv-x="393" 
d="M43 407l154 -139v-46l-154 -139l-23 75l92 87l-92 87zM207 407l156 -139v-46l-156 -139l-22 75l93 87l-93 87z" />
    <glyph glyph-name="onequarter" unicode="&#xbc;" horiz-adv-x="867" 
d="M225 764v-428h-102v324l-73 -36l-40 72l149 68h66zM45 -134l550 834h121l-551 -834h-120zM838 -79h-78v-85h-102v85h-207l-10 82l248 318h71v-318h87zM658 3v144l-113 -144h113z" />
    <glyph glyph-name="onehalf" unicode="&#xbd;" horiz-adv-x="884" 
d="M225 764v-428h-102v324l-73 -36l-40 72l149 68h66zM40 -134l550 834h120l-550 -834h-120zM532 280q36 19 73 32t86 13q53 0 89.5 -19.5t54 -50t17.5 -63.5q0 -42 -25 -80t-81 -86l-70 -58h176l12 -78h-322v72l142 118q35 31 49.5 54t14.5 54q0 21 -16.5 37t-45.5 16
q-51 0 -116 -35z" />
    <glyph glyph-name="threequarters" unicode="&#xbe;" horiz-adv-x="864" 
d="M13 720q39 25 76 38t80 13q75 0 116 -36.5t41 -92.5q0 -34 -20.5 -63.5t-47.5 -39.5q29 -6 52.5 -38.5t23.5 -76.5q0 -41 -21.5 -74.5t-61.5 -52.5t-93 -19q-40 0 -82.5 13t-75.5 33l43 71q33 -19 55 -26.5t51 -7.5q36 0 58.5 17t22.5 45q0 76 -98 76h-26l-11 78h42
q40 0 62.5 17.5t22.5 46.5q0 20 -17 33t-50 13q-31 0 -54.5 -10t-46.5 -28zM92 -134l550 834h120l-551 -834h-119zM687 321h71v-318h86l-8 -82h-78v-85h-102v85h-207l-11 82zM656 147l-114 -144h114v144z" />
    <glyph glyph-name="questiondown" unicode="&#xbf;" horiz-adv-x="426" 
d="M326 586q0 -28 -19.5 -47.5t-47.5 -19.5t-47.5 19.5t-19.5 47.5t19.5 47.5t47.5 19.5t47.5 -19.5t19.5 -47.5zM416 9q-45 -29 -90 -43t-100 -14q-96 0 -146 47.5t-50 127.5q0 55 47.5 112t121.5 95l14 150l80 -33l9 -175q-76 -25 -121.5 -64t-45.5 -84q0 -39 25.5 -60.5
t69.5 -21.5q81 0 172 64z" />
    <glyph glyph-name="Agrave" unicode="&#xc0;" 
d="M371 760l-78 -21l-92 161h118zM10 0l260 680h99l262 -673l-111 -16l-67 180h-267l-65 -171h-111zM218 262h201l-102 265z" />
    <glyph glyph-name="Aacute" unicode="&#xc1;" 
d="M419 900l-92 -161l-78 21l53 140h117zM10 0l260 680h99l262 -673l-111 -16l-67 180h-267l-65 -171h-111zM218 262h201l-102 265z" />
    <glyph glyph-name="Acircumflex" unicode="&#xc2;" 
d="M386 739l-70 76l-72 -76l-104 13l140 148h68l140 -148zM10 0l260 680h99l262 -673l-111 -16l-67 180h-267l-65 -171h-111zM218 262h201l-102 265z" />
    <glyph glyph-name="Atilde" unicode="&#xc3;" 
d="M366 827q12 0 20.5 10t9.5 24h72q0 -59 -28.5 -86t-72.5 -27q-19 0 -31 5t-25 15q-12 9 -23 14t-29 5q-11 0 -20.5 -10.5t-10.5 -23.5h-75q0 59 28.5 85.5t72.5 26.5q19 0 31.5 -5t26.5 -15q14 -9 25.5 -13.5t28.5 -4.5zM10 0l260 680h99l262 -673l-111 -16l-67 180h-267
l-65 -171h-111zM218 262h201l-102 265z" />
    <glyph glyph-name="Adieresis" unicode="&#xc4;" 
d="M282 815q0 -24 -16.5 -41t-41.5 -17t-42.5 17t-17.5 41q0 25 17.5 42.5t42.5 17.5t41.5 -17.5t16.5 -42.5zM465 815q0 -24 -17 -41t-42 -17q-24 0 -42 17t-18 41q0 25 18 42.5t42 17.5q25 0 42 -17.5t17 -42.5zM10 0l260 680h99l262 -673l-111 -16l-67 180h-267l-65 -171
h-111zM218 262h201l-102 265z" />
    <glyph glyph-name="Aring" unicode="&#xc5;" 
d="M213 837q0 41 30 69t72 28t72 -28t30 -69q0 -40 -30 -66.5t-72 -26.5t-72 26.5t-30 66.5zM274 837q0 -16 12.5 -28t28.5 -12t28 12t12 28q0 17 -11.5 29t-28.5 12t-29 -12t-12 -29zM10 0l260 680h99l262 -673l-111 -16l-67 180h-267l-65 -171h-111zM218 262h201l-102 265
z" />
    <glyph glyph-name="AE" unicode="&#xc6;" horiz-adv-x="934" 
d="M226 171l-114 -181l-107 16l443 674h408l16 -88h-298v-203h226l17 -88h-243v-213h324l16 -88h-454v171h-234zM460 262v264l-174 -264h174z" />
    <glyph glyph-name="Ccedilla" unicode="&#xc7;" horiz-adv-x="561" 
d="M456 -122q0 -48 -36 -73.5t-87 -25.5q-20 0 -47.5 7t-41.5 18l26 68q14 -7 32.5 -13t30.5 -6q16 0 28.5 6t12.5 17q0 18 -25 30.5t-64 16.5l26 66q-87 10 -148.5 58t-93 123t-31.5 166q0 103 40 184.5t113.5 127.5t171.5 46q36 0 88 -11t88 -31l-34 -81
q-53 17 -78.5 22.5t-66.5 5.5q-58 0 -104.5 -32.5t-73.5 -92t-27 -137.5q0 -71 23.5 -129t68 -92.5t105.5 -34.5q78 0 149 31l43 -84q-28 -15 -69.5 -25.5t-81.5 -14.5l-10 -24q31 -10 52 -34.5t21 -51.5z" />
    <glyph glyph-name="Egrave" unicode="&#xc8;" horiz-adv-x="561" 
d="M352 760l-78 -21l-92 161h118zM524 88l17 -88h-453v680h436l16 -88h-340v-203h226l17 -88h-243v-213h324z" />
    <glyph glyph-name="Eacute" unicode="&#xc9;" horiz-adv-x="561" 
d="M400 900l-92 -161l-78 21l53 140h117zM524 88l17 -88h-453v680h436l16 -88h-340v-203h226l17 -88h-243v-213h324z" />
    <glyph glyph-name="Ecircumflex" unicode="&#xca;" horiz-adv-x="561" 
d="M367 739l-70 76l-72 -76l-104 13l140 148h68l140 -148zM524 88l17 -88h-453v680h436l16 -88h-340v-203h226l17 -88h-243v-213h324z" />
    <glyph glyph-name="Edieresis" unicode="&#xcb;" horiz-adv-x="561" 
d="M264 815q0 -24 -16.5 -41t-41.5 -17t-42.5 17t-17.5 41q0 25 17.5 42.5t42.5 17.5t41.5 -17.5t16.5 -42.5zM447 815q0 -24 -17 -41t-42 -17q-24 0 -42 17t-18 41q0 25 18 42.5t42 17.5q25 0 42 -17.5t17 -42.5zM524 88l17 -88h-453v680h436l16 -88h-340v-203h226l17 -88
h-243v-213h324z" />
    <glyph glyph-name="Igrave" unicode="&#xcc;" horiz-adv-x="287" 
d="M200 760l-78 -21l-92 161h118zM200 680v-680h-112v680h112z" />
    <glyph glyph-name="Iacute" unicode="&#xcd;" horiz-adv-x="287" 
d="M248 900l-92 -161l-78 21l53 140h117zM200 680v-680h-112v680h112z" />
    <glyph glyph-name="Icircumflex" unicode="&#xce;" horiz-adv-x="287" 
d="M214 739l-70 76l-72 -76l-104 13l140 148h68l140 -148zM200 680v-680h-112v680h112z" />
    <glyph glyph-name="Idieresis" unicode="&#xcf;" horiz-adv-x="287" 
d="M111 815q0 -24 -16.5 -41t-41.5 -17t-42.5 17t-17.5 41q0 25 17.5 42.5t42.5 17.5t41.5 -17.5t16.5 -42.5zM294 815q0 -24 -17 -41t-42 -17q-24 0 -42 17t-18 41q0 25 18 42.5t42 17.5q25 0 42 -17.5t17 -42.5zM200 680v-680h-112v680h112z" />
    <glyph glyph-name="Eth" unicode="&#xd0;" horiz-adv-x="684" 
d="M647 344q0 -103 -36.5 -180.5t-106 -120.5t-167.5 -43h-249v296h-59l-10 87h69v297h251q152 0 230 -92t78 -244zM532 343q0 114 -47 177.5t-142 63.5h-143v-201h81l9 -87h-90v-202h136q91 0 143.5 62.5t52.5 186.5z" />
    <glyph glyph-name="Ntilde" unicode="&#xd1;" horiz-adv-x="729" 
d="M418 827q12 0 20.5 10t9.5 24h72q0 -59 -28.5 -86t-72.5 -27q-19 0 -31 5t-25 15q-12 9 -23 14t-29 5q-11 0 -20.5 -10.5t-10.5 -23.5h-75q0 59 28.5 85.5t72.5 26.5q19 0 31.5 -5t26.5 -15q14 -9 25.5 -13.5t28.5 -4.5zM200 482v-482h-112v680h106l334 -479v479h113
v-680h-107z" />
    <glyph glyph-name="Ograve" unicode="&#xd2;" horiz-adv-x="733" 
d="M420 760l-78 -21l-92 161h118zM38 337q0 102 41.5 183t116.5 127.5t170 48.5q98 0 173 -46t115.5 -126t40.5 -180q0 -103 -42 -184t-117 -127t-171 -47q-97 0 -171.5 45.5t-115 125.5t-40.5 180zM368 600q-59 0 -108 -33t-77 -93t-28 -136q0 -74 26 -132.5t73.5 -91.5
t109.5 -33q60 0 108.5 32t76.5 91.5t28 139.5q0 74 -26 132t-73.5 91t-109.5 33z" />
    <glyph glyph-name="Oacute" unicode="&#xd3;" horiz-adv-x="733" 
d="M468 900l-92 -161l-78 21l53 140h117zM38 337q0 102 41.5 183t116.5 127.5t170 48.5q98 0 173 -46t115.5 -126t40.5 -180q0 -103 -42 -184t-117 -127t-171 -47q-97 0 -171.5 45.5t-115 125.5t-40.5 180zM368 600q-59 0 -108 -33t-77 -93t-28 -136q0 -74 26 -132.5
t73.5 -91.5t109.5 -33q60 0 108.5 32t76.5 91.5t28 139.5q0 74 -26 132t-73.5 91t-109.5 33z" />
    <glyph glyph-name="Ocircumflex" unicode="&#xd4;" horiz-adv-x="733" 
d="M434 739l-70 76l-72 -76l-104 13l140 148h68l140 -148zM38 337q0 102 41.5 183t116.5 127.5t170 48.5q98 0 173 -46t115.5 -126t40.5 -180q0 -103 -42 -184t-117 -127t-171 -47q-97 0 -171.5 45.5t-115 125.5t-40.5 180zM368 600q-59 0 -108 -33t-77 -93t-28 -136
q0 -74 26 -132.5t73.5 -91.5t109.5 -33q60 0 108.5 32t76.5 91.5t28 139.5q0 74 -26 132t-73.5 91t-109.5 33z" />
    <glyph glyph-name="Otilde" unicode="&#xd5;" horiz-adv-x="733" 
d="M415 827q12 0 20.5 10t9.5 24h72q0 -59 -28.5 -86t-72.5 -27q-19 0 -31 5t-25 15q-12 9 -23 14t-29 5q-11 0 -20.5 -10.5t-10.5 -23.5h-75q0 59 28.5 85.5t72.5 26.5q19 0 31.5 -5t26.5 -15q14 -9 25.5 -13.5t28.5 -4.5zM38 337q0 102 41.5 183t116.5 127.5t170 48.5
q98 0 173 -46t115.5 -126t40.5 -180q0 -103 -42 -184t-117 -127t-171 -47q-97 0 -171.5 45.5t-115 125.5t-40.5 180zM368 600q-59 0 -108 -33t-77 -93t-28 -136q0 -74 26 -132.5t73.5 -91.5t109.5 -33q60 0 108.5 32t76.5 91.5t28 139.5q0 74 -26 132t-73.5 91t-109.5 33z
" />
    <glyph glyph-name="Odieresis" unicode="&#xd6;" horiz-adv-x="733" 
d="M331 815q0 -24 -16.5 -41t-41.5 -17t-42.5 17t-17.5 41q0 25 17.5 42.5t42.5 17.5t41.5 -17.5t16.5 -42.5zM514 815q0 -24 -17 -41t-42 -17q-24 0 -42 17t-18 41q0 25 18 42.5t42 17.5q25 0 42 -17.5t17 -42.5zM38 337q0 102 41.5 183t116.5 127.5t170 48.5q98 0 173 -46
t115.5 -126t40.5 -180q0 -103 -42 -184t-117 -127t-171 -47q-97 0 -171.5 45.5t-115 125.5t-40.5 180zM368 600q-59 0 -108 -33t-77 -93t-28 -136q0 -74 26 -132.5t73.5 -91.5t109.5 -33q60 0 108.5 32t76.5 91.5t28 139.5q0 74 -26 132t-73.5 91t-109.5 33z" />
    <glyph glyph-name="multiply" unicode="&#xd7;" horiz-adv-x="548" 
d="M387 30l-114 146l-128 -146h-115l190 225l-174 224h115l114 -146l127 146h116l-191 -226l175 -223h-115z" />
    <glyph glyph-name="Oslash" unicode="&#xd8;" horiz-adv-x="733" 
d="M695 344q0 -103 -42 -184t-117 -127t-171 -47q-97 0 -171.5 45.5t-115 125.5t-40.5 180q0 102 41.5 183t116.5 127.5t170 48.5q98 0 173 -46t115.5 -126t40.5 -180zM155 338q0 -63 18.5 -114.5t53.5 -86.5l192 457q-24 6 -51 6q-59 0 -108 -33t-77 -93t-28 -136zM577 344
q0 58 -16.5 107t-46.5 84l-193 -450q28 -4 43 -4q60 0 108.5 32t76.5 91.5t28 139.5z" />
    <glyph glyph-name="Ugrave" unicode="&#xd9;" horiz-adv-x="700" 
d="M404 760l-78 -21l-92 161h118zM78 680h113v-426q0 -83 43 -128t116 -45t116 45.5t43 127.5v426h113v-435q0 -73 -33.5 -131.5t-95 -91.5t-143.5 -33t-143.5 33t-95 91.5t-33.5 131.5v435z" />
    <glyph glyph-name="Uacute" unicode="&#xda;" horiz-adv-x="700" 
d="M452 900l-92 -161l-78 21l53 140h117zM78 680h113v-426q0 -83 43 -128t116 -45t116 45.5t43 127.5v426h113v-435q0 -73 -33.5 -131.5t-95 -91.5t-143.5 -33t-143.5 33t-95 91.5t-33.5 131.5v435z" />
    <glyph glyph-name="Ucircumflex" unicode="&#xdb;" horiz-adv-x="700" 
d="M418 739l-70 76l-72 -76l-104 13l140 148h68l140 -148zM78 680h113v-426q0 -83 43 -128t116 -45t116 45.5t43 127.5v426h113v-435q0 -73 -33.5 -131.5t-95 -91.5t-143.5 -33t-143.5 33t-95 91.5t-33.5 131.5v435z" />
    <glyph glyph-name="Udieresis" unicode="&#xdc;" horiz-adv-x="700" 
d="M315 815q0 -24 -16.5 -41t-41.5 -17t-42.5 17t-17.5 41q0 25 17.5 42.5t42.5 17.5t41.5 -17.5t16.5 -42.5zM498 815q0 -24 -17 -41t-42 -17q-24 0 -42 17t-18 41q0 25 18 42.5t42 17.5q25 0 42 -17.5t17 -42.5zM78 680h113v-426q0 -83 43 -128t116 -45t116 45.5t43 127.5
v426h113v-435q0 -73 -33.5 -131.5t-95 -91.5t-143.5 -33t-143.5 33t-95 91.5t-33.5 131.5v435z" />
    <glyph glyph-name="Yacute" unicode="&#xdd;" horiz-adv-x="593" 
d="M391 900l-92 -161l-78 21l53 140h117zM347 266l-1 -266h-112v268l-224 392l110 36l169 -315l175 299h119z" />
    <glyph glyph-name="Thorn" unicode="&#xde;" horiz-adv-x="589" 
d="M554 385q0 -73 -37.5 -123t-99 -74t-135.5 -24h-82v-164h-112v680h112v-80h91q118 0 190.5 -52.5t72.5 -162.5zM436 379q0 69 -37.5 98t-109.5 29h-89v-249h87q67 0 106.5 30t42.5 92z" />
    <glyph glyph-name="germandbls" unicode="&#xdf;" horiz-adv-x="608" 
d="M180 -230h-112v703q0 102 61.5 162.5t167.5 60.5q103 0 168.5 -49.5t65.5 -140.5q0 -43 -23 -82t-60 -56q53 -16 90.5 -64t37.5 -111q0 -92 -67.5 -142.5t-178.5 -50.5h-87v93h81q58 0 96 27t38 75q0 51 -35.5 81t-89.5 30h-81v90h33q62 0 95.5 28.5t33.5 75.5
q0 46 -32.5 72.5t-80.5 26.5q-55 0 -88 -34.5t-33 -92.5v-702z" />
    <glyph glyph-name="agrave" unicode="&#xe0;" horiz-adv-x="498" 
d="M243 396q-66 0 -140 -33l-31 92q26 17 80.5 30t88.5 13q56 0 102.5 -23t73.5 -62.5t27 -88.5v-324h-75l-17 49q-28 -27 -64 -44t-72 -17q-84 0 -127.5 42t-43.5 112q0 73 49.5 113t130.5 40h106q-2 101 -88 101zM223 220q-37 0 -58.5 -22.5t-21.5 -55.5q0 -26 19 -45.5
t52 -19.5q31 0 62 15t56 41v87h-109zM310 610l-78 -21l-92 161h118z" />
    <glyph glyph-name="aacute" unicode="&#xe1;" horiz-adv-x="498" 
d="M243 396q-66 0 -140 -33l-31 92q26 17 80.5 30t88.5 13q56 0 102.5 -23t73.5 -62.5t27 -88.5v-324h-75l-17 49q-28 -27 -64 -44t-72 -17q-84 0 -127.5 42t-43.5 112q0 73 49.5 113t130.5 40h106q-2 101 -88 101zM223 220q-37 0 -58.5 -22.5t-21.5 -55.5q0 -26 19 -45.5
t52 -19.5q31 0 62 15t56 41v87h-109zM345 750l-92 -161l-78 21l53 140h117z" />
    <glyph glyph-name="acircumflex" unicode="&#xe2;" horiz-adv-x="498" 
d="M243 396q-66 0 -140 -33l-31 92q26 17 80.5 30t88.5 13q56 0 102.5 -23t73.5 -62.5t27 -88.5v-324h-75l-17 49q-28 -27 -64 -44t-72 -17q-84 0 -127.5 42t-43.5 112q0 73 49.5 113t130.5 40h106q-2 101 -88 101zM223 220q-37 0 -58.5 -22.5t-21.5 -55.5q0 -26 19 -45.5
t52 -19.5q31 0 62 15t56 41v87h-109zM314 589l-70 76l-72 -76l-104 13l140 148h68l140 -148z" />
    <glyph glyph-name="atilde" unicode="&#xe3;" horiz-adv-x="498" 
d="M243 396q-66 0 -140 -33l-31 92q26 17 80.5 30t88.5 13q56 0 102.5 -23t73.5 -62.5t27 -88.5v-324h-75l-17 49q-28 -27 -64 -44t-72 -17q-84 0 -127.5 42t-43.5 112q0 73 49.5 113t130.5 40h106q-2 101 -88 101zM223 220q-37 0 -58.5 -22.5t-21.5 -55.5q0 -26 19 -45.5
t52 -19.5q31 0 62 15t56 41v87h-109zM301 677q12 0 20.5 10t9.5 24h72q0 -59 -28.5 -86t-72.5 -27q-19 0 -32 5.5t-27 15.5q-15 9 -24.5 13.5t-24.5 4.5q-11 0 -20.5 -10.5t-10.5 -23.5h-75q0 59 28.5 85.5t72.5 26.5q20 0 33 -5t28 -15q14 -9 25 -13.5t26 -4.5z" />
    <glyph glyph-name="adieresis" unicode="&#xe4;" horiz-adv-x="498" 
d="M243 396q-66 0 -140 -33l-31 92q26 17 80.5 30t88.5 13q56 0 102.5 -23t73.5 -62.5t27 -88.5v-324h-75l-17 49q-28 -27 -64 -44t-72 -17q-84 0 -127.5 42t-43.5 112q0 73 49.5 113t130.5 40h106q-2 101 -88 101zM223 220q-37 0 -58.5 -22.5t-21.5 -55.5q0 -26 19 -45.5
t52 -19.5q31 0 62 15t56 41v87h-109zM203 665q0 -24 -16.5 -41t-41.5 -17t-42.5 17t-17.5 41q0 25 17.5 42.5t42.5 17.5t41.5 -17.5t16.5 -42.5zM386 665q0 -24 -17 -41t-42 -17q-24 0 -42 17t-18 41q0 25 18 42.5t42 17.5q25 0 42 -17.5t17 -42.5z" />
    <glyph glyph-name="aring" unicode="&#xe5;" horiz-adv-x="498" 
d="M243 396q-66 0 -140 -33l-31 92q26 17 80.5 30t88.5 13q56 0 102.5 -23t73.5 -62.5t27 -88.5v-324h-75l-17 49q-28 -27 -64 -44t-72 -17q-84 0 -127.5 42t-43.5 112q0 73 49.5 113t130.5 40h106q-2 101 -88 101zM223 220q-37 0 -58.5 -22.5t-21.5 -55.5q0 -26 19 -45.5
t52 -19.5q31 0 62 15t56 41v87h-109zM140 687q0 41 30 69t72 28t72 -28t30 -69q0 -40 -30 -66.5t-72 -26.5t-72 26.5t-30 66.5zM201 687q0 -16 12.5 -28t28.5 -12t28 12t12 28q0 17 -11.5 29t-28.5 12t-29 -12t-12 -29z" />
    <glyph glyph-name="ae" unicode="&#xe6;" horiz-adv-x="812" 
d="M449 213q17 -130 155 -130q39 0 69.5 10.5t73.5 32.5l34 -82q-81 -56 -179 -56q-139 0 -210 77q-34 -34 -75.5 -55.5t-100.5 -21.5q-84 0 -127.5 42t-43.5 112q0 73 49.5 113t130.5 40h106q-1 47 -22 74t-66 27q-66 0 -140 -33l-31 92q26 17 80.5 30t88.5 13
q48 0 89.5 -17t69.5 -48q65 65 169 65q107 0 161.5 -72.5t54.5 -183.5v-29h-336zM566 402q-48 0 -77.5 -29.5t-37.5 -84.5h226q-9 55 -37 84.5t-74 29.5zM347 140q-12 36 -15 80h-109q-37 0 -58.5 -22.5t-21.5 -55.5q0 -26 19 -45.5t52 -19.5q48 0 78 16.5t55 46.5z" />
    <glyph glyph-name="ccedilla" unicode="&#xe7;" horiz-adv-x="468" 
d="M306 -11l-10 -25q31 -10 52 -34.5t21 -51.5q0 -48 -36 -73.5t-87 -25.5q-20 0 -47.5 7t-41.5 18l26 68q14 -7 32.5 -13t30.5 -6q16 0 28.5 6t12.5 17q0 18 -25 30.5t-64 16.5l27 68q-92 16 -144.5 83t-52.5 169q0 76 30.5 133.5t87.5 89.5t133 32q34 0 84 -13.5t81 -35.5
l-32 -80q-39 17 -68.5 25t-64.5 8q-60 0 -97.5 -45t-38.5 -114q0 -71 36.5 -115t97.5 -44q37 0 67 8t66 25l33 -82q-25 -18 -63 -30t-74 -16z" />
    <glyph glyph-name="egrave" unicode="&#xe8;" horiz-adv-x="509" 
d="M265 498q107 0 162 -71t55 -181v-33h-336q15 -130 155 -130q39 0 69.5 10.5t73.5 32.5l34 -82q-81 -56 -179 -56q-132 0 -201.5 68.5t-69.5 186.5q0 76 28.5 133.5t82 89.5t126.5 32zM262 402q-48 0 -77.5 -30t-36.5 -84h226q-9 56 -37 85t-75 29zM327 610l-78 -21
l-92 161h118z" />
    <glyph glyph-name="eacute" unicode="&#xe9;" horiz-adv-x="509" 
d="M265 498q107 0 162 -71t55 -181v-33h-336q15 -130 155 -130q39 0 69.5 10.5t73.5 32.5l34 -82q-81 -56 -179 -56q-132 0 -201.5 68.5t-69.5 186.5q0 76 28.5 133.5t82 89.5t126.5 32zM262 402q-48 0 -77.5 -30t-36.5 -84h226q-9 56 -37 85t-75 29zM362 750l-92 -161
l-78 21l53 140h117z" />
    <glyph glyph-name="ecircumflex" unicode="&#xea;" horiz-adv-x="509" 
d="M265 498q107 0 162 -71t55 -181v-33h-336q15 -130 155 -130q39 0 69.5 10.5t73.5 32.5l34 -82q-81 -56 -179 -56q-132 0 -201.5 68.5t-69.5 186.5q0 76 28.5 133.5t82 89.5t126.5 32zM262 402q-48 0 -77.5 -30t-36.5 -84h226q-9 56 -37 85t-75 29zM331 589l-70 76
l-72 -76l-104 13l140 148h68l140 -148z" />
    <glyph glyph-name="edieresis" unicode="&#xeb;" horiz-adv-x="509" 
d="M265 498q107 0 162 -71t55 -181v-33h-336q15 -130 155 -130q39 0 69.5 10.5t73.5 32.5l34 -82q-81 -56 -179 -56q-132 0 -201.5 68.5t-69.5 186.5q0 76 28.5 133.5t82 89.5t126.5 32zM262 402q-48 0 -77.5 -30t-36.5 -84h226q-9 56 -37 85t-75 29zM220 665
q0 -24 -16.5 -41t-41.5 -17t-42.5 17t-17.5 41q0 25 17.5 42.5t42.5 17.5t41.5 -17.5t16.5 -42.5zM403 665q0 -24 -17 -41t-42 -17q-24 0 -42 17t-18 41q0 25 18 42.5t42 17.5q25 0 42 -17.5t17 -42.5z" />
    <glyph glyph-name="igrave" unicode="&#xec;" horiz-adv-x="228" 
d="M171 485v-485h-113v485h113zM180 610l-78 -21l-92 161h118z" />
    <glyph glyph-name="iacute" unicode="&#xed;" horiz-adv-x="228" 
d="M171 485v-485h-113v485h113zM212 750l-92 -161l-78 21l53 140h117z" />
    <glyph glyph-name="icircumflex" unicode="&#xee;" horiz-adv-x="228" 
d="M171 485v-485h-113v485h113zM184 589l-70 76l-72 -76l-104 13l140 148h68l140 -148z" />
    <glyph glyph-name="idieresis" unicode="&#xef;" horiz-adv-x="228" 
d="M171 485v-485h-113v485h113zM73 665q0 -24 -16.5 -41t-41.5 -17t-42.5 17t-17.5 41q0 25 17.5 42.5t42.5 17.5t41.5 -17.5t16.5 -42.5zM256 665q0 -24 -17 -41t-42 -17q-24 0 -42 17t-18 41q0 25 18 42.5t42 17.5q25 0 42 -17.5t17 -42.5z" />
    <glyph glyph-name="eth" unicode="&#xf0;" horiz-adv-x="556" 
d="M529 260q0 -82 -30 -143.5t-87 -95.5t-135 -34q-76 0 -132 32t-86.5 89.5t-30.5 134.5q0 75 30.5 133t86 90t129.5 32q22 0 54 -7q-35 44 -92 89l-128 -67l-42 77l84 43q-26 15 -74 35l39 82q68 -22 139 -63l108 55l42 -75l-69 -36q91 -74 142.5 -170.5t51.5 -200.5z
M413 242q0 68 -19 126q-49 34 -115 34q-60 0 -97.5 -45t-38.5 -114q0 -71 36.5 -115t97.5 -44t98.5 45t37.5 113z" />
    <glyph glyph-name="ntilde" unicode="&#xf1;" horiz-adv-x="553" 
d="M312 406q-61 0 -142 -67v-339h-112v485h75l20 -58q42 34 92 54t94 20q85 0 123 -50.5t38 -138.5v-312h-113v305q0 101 -75 101zM342 677q12 0 20.5 10t9.5 24h72q0 -59 -28.5 -86t-72.5 -27q-19 0 -32 5.5t-27 15.5q-15 9 -24.5 13.5t-24.5 4.5q-11 0 -20.5 -10.5
t-10.5 -23.5h-75q0 59 28.5 85.5t72.5 26.5q20 0 33 -5t28 -15q14 -9 25 -13.5t26 -4.5z" />
    <glyph glyph-name="ograve" unicode="&#xf2;" horiz-adv-x="556" 
d="M277 -13q-76 0 -132 32t-86.5 89.5t-30.5 134.5q0 76 30.5 133.5t87.5 89.5t133 32t132.5 -31.5t87 -89.5t30.5 -134t-31 -134t-88 -90t-133 -32zM413 242q0 71 -36.5 115.5t-97.5 44.5q-60 0 -97.5 -45t-38.5 -114q0 -71 36.5 -115t97.5 -44t98.5 45t37.5 113zM341 610
l-78 -21l-92 161h118z" />
    <glyph glyph-name="oacute" unicode="&#xf3;" horiz-adv-x="556" 
d="M277 -13q-76 0 -132 32t-86.5 89.5t-30.5 134.5q0 76 30.5 133.5t87.5 89.5t133 32t132.5 -31.5t87 -89.5t30.5 -134t-31 -134t-88 -90t-133 -32zM413 242q0 71 -36.5 115.5t-97.5 44.5q-60 0 -97.5 -45t-38.5 -114q0 -71 36.5 -115t97.5 -44t98.5 45t37.5 113zM376 750
l-92 -161l-78 21l53 140h117z" />
    <glyph glyph-name="ocircumflex" unicode="&#xf4;" horiz-adv-x="556" 
d="M277 -13q-76 0 -132 32t-86.5 89.5t-30.5 134.5q0 76 30.5 133.5t87.5 89.5t133 32t132.5 -31.5t87 -89.5t30.5 -134t-31 -134t-88 -90t-133 -32zM413 242q0 71 -36.5 115.5t-97.5 44.5q-60 0 -97.5 -45t-38.5 -114q0 -71 36.5 -115t97.5 -44t98.5 45t37.5 113zM345 589
l-70 76l-72 -76l-104 13l140 148h68l140 -148z" />
    <glyph glyph-name="otilde" unicode="&#xf5;" horiz-adv-x="556" 
d="M277 -13q-76 0 -132 32t-86.5 89.5t-30.5 134.5q0 76 30.5 133.5t87.5 89.5t133 32t132.5 -31.5t87 -89.5t30.5 -134t-31 -134t-88 -90t-133 -32zM413 242q0 71 -36.5 115.5t-97.5 44.5q-60 0 -97.5 -45t-38.5 -114q0 -71 36.5 -115t97.5 -44t98.5 45t37.5 113zM332 677
q12 0 20.5 10t9.5 24h72q0 -59 -28.5 -86t-72.5 -27q-19 0 -32 5.5t-27 15.5q-15 9 -24.5 13.5t-24.5 4.5q-11 0 -20.5 -10.5t-10.5 -23.5h-75q0 59 28.5 85.5t72.5 26.5q20 0 33 -5t28 -15q14 -9 25 -13.5t26 -4.5z" />
    <glyph glyph-name="odieresis" unicode="&#xf6;" horiz-adv-x="556" 
d="M277 -13q-76 0 -132 32t-86.5 89.5t-30.5 134.5q0 76 30.5 133.5t87.5 89.5t133 32t132.5 -31.5t87 -89.5t30.5 -134t-31 -134t-88 -90t-133 -32zM413 242q0 71 -36.5 115.5t-97.5 44.5q-60 0 -97.5 -45t-38.5 -114q0 -71 36.5 -115t97.5 -44t98.5 45t37.5 113zM234 665
q0 -24 -16.5 -41t-41.5 -17t-42.5 17t-17.5 41q0 25 17.5 42.5t42.5 17.5t41.5 -17.5t16.5 -42.5zM417 665q0 -24 -17 -41t-42 -17q-24 0 -42 17t-18 41q0 25 18 42.5t42 17.5q25 0 42 -17.5t17 -42.5z" />
    <glyph glyph-name="divide" unicode="&#xf7;" horiz-adv-x="506" 
d="M324 431q0 -29 -21 -50t-51 -21t-51 21t-21 50q0 30 21 51t51 21t51 -21t21 -51zM30 318h436l10 -89h-437zM325 104q0 -29 -21.5 -50.5t-51.5 -21.5q-29 0 -50 21.5t-21 50.5q0 30 21 51t50 21q30 0 51.5 -21t21.5 -51z" />
    <glyph glyph-name="oslash" unicode="&#xf8;" horiz-adv-x="563" 
d="M529 243q0 -76 -31 -134t-88 -90t-133 -32t-132 32t-86.5 89.5t-30.5 134.5q0 76 30.5 133.5t87.5 89.5t133 32t132.5 -31.5t87 -89.5t30.5 -134zM143 243q0 -64 29 -105l143 259q-18 5 -36 5q-60 0 -97.5 -45t-38.5 -114zM413 242q0 53 -22 94l-140 -250q16 -2 26 -2
q61 0 98.5 45t37.5 113z" />
    <glyph glyph-name="ugrave" unicode="&#xf9;" horiz-adv-x="553" 
d="M241 79q61 0 142 67v339h113v-485h-76l-20 58q-42 -34 -92 -54t-94 -20q-160 0 -160 189v312h112v-305q0 -101 75 -101zM340 610l-78 -21l-92 161h118z" />
    <glyph glyph-name="uacute" unicode="&#xfa;" horiz-adv-x="553" 
d="M241 79q61 0 142 67v339h113v-485h-76l-20 58q-42 -34 -92 -54t-94 -20q-160 0 -160 189v312h112v-305q0 -101 75 -101zM374 750l-92 -161l-78 21l53 140h117z" />
    <glyph glyph-name="ucircumflex" unicode="&#xfb;" horiz-adv-x="553" 
d="M241 79q61 0 142 67v339h113v-485h-76l-20 58q-42 -34 -92 -54t-94 -20q-160 0 -160 189v312h112v-305q0 -101 75 -101zM344 589l-70 76l-72 -76l-104 13l140 148h68l140 -148z" />
    <glyph glyph-name="udieresis" unicode="&#xfc;" horiz-adv-x="553" 
d="M241 79q61 0 142 67v339h113v-485h-76l-20 58q-42 -34 -92 -54t-94 -20q-160 0 -160 189v312h112v-305q0 -101 75 -101zM232 665q0 -24 -16.5 -41t-41.5 -17t-42.5 17t-17.5 41q0 25 17.5 42.5t42.5 17.5t41.5 -17.5t16.5 -42.5zM415 665q0 -24 -17 -41t-42 -17
q-24 0 -42 17t-18 41q0 25 18 42.5t42 17.5q25 0 42 -17.5t17 -42.5z" />
    <glyph glyph-name="yacute" unicode="&#xfd;" horiz-adv-x="488" 
d="M477 485l-187 -485v-230h-100v230l-180 467l109 36l123 -341l118 323h117zM336 750l-92 -161l-78 21l53 140h117z" />
    <glyph glyph-name="thorn" unicode="&#xfe;" horiz-adv-x="541" 
d="M514 241q0 -75 -30 -132.5t-85.5 -89.5t-129.5 -32q-18 0 -43.5 7t-49.5 20v-222l-112 -11v914l112 11v-235q50 27 95 27q74 0 129 -31.5t84.5 -89.5t29.5 -136zM398 241q0 72 -34 116.5t-95 44.5q-50 0 -93 -32v-256q40 -30 93 -30q60 0 94.5 44t34.5 113z" />
    <glyph glyph-name="ydieresis" unicode="&#xff;" horiz-adv-x="488" 
d="M477 485l-187 -485v-230h-100v230l-180 467l109 36l123 -341l118 323h117zM194 665q0 -24 -16.5 -41t-41.5 -17t-42.5 17t-17.5 41q0 25 17.5 42.5t42.5 17.5t41.5 -17.5t16.5 -42.5zM377 665q0 -24 -17 -41t-42 -17q-24 0 -42 17t-18 41q0 25 18 42.5t42 17.5
q25 0 42 -17.5t17 -42.5z" />
    <glyph glyph-name="dotlessi" unicode="&#x131;" horiz-adv-x="228" 
d="M171 485v-485h-113v485h113z" />
    <glyph glyph-name="Lslash" unicode="&#x141;" horiz-adv-x="535" 
d="M55 193l-45 77l78 61v349h112v-262l108 85l45 -77l-153 -120v-218h303l16 -88h-431v219z" />
    <glyph glyph-name="lslash" unicode="&#x142;" horiz-adv-x="343" 
d="M228 469l69 55l46 -76l-115 -91v-357h-112v269l-71 -55l-45 77l116 91v313l112 11v-237z" />
    <glyph glyph-name="OE" unicode="&#x152;" horiz-adv-x="968" 
d="M495 9q-74 -23 -138 -23q-102 0 -174 46.5t-108.5 126t-36.5 177.5q0 103 40 184.5t113.5 127.5t171.5 46q25 0 61.5 -6t70.5 -17v9h394l17 -88h-299v-203h227l17 -88h-244v-213h325l16 -88h-453v9zM495 109v465q-46 14 -71 19.5t-64 5.5q-58 0 -104.5 -32.5t-73.5 -92
t-27 -137.5q0 -71 23.5 -129t68 -92.5t105.5 -34.5q72 0 143 28z" />
    <glyph glyph-name="oe" unicode="&#x153;" horiz-adv-x="826" 
d="M463 213q15 -130 154 -130q39 0 70 10.5t74 32.5l34 -82q-82 -56 -179 -56q-108 0 -174 46q-31 -21 -81 -34t-84 -13q-76 0 -132 32t-86.5 89.5t-30.5 134.5q0 76 30.5 133.5t87.5 89.5t133 32q32 0 79 -12t79 -32q60 44 145 44q107 0 161.5 -71t54.5 -181v-33h-335z
M277 84q52 0 101 19q-34 58 -34 140q0 81 32 140q-47 19 -97 19q-60 0 -97.5 -45t-38.5 -114q0 -71 36.5 -115t97.5 -44zM579 402q-48 0 -77.5 -30t-37.5 -84h227q-20 114 -112 114z" />
    <glyph glyph-name="Scaron" unicode="&#x160;" horiz-adv-x="522" 
d="M197 900l71 -76l71 76l102 -13l-139 -148h-69l-140 148zM245 -13q-43 0 -106 17.5t-89 36.5l25 90q34 -17 81 -31t88 -14q66 0 101 22.5t35 63.5q0 26 -19 47.5t-48.5 38.5t-85.5 45q-94 48 -141.5 95.5t-47.5 118.5q0 51 27.5 91.5t79 64t121.5 23.5q47 0 95.5 -13.5
t90.5 -34.5l-38 -89q-38 18 -70.5 28t-73.5 10q-52 0 -85 -20t-33 -59q0 -28 17.5 -49.5t46 -38t89.5 -47.5q64 -33 102.5 -59.5t63 -64t24.5 -87.5q0 -54 -29 -96t-85.5 -65.5t-135.5 -23.5z" />
    <glyph glyph-name="scaron" unicode="&#x161;" horiz-adv-x="421" 
d="M194 -13q-36 0 -84.5 12.5t-78.5 34.5l34 78q69 -33 129 -33q38 0 65 14t27 38q0 44 -96 75q-160 52 -160 148q0 67 50 105.5t136 38.5q34 0 81.5 -13t79.5 -35l-35 -76q-35 16 -64.5 24.5t-63.5 8.5q-31 0 -52 -15t-21 -37q1 -17 24 -31t64 -28q165 -59 165 -160
q0 -71 -51.5 -110t-148.5 -39zM146 750l71 -76l71 76l102 -13l-139 -148h-69l-140 148z" />
    <glyph glyph-name="Ydieresis" unicode="&#x178;" horiz-adv-x="593" 
d="M255 815q0 -24 -16.5 -41t-41.5 -17t-42.5 17t-17.5 41q0 25 17.5 42.5t42.5 17.5t41.5 -17.5t16.5 -42.5zM438 815q0 -24 -17 -41t-42 -17q-24 0 -42 17t-18 41q0 25 18 42.5t42 17.5q25 0 42 -17.5t17 -42.5zM347 266l-1 -266h-112v268l-224 392l110 36l169 -315
l175 299h119z" />
    <glyph glyph-name="Zcaron" unicode="&#x17d;" horiz-adv-x="570" 
d="M226 900l71 -76l71 76l102 -13l-139 -148h-69l-140 148zM140 88h399l12 -88h-520l-13 88l401 503h-359l-14 89h490l13 -89z" />
    <glyph glyph-name="zcaron" unicode="&#x17e;" horiz-adv-x="438" 
d="M32 485h379l6 -63l-261 -332h257l10 -90h-393l-14 59l257 334h-218zM150 750l71 -76l71 76l102 -13l-139 -148h-69l-140 148z" />
    <glyph glyph-name="florin" unicode="&#x192;" horiz-adv-x="407" 
d="M73 393v86h74v53q0 78 45.5 124t125.5 46q22 0 48.5 -7.5t40.5 -18.5l-30 -84q-34 12 -51 12q-34 0 -50 -23t-16 -63v-39h91l36 -86h-127v-332q0 -78 -45 -123.5t-125 -45.5q-22 0 -49 7.5t-41 18.5l30 83q34 -12 51 -12q34 0 50 22.5t16 62.5v319h-74z" />
    <glyph glyph-name="circumflex" unicode="&#x2c6;" horiz-adv-x="368" 
d="M256 589l-70 76l-72 -76l-104 13l140 148h68l140 -148z" />
    <glyph glyph-name="caron" unicode="&#x2c7;" horiz-adv-x="368" 
d="M114 750l71 -76l71 76l102 -13l-139 -148h-69l-140 148z" />
    <glyph glyph-name="breve" unicode="&#x2d8;" horiz-adv-x="305" 
d="M152 673q32 0 49.5 22.5t17.5 51.5h76q0 -65 -36.5 -109.5t-106.5 -45.5q-69 1 -105.5 45.5t-36.5 109.5h78q0 -30 16 -52t48 -22z" />
    <glyph glyph-name="dotaccent" unicode="&#x2d9;" horiz-adv-x="153" 
d="M143 666q0 -27 -19 -46.5t-47 -19.5t-47.5 19.5t-19.5 46.5q0 28 19.5 48t47.5 20t47 -20t19 -48z" />
    <glyph glyph-name="ring" unicode="&#x2da;" horiz-adv-x="224" 
d="M10 687q0 41 30 69t72 28t72 -28t30 -69q0 -40 -30 -66.5t-72 -26.5t-72 26.5t-30 66.5zM71 687q0 -16 12.5 -28t28.5 -12t28 12t12 28q0 17 -11.5 29t-28.5 12t-29 -12t-12 -29z" />
    <glyph glyph-name="ogonek" unicode="&#x2db;" horiz-adv-x="229" 
d="M10 -99q0 23 13.5 54.5t29.5 48.5h103q-18 -15 -34.5 -44t-16.5 -49q0 -16 9.5 -25.5t26.5 -9.5q9 0 21.5 5t23.5 13l33 -69q-41 -32 -96 -32q-50 0 -81.5 31t-31.5 77z" />
    <glyph glyph-name="tilde" unicode="&#x2dc;" horiz-adv-x="335" 
d="M223 677q12 0 20.5 10t9.5 24h72q0 -59 -28.5 -86t-72.5 -27q-19 0 -32 5.5t-27 15.5q-15 9 -24.5 13.5t-24.5 4.5q-11 0 -20.5 -10.5t-10.5 -23.5h-75q0 59 28.5 85.5t72.5 26.5q20 0 33 -5t28 -15q14 -9 25 -13.5t26 -4.5z" />
    <glyph glyph-name="hungarumlaut" unicode="&#x2dd;" horiz-adv-x="373" 
d="M180 750l-92 -161l-78 21l53 140h117zM363 750l-93 -161l-78 21l53 140h118z" />
    <glyph glyph-name="endash" unicode="&#x2013;" horiz-adv-x="441" 
d="M30 318h371l10 -89h-371z" />
    <glyph glyph-name="emdash" unicode="&#x2014;" horiz-adv-x="545" 
d="M30 318h476l9 -89h-475z" />
    <glyph glyph-name="quoteleft" unicode="&#x2018;" horiz-adv-x="198" 
d="M159 524q0 -26 -19.5 -46.5t-46.5 -20.5q-29 0 -48.5 23t-19.5 58q0 54 35 110t86 84l27 -53q-31 -25 -46 -43t-20 -46q18 0 35 -21t17 -45z" />
    <glyph glyph-name="quoteright" unicode="&#x2019;" horiz-adv-x="197" 
d="M32 664q0 25 19.5 46.5t46.5 21.5q28 0 48.5 -23t20.5 -58q0 -54 -35 -110t-87 -84l-25 53q30 26 44.5 43.5t19.5 45.5q-18 1 -35 21t-17 44z" />
    <glyph glyph-name="quotesinglbase" unicode="&#x201a;" horiz-adv-x="197" 
d="M32 66q0 26 19.5 46.5t46.5 20.5q28 0 48.5 -23t20.5 -58q0 -53 -35 -109.5t-87 -84.5l-25 53q30 26 44.5 43.5t19.5 45.5q-18 1 -35 21.5t-17 44.5z" />
    <glyph glyph-name="quotedblleft" unicode="&#x201c;" horiz-adv-x="373" 
d="M164 524q0 -26 -19.5 -46.5t-46.5 -20.5q-29 0 -48.5 23t-19.5 58q0 54 35 110t86 84l27 -53q-31 -25 -46 -43t-20 -46q18 0 35 -21t17 -45zM340 524q0 -25 -20.5 -46t-47.5 -21q-28 0 -47.5 23t-19.5 58q0 54 35 110t86 84l27 -53q-30 -24 -45 -42.5t-20 -46.5
q17 0 34.5 -21t17.5 -45z" />
    <glyph glyph-name="quotedblright" unicode="&#x201d;" horiz-adv-x="371" 
d="M32 664q0 25 19.5 46.5t46.5 21.5q28 0 48.5 -23t20.5 -58q0 -54 -35 -110t-87 -84l-25 53q30 26 44.5 43.5t19.5 45.5q-18 1 -35 21t-17 44zM207 664q0 25 20 46.5t47 21.5q28 0 47.5 -23t19.5 -58q0 -54 -34.5 -110t-85.5 -84l-27 53q31 25 46 43t20 46q-19 1 -36 21
t-17 44z" />
    <glyph glyph-name="quotedblbase" unicode="&#x201e;" horiz-adv-x="371" 
d="M32 66q0 26 19.5 46.5t46.5 20.5q28 0 48.5 -23t20.5 -58q0 -53 -35 -109.5t-87 -84.5l-25 54q31 26 45 43.5t19 44.5q-18 1 -35 21.5t-17 44.5zM207 66q0 25 20 46t47 21q28 0 47.5 -23t19.5 -58q0 -53 -34.5 -109.5t-85.5 -84.5l-27 53q31 25 46 43t20 46
q-19 1 -36 21.5t-17 44.5z" />
    <glyph glyph-name="dagger" unicode="&#x2020;" horiz-adv-x="427" 
d="M155 625v158l121 -3v-155h103l18 -103h-121l-11 -526l-100 4l-10 522h-106l-19 103h125z" />
    <glyph glyph-name="daggerdbl" unicode="&#x2021;" horiz-adv-x="437" 
d="M278 162l5 -161l-130 -7l5 168h-109l-19 103h125l3 246h-109l-19 103h130l-5 169l130 -3l-4 -166h108l18 -103h-125l-1 -246h108l18 -103h-129z" />
    <glyph glyph-name="bullet" unicode="&#x2022;" horiz-adv-x="263" 
d="M233 329q0 -42 -29.5 -71t-72.5 -29q-42 0 -71.5 29t-29.5 71q0 41 29.5 71t71.5 30q43 0 72.5 -29.5t29.5 -71.5z" />
    <glyph glyph-name="ellipsis" unicode="&#x2026;" horiz-adv-x="513" 
d="M153 60q0 -25 -17.5 -42.5t-43.5 -17.5t-44 17.5t-18 42.5q0 26 18 44.5t44 18.5q25 0 43 -18.5t18 -44.5zM319 60q0 -25 -17.5 -42.5t-42.5 -17.5q-26 0 -44 17.5t-18 42.5q0 26 18 44.5t44 18.5q25 0 42.5 -18.5t17.5 -44.5zM483 60q0 -25 -17.5 -42.5t-43.5 -17.5
t-43.5 17.5t-17.5 42.5q0 26 18 44.5t43 18.5t43 -18.5t18 -44.5z" />
    <glyph glyph-name="perthousand" unicode="&#x2030;" horiz-adv-x="1287" 
d="M247 0l300 710l113 -4l-301 -710zM28 532q0 50 22.5 89t60 60t80.5 21q44 0 81.5 -20.5t59.5 -59t22 -90.5q0 -50 -22.5 -88.5t-60 -59.5t-80.5 -21q-44 0 -81 20.5t-59.5 58.5t-22.5 90zM258 532q0 42 -19 64.5t-48 22.5q-27 0 -46.5 -22.5t-19.5 -63.5
q0 -43 18.5 -65.5t47.5 -22.5q27 0 47 22.5t20 64.5zM555 169q0 51 22.5 89.5t60 59t81.5 20.5t80.5 -20t58.5 -58.5t22 -90.5q0 -50 -22.5 -88.5t-59.5 -59.5t-79 -21q-44 0 -81.5 20t-60 58.5t-22.5 90.5zM933 169q0 51 22.5 89.5t60 59t81.5 20.5q43 0 80.5 -20t60 -58.5
t22.5 -90.5q0 -50 -23 -88.5t-60.5 -59.5t-79.5 -21q-45 0 -82.5 20t-59.5 58.5t-22 90.5zM785 169q0 41 -19 64t-47 23q-27 0 -47 -22.5t-20 -63.5q0 -43 19 -66t48 -23q27 0 46.5 23t19.5 65zM1162 169q0 41 -18.5 64t-46.5 23q-27 0 -47.5 -22.5t-20.5 -63.5
q0 -43 19 -66t49 -23q27 0 46 23t19 65z" />
    <glyph glyph-name="guilsinglleft" unicode="&#x2039;" horiz-adv-x="227" 
d="M185 83l-155 138v48l155 139l22 -80l-88 -83l88 -83z" />
    <glyph glyph-name="guilsinglright" unicode="&#x203a;" horiz-adv-x="227" 
d="M42 408l155 -139v-48l-155 -138l-22 79l87 83l-87 83z" />
    <glyph glyph-name="fraction" unicode="&#x2044;" horiz-adv-x="436" 
d="M10 0l301 710l115 -4l-302 -710z" />
    <glyph glyph-name="Euro" unicode="&#x20ac;" horiz-adv-x="612" 
d="M408 -14q-116 0 -194 60t-108 161h-95l-11 84h90q-2 30 -2 45q0 26 3 50h-80l-11 83h108q32 104 112.5 164.5t193.5 60.5q36 0 87.5 -11t88.5 -31l-35 -81q-54 17 -78.5 22.5t-65.5 5.5q-59 0 -107.5 -34.5t-73.5 -95.5h212l9 -83h-243q-3 -24 -3 -49q0 -23 3 -46h234
l9 -84h-222q24 -58 69 -92t105 -34q78 0 149 31l43 -84q-36 -18 -89.5 -30t-97.5 -12z" />
    <glyph glyph-name="trademark" unicode="&#x2122;" horiz-adv-x="753" 
d="M10 680h314l10 -65h-126v-310h-82v310h-116v65zM633 499l-69 -91l-24 -4l-85 103v-202h-83v375h40l138 -172l128 172h38v-375h-83v194z" />
    <glyph glyph-name="minus" unicode="&#x2212;" horiz-adv-x="478" 
d="M30 318h407l11 -89h-410z" />
    <glyph glyph-name="fi" unicode="&#xfb01;" horiz-adv-x="576" 
d="M88 395h-74v86h74v51q0 79 45.5 124.5t125.5 45.5q22 0 48.5 -7.5t40.5 -18.5l-31 -84q-32 12 -50 12q-34 0 -50 -23t-16 -63v-37h90l36 -86h-126v-625h-113v625zM528 630q0 -28 -19.5 -47.5t-47.5 -19.5t-46.5 19.5t-18.5 47.5q0 27 19 46.5t46 19.5q28 0 47.5 -19.5
t19.5 -46.5zM519 485v-485h-113v485h113z" />
    <glyph glyph-name="fl" unicode="&#xfb02;" horiz-adv-x="595" 
d="M88 395h-74v86h74v51q0 79 45.5 124.5t125.5 45.5q22 0 48.5 -7.5t40.5 -18.5l-31 -84q-32 12 -50 12q-34 0 -50 -23t-16 -63v-37h90l36 -86h-126v-625h-113v625zM528 706v-706h-112v695z" />
  </font>
</defs>
</svg>
