<svg xmlns="http://www.w3.org/2000/svg" viewBox="0 0 599.64 221.43"><g data-name="Camada 2"><path d="M189.5 69.83h71.88v71.88H189.5zm106.26 0h71.88v71.88h-71.88zm106.25 0h71.88v71.88h-71.88z" fill="#da911f"/><path d="M31.42 98.29A70.1 70.1 0 0 1 15 96.07 54.18 54.18 0 0 1 .42 90.65L8.76 71.6a44.73 44.73 0 0 0 10.36 4.1 43.24 43.24 0 0 0 11.61 1.88 15.42 15.42 0 0 0 8.89-2.3Q43 73 43 70.21c0-1.2-.81-2.39-2.43-3.55s-4.24-2.8-7.86-4.93l-4.31-2.5Q18.91 53.67 13.63 50a39.07 39.07 0 0 1-9.46-9.52A22.2 22.2 0 0 1 0 27.25a23.58 23.58 0 0 1 4.38-14 28.82 28.82 0 0 1 12.3-9.67A45.86 45.86 0 0 1 35.17.14 55.68 55.68 0 0 1 50 2.22a44.86 44.86 0 0 1 13 5.7L55.47 25a104.94 104.94 0 0 0-11.33-3.34 41.94 41.94 0 0 0-8.69-.84 10.85 10.85 0 0 0-6.74 1.95 5.75 5.75 0 0 0-2.57 4.73 4.54 4.54 0 0 0 2.15 3.68 60.58 60.58 0 0 0 7.16 4.24l5 2.78a161.16 161.16 0 0 1 14.59 9.25 43.36 43.36 0 0 1 10 10 21.93 21.93 0 0 1 4.1 13 23.59 23.59 0 0 1-4.59 14.32 30.58 30.58 0 0 1-13.14 9.87 50.93 50.93 0 0 1-19.99 3.65zm44.63-48.66A52.21 52.21 0 0 1 82.3 24 44.84 44.84 0 0 1 99.68 6.33 50 50 0 0 1 124.85 0q15 0 26.06 6.4a43.45 43.45 0 0 1 17 17.51 52.06 52.06 0 0 1 5.91 24.75 53 53 0 0 1-6.19 25.79 44.43 44.43 0 0 1-17.31 17.66 50.54 50.54 0 0 1-25.44 6.32q-14.75 0-25.79-6.46A44.31 44.31 0 0 1 82 74.38a51.36 51.36 0 0 1-5.95-24.75zm49.08-28.5a20.12 20.12 0 0 0-11.61 3.55 24.86 24.86 0 0 0-8.35 10 33.64 33.64 0 0 0-3.12 14.8q0 12.24 6 20t16.62 7.79a21 21 0 0 0 16.61-7.44q6.47-7.44 6.47-21.2 0-12.09-6.19-19.81a20 20 0 0 0-16.43-7.69zm139.72 47.13q0 15-11.34 21.62t-28.7 6.61h-35.73V2H222q16.82 0 27.87 6.81T261 29.2a17.56 17.56 0 0 1-2.36 9 40.72 40.72 0 0 1-6.4 8.07 31.23 31.23 0 0 1 9.2 9.73 23.46 23.46 0 0 1 3.41 12.26zm-30-37.81a7.11 7.11 0 0 0-3.62-6.4q-3.62-2.22-10-2.22h-6.81v16h5.7a26 26 0 0 0 10.5-1.88c2.78-1.26 4.2-3.09 4.2-5.5zm3.89 37.26a8.61 8.61 0 0 0-3.62-7.37q-3.61-2.64-10-2.64h-10.7v18.9h11q6.12 0 9.73-2.29a7.37 7.37 0 0 0 3.56-6.6zm40.01 28.78V2h39.76q17 0 27.94 8.06t11 24.19A30.5 30.5 0 0 1 354 48.87a28.8 28.8 0 0 1-9.38 10.36l20.88 37.26h-29.33l-15.3-29.76h-16.82v29.76zM331.3 34.2q0-6.12-3.55-9.24t-10.08-3.13h-13.62v25H318a13.44 13.44 0 0 0 9.6-3.54 12 12 0 0 0 3.7-9.09zm113.58 42.4l2.37 19.89H378V2h66.87l2.37 19.88h-43.92v17.19h29.05L434.74 59h-31.42v17.6zm-95.63 93.11v49.78H324V125h23.5l36.42 51.3V125h25.31v94.54h-23.69zm75.22 2.92a52.21 52.21 0 0 1 6.25-25.63 44.84 44.84 0 0 1 17.38-17.65 50 50 0 0 1 25.17-6.35q15 0 26.06 6.4a43.45 43.45 0 0 1 17 17.51 52.06 52.06 0 0 1 5.91 24.75 53 53 0 0 1-6.24 25.79 44.43 44.43 0 0 1-17.31 17.66 50.54 50.54 0 0 1-25.44 6.32q-14.75 0-25.79-6.46a44.31 44.31 0 0 1-17-17.59 51.36 51.36 0 0 1-5.99-24.75zm49.07-28.5a20.11 20.11 0 0 0-11.6 3.55 24.86 24.86 0 0 0-8.35 10 33.64 33.64 0 0 0-3.12 14.8q0 12.24 6 20t16.62 7.79a21 21 0 0 0 16.61-7.44q6.47-7.44 6.47-21.2 0-12.09-6.19-19.81a20.05 20.05 0 0 0-16.44-7.69zm21.69-54.22l-15.85 27.67-18.38-3.06 9.18-24.61zM562 221.29a70.17 70.17 0 0 1-16.47-2.22 54.44 54.44 0 0 1-14.53-5.42l8.34-19.05a45.1 45.1 0 0 0 10.36 4.1 43.24 43.24 0 0 0 11.61 1.88 15.45 15.45 0 0 0 8.9-2.3q3.33-2.29 3.33-5.07c0-1.2-.81-2.39-2.43-3.55s-4.24-2.8-7.85-4.93l-4.31-2.5q-9.46-5.56-14.74-9.25a39.43 39.43 0 0 1-9.46-9.52 22.2 22.2 0 0 1-4.17-13.21 23.58 23.58 0 0 1 4.38-14 28.8 28.8 0 0 1 12.31-9.67 45.79 45.79 0 0 1 18.49-3.47 55.61 55.61 0 0 1 14.8 2.08 44.74 44.74 0 0 1 13 5.7L586 148a105.61 105.61 0 0 0-11.33-3.34 42 42 0 0 0-8.69-.84 10.9 10.9 0 0 0-6.75 2 5.78 5.78 0 0 0-2.57 4.73 4.55 4.55 0 0 0 2.16 3.68 58.93 58.93 0 0 0 7.16 4.24l5 2.78a161.48 161.48 0 0 1 14.6 9.25 43.51 43.51 0 0 1 9.94 10 21.93 21.93 0 0 1 4.1 13 23.59 23.59 0 0 1-4.59 14.32 30.54 30.54 0 0 1-13.13 9.87 51 51 0 0 1-19.9 3.6z" fill="#fff"/></g></svg>