<svg id="Camada_1" xmlns="http://www.w3.org/2000/svg" viewBox="0 0 1471.6 713"><style>.st0{fill:none;stroke:#fff;stroke-width:17;stroke-miterlimit:10}</style><g id="Camada_2"><g id="Camada_2-2"><path class="st0" d="M631 105.1h35.7l16.4 30.5H631m-243.9-30.5h-35.7L335 135.6h52.1"/><path class="st0" d="M6.6 707.6l136-169 100-54 42-158 2-8.1h153.9v-21.7h26v-154h-86.3v-46h89.4L487 63.9V30.4l19.9-19.3 21.7 16.2.7 36L546 96.8h93V144h-94.2v154.1H574v20.4h104.9v31.7l101.9 153.4h59.8l98 98"/><path class="st0" d="M250.1 456.5l-69.5-96.9L0 277m334.6 366.6l111-134 164-21 210 125m116.5-30.5l91-62 181 19 86-19 173 108"/></g></g></svg>