<svg xmlns="http://www.w3.org/2000/svg" viewBox="0 0 181.19 67.03"><defs><style>.cls-1{fill:#edebeb}.cls-2{fill:#31509e}</style></defs><g id="Camada_2" data-name="Camada 2"><g id="Camada_1-2" data-name="Camada 1"><path class="cls-1" d="M16 14.1a143.79 143.79 0 0 1 26.56 17.11c.42.35.53 1.31 0 1.12a29.46 29.46 0 0 0 .06-14.57c2.56 4.72-1.4 10.66 0 15.84a92.58 92.58 0 0 1-15.02-4.43"/><path class="cls-2" d="M15 15.72c4.46 2.25 8.81 4.67 13 7.35 2 1.26 4 2.56 5.9 3.93 2.12 1.5 6.3 3.61 7.4 5.93l.29-2.27-.33.35 3.13 1.83a35 35 0 0 0 .06-15.57l-3.62 1c2.06 5-.95 10.57 0 15.84l2.31-2.31a103.73 103.73 0 0 1-15.07-4.43c-2.26-.86-3.23 2.77-1 3.61a102.77 102.77 0 0 0 15.06 4.44 1.91 1.91 0 0 0 2.31-2.31c-1-5.44 2.2-10.5 0-15.84a1.88 1.88 0 0 0-3.62 1 30.18 30.18 0 0 1-.06 13.57c-.39 1.75 1.8 3.26 3.14 1.83l.33-.36a2 2 0 0 0 .3-2.27c-1.77-3.77-8.33-7.04-11.64-9.28a149.61 149.61 0 0 0-16-9.28c-2.14-1.09-4.05 2.15-1.89 3.24z"/><path class="cls-1" d="M149.61 3.23a75.15 75.15 0 0 0-22.42 24l-4.65-8.6a16.19 16.19 0 0 1 3.46 7.46c.23 1.3.68 3 2 3a2.57 2.57 0 0 0 1.1-.31l24.84-11"/><path class="cls-2" d="M148.66 1.61a80.57 80.57 0 0 0-23.09 24.63h3.24l-4.65-8.61-3.24 1.9a21 21 0 0 1 3.28 7.06 7.92 7.92 0 0 0 1.07 2.82c1.17 1.54 2.5 1.72 4.33 1.21 3.73-1 7.54-3.32 11.09-4.89l14.2-6.27c2.2-1 .29-4.21-1.9-3.24l-18.63 8.23c-1.18.52-3.22 1.86-4.43 2-2.26.18-1.46.16-2.31-1.63-1.21-2.61-1.65-4.71-3.46-7.15-1.41-1.89-4.41-.28-3.24 1.9l4.65 8.6a1.9 1.9 0 0 0 3.24 0 75.91 75.91 0 0 1 21.75-23.32c2-1.37.09-4.62-1.9-3.24z"/><path class="cls-1" d="M80.13 21.6a123.46 123.46 0 0 1 7.16-19.74 121.73 121.73 0 0 0 9.3 25.84c.21.42.47.89.92 1 .72.19 1.35-.68 1.23-1.4a3.21 3.21 0 0 0-1.27-1.75C90.69 19.87 82 17 73.62 14.3A73 73 0 0 1 104.29 5c-.78 3.52-4.11 5.79-7.21 7.63A256.59 256.59 0 0 1 71.7 25.8"/><path class="cls-2" d="M81.94 22.1a130.57 130.57 0 0 1 7-19.29l-3.43-.45a128.74 128.74 0 0 0 7.17 21.29c.83 1.91 3.63 10.13 7.26 5.84 5.92-7-22.12-15.81-25.79-17l.45 3.42a74.14 74.14 0 0 1 29.72-9.08l-1.81-2.38c-1.8 5.6-9.87 8.63-14.64 11.23q-8.39 4.56-17.08 8.5c-2.2 1-.29 4.23 1.89 3.24 7.53-3.44 14.91-7.18 22.08-11.3 4.7-2.69 9.61-5.22 11.37-10.67a1.88 1.88 0 0 0-1.81-2.37 78.67 78.67 0 0 0-31.62 9.6 1.89 1.89 0 0 0 .45 3.42c3.7 1.2 7.41 2.4 11 3.88a57.19 57.19 0 0 1 7 3.42c1.46.87 4.49 4.08 6 3.42q2.17.33.24-1.72c-.53-1.11-1-2.22-1.53-3.34Q94.34 18.2 93 14.54a131.17 131.17 0 0 1-3.9-13.18c-.36-1.47-2.75-1.94-3.43-.45a138 138 0 0 0-7.35 20.19c-.64 2.33 3 3.33 3.62 1z"/><path class="cls-1" d="M12.37 62.34a110.16 110.16 0 0 0-6.86-14.89c3.23 1.94 6.47 3.88 9.54 6.08 4 2.86 7.9 6.22 12.69 7.4l-25.9-3.49 18.81-9.65L7.78 65.28"/><path class="cls-2" d="M14.18 61.84a129.56 129.56 0 0 0-7-15.34l-2.62 2.57C12 53.51 18.91 60.23 27.24 62.74l1-3.62-25.9-3.49.45 3.43 18.81-9.65-2.6-2.57L6.16 64.33c-1.43 2 1.82 3.82 3.24 1.89l12.87-17.48c1.2-1.63-1.05-3.34-2.56-2.57L.89 55.82c-1.33.68-1.17 3.21.45 3.42l25.9 3.5c2.31.31 3.38-2.9 1-3.62-7.86-2.36-14.8-9.12-21.79-13.29a1.89 1.89 0 0 0-2.56 2.57 119.45 119.45 0 0 1 6.67 14.44c.86 2.23 4.48 1.26 3.62-1z"/><path class="cls-1" d="M168.82 58.7a110.29 110.29 0 0 1 6.86-14.9c-3.23 2-6.47 3.89-9.54 6.08-4 2.87-7.9 6.23-12.69 7.41l25.9-3.5-18.81-9.64 12.87 17.48"/><path class="cls-2" d="M170.63 59.2a119.59 119.59 0 0 1 6.67-14.45 1.88 1.88 0 0 0-2.56-2.56c-7 4.2-13.94 10.93-21.78 13.29-2.39.71-1.33 3.93 1 3.61l25.9-3.49c1.61-.22 1.79-2.74.45-3.43l-18.82-9.64c-1.51-.78-3.76.93-2.56 2.56l12.87 17.49c1.41 1.92 4.67.05 3.24-1.89L162.16 43.2l-2.57 2.57 18.81 9.64.45-3.43-25.85 3.5 1 3.61c8.34-2.5 15.29-9.23 22.68-13.67l-2.56-2.56A126.62 126.62 0 0 0 167 58.2c-.86 2.26 2.76 3.23 3.62 1z"/></g></g></svg>