<svg xmlns="http://www.w3.org/2000/svg" viewBox="0 0 750.21 280.8"><g data-name="Camada 2"><g data-name="Camada 4"><path d="M194.25 45.3h292v88h-292zm83.5 147.5h95v88h-95zm132 0h95v88h-95zm132 0h95v88h-95z" fill="#da911f"/><path d="M68.54 74.66l2.37 19.88H1.67V0h66.87l2.37 19.88H27v17.24h29L58.4 57H27v17.66zm41.57-29.89v49.77h-25.3V0h23.5l36.42 51.3V0H170v94.54h-23.6zM182.55 0h80.91l2.36 19.88h-30.17v74.66h-25.3V19.88h-27.8zm95.78 94.54V0h39.77Q335 0 346 8.06t11 24.19a30.44 30.44 0 0 1-3.4 14.67 28.74 28.74 0 0 1-9.39 10.36l20.86 37.26h-29.32l-15.29-29.75h-16.82v29.75zm52.56-62.29c0-4.07-1.19-7.16-3.55-9.24s-5.72-3.13-10.08-3.13h-13.62v25h13.9a13.42 13.42 0 0 0 9.59-3.55 12 12 0 0 0 3.76-9.08zm113.58 42.41l2.36 19.88H377.6V0h66.87l2.36 19.88H402.9v17.24H432L434.32 57H402.9v17.66zM56.82 206.93l2 16.89H0V143.5h56.82l2 16.89H21.5V175h24.69l2 16.89H21.5v15zm67.8-21.93l-10.87 14.65-8.62 1.18L92.14 185v38.86h-21.5V143.5H85.4l24.22 30.59 22.21-30.59h14.29v80.32h-21.5zm101.71-43a47.41 47.41 0 0 1 12.58 1.77 38.08 38.08 0 0 1 11 4.85l-6.38 14.53a92.15 92.15 0 0 0-9.62-2.84 36.14 36.14 0 0 0-7.39-.71 16 16 0 0 0-9.27 3.08 22.38 22.38 0 0 0-7.21 8.62 27.87 27.87 0 0 0-2.77 12.64 27 27 0 0 0 2.83 12.64 20.92 20.92 0 0 0 7.5 8.33 18.22 18.22 0 0 0 9.75 2.89 29.38 29.38 0 0 0 15.24-4.37l8.15 16.06a40.92 40.92 0 0 1-11.16 4.32 54.32 54.32 0 0 1-12.82 1.59q-12.77 0-22.21-5.26a35.83 35.83 0 0 1-14.47-14.58 44.67 44.67 0 0 1-5-21.5 44 44 0 0 1 5.32-21.74 38.25 38.25 0 0 1 14.7-14.94 42 42 0 0 1 21.23-5.38zm29.17 42a44.4 44.4 0 0 1 5.32-21.8 38 38 0 0 1 14.76-15 42.53 42.53 0 0 1 21.42-5.36q12.75 0 22.14 5.44a36.86 36.86 0 0 1 14.42 14.88 44.2 44.2 0 0 1 5 21 45 45 0 0 1-5.26 21.91 37.71 37.71 0 0 1-14.71 15 42.86 42.86 0 0 1-21.59 5.41q-12.53 0-21.92-5.49a37.81 37.81 0 0 1-14.47-15A43.76 43.76 0 0 1 255.5 184zm41.7-24.22a17.12 17.12 0 0 0-9.86 3 21.18 21.18 0 0 0-7.09 8.51 28.54 28.54 0 0 0-2.66 12.58q0 10.4 5.14 17t14.12 6.61A17.81 17.81 0 0 0 311 201.2q5.51-6.31 5.5-18 0-10.27-5.26-16.83a17 17 0 0 0-14.04-6.57zm75.8 21.76v42.28h-21.5V143.5h20l30.95 43.59V143.5H424v80.32h-20.13zm61.58-38.04h68.75l2 16.89h-25.62v63.43h-21.5v-63.43h-23.63zm73.12 80.32l30.12-80.32h21.5l30 79.38-21.14 2.12-5.79-17h-27.76l-5.55 15.82zm32.84-32.72h15.71l-8-21.85zm51.15-47.6h68.75l2 16.89h-25.63v63.43h-21.5v-63.43h-23.62zm75.48 40.5a44.4 44.4 0 0 1 5.31-21.8 38.12 38.12 0 0 1 14.77-15 42.52 42.52 0 0 1 21.38-5.38q12.76 0 22.15 5.44a36.9 36.9 0 0 1 14.41 14.88 44.08 44.08 0 0 1 5 21A44.91 44.91 0 0 1 745 205.1a37.62 37.62 0 0 1-14.7 15 42.9 42.9 0 0 1-21.62 5.38q-12.52 0-21.91-5.49a37.74 37.74 0 0 1-14.47-15 43.65 43.65 0 0 1-5.13-20.99zm41.7-24.22a17.15 17.15 0 0 0-9.87 3 21.16 21.16 0 0 0-7.08 8.51 28.4 28.4 0 0 0-2.66 12.58q0 10.4 5.14 17t14.11 6.61a17.83 17.83 0 0 0 14.12-6.32q5.49-6.31 5.49-18 0-10.27-5.26-16.83a17 17 0 0 0-13.99-6.53z" fill="#fff"/></g></g></svg>