<svg xmlns="http://www.w3.org/2000/svg" viewBox="0 0 212 175"><path d="M140.3 161.5l-35.2-31.8-35.2 31.8-2.5-1.1c-20.3-9.1-29.6-23.4-33.9-33.8-4.6-11.3-4.4-20.5-4.4-20.9v-1.8l8.3-7.6-12.5-11.2-.4-.7c-12.2-24.1-7-43.2-.5-55C31 16.8 40.8 9.9 41.2 9.6l2.7-1.9 30.5 27.5 30.7-27.5 30.7 27.5 30.5-27.5 2.7 1.9c.4.3 10.2 7.2 17.2 19.8 6.5 11.8 11.7 30.8-.6 54.9l-.4.7-12.5 11.3 8.3 7.6v1.8c0 .4.2 9.6-4.4 20.9-4.3 10.4-13.6 24.7-33.9 33.8l-2.4 1.1zM37.5 107.6c.2 2.8.9 9 3.9 16.2 5.1 12.2 14.2 21.5 27 27.9l36.7-33.1 36.7 33.1c27.2-13.5 30.5-37.5 30.9-44.1l-12.3-11.3 18.2-16.4c8.1-16.4 8.3-31.9.5-46.2-4-7.4-9.2-12.6-12.3-15.2l-30.9 27.9-30.7-27.5-30.9 27.5-30.9-27.9c-3.1 2.7-8.3 7.9-12.3 15.2-7.8 14.3-7.6 29.8.5 46.2l18.2 16.4-12.3 11.3zm104.9 27.8l-30.8-27V84.8l54.7-49.3 2.8 3.1c.4.4 3.8 4.4 5.1 10.7 1.2 5.9.9 15-7.8 25.1l-.2.2L142 96.3l13.4 12.1.3 1.3c.1.5 2.4 11.5-10.6 23.2l-2.7 2.5zm-22.5-30.7l22.3 19.5c4.7-5.3 5.5-9.6 5.5-11.6l-18.1-16.3 30.6-27.6c5-5.8 7-11.7 5.9-17.4-.3-1.3-.6-2.5-1.1-3.5l-45.1 40.7v16.2zm-52.1 30.7l-2.7-2.5c-13-11.8-10.7-22.8-10.6-23.2l.3-1.3 13.4-12.1L44 74.5l-.2-.2c-8.7-10-9.1-19.2-7.8-25.1 1.3-6.4 4.7-10.3 5.1-10.7l2.8-3.1 54.7 49.3v23.7l-30.8 27zm-5.3-22.8c0 2 .8 6.3 5.5 11.6l22.3-19.5V88.5L45.2 47.8c-.4 1-.8 2.2-1.1 3.5-1.1 5.8.9 11.6 5.9 17.4l30.6 27.6-18.1 16.3zm42.6-38.5L83.5 54.7 105 35.6l21.5 19.1-21.4 19.4zM96 54.7l9.1 8.2 9.1-8.2-9.1-8-9.1 8z" fill="#fff"/></svg>