<svg xmlns="http://www.w3.org/2000/svg" viewBox="0 0 496.17 389.88"><g data-name="Camada 2"><g data-name="Camada 1"><path d="M192.64 318h71.88v71.88h-71.88zm106.26 0h71.88v71.88H298.9zm106.25 0h71.88v71.88h-71.88zm91.02-197l-57.51-55.1H171.15l57.52 55.1-57.52 53.24h267.51L496.17 121z" fill="#da911f"/><path d="M32.39 34l4 3.91-3.69 3.24-4.09-3.8a18.39 18.39 0 0 1-10 2.89 18.3 18.3 0 0 1-9.79-2.54 17.33 17.33 0 0 1-6.52-7.12A22.32 22.32 0 0 1 0 20.37 22.48 22.48 0 0 1 2.35 10 18 18 0 0 1 9 2.75 18.74 18.74 0 0 1 18.61 0a18.37 18.37 0 0 1 9.81 2.61A17.49 17.49 0 0 1 35 9.76 22.29 22.29 0 0 1 37.27 20 23.45 23.45 0 0 1 36 27.77 18.25 18.25 0 0 1 32.39 34zm-8.17-.68l-4.82-4.44 4.37-3.35 4.23 4.2A17.89 17.89 0 0 0 30.58 20a18 18 0 0 0-1.48-7.49 12.17 12.17 0 0 0-4.17-5.16 10.57 10.57 0 0 0-6.21-1.87 10.75 10.75 0 0 0-6.13 1.87 12.6 12.6 0 0 0-4.36 5.27 18.06 18.06 0 0 0-1.59 7.72 18.41 18.41 0 0 0 1.47 7.52A12.28 12.28 0 0 0 12.28 33a10.62 10.62 0 0 0 6.21 1.87 10.92 10.92 0 0 0 5.73-1.51zM43.85.91h6.41v24.17c0 3.14.82 5.56 2.44 7.26a8.68 8.68 0 0 0 6.58 2.55 8.65 8.65 0 0 0 6.59-2.58 10.14 10.14 0 0 0 2.44-7.23V.91h6.41v24.68a14.83 14.83 0 0 1-1.9 7.46 13.41 13.41 0 0 1-5.39 5.19 17 17 0 0 1-8.15 1.87 17 17 0 0 1-8.14-1.87 13.41 13.41 0 0 1-5.39-5.19 14.83 14.83 0 0 1-1.9-7.46zm65.02 33.58l1 5H84.13V.91h24.74l.91 5H90.49v11.51h12.82l1 5H90.49v12.07zm34.21-19.57l-8.4 12.2-2.44.34L122.31 14v25.49H116V.91h4l13.28 18.44L145.63.91h3.91v38.58h-6.46zM178.76.91v38.58h-6.35V.91zM195 12.14v27.35h-6.35V.91h6l19 27.17V.91h6.41v38.58H214zm30.62-10.83L232 .4l11.46 30.41L254.55.91h6.3L246.1 39.49h-5.56zm65.53 33.18l1 5h-25.7V.91h24.74l.9 5h-19.32v11.51h12.82l1 5h-13.82v12.07zm15.99 5.73a23.28 23.28 0 0 1-6-1 16.53 16.53 0 0 1-5.05-2.07l1.42-5.11a28 28 0 0 0 4.59 1.76 17.6 17.6 0 0 0 5 .8 10.67 10.67 0 0 0 5.73-1.28 4.13 4.13 0 0 0 .91-6.3 10.86 10.86 0 0 0-2.74-2.17q-1.67-1-4.85-2.55a32.27 32.27 0 0 1-8-5.42 9.12 9.12 0 0 1-2.7-6.72A9.07 9.07 0 0 1 297 5a10.54 10.54 0 0 1 4.48-3.63A16.65 16.65 0 0 1 308.34 0a20.14 20.14 0 0 1 5.41.77 28.8 28.8 0 0 1 5.14 2l-2.16 5a30.64 30.64 0 0 0-4-1.59 14.46 14.46 0 0 0-4.17-.56 9.27 9.27 0 0 0-4.82 1.13 3.67 3.67 0 0 0-1.87 3.35 4.34 4.34 0 0 0 1 2.81 9.27 9.27 0 0 0 2.61 2.15q1.62.94 5.08 2.7a55 55 0 0 1 5.81 3.37 13.28 13.28 0 0 1 3.58 3.63 9 9 0 0 1 1.39 5 9.3 9.3 0 0 1-1.65 5.44 10.68 10.68 0 0 1-4.85 3.72 20 20 0 0 1-7.7 1.3zM323.43.91h30.86l1 5.05H342v33.53h-6.46V6h-12.11zm62.12 33.58l1 5h-25.7V.91h24.74l.9 5h-19.32v11.51H380l1 5h-13.83v12.07zm44.76 0l1 5h-25.7V.91h24.74l.91 5h-19.33v11.51h12.82l1 5h-13.82v12.07zm34.21-19.57l-8.4 12.2-2.44.34L443.75 14v25.49h-6.35V.91h4l13.28 18.44L467.07.91H471v38.58h-6.46zM4.86 200.14v16.91H.93v-23.86h3.72L16.36 210v-16.81h4v23.86h-3.79zm18.9 16.91l9.12-23.86h3.47l9.19 23.61-3.89.56-2.35-6.31h-9.37l-2.28 6zm12.49-29a.93.93 0 0 0 .72-.35 1.42 1.42 0 0 0 .33-.84h2.53a4 4 0 0 1-1 3 3.58 3.58 0 0 1-2.55.95 2.77 2.77 0 0 1-1.08-.18 3.74 3.74 0 0 1-.88-.52 4 4 0 0 0-.81-.49 2.42 2.42 0 0 0-1-.18 1 1 0 0 0-.71.37 1.31 1.31 0 0 0-.37.82h-2.65a3.88 3.88 0 0 1 1-3 3.57 3.57 0 0 1 2.54-.93 2.92 2.92 0 0 1 1.1.17 4.05 4.05 0 0 1 .93.53 4.91 4.91 0 0 0 .9.47 2.65 2.65 0 0 0 1 .13zm-5.19 19.82h7.05l-3.58-9.3zm16.17-2.64a13.85 13.85 0 0 1 1.45-6.42 11.07 11.07 0 0 1 4.09-4.48 11.64 11.64 0 0 1 6-1.7 11.34 11.34 0 0 1 6.07 1.62 10.81 10.81 0 0 1 4 4.42 14.81 14.81 0 0 1 0 12.76 11.07 11.07 0 0 1-4.11 4.46 11.57 11.57 0 0 1-6 1.65 11.26 11.26 0 0 1-6-1.6 10.65 10.65 0 0 1-4-4.4 13.75 13.75 0 0 1-1.5-6.31zM58.8 196a6.67 6.67 0 0 0-3.8 1.16 7.88 7.88 0 0 0-2.7 3.26 11.2 11.2 0 0 0-1 4.77 11.32 11.32 0 0 0 .91 4.65 7.52 7.52 0 0 0 2.58 3.21 6.57 6.57 0 0 0 3.84 1.16 6.79 6.79 0 0 0 3.81-1.13 7.62 7.62 0 0 0 2.68-3.21 11.44 11.44 0 0 0 1-4.89 11.19 11.19 0 0 0-.91-4.63 7.52 7.52 0 0 0-2.58-3.19A6.57 6.57 0 0 0 58.8 196zm27.82 12.49v8.56h-3.93v-23.86h7.12a11.12 11.12 0 0 1 6.68 1.81c1.7 1.22 2.54 3.12 2.54 5.7a7 7 0 0 1-1.31 4.31 7.89 7.89 0 0 1-3.47 2.6 13 13 0 0 1-4.76.84zm8.27-7.49a4.07 4.07 0 0 0-1.31-3.44 6.19 6.19 0 0 0-3.84-1h-3.12v8.74h3a6 6 0 0 0 3.73-1.06 4 4 0 0 0 1.54-3.24zm8.21 16.05v-23.86h7.12a11.36 11.36 0 0 1 6.67 1.81 6.19 6.19 0 0 1 2.56 5.39 6.52 6.52 0 0 1-1.13 3.82 7.11 7.11 0 0 1-3 2.45l5.93 10.39H117l-5.19-9.4a14 14 0 0 1-1.93.1H107v9.3zm12.21-16.49a3.58 3.58 0 0 0-1.33-3.12 6.58 6.58 0 0 0-3.83-.95H107v8h3a6.8 6.8 0 0 0 3.79-.94 3.35 3.35 0 0 0 1.52-2.99zM140 214l.6 3.09h-15.89v-23.9H140l.56 3.09h-11.92v7.12h7.92l.6 3.09h-8.52V214zm14-21.3a15.26 15.26 0 0 1 3.09.39 11.09 11.09 0 0 1 3.08 1.09L159 197c-1.24-.4-2.16-.66-2.75-.79a11.42 11.42 0 0 0-2.33-.19 6.26 6.26 0 0 0-3.67 1.14 7.67 7.67 0 0 0-2.58 3.22 11.6 11.6 0 0 0-.94 4.83 11.93 11.93 0 0 0 .82 4.52 7.64 7.64 0 0 0 2.38 3.25 5.94 5.94 0 0 0 3.71 1.21 13 13 0 0 0 5.22-1.09l1.51 2.94a13.37 13.37 0 0 1-3.14 1.06 15.76 15.76 0 0 1-3.42.42 11.06 11.06 0 0 1-6.1-1.63 10.24 10.24 0 0 1-3.81-4.42 14.83 14.83 0 0 1-1.28-6.23 14.57 14.57 0 0 1 1.4-6.47 10.7 10.7 0 0 1 4-4.47 11 11 0 0 1 5.98-1.6zm14 .49v23.86h-3.93v-23.86zm11.64 24.31a14.26 14.26 0 0 1-3.72-.61 10.22 10.22 0 0 1-3.12-1.28l.87-3.16a18.19 18.19 0 0 0 2.84 1.09 10.77 10.77 0 0 0 3.09.49 6.54 6.54 0 0 0 3.54-.79 2.51 2.51 0 0 0 1.23-2.23 2.47 2.47 0 0 0-.66-1.66A6.55 6.55 0 0 0 182 208c-.69-.4-1.69-.93-3-1.58a19.89 19.89 0 0 1-5-3.35 6 6 0 0 1-.7-7.37 6.57 6.57 0 0 1 2.77-2.24 10.18 10.18 0 0 1 4.26-.83 12.27 12.27 0 0 1 3.35.48 17.45 17.45 0 0 1 3.18 1.21l-1.34 3.12a18.27 18.27 0 0 0-2.47-1 8.57 8.57 0 0 0-2.58-.35 5.67 5.67 0 0 0-3 .7 2.27 2.27 0 0 0-1.16 2.07 2.66 2.66 0 0 0 .62 1.73 5.84 5.84 0 0 0 1.67 1.41c.67.38 1.71.94 3.14 1.66a33.32 33.32 0 0 1 3.6 2.09 8.26 8.26 0 0 1 2.21 2.24 5.52 5.52 0 0 1 .86 3.07 5.76 5.76 0 0 1-1 3.37 6.64 6.64 0 0 1-3 2.3 12.35 12.35 0 0 1-4.77.77zm10.06-.45l9.12-23.86h3.47l9.19 23.61-3.89.56-2.35-6.31h-9.36l-2.28 6zm7.3-9.19h7.05l-3.58-9.3zm35.56-15.16a15.1 15.1 0 0 1 3.09.39 11 11 0 0 1 3.09 1.09l-1.19 2.82c-1.24-.4-2.16-.66-2.76-.79a11.29 11.29 0 0 0-2.33-.19 6.26 6.26 0 0 0-3.67 1.14 7.73 7.73 0 0 0-2.57 3.22 11.44 11.44 0 0 0-.95 4.83 11.93 11.93 0 0 0 .82 4.52 7.66 7.66 0 0 0 2.39 3.25 5.89 5.89 0 0 0 3.7 1.21 13.07 13.07 0 0 0 5.23-1.09l1.5 2.94a13.37 13.37 0 0 1-3.14 1.06 15.76 15.76 0 0 1-3.42.42 11.06 11.06 0 0 1-6.1-1.63 10.22 10.22 0 0 1-3.8-4.42 14.68 14.68 0 0 1-1.28-6.23 14.44 14.44 0 0 1 1.4-6.47 10.61 10.61 0 0 1 4-4.47 11.05 11.05 0 0 1 5.99-1.6zm8.28 12.53a13.86 13.86 0 0 1 1.46-6.42 11.12 11.12 0 0 1 4.08-4.48 11.71 11.71 0 0 1 6-1.7 11.36 11.36 0 0 1 6.07 1.62 10.81 10.81 0 0 1 4.05 4.42 13.85 13.85 0 0 1 1.42 6.31 13.69 13.69 0 0 1-1.48 6.45 11.11 11.11 0 0 1-4.1 4.46 11.57 11.57 0 0 1-6 1.65 11.23 11.23 0 0 1-6-1.6 10.67 10.67 0 0 1-4-4.4 13.88 13.88 0 0 1-1.5-6.31zm11.58-9.23a6.64 6.64 0 0 0-3.79 1.16 7.73 7.73 0 0 0-2.7 3.26 11.05 11.05 0 0 0-1 4.77 11.32 11.32 0 0 0 .91 4.65 7.52 7.52 0 0 0 2.58 3.21 6.57 6.57 0 0 0 3.84 1.16 6.73 6.73 0 0 0 3.8-1.13 7.64 7.64 0 0 0 2.69-3.21 12.46 12.46 0 0 0 .07-9.52 7.52 7.52 0 0 0-2.58-3.19 6.57 6.57 0 0 0-3.82-1.16zm19.81 4.14v16.91h-3.92v-23.86H272L283.74 210v-16.81h4v23.86H284zm18.91-6.95h19.08l.6 3.13h-8.18v20.73h-4v-20.73h-7.51zm20.38 23.86l9.12-23.86h3.47l9.19 23.61-3.89.56-2.35-6.31h-9.37l-2.28 6zm7.29-9.19h7.05l-3.57-9.3zm17.93 9.19v-23.86h7.12a11.33 11.33 0 0 1 6.66 1.81 6.16 6.16 0 0 1 2.56 5.39 6.52 6.52 0 0 1-1.12 3.82 7.17 7.17 0 0 1-3 2.45l5.93 10.39h-4.25l-5.19-9.4a13.91 13.91 0 0 1-1.93.1h-2.87v9.3zm12.2-16.49a3.55 3.55 0 0 0-1.33-3.12 6.55 6.55 0 0 0-3.82-.95h-3.12v8h3.05a6.82 6.82 0 0 0 3.79-.94 3.37 3.37 0 0 0 1.43-2.99zM376 192.7a15.09 15.09 0 0 1 3.08.39 11 11 0 0 1 3.09 1.09L381 197c-1.24-.4-2.16-.66-2.75-.79a11.46 11.46 0 0 0-2.34-.19 6.23 6.23 0 0 0-3.66 1.14 7.67 7.67 0 0 0-2.58 3.22 11.6 11.6 0 0 0-.95 4.83 11.93 11.93 0 0 0 .83 4.52 7.64 7.64 0 0 0 2.35 3.27 5.91 5.91 0 0 0 3.7 1.21 13 13 0 0 0 5.23-1.09l1.51 2.94a13.37 13.37 0 0 1-3.14 1.06 15.76 15.76 0 0 1-3.42.42 11.1 11.1 0 0 1-6.11-1.63 10.22 10.22 0 0 1-3.8-4.42 15.72 15.72 0 0 1 .12-12.7 10.68 10.68 0 0 1 4-4.47 11.09 11.09 0 0 1 6.01-1.62zm8.27 12.53a13.85 13.85 0 0 1 1.45-6.42 11.07 11.07 0 0 1 4.09-4.48 11.64 11.64 0 0 1 6-1.7 11.36 11.36 0 0 1 6.07 1.62 10.81 10.81 0 0 1 4.05 4.42 14.81 14.81 0 0 1-.05 12.76 11.14 11.14 0 0 1-4.11 4.46 11.57 11.57 0 0 1-6 1.65 11.26 11.26 0 0 1-6-1.6 10.65 10.65 0 0 1-4-4.4 13.75 13.75 0 0 1-1.5-6.31zm11.57-9.23a6.67 6.67 0 0 0-3.79 1.16 7.88 7.88 0 0 0-2.7 3.26 11.2 11.2 0 0 0-1 4.77 11.32 11.32 0 0 0 .91 4.65 7.52 7.52 0 0 0 2.58 3.21 6.57 6.57 0 0 0 3.84 1.16 6.79 6.79 0 0 0 3.81-1.13 7.7 7.7 0 0 0 2.68-3.21 11.44 11.44 0 0 0 1-4.89 11.19 11.19 0 0 0-.91-4.63 7.52 7.52 0 0 0-2.58-3.19 6.57 6.57 0 0 0-3.84-1.16zm32.66 5.86l-5.2 7.54-1.5.21-6.14-8.31v15.75h-3.93v-23.86h2.46l8.2 11.4 7.68-11.4h2.42v23.86h-4zm15.39 15.19l9.11-23.86h3.48l9.19 23.61-3.9.56-2.35-6.31h-9.36l-2.28 6zm7.3-9.19h7.05l-3.58-9.3zM47.73 128.41l1.48 12.43H5.92V81.73h41.81l1.48 12.43H21.74v10.78h18.17l1.48 12.43H21.74v11zm64.85-17.48a33.47 33.47 0 0 1-3.58 15.82 25.2 25.2 0 0 1-10 10.43 29.19 29.19 0 0 1-14.69 3.66H57.9V81.73h26.77a29.24 29.24 0 0 1 15.17 3.74 24 24 0 0 1 9.52 10.34 34.18 34.18 0 0 1 3.22 15.12zm-16.35 0q0-7.47-3.26-12.12a10.47 10.47 0 0 0-9.08-4.65H73.72v34.25h9.56a11.43 11.43 0 0 0 9.35-4.52c2.37-3.02 3.6-7.33 3.6-12.96zm25.04-29.2h15.82v35.72c0 3.6 1 6.39 2.95 8.39a11.48 11.48 0 0 0 15.48 0c2-2 2.95-4.79 2.95-8.39V81.73h15.82v36.51a24.07 24.07 0 0 1-3.3 12.9 21 21 0 0 1-9.3 8.13 36.19 36.19 0 0 1-27.82 0 21 21 0 0 1-9.3-8.13 24.07 24.07 0 0 1-3.3-12.9zm92.05-1.13a34.81 34.81 0 0 1 9.26 1.3 27.9 27.9 0 0 1 8.12 3.57L226 96.16a65.17 65.17 0 0 0-7.09-2.09 26.21 26.21 0 0 0-5.43-.52 11.77 11.77 0 0 0-6.82 2.26 16.49 16.49 0 0 0-5.3 6.35 20.39 20.39 0 0 0-2.05 9.3 19.86 19.86 0 0 0 2.09 9.3 15.31 15.31 0 0 0 5.52 6.12 13.32 13.32 0 0 0 7.18 2.12 21.6 21.6 0 0 0 11.21-3.21l6 11.82a30.24 30.24 0 0 1-8.21 3.17 40 40 0 0 1-9.43 1.18 33.11 33.11 0 0 1-16.35-3.87 26.39 26.39 0 0 1-10.64-10.74 32.77 32.77 0 0 1-3.7-15.82 32.43 32.43 0 0 1 3.91-16 28.28 28.28 0 0 1 10.83-11 30.87 30.87 0 0 1 15.6-3.93zm19.73 60.24l22.16-59.11H271l22.08 58.41-15.56 1.56-4.26-12.51h-20.39l-4.09 11.65zm24.16-24.08h11.56l-5.91-16.08zm80.41 36.42a9.12 9.12 0 0 1-3.65 7.6 13.65 13.65 0 0 1-8.61 2.83 15.45 15.45 0 0 1-5.21-1 17.91 17.91 0 0 1-4.87-2.6l3.3-7.48a15.84 15.84 0 0 0 4.87 1.3 4.25 4.25 0 0 0 1.91-.39 1.25 1.25 0 0 0 .78-1.17q0-2.52-7.39-3.3l3-7.39a29.83 29.83 0 0 1-13.47-5.22 26.65 26.65 0 0 1-8.65-10.47 33.44 33.44 0 0 1-3-14.39 32.32 32.32 0 0 1 3.91-16 28.32 28.32 0 0 1 10.82-11 30.92 30.92 0 0 1 15.6-4 34.75 34.75 0 0 1 9.26 1.3 27.84 27.84 0 0 1 8.13 3.57l-4.69 10.69a66.51 66.51 0 0 0-7.09-2.09 26.21 26.21 0 0 0-5.43-.52 11.75 11.75 0 0 0-6.82 2.26 16.42 16.42 0 0 0-5.31 6.35 20.52 20.52 0 0 0-2 9.3 19.86 19.86 0 0 0 2.09 9.3 15.31 15.31 0 0 0 5.52 6.12 13.27 13.27 0 0 0 7.17 2.13A21.6 21.6 0 0 0 339 125.7l6 11.82a31 31 0 0 1-12.17 3.91l-1 2.7a7.54 7.54 0 0 1 4.43 3.6 11 11 0 0 1 1.36 5.45zm9.04-12.34l22.16-59.11h15.82l22.08 58.41-15.56 1.56-4.26-12.51h-20.43l-4.08 11.65zm33.55-76.15a1.66 1.66 0 0 0 1.3-.87 2.88 2.88 0 0 0 .61-1.65h10.6q0 7.22-3.08 10.56a10 10 0 0 1-7.64 3.35 6.81 6.81 0 0 1-2.47-.39 12.16 12.16 0 0 1-2.22-1.18c-.81-.46-1.48-.81-2-1a5 5 0 0 0-2-.35A1.66 1.66 0 0 0 372 74a2.88 2.88 0 0 0-.61 1.65h-10.91q0-7.22 3.21-10.56a10.45 10.45 0 0 1 7.83-3.34 6.61 6.61 0 0 1 2.39.39 13 13 0 0 1 2.21 1.17c.87.47 1.58.81 2.13 1a4.87 4.87 0 0 0 1.96.38zm-9.39 52.07h11.56l-5.91-16.08zm39.38-5.22a32.55 32.55 0 0 1 3.91-16 27.93 27.93 0 0 1 10.86-11 31.24 31.24 0 0 1 15.74-4 32 32 0 0 1 16.29 4 27.26 27.26 0 0 1 10.61 10.95 32.52 32.52 0 0 1 3.69 15.47 33.09 33.09 0 0 1-3.87 16.13 27.76 27.76 0 0 1-10.82 11 31.65 31.65 0 0 1-15.9 4 31.31 31.31 0 0 1-16.13-4 27.68 27.68 0 0 1-10.65-11 32.14 32.14 0 0 1-3.73-15.55zm30.68-17.82a12.6 12.6 0 0 0-7.26 2.22 15.51 15.51 0 0 0-5.21 6.26 20.9 20.9 0 0 0-2 9.26q0 7.65 3.78 12.51a12.42 12.42 0 0 0 10.39 4.87 13.15 13.15 0 0 0 10.42-4.65q4-4.65 4-13.26 0-7.56-3.87-12.38a12.53 12.53 0 0 0-10.25-4.83zM36 351.29A73 73 0 0 1 18.86 349a56.71 56.71 0 0 1-15.12-5.65l8.68-19.81a47.09 47.09 0 0 0 10.78 4.27 45 45 0 0 0 12.07 1.95q5.79 0 9.26-2.39c2.32-1.61 3.47-3.37 3.47-5.3q0-1.87-2.53-3.69t-8.17-5.13l-4.48-2.6Q23 304.86 17.48 301a41 41 0 0 1-9.83-9.91 23 23 0 0 1-4.34-13.74 24.61 24.61 0 0 1 4.55-14.54 30 30 0 0 1 12.81-10 47.5 47.5 0 0 1 19.23-3.62 58.21 58.21 0 0 1 15.41 2.17 46.76 46.76 0 0 1 13.52 5.93L61 275.06a112.45 112.45 0 0 0-11.79-3.47 43.82 43.82 0 0 0-9-.87 11.31 11.31 0 0 0-7 2 6 6 0 0 0-2.68 4.92 4.76 4.76 0 0 0 2.24 3.83 63.08 63.08 0 0 0 7.45 4.41l5.21 2.89a171.46 171.46 0 0 1 15.19 9.62 45.43 45.43 0 0 1 10.34 10.42 22.81 22.81 0 0 1 4.27 13.52 24.57 24.57 0 0 1-4.78 14.9 31.8 31.8 0 0 1-13.67 10.27A52.93 52.93 0 0 1 36 351.29zm46.43-50.63A54.26 54.26 0 0 1 88.94 274 46.63 46.63 0 0 1 107 255.61a52 52 0 0 1 26.2-6.61q15.62 0 27.12 6.65A45.23 45.23 0 0 1 178 273.91a54 54 0 0 1 6.15 25.74 55.05 55.05 0 0 1-6.44 26.83 46.11 46.11 0 0 1-18 18.37 52.59 52.59 0 0 1-26.47 6.59q-15.33 0-26.83-6.73a46.06 46.06 0 0 1-17.72-18.3 53.44 53.44 0 0 1-6.26-25.75zM133.49 271a21 21 0 0 0-12.08 3.69 25.83 25.83 0 0 0-8.68 10.42 34.89 34.89 0 0 0-3.25 15.4q0 12.74 6.29 20.83t17.28 8.1a21.87 21.87 0 0 0 17.29-7.74q6.72-7.74 6.72-22.06 0-12.58-6.43-20.61a20.89 20.89 0 0 0-17.14-8.03zM200 349.41v-98.36h41.37q17.64 0 29.07 8.39t11.43 25.17a31.61 31.61 0 0 1-3.55 15.26 29.89 29.89 0 0 1-9.76 10.78l21.7 38.76h-30.5l-15.91-31h-17.5v31zm54.68-64.8q0-6.36-3.69-9.62t-10.49-3.25h-14.15v26h14.46a13.94 13.94 0 0 0 10-3.69 12.46 12.46 0 0 0 3.89-9.44zm38.49-33.56h84.18l2.46 20.69h-31.39v77.67H322.1v-77.67h-28.93zm169.23 77.68l2.46 20.68h-72v-98.36h69.54l2.46 20.69h-45.71v17.93h30.23l2.46 20.69h-32.69v18.37z" fill="#fff"/></g></g></svg>