<svg xmlns="http://www.w3.org/2000/svg" viewBox="0 0 365 319.29"><defs><style>.cls-1{fill:#da911f}.cls-2{fill:none;stroke:#fff;stroke-miterlimit:10;stroke-width:9px}</style></defs><g id="Camada_2" data-name="Camada 2"><g id="Camada_1-2" data-name="Camada 1"><path class="cls-1" d="M66.5 172.29h94v33h-94zM300.98 0l-40.79 42.57v198.02l40.79-42.58 39.4 42.58V42.57L300.98 0z"/><path class="cls-2" d="M337.51 86.54c-7.22-32.16-26.26-61.69-36.76-66.29-10.5 4.6-29.53 34.13-36.75 66.29s4.59 70.89 4.59 70.89c13.78 6.57 32.16 7.22 32.16 7.22s18.38-.65 32.16-7.22c0 0 11.82-38.72 4.6-70.89z"/><path class="cls-2" d="M265 147.92s-8.53 11.15-9.19 21.66 0 48.57 0 48.57 1.31-19.69 19.69-19.69c0 0 0-12.48 14.44-34.14m20.69 0c14.44 21.66 14.44 34.14 14.44 34.14 18.38 0 19.7 19.69 19.7 19.69s.65-38.07 0-48.57-9.19-21.66-9.19-21.66m-34.5 2.95v69.57"/><circle class="cls-2" cx="301.08" cy="92.12" r="15.1"/><path class="cls-1" d="M128.1 118.35h25.43v25.43H128.1zm37.59 0h25.43v25.43h-25.43zm37.6 0h25.43v25.43h-25.43zm32.21-69.7l-20.35-19.5h-94.66l20.35 19.5-20.35 18.83h94.66l20.35-18.83z"/><path d="M71.25 17.89l1.47 1.43-1.13 1-1.48-1.38a6.3 6.3 0 0 1-9.31-2.25A7.83 7.83 0 0 1 60 13a7.89 7.89 0 0 1 .84-3.66 6.65 6.65 0 0 1 2.33-2.57 6.41 6.41 0 0 1 3.36-1 6.26 6.26 0 0 1 3.35.91A6.35 6.35 0 0 1 72.2 9.2a7.84 7.84 0 0 1 .8 3.7 8.3 8.3 0 0 1-.45 2.75 6.66 6.66 0 0 1-1.3 2.24zm-2.45-.2L67 16.05l1.32-1 1.55 1.51a6.24 6.24 0 0 0 1-3.65 6.55 6.55 0 0 0-.57-2.78 4.6 4.6 0 0 0-1.5-1.94 3.89 3.89 0 0 0-2.26-.69 4 4 0 0 0-2.35.71 4.68 4.68 0 0 0-1.63 2A6.61 6.61 0 0 0 62 13a6.63 6.63 0 0 0 .57 2.79 4.55 4.55 0 0 0 1.59 1.93 3.87 3.87 0 0 0 2.28.7 4 4 0 0 0 2.36-.73zm6.7-11.4h2v8.6a3.71 3.71 0 0 0 1 2.7 3.77 3.77 0 0 0 5.1 0 3.81 3.81 0 0 0 .93-2.69V6.29h2v8.78a5.21 5.21 0 0 1-.67 2.62 4.73 4.73 0 0 1-1.92 1.81 6.79 6.79 0 0 1-5.82 0 4.66 4.66 0 0 1-1.92-1.81 5.17 5.17 0 0 1-.67-2.63zm22.37 12l.26 2H89.5v-14h8.37l.26 1H91.5v5H96l.27 1H91.5v5zm12.63-7.47l-3.45 5-.71.1-3.84-5.28v9.65h-2v-14h1.21l4.9 6.92 4.66-6.92h1.23v14h-2zm12-4.53v14h-2v-14zm5 3.57v10.43h-2v-14h1.75l7.25 10.36V6.29h2v14h-1.76zm10.95-3.44l2-.29 4.37 11.51L149 6.29h1.93l-5.27 14h-1.79zm22.72 11.87l.26 2h-8.93v-14h8.67l.26 1h-6.93v5h4.82l.26 1h-5.08v5zm5.54 1.77a8.8 8.8 0 0 1-2.16-.32 4.3 4.3 0 0 1-1.68-.68l.44-1.53a8.15 8.15 0 0 0 1.59.61 6.85 6.85 0 0 0 1.79.26 3.91 3.91 0 0 0 2.2-.53 1.66 1.66 0 0 0 .79-1.44 1.74 1.74 0 0 0-.39-1.13 4.07 4.07 0 0 0-1.12-.91 21.75 21.75 0 0 0-2-1 11.92 11.92 0 0 1-2-1.1 3.71 3.71 0 0 1-1.17-1.21 3.67 3.67 0 0 1-.38-1.72 3.13 3.13 0 0 1 .54-1.8 3.61 3.61 0 0 1 1.56-1.27 5.65 5.65 0 0 1 2.38-.46 7.23 7.23 0 0 1 1.89.26 10.12 10.12 0 0 1 1.72.64l-.64 1.53a7.91 7.91 0 0 0-1.34-.53 5.09 5.09 0 0 0-1.49-.19 3.66 3.66 0 0 0-1.94.46 1.48 1.48 0 0 0-.74 1.32 1.88 1.88 0 0 0 .38 1.16 3.65 3.65 0 0 0 1.08.89q.71.41 2.07 1a8.73 8.73 0 0 1 2.68 1.71 3.15 3.15 0 0 1 .85 2.29 3.27 3.27 0 0 1-.58 1.92 3.83 3.83 0 0 1-1.68 1.29 6.83 6.83 0 0 1-2.65.48zm5.79-13.77h10.75l.26 1h-5v12h-2v-12h-4zm21.43 12l.26 2h-8.69v-14h8.43l.26 1h-6.69v5h4.58l.26 1h-4.84v5zm15.49 0l.26 2h-9.18v-14h8.92l.26 1h-7.18v5h5.08l.26 1h-5.34v5zm12.08-7.47l-3.45 5-.71.1-3.84-5.28v9.65h-2v-14h1.21l4.9 6.92 4.66-6.92h1.23v14h-2zm-160 65.51v6h-1v-8h1l4 5.92v-5.96h1v8h-1zm6.75 5.96l3-8h1.21l3.16 8.12-1.15.17-.85-2.29h-3.44l-.85 2zm4.23-9.84a.36.36 0 0 0 .28-.12c.08-.08.13-.19.13 0h.79a1.14 1.14 0 0 1-.33.71 1.19 1.19 0 0 1-.85.31.88.88 0 0 1-.39-.07 1.49 1.49 0 0 1-.32-.2 1.33 1.33 0 0 0-.3-.19.85.85 0 0 0-.35-.06.33.33 0 0 0-.27.14.5.5 0 0 0-.15.36h-.8a1.34 1.34 0 0 1 .32-1 1.19 1.19 0 0 1 .85-.3 1.09 1.09 0 0 1 .4.06 2.67 2.67 0 0 1 .34.2 1.4 1.4 0 0 0 .3.18.91.91 0 0 0 .35-.02zm-2 6.84h2.74l-1.39-3.62zm5.82-.84a4.79 4.79 0 0 1 .52-2.26A4 4 0 0 1 80.33 74a3.83 3.83 0 0 1 2.07.57 3.88 3.88 0 0 1 1.44 1.56 5.17 5.17 0 0 1 0 4.5 4 4 0 0 1-1.45 1.59 3.81 3.81 0 0 1-2.09.59 3.8 3.8 0 0 1-3.48-2.1 4.9 4.9 0 0 1-.52-2.26zm4-3.43a2.55 2.55 0 0 0-1.45.44 3 3 0 0 0-1 1.22 4.13 4.13 0 0 0-.36 1.76 4 4 0 0 0 .35 1.72 2.92 2.92 0 0 0 1 1.2 2.49 2.49 0 0 0 1.41.43 2.53 2.53 0 0 0 1.45-.44 3 3 0 0 0 1-1.23 4.13 4.13 0 0 0 .36-1.76 4 4 0 0 0-.35-1.72 3 3 0 0 0-1-1.19 2.47 2.47 0 0 0-1.36-.45zm9.2 4.27v3h-1v-8h2.74a3.21 3.21 0 0 1 2.31.55 2.28 2.28 0 0 1 .88 2 2.49 2.49 0 0 1-.43 1.5 2.73 2.73 0 0 1-1.2.9 2.22 2.22 0 0 1-1.67.05zm3.69-2.42a1.56 1.56 0 0 0-.5-1.3 1.93 1.93 0 0 0-1.46-.28h-.73v3h.66a1.39 1.39 0 0 0 1.45-.16 1.61 1.61 0 0 0 .58-1.26zm3.31 5.42v-8h2.29a3.71 3.71 0 0 1 2.19.59 2 2 0 0 1 .84 1.79 2.2 2.2 0 0 1-1.4 2.09l2 3.53h-1.55L99 79.22l-.79.07h-.71v3zm4.08-5.49a1.32 1.32 0 0 0-.48-1.16 2.46 2.46 0 0 0-1.42-.35H97.5v3h1.12a2.51 2.51 0 0 0 1.42-.35 1.29 1.29 0 0 0 .54-1.14zm8.03 4.49l.17 1h-5.28v-8h5.11l.17 1h-4.28v3h3.12l.18 1h-3.3v2zm4.92-7.29a5.39 5.39 0 0 1 1.09.13 3.13 3.13 0 0 1 1.06.38l-.38.85a8 8 0 0 0-.9-.27 4.43 4.43 0 0 0-.9-.07 2.45 2.45 0 0 0-1.39.42 2.91 2.91 0 0 0-1 1.21 4.26 4.26 0 0 0-.36 1.78 4.37 4.37 0 0 0 .32 1.68 2.74 2.74 0 0 0 .92 1.21 2.28 2.28 0 0 0 1.4.45 4.3 4.3 0 0 0 1.85-.38l.46.9a4.24 4.24 0 0 1-1.06.35 5.4 5.4 0 0 1-1.2.14 3.88 3.88 0 0 1-2.14-.57 3.66 3.66 0 0 1-1.3-1.55 5.21 5.21 0 0 1-.45-2.2 5.15 5.15 0 0 1 .49-2.28 3.86 3.86 0 0 1 1.4-1.59 3.93 3.93 0 0 1 2.09-.59zm4.97.29v8h-1v-8zm3.9 8.5a5.23 5.23 0 0 1-1.33-.2 2.64 2.64 0 0 1-1-.42l.28-.94a4.93 4.93 0 0 0 1 .37 4 4 0 0 0 1.1.16 2.43 2.43 0 0 0 1.37-.33 1 1 0 0 0 .48-.88 1.08 1.08 0 0 0-.24-.7 2.22 2.22 0 0 0-.69-.56c-.3-.17-.71-.37-1.24-.61a7.36 7.36 0 0 1-1.25-.67 2.31 2.31 0 0 1-.7-.77 2.21 2.21 0 0 1-.24-1.06 2 2 0 0 1 .34-1.12 2.21 2.21 0 0 1 1-.78 3.54 3.54 0 0 1 1.47-.29 4.71 4.71 0 0 1 1.17.16 5.45 5.45 0 0 1 1.06.4l-.39.94a4.84 4.84 0 0 0-.83-.32 3.16 3.16 0 0 0-.92-.12 2.28 2.28 0 0 0-1.21.28.93.93 0 0 0-.46.82 1.14 1.14 0 0 0 .24.72 2.38 2.38 0 0 0 .67.55c.29.16.72.37 1.28.63a5.47 5.47 0 0 1 1.66 1.06 1.93 1.93 0 0 1 .52 1.41 2 2 0 0 1-.36 1.19 2.31 2.31 0 0 1-1 .8 4.23 4.23 0 0 1-1.78.28zm3.6-.5l3-8h1.21l3.16 8.12-1.14.17-.86-2.29H128l-.84 2zm2.27-3H131l-1.39-3.62zM140.93 74a5.48 5.48 0 0 1 1.1.13 3 3 0 0 1 1.05.38l-.37.85a8 8 0 0 0-.91-.27 4.39 4.39 0 0 0-.89-.07 2.48 2.48 0 0 0-1.4.42 2.89 2.89 0 0 0-1 1.21 4.26 4.26 0 0 0-.36 1.78 4.37 4.37 0 0 0 .31 1.68 2.82 2.82 0 0 0 .92 1.21 2.28 2.28 0 0 0 1.41.45 4.37 4.37 0 0 0 1.85-.38l.46.9a4.33 4.33 0 0 1-1.07.35 5.38 5.38 0 0 1-1.19.14 3.86 3.86 0 0 1-2.14-.57 3.66 3.66 0 0 1-1.34-1.57 5.22 5.22 0 0 1-.46-2.2 5.29 5.29 0 0 1 .49-2.28 3.76 3.76 0 0 1 3.54-2.16zm2.93 4.45a4.92 4.92 0 0 1 .52-2.26 4.1 4.1 0 0 1 1.44-1.59 4 4 0 0 1 2.08-.6 3.83 3.83 0 0 1 2.07.57 3.79 3.79 0 0 1 1.43 1.56 4.71 4.71 0 0 1 .52 2.24 4.92 4.92 0 0 1-.52 2.26 4 4 0 0 1-1.4 1.58 3.83 3.83 0 0 1-2.09.59 3.9 3.9 0 0 1-2.06-.55 3.94 3.94 0 0 1-1.42-1.55 4.78 4.78 0 0 1-.57-2.25zm4.06-3.45a2.53 2.53 0 0 0-1.45.44 3 3 0 0 0-1 1.22 4.13 4.13 0 0 0-.36 1.76 4 4 0 0 0 .36 1.72 2.85 2.85 0 0 0 1 1.2 2.55 2.55 0 0 0 2.85 0 2.92 2.92 0 0 0 1-1.23 4.44 4.44 0 0 0 0-3.48 2.89 2.89 0 0 0-1-1.19 2.44 2.44 0 0 0-1.4-.44zm6.58 1.33v6h-1v-8h1l4 5.92v-5.96h1v8h-1zm7-2.04h7.32l.17 1h-3.49v7h-1v-7h-3zm7.09 8l3-8h1.21l3.2 8.12-1.14.17-.86-2.29h-3.45l-.84 2zm2.27-3h2.74l-1.39-3.62zm6.64 3v-8h2.29a3.71 3.71 0 0 1 2.19.59 2 2 0 0 1 .84 1.79 2.2 2.2 0 0 1-1.4 2.09l2 3.53h-1.2l-1.89-3.07-.78.07h-1.05v3zm4.08-5.49a1.32 1.32 0 0 0-.48-1.16 2.46 2.46 0 0 0-1.42-.35h-1.18v3h1.12a2.51 2.51 0 0 0 1.42-.35 1.29 1.29 0 0 0 .54-1.14zM191 74a5.39 5.39 0 0 1 1.09.13 3.13 3.13 0 0 1 1.06.38l-.38.85a8 8 0 0 0-.9-.27A4.39 4.39 0 0 0 191 75a2.45 2.45 0 0 0-1.4.42 2.91 2.91 0 0 0-1 1.21 4.26 4.26 0 0 0-.36 1.78 4.37 4.37 0 0 0 .32 1.68 2.82 2.82 0 0 0 .92 1.21 2.28 2.28 0 0 0 1.41.45 4.37 4.37 0 0 0 1.85-.38l.45.9a4.1 4.1 0 0 1-1.06.35 5.38 5.38 0 0 1-1.19.14 3.92 3.92 0 0 1-2.15-.57 3.73 3.73 0 0 1-1.34-1.57 5.21 5.21 0 0 1-.45-2.2 5.15 5.15 0 0 1 .49-2.28A3.73 3.73 0 0 1 191 74zm2.93 4.45a4.79 4.79 0 0 1 .52-2.26 4.1 4.1 0 0 1 1.44-1.59A4 4 0 0 1 198 74a3.89 3.89 0 0 1 2.08.57 3.79 3.79 0 0 1 1.43 1.56 5.17 5.17 0 0 1 0 4.5 4 4 0 0 1-1.51 1.58 4.06 4.06 0 0 1-4.15 0 4 4 0 0 1-1.43-1.55 4.9 4.9 0 0 1-.49-2.21zM198 75a2.53 2.53 0 0 0-1.45.44 2.89 2.89 0 0 0-1 1.22 4.44 4.44 0 0 0 0 3.48 3 3 0 0 0 1 1.2 2.49 2.49 0 0 0 1.41.43 2.53 2.53 0 0 0 1.45-.44 2.92 2.92 0 0 0 1-1.23 4.13 4.13 0 0 0 .36-1.76 4 4 0 0 0-.36-1.72 2.87 2.87 0 0 0-1-1.19A2.44 2.44 0 0 0 198 75zm11.5 1.43l-2.16 3.1-.44.06-2.4-3.27v6h-1v-8h.71l2.86 4 2.71-4h.72v8h-1zm5.5 5.86l3-8h1.21l3.16 8.12-1.15.17-.85-2.29H217l-.84 2zm2.26-3H220l-1.39-3.62zm-139.9-28l.56 4H61.5v-20h15.86l.56 4H67.5v4h5.85l.47 4H67.5v4zm22.57-6.62a12 12 0 0 1-1.27 5.62A9 9 0 0 1 95.11 54a10.47 10.47 0 0 1-5.22 1.29H80.5v-21H90a10.43 10.43 0 0 1 5.39 1.33 8.53 8.53 0 0 1 3.38 3.68 12.11 12.11 0 0 1 1.16 5.37zm-5.54.5a7.28 7.28 0 0 0-1.14-4.25 3.7 3.7 0 0 0-3.19-1.63H86.5v12h3.35a4 4 0 0 0 3.27-1.58 7.09 7.09 0 0 0 1.27-4.54zm8.11-10.88h6v12.64a3.91 3.91 0 0 0 1.11 3 4.47 4.47 0 0 0 5.78 0 3.91 3.91 0 0 0 1.11-3V34.29h5v12.92a8.45 8.45 0 0 1-1.18 4.57 7.46 7.46 0 0 1-3.32 2.87 13 13 0 0 1-10 0 7.46 7.46 0 0 1-3.34-2.87 8.45 8.45 0 0 1-1.18-4.57zm32.91.06a12.24 12.24 0 0 1 3.28.46 9.84 9.84 0 0 1 2.87 1.26l-1.66 3.79a22.61 22.61 0 0 0-2.5-.74 9 9 0 0 0-1.93-.19 4.19 4.19 0 0 0-2.41.8 5.92 5.92 0 0 0-1.88 2.27 7.27 7.27 0 0 0-.72 3.29 7 7 0 0 0 .74 3.29 5.43 5.43 0 0 0 2 2.17 4.77 4.77 0 0 0 2.54.75 7.64 7.64 0 0 0 4-1.14l2.12 4.19a10.84 10.84 0 0 1-2.91 1.12 13.85 13.85 0 0 1-3.33.41 11.75 11.75 0 0 1-5.79-1.36A9.36 9.36 0 0 1 126 50.9a12.46 12.46 0 0 1 .07-11.26 10 10 0 0 1 3.83-3.89 10.94 10.94 0 0 1 5.51-1.4zm6.97 20.94l7.87-21h5.54l7.91 20.93-5.58.56-1.52-4.49h-7.21l-1.41 4zm8.57-8H155l-2.1-5.69zM179.4 60a3.22 3.22 0 0 1-1.3 2.69 4.79 4.79 0 0 1-3 1 5.42 5.42 0 0 1-1.85-.34 6.18 6.18 0 0 1-1.72-.92l1.17-2.64a5.84 5.84 0 0 0 1.72.46 1.55 1.55 0 0 0 .68-.14.45.45 0 0 0 .28-.42c0-.59-.88-1-2.62-1.16l1.05-2.62A10.63 10.63 0 0 1 169 54.1a9.53 9.53 0 0 1-3.06-3.71 11.8 11.8 0 0 1-1.06-5.09 11.49 11.49 0 0 1 1.38-5.66 10 10 0 0 1 3.83-3.89 10.94 10.94 0 0 1 5.52-1.4 12.24 12.24 0 0 1 3.28.46 10 10 0 0 1 2.87 1.26l-1.66 3.79a22.61 22.61 0 0 0-2.5-.74 9 9 0 0 0-1.93-.19 4.19 4.19 0 0 0-2.41.8 5.84 5.84 0 0 0-1.88 2.27 7.27 7.27 0 0 0-.72 3.29 7 7 0 0 0 .74 3.29 5.43 5.43 0 0 0 1.95 2.17 4.77 4.77 0 0 0 2.54.75 7.64 7.64 0 0 0 4-1.14l2.11 4.17a11.16 11.16 0 0 1-4.31 1.38l-.37 1a2.67 2.67 0 0 1 1.57 1.28 3.87 3.87 0 0 1 .51 1.81zm3.18-4.71l7.87-21H196l7.91 20.93-5.58.56-1.52-4.49h-7.21l-1.41 4zm11.95-27.06a.62.62 0 0 0 .48-.32 1.11 1.11 0 0 0 .23-.62h3.93a5.65 5.65 0 0 1-1.17 3.92 3.68 3.68 0 0 1-2.82 1.24 2.44 2.44 0 0 1-.92-.14 4.86 4.86 0 0 1-.83-.44 6.62 6.62 0 0 0-.74-.38 1.75 1.75 0 0 0-.74-.13.62.62 0 0 0-.48.32 1.11 1.11 0 0 0-.23.61h-4.06a5.49 5.49 0 0 1 1.19-3.92 3.89 3.89 0 0 1 2.9-1.24 2.37 2.37 0 0 1 .89.15 4.36 4.36 0 0 1 .82.43l.79.39a1.83 1.83 0 0 0 .76.13zm-3.39 19.06h4.1l-2.1-5.69zm13.94-1.99a11.62 11.62 0 0 1 1.38-5.68 9.89 9.89 0 0 1 3.85-3.9 11.07 11.07 0 0 1 5.56-1.4 11.34 11.34 0 0 1 5.77 1.41 9.65 9.65 0 0 1 3.75 3.88 11.48 11.48 0 0 1 1.31 5.47 11.73 11.73 0 0 1-1.37 5.71 9.87 9.87 0 0 1-3.83 3.91 11.22 11.22 0 0 1-5.63 1.4 11 11 0 0 1-5.7-1.44 9.79 9.79 0 0 1-3.77-3.89 11.37 11.37 0 0 1-1.32-5.47zm10.85-6.3a4.45 4.45 0 0 0-2.56.79 5.48 5.48 0 0 0-1.85 2.21 7.49 7.49 0 0 0-.69 3.28 7 7 0 0 0 1.34 4.43 4.38 4.38 0 0 0 3.67 1.72 4.66 4.66 0 0 0 3.68-1.65 6.94 6.94 0 0 0 1.48-4.7 6.81 6.81 0 0 0-1.37-4.38 4.44 4.44 0 0 0-3.7-1.7zM72.67 130.13a25.65 25.65 0 0 1-6.07-.82 20 20 0 0 1-5.34-2l3.07-7a17.17 17.17 0 0 0 3.81 1.51 16 16 0 0 0 4.27.69 5.71 5.71 0 0 0 3.28-.85 2.32 2.32 0 0 0 1.23-1.87 1.73 1.73 0 0 0-.9-1.3c-.6-.43-1.56-1-2.89-1.82l-1.59-.92c-2.32-1.36-4.13-2.5-5.42-3.4a14.51 14.51 0 0 1-3.48-3.51A8.11 8.11 0 0 1 61.1 104a8.69 8.69 0 0 1 1.61-5.14 10.64 10.64 0 0 1 4.53-3.56 16.92 16.92 0 0 1 6.81-1.3 20.19 20.19 0 0 1 5.45.77 16.59 16.59 0 0 1 4.79 2.09l-2.77 6.3a42.1 42.1 0 0 0-4.17-1.23 15.86 15.86 0 0 0-3.2-.31 4 4 0 0 0-2.48.72 2.14 2.14 0 0 0-1 1.74 1.69 1.69 0 0 0 .8 1.36 23.53 23.53 0 0 0 2.68 1.56l1.85 1a59.42 59.42 0 0 1 5.37 3.41 16.18 16.18 0 0 1 3.63 3.7 8 8 0 0 1 1.51 4.79 8.66 8.66 0 0 1-1.69 5.27A11.33 11.33 0 0 1 80 128.8a18.64 18.64 0 0 1-7.33 1.33zm16.43-17.91a19.26 19.26 0 0 1 2.3-9.44 16.53 16.53 0 0 1 6.4-6.5 18.33 18.33 0 0 1 9.26-2.28 18.82 18.82 0 0 1 9.6 2.35 16 16 0 0 1 6.24 6.45 19.13 19.13 0 0 1 2.18 9.11 19.45 19.45 0 0 1-2.28 9.49 16.26 16.26 0 0 1-6.37 6.5 20.06 20.06 0 0 1-18.86 0 16.32 16.32 0 0 1-6.27-6.47 18.91 18.91 0 0 1-2.2-9.21zm18.07-10.49a7.45 7.45 0 0 0-4.28 1.3 9.16 9.16 0 0 0-3.07 3.69 12.3 12.3 0 0 0-1.15 5.45 11.63 11.63 0 0 0 2.23 7.37 7.3 7.3 0 0 0 6.1 2.86 7.76 7.76 0 0 0 6.12-2.73c1.58-1.83 2.38-4.43 2.38-7.81a11.27 11.27 0 0 0-2.28-7.29 7.36 7.36 0 0 0-6.05-2.84zm23.33 27.56v-35h14.72a17.06 17.06 0 0 1 10.35 3q4.06 3 4.06 9a11.28 11.28 0 0 1-1.26 5.43 10.67 10.67 0 0 1-3.47 3.84l7.72 13.79h-11.7l-5.44-11h-6v11zm19.8-22.55a4.2 4.2 0 0 0-1.28-3.32 5.29 5.29 0 0 0-3.62-1.13h-4.9v9h5A4.82 4.82 0 0 0 149 110a4.31 4.31 0 0 0 1.3-3.26zm13.2-11.45h32l.93 7H183.5v27h-9v-27h-11zm59.79 27l.84 7H199.5v-34h23.79l.84 7H208.5v6h10.23l.83 7H208.5v7z" fill="#fff"/><path class="cls-2" d="M149.5 193.79H231v121.5M58 179.79h91v28H58zm-1.5 14H0m58.5 121.5v-67h91v67m55.5-.5v-86"/><path class="cls-2" d="M188 231.79h17l2-27h-17l-2 27zm-19 7h17l2-27h-17l-2 27zm-141 76h337m-129-15h95v15h-95zm-132.5-51.5v69.5"/></g></g></svg>