<svg id="Camada_1" xmlns="http://www.w3.org/2000/svg" viewBox="0 0 2371.5 922"><style>.st0{fill:#da911f}.st1{fill:none;stroke:#fff;stroke-width:17;stroke-miterlimit:10}</style><g id="Camada_2"><g id="Camada_1-2"><path class="st0" d="M1192.5 651.1h45V759h-45z"/><path transform="rotate(-17.64 690.246 601.473)" class="st0" d="M649.5 489.5h81.2v223.9h-81.2z"/><path transform="rotate(-17.64 653.29 493.757)" class="st0" d="M622.6 452.8h61.1v81.9h-61.1z"/><path class="st1" d="M1555.5 922V338h816"/><circle class="st0" cx="1421.5" cy="539" r="45"/><path class="st1" d="M1552.8 338.5h-48.3v-88H2379m-1548 613v-214h139.9v110H1337v-270h132v361h84.5"/><path class="st1" d="M903.5 649.5V595h67v54.5m198 110v-103h40v103m-20.5-110v-97m-355 104h69v69h-69zm0 69h69v69h-69zm0 69h69v69h-69zm335.5-86H970.9m366.6 0h-129m-19.5-147c-48 52.8-218.5 50.4-218.5 50.4m366.5.1s-91 1.2-149-47.6"/><circle class="st1" cx="1403" cy="547.5" r="30"/><path class="st1" d="M1316 605.5h168m-167.5-116h168m-147.5 0l66-77 64 77m-92 141v201m29-200.5v201m29-200.5v201m-600-107H692l-30 138"/><path class="st1" d="M705 849.5l17-81h109m-126-49l26-114h90l10 57m-83-62l20-123h18l25.7 128m-34.9-128v-65"/><path class="st1" d="M740.2 725.5l14.8-76h38l13 70m-119.7 32.2L548.6 613.9 324 838.5m1145.3-162h84.2m-42.1 0v-81h42.1"/><path class="st1" d="M714.8 676.5l-47.8-187-91 39 39.8 152.7"/><path class="st1" d="M649.5 497L635 444.5l-62 30 17 51m9.7-63.9L584 419.5M460.7 701.8V585.5H520v-46h-72l-9-22v-28l-20-12"/><path class="st1" d="M384.3 733V585.5H325v-46h72l9-22v-28l20-12m94 70h33l5 30h-37.5"/><path class="st1" d="M326 547.5h-33l-5 30h37.5m100.5 156h-93v-103H0"/><path class="st1" d="M281.6 630.5v-190H174V631m1464-520.5l-30.9 137m62.9-137l39.9 136.2M1964 477.5h131v58h-131zm-308 190h131v58h-131zm-100.5-275.4H2391"/><path class="st0" d="M1512.5 99V0h54v19h77v12h128v48h-124v15h-78l-4 4z"/><path class="st1" d="M1488 21.5h54v99h-54zm54 12.5h81v76.5h-81m81-62.3h124V103h-124m124-32h37V48.5M261 441V247.5h-65v193"/></g></g></svg>