<svg xmlns="http://www.w3.org/2000/svg" viewBox="0 0 120.82 110.33"><defs><style>.cls-2{fill:#fff}</style></defs><g id="Camada_2" data-name="Camada 2"><g id="Camada_3" data-name="Camada 3"><g id="_Grupo_" data-name="&lt;Grupo&gt;"><g id="_Grupo_2" data-name="&lt;Grupo&gt;"><path id="_Caminho_" data-name="&lt;Caminho&gt;" fill="#da911f" d="M8.64 58.31l54.43-47.42 57.75 47.07-53.62 52.37L8.64 58.31z"/></g><g id="_Grupo_3" data-name="&lt;Grupo&gt;"><g id="_Grupo_4" data-name="&lt;Grupo&gt;"><g id="_Grupo_5" data-name="&lt;Grupo&gt;"><path id="_Caminho_2" data-name="&lt;Caminho&gt;" class="cls-2" d="M39.4 108.8L.86 71.58 4.8 67.5l34.74 33.56 53.8-48.42L39.42 8.06l-16.5 12.98-3.5-4.45L39.51.78l62.5 51.68L39.4 108.8z"/><path class="cls-2" d="M39.38 109.64L0 71.59l4.78-5 34.77 33.59 52.86-47.52-53-43.82-16.59 13.05-4.26-5.4L39.52 0 103 52.44l-.53.48zM1.72 71.56L39.41 108l61.67-55.49L39.5 1.57 20.28 16.69 23 20.18 39.43 7.27l54.85 45.35-.53.48-54.23 48.8L4.81 68.37z" id="_Grupo_6" data-name="&lt;Grupo&gt;"/></g></g><g id="_Grupo_7" data-name="&lt;Grupo&gt;"><g id="_Grupo_8" data-name="&lt;Grupo&gt;"><path class="cls-2" d="M100.51 99.27H88.73l6.12-11.56V52.55h5.66v36.57l-2.37 4.49h2.37v5.66z" id="_Grupo_9" data-name="&lt;Grupo&gt;"/><path class="cls-2" d="M101.12 99.88h-13.4l6.52-12.32V51.94h6.88v37.33l-2 3.73h2zm-11.38-1.22H99.9v-4.44h-2.78L99.9 89V53.16h-4.44v34.71z" id="_Grupo_10" data-name="&lt;Grupo&gt;"/></g></g><g id="_Grupo_11" data-name="&lt;Grupo&gt;"><g id="_Grupo_12" data-name="&lt;Grupo&gt;"><path class="cls-2" d="M58.27 105.52c-2.18 0-6.07-.38-8.59-2.86A7.9 7.9 0 0 1 47.46 96l5.64.51a2.31 2.31 0 0 0 .55 2.07c1 1 3.2 1.24 4.67 1.24 3.51-3.21 18.31-16.79 21.92-20.4 2.11-2.11.51-8.23-.6-10.87l5.21-2.21c.5 1.19 4.76 11.72-.61 17.09-4.11 4.2-22.03 20.57-22.8 21.3l-.68.62-.93.1a15.33 15.33 0 0 1-1.56.07z" id="_Grupo_13" data-name="&lt;Grupo&gt;"/><path class="cls-2" d="M58.27 106.13c-2.21 0-6.33-.39-9-3A8.5 8.5 0 0 1 46.85 96l.06-.6 6.85.62v.6c-.1 1.12.24 1.46.37 1.59.77.75 2.62 1 4.06 1.06C62.58 95.18 76.38 82.51 79.86 79c1.77-1.77.39-7.52-.74-10.2l-.23-.56 6.33-2.69.24.56c.52 1.23 4.91 12.11-.73 17.76-4.16 4.15-22.11 20.58-22.87 21.27l-.84.77-1.12.12c-.22.05-.81.1-1.63.1zM48 96.7a7.18 7.18 0 0 0 2.08 5.52c2.38 2.34 6.13 2.69 8.16 2.69.76 0 1.3 0 1.5-.06l.72-.08.54-.49c.76-.7 18.7-17.11 22.83-21.25 4.6-4.59 1.67-13.36.71-15.84l-4.1 1.73c1 2.63 2.58 8.64.25 11-3.52 3.52-17.69 16.5-21.91 20.39l-.17.16h-.29c-.86 0-3.76-.1-5.09-1.41a2.62 2.62 0 0 1-.76-2z" id="_Grupo_14" data-name="&lt;Grupo&gt;"/></g></g><g id="_Grupo_15" data-name="&lt;Grupo&gt;"><g id="_Grupo_16" data-name="&lt;Grupo&gt;"><path class="cls-2" transform="rotate(-39.96 12.09 26.957)" d="M6.39 24.12h11.39v5.66H6.39z" id="_Grupo_17" data-name="&lt;Grupo&gt;"/><path class="cls-2" d="M9.47 33.64l-4.42-5.28 9.66-8.09 4.42 5.27zm-2.71-5.12l2.86 3.4 7.79-6.53L14.56 22z" id="_Grupo_18" data-name="&lt;Grupo&gt;"/></g></g></g></g></g></g></svg>