<svg xmlns="http://www.w3.org/2000/svg" viewBox="0 0 96.21 108.96"><defs><style>.cls-2{fill:#fff}</style></defs><g id="Camada_2" data-name="Camada 2"><g id="Camada_3" data-name="Camada 3"><g id="_Grupo_" data-name="&lt;Grupo&gt;"><path id="_Caminho_" data-name="&lt;Caminho&gt;" fill="#da911f" d="M28.31 21.85h67.36v87.11H28.31z"/></g><g id="_Grupo_2" data-name="&lt;Grupo&gt;"><path class="cls-2" d="M12.18 75.02h47.97v4.69H12.18z" id="_Grupo_3" data-name="&lt;Grupo&gt;"/></g><g id="_Grupo_4" data-name="&lt;Grupo&gt;"><path class="cls-2" d="M12.18 65.1h47.97v4.69H12.18z" id="_Grupo_5" data-name="&lt;Grupo&gt;"/></g><g id="_Grupo_6" data-name="&lt;Grupo&gt;"><path class="cls-2" d="M12.18 12.25h47.97v4.69H12.18z" id="_Grupo_7" data-name="&lt;Grupo&gt;"/></g><g id="_Grupo_8" data-name="&lt;Grupo&gt;"><path class="cls-2" d="M12.18 50.62h32.81v4.69H12.18z" id="_Grupo_9" data-name="&lt;Grupo&gt;"/></g><g id="_Grupo_10" data-name="&lt;Grupo&gt;"><path class="cls-2" d="M12.18 40.97h32.81v4.69H12.18z" id="_Grupo_11" data-name="&lt;Grupo&gt;"/></g><g id="_Grupo_12" data-name="&lt;Grupo&gt;"><path class="cls-2" d="M12.18 31.32h32.81v4.69H12.18z" id="_Grupo_13" data-name="&lt;Grupo&gt;"/></g><g id="_Grupo_14" data-name="&lt;Grupo&gt;"><g id="_Grupo_15" data-name="&lt;Grupo&gt;"><g id="_Grupo_16" data-name="&lt;Grupo&gt;"><path class="cls-2" d="M70.55 51.13L58.29 38.87l3.62-3.61 8.64 8.64L92.6 21.85l3.61 3.61-25.66 25.67z" id="_Grupo_17" data-name="&lt;Grupo&gt;"/></g></g><g id="_Grupo_18" data-name="&lt;Grupo&gt;"><path class="cls-2" d="M88.65 37.22c0 .47.06.94.06 1.42a16.71 16.71 0 1 1-5.52-12.39l3.61-3.61a21.68 21.68 0 1 0 6.2 10.2z" id="_Grupo_19" data-name="&lt;Grupo&gt;"/></g></g><path class="cls-2" d="M0 0v20.26h6.07V6.07h60.17v9.5a17.72 17.72 0 0 1 6.06-.71V0z" id="_Grupo_20" data-name="&lt;Grupo&gt;"/><g id="_Grupo_21" data-name="&lt;Grupo&gt;"><path class="cls-2" d="M0 28.85h6.07v9.79H0z" id="_Grupo_22" data-name="&lt;Grupo&gt;"/><path class="cls-2" d="M66.24 62.39v25.74H6.07V67.44H0v26.75h72.3v-31a21.26 21.26 0 0 1-6.06-.8z" id="_Grupo_23" data-name="&lt;Grupo&gt;"/></g></g></g></svg>