<svg xmlns="http://www.w3.org/2000/svg" viewBox="0 0 121.03 107.24"><defs><style>.cls-2{fill:#fff}</style></defs><g id="Camada_2" data-name="Camada 2"><g id="Camada_3" data-name="Camada 3"><path id="_Caminho_" data-name="&lt;Caminho&gt;" fill="#da911f" d="M27.8 81.24l74.83-73.86 18.4 18.47-73.64 75.41L27.8 81.24z"/><g id="_Grupo_" data-name="&lt;Grupo&gt;"><path class="cls-2" transform="rotate(-45 36.85 52.316)" d="M32.86 49.57h7.99v5.49h-7.99z" id="_Grupo_2" data-name="&lt;Grupo&gt;"/><path class="cls-2" d="M32.32 60.73l-3.88-3.88L9.77 75.51a.93.93 0 0 0-.16.18l-.12.16-.11.19a.3.3 0 0 1 0 .08l-.07.16v.08a.69.69 0 0 0-.05.13L6 86l-1.15 3.44-4.71 14.19a2.75 2.75 0 0 0 3.47 3.47l14.19-4.71 3.48-1.15 9.37-3.11h.21L31 98h.08l.18-.12.17-.12a1.37 1.37 0 0 0 .18-.16l52-52 .45.45a2.49 2.49 0 0 0 3.65-.23l7.75-7.76a2.47 2.47 0 0 0 .23-3.64l-.45-.46 11.05-11a2.74 2.74 0 0 0 0-3.89L88.36.8a2.75 2.75 0 0 0-3.88 0l-11.1 11.11a2.74 2.74 0 0 0-3.41.37L62.21 20a2.76 2.76 0 0 0-.37 3.42L46.27 39l3.88 3.88 15-15L68.22 31 18.66 80.52l-3.06-3.07zM92 29.41L77.83 15.22l8.59-8.59 14.19 14.19zM68 22l3.87-3.86L90 36.21l-3.87 3.87zm5.8 14.55L24.25 86.11l-3-3 49.56-49.56zm-47 52.14l49.59-49.55 3 3-49.61 49.5zM9.78 92a22.32 22.32 0 0 1 3 2.48 23.11 23.11 0 0 1 2.48 3l-8.15 2.7zm3.14-9.47l11.77 11.79-5.86 1.94a25.65 25.65 0 0 0-3.5-4.36A25.29 25.29 0 0 0 11 88.41z" id="_Grupo_3" data-name="&lt;Grupo&gt;"/></g><path class="cls-2" d="M27.9 42.09l3-3 4.72 4.72 2.59-2.59-4.73-4.72 3-3 4.72 4.73 2.59-2.59L39 31l3.07-3.06 4.72 4.72 3.88-3.88-5.27-5.33A2.76 2.76 0 0 0 45 20l-7.75-7.75a2.74 2.74 0 0 0-3.41-.37L22.76.8a2.76 2.76 0 0 0-3.89 0L.8 18.87a2.76 2.76 0 0 0 0 3.89l11.06 11.05-.45.46a2.47 2.47 0 0 0 .23 3.64l7.75 7.76a2.49 2.49 0 0 0 3.61.23l.45-.45 5.25 5.24 3.88-3.88zM6.63 20.82L20.82 6.63l8.59 8.59-14.19 14.19zM21.1 40.08l-3.87-3.87 18.1-18.1L39.2 22z" id="_Grupo_4" data-name="&lt;Grupo&gt;"/><path class="cls-2" d="M107.1 103.63l-4.71-14.19-1.15-3.44-3.11-9.37a.69.69 0 0 0 0-.13v-.08l-.13-.2a.3.3 0 0 1 0-.08l-.18-.14-.12-.16a.93.93 0 0 0-.16-.18L78.8 56.85l-3.88 3.88 16.72 16.72-3.06 3.07L71.85 63.8l-2.59 2.59L86 83.11l-3 3-16.73-16.73L63.68 72 80.4 88.69l-3 3-16.67-16.77-3.88 3.88 18.66 18.67a1.45 1.45 0 0 0 .18.16l.16.12.19.12h.08l.16.07h.21l9.51 3.3 3.48 1.15 14.19 4.71a2.75 2.75 0 0 0 3.47-3.47zm-18.69-7.37l-5.87-1.94 11.78-11.78 1.94 5.87a25.35 25.35 0 0 0-7.85 7.85zm3.6 1.2A21.6 21.6 0 0 1 97.46 92l2.7 8.15z" id="_Grupo_5" data-name="&lt;Grupo&gt;"/></g></g></svg>