<svg xmlns="http://www.w3.org/2000/svg" viewBox="0 0 196.52 74.29"><defs><style>.cls-1{fill:#fff}.cls-2{fill:#d9912a}</style></defs><g id="Camada_2" data-name="Camada 2"><g id="Camada_1-2" data-name="Camada 1"><path id="_Caminho_" data-name="&lt;Caminho&gt;" class="cls-1" d="M60.1 18.41H46.27l7.34 17.64-2.74 6.43-2.68-6.43-7.34-17.64H27.02l7.34 17.64-9.68 22.65h13.84l2.7-6.33 2.72 6.33h13.83l9.67-22.65-7.34-17.64z"/><g id="_Grupo_" data-name="&lt;Grupo&gt;"><g id="_Grupo_2" data-name="&lt;Grupo&gt;"><path id="_Caminho_2" data-name="&lt;Caminho&gt;" class="cls-2" d="M159.37 46.29h13.83l4.37-10.24-7.34-17.64H156.4l7.34 17.64-4.37 10.24z"/><path id="_Caminho_3" data-name="&lt;Caminho&gt;" class="cls-2" d="M157.65 50.32l-3.58 8.38h13.83l3.58-8.38h-13.83z"/></g></g><path id="_Caminho_composto_" data-name="&lt;Caminho composto&gt;" class="cls-1" d="M152.15 18.42h-32.93l7.34 17.63-9.68 22.65h13.83l3-6.93H139l-3 6.93h13.83l9.67-22.65zm-10.24 26.42h-5.27l3.75-8.79-2.45-5.88h5.27l2.45 5.88z"/><path id="_Caminho_composto_2" data-name="&lt;Caminho composto&gt;" class="cls-1" d="M97.43 18.42H64.17l7.34 17.63-9.67 22.65H95.1l9.68-22.65zM80.69 47l4.65-10.9-2.45-5.88h5.61l2.5 5.83L86.29 47z"/><g id="_Grupo_3" data-name="&lt;Grupo&gt;"><path id="_Caminho_4" data-name="&lt;Caminho&gt;" class="cls-1" d="M50.61 2.22h2.75l.66 3a13.31 13.31 0 0 0 .88 2.94l1.26-6h2.78v12.31h-2V8.23h-.22L55.74 13c-1.81.34-1.86.31-2.21-1.34a22.11 22.11 0 0 0-.87-3.43v6.24h-2z"/><path id="_Caminho_composto_3" data-name="&lt;Caminho composto&gt;" class="cls-1" d="M63.63 14.52V2.09a38.06 38.06 0 0 1 4.47.41 2.19 2.19 0 0 1 1.56 2.25c0 2.41.08 4.83 0 7.24A2.52 2.52 0 0 1 67 14.51c-1.12.04-2.2.01-3.37.01zm2.3-2.29c1.12.24 1.52-.26 1.53-1.19V5.65c0-1-.48-1.36-1.52-1.07z"/><path id="_Caminho_composto_4" data-name="&lt;Caminho composto&gt;" class="cls-1" d="M77.4 14.47h-2.26l-.35-1.77H73l-.37 1.78H70.4c.51-3.12 1-6.18 1.49-9.23 0-.28.1-.57.14-.85.33-2.39.4-2.46 2.78-2.2.24 0 .64.28.67.47.66 3.91 1.28 7.82 1.92 11.8zm-2.85-4l-.51-4h-.3l-.51 4z"/><path id="_Caminho_composto_5" data-name="&lt;Caminho composto&gt;" class="cls-1" d="M36.24 14.48H34l-.37-1.79h-1.78l-.36 1.76h-2.23c.29-1.87.57-3.73.87-5.6s.67-3.91.94-5.88c.09-.66.38-.8 1-.81 2.26 0 2.22 0 2.55 2.14.49 3.36 1.06 6.7 1.62 10.18zm-2.85-4l-.52-4h-.29l-.51 4z"/><path id="_Caminho_5" data-name="&lt;Caminho&gt;" class="cls-1" d="M48.41 7.13v2.24H46v2.9h3v2.19h-5.33V2.26H49v2.16h-3v2.71z"/><path id="_Caminho_6" data-name="&lt;Caminho&gt;" class="cls-1" d="M37.49 2.24h2.19V12.3h3v2.16h-5.19z"/><path id="_Caminho_7" data-name="&lt;Caminho&gt;" class="cls-1" d="M48.2.13c-.64 1-1.28 1.78-2.55 1.32.45-1.52.61-1.6 2.55-1.32z"/></g><g id="_Grupo_4" data-name="&lt;Grupo&gt;"><path id="_Caminho_8" data-name="&lt;Caminho&gt;" class="cls-1" d="M108.63 36.05L98.96 58.7h13.83l9.67-22.65-9.02-21.66h55.07l-4.89-11.75H80.46v11.75h19.15l9.02 21.66z"/><path id="_Caminho_9" data-name="&lt;Caminho&gt;" class="cls-1" d="M182.6 2.64h-13.67l7.3 17.9 6.46 15.51-10.72 26.49H18.73l11.03-26.49-9.02-21.66h4.85V2.64H2.06l13.87 33.41L0 74.29h180.59l15.93-38.24L182.6 2.64z"/></g></g></g></svg>