<svg id="Camada_1" xmlns="http://www.w3.org/2000/svg" viewBox="0 0 933 359"><style>.st0{fill:#13253b}.st1{fill:#f28c1a}</style><path id="XMLID_3966_" class="st0" d="M289.6 91.7h-64.8l34.4 82.6-12.9 30.1-12.5-30.1-34.5-82.6h-64.8l34.5 82.6-45.4 106.2h64.8l12.7-29.7 12.7 29.7h64.8L324 174.3z"/><g id="XMLID_3959_"><g id="XMLID_25_"><path id="XMLID_27_" class="st1" d="M754.8 222.3h64.8l20.5-48-34.4-82.6h-64.8l34.4 82.6z"/><path id="XMLID_26_" class="st1" d="M746.7 241.2l-16.8 39.3h64.8l16.8-39.3z"/></g></g><path id="XMLID_3951_" class="st0" d="M720.9 91.7H566.5l34.4 82.6-45.3 106.1h64.8l13.9-32.5H659l-13.9 32.5H710l45.3-106.1-34.4-82.6zM673 215.5h-24.7l17.6-41.2-11.5-27.6h24.7l11.5 27.6-17.6 41.2z"/><path id="XMLID_3943_" class="st0" d="M464.5 91.7H308.4l34.4 82.6-45.3 106.1h155.9l45.3-106.1-34.2-82.6zM386 225.4l21.8-51.1-11.5-27.6h26.3l11.5 27.6-21.8 51.1H386z"/><g id="XMLID_3908_"><path id="XMLID_3942_" class="st0" d="M245.1 15.8H258c1 4.8 2.1 9.6 3.1 14.3 1 4.6 2 9.1 4.1 13.8 2-9.2 3.9-18.5 5.9-28h13v57.3h-9.5V44c-.3 0-.7-.1-1-.1-1.5 7.5-3 15-4.5 22.4-8.5 1.6-8.7 1.5-10.3-6.3-1.1-5.4-2.1-10.8-4.1-16.1v29.2h-9.6V15.8z"/><path id="XMLID_3939_" class="st0" d="M306.1 73.4V15.2c7.2.6 14.2.5 21 1.9 4.8 1 7.2 5.7 7.3 10.5.3 11.3.4 22.6-.1 33.9-.3 7.4-5.2 11.6-12.6 11.8-5 .3-10.1.1-15.6.1zm10.8-10.7c5.2 1.1 7.1-1.2 7.1-5.6.1-8.4.1-16.8 0-25.3 0-4.5-2.3-6.4-7.1-5.1v36z"/><path id="XMLID_3936_" class="st0" d="M370.6 73.2h-10.5c-.5-2.7-1.1-5.3-1.6-8.3h-8.3c-.6 2.7-1.1 5.4-1.8 8.3h-10.5c2.4-14.6 4.7-28.9 7-43.2.2-1.3.5-2.7.6-4 1.6-11.2 1.9-11.5 13-10.3 1.2.1 3 1.3 3.2 2.2 3 18.3 5.9 36.6 8.9 55.3zm-13.3-18.8c-.8-6.6-1.6-12.6-2.4-18.6h-1.4c-.8 6.1-1.6 12.1-2.4 18.6h6.2z"/><path id="XMLID_3933_" class="st0" d="M177.7 73.2h-10.5c-.6-2.7-1.1-5.4-1.8-8.4h-8.3c-.5 2.7-1.1 5.3-1.7 8.3h-10.5c1.4-8.8 2.7-17.5 4.1-26.2 1.5-9.2 3.2-18.3 4.4-27.5.4-3.1 1.8-3.8 4.6-3.8 10.6-.1 10.4-.2 12 10 2.5 15.7 5.1 31.3 7.7 47.6zm-13.3-18.8c-.9-6.6-1.7-12.7-2.4-18.8h-1.4c-.8 6.1-1.6 12.3-2.4 18.8h6.2z"/><path id="XMLID_3932_" class="st0" d="M234.8 38.8v10.5h-11.5v13.6h14.2v10.3h-24.9V16.1h24.9v10.1h-14.2v12.7c3.7-.1 7.5-.1 11.5-.1z"/><path id="XMLID_3931_" class="st0" d="M183.6 15.9h10.2V63h13.9v10.2h-24.2c.1-19 .1-38 .1-57.3z"/><path id="XMLID_3930_" class="st0" d="M233.8 6c-3 4.7-6 8.4-12 6.2 2.2-7.1 2.9-7.5 12-6.2z"/></g><g id="XMLID_3901_"><path id="XMLID_3907_" class="st0" d="M517 174.3l-45.3 106.2h64.8l45.3-106.2-42.3-101.5h258.1l-22.9-55.1H385v55.1h89.7z"/><path id="XMLID_3906_" class="st0" d="M863.7 17.7h-64.1l34.2 83.9 30.3 72.7-50.3 124.2H95.7l51.7-124.2-42.3-101.5h22.7V17.7H17.6l65 156.6L7.9 353.5h846.3l74.7-179.2z"/></g></svg>