<svg id="Camada_1" xmlns="http://www.w3.org/2000/svg" xmlns:xlink="http://www.w3.org/1999/xlink" viewBox="0 0 408.9 546.4"><style>.st2{fill:#f28c1a}.st3{fill:#fff}</style><path id="XMLID_14_" fill="#13253b" d="M0 0h408.9v546.4H0z"/><g id="XMLID_16_"><defs><path id="XMLID_19_" d="M1 0h408.9v546.4H1z"/></defs><clipPath id="XMLID_70_"><use xlink:href="#XMLID_19_" overflow="visible"/></clipPath><g id="XMLID_18_" clip-path="url(#XMLID_70_)"><g id="XMLID_62_"><path id="XMLID_64_" class="st2" d="M-8.4 429.1l299.2-148.6-15.4-268.6-348.5-302.6-299.2 148.6 348.5 302.7z"/><path id="XMLID_63_" class="st2" d="M-2.4 534.8l12.6 219.8L309.5 606l-12.6-219.9z"/></g></g></g><g id="XMLID_20_"><path id="XMLID_61_" class="st3" d="M339.4 497.9h-6l3.2 7.6-1.2 2.8-1.2-2.8-3.1-7.6h-6l3.2 7.6-4.2 9.7h6l1.1-2.7 1.2 2.7h6l4.1-9.7z"/><g id="XMLID_54_"><g id="XMLID_55_"><path id="XMLID_57_" class="st2" d="M382.1 509.9h5.9l1.9-4.4-3.1-7.6h-6l3.2 7.6z"/><path id="XMLID_56_" class="st2" d="M381.4 511.6l-1.6 3.6h6l1.5-3.6z"/></g></g><path id="XMLID_51_" class="st3" d="M379 497.9h-14.3l3.2 7.6-4.2 9.7h6l1.3-3h2.3l-1.3 3h6l4.2-9.7-3.2-7.6zm-4.4 11.4h-2.3l1.6-3.8-1.1-2.5h2.3l1.1 2.5-1.6 3.8z"/><path id="XMLID_45_" class="st3" d="M355.4 497.9h-14.3l3.2 7.6-4.2 9.7h14.3l4.2-9.7-3.2-7.6zm-7.2 12.3l2-4.7-1.1-2.5h2.4l1.1 2.5-2 4.7h-2.4z"/><g id="XMLID_26_"><path id="XMLID_40_" class="st3" d="M335.3 490.9h1.2c.1.4.2.9.3 1.3.1.4.2.8.4 1.3.2-.8.4-1.7.5-2.6h1.2v5.3h-.9v-2.7h-.1c-.1.7-.3 1.4-.4 2.1-.8.1-.8.1-.9-.6-.1-.5-.2-1-.4-1.5v2.7h-.9v-5.3z"/><path id="XMLID_36_" class="st3" d="M340.9 496.2v-5.3c.7.1 1.3 0 1.9.2.4.1.7.5.7 1v3.1c0 .7-.5 1.1-1.2 1.1-.4-.1-.9-.1-1.4-.1zm1-1c.5.1.7-.1.7-.5v-2.3c0-.4-.2-.6-.7-.5v3.3z"/><path id="XMLID_33_" class="st3" d="M346.8 496.2h-1c0-.3-.1-.5-.2-.8h-.8c-.1.2-.1.5-.2.8h-1c.2-1.3.4-2.7.6-4 0-.1 0-.2.1-.4.1-1 .2-1.1 1.2-.9.1 0 .3.1.3.2.5 1.7.7 3.4 1 5.1zm-1.2-1.7c-.1-.6-.1-1.2-.2-1.7h-.1c-.1.6-.1 1.1-.2 1.7h.5z"/><path id="XMLID_30_" class="st3" d="M329.1 496.2h-1c-.1-.2-.1-.5-.2-.8h-.8c0 .2-.1.5-.2.8h-1c.1-.8.2-1.6.4-2.4.1-.8.3-1.7.4-2.5 0-.3.2-.3.4-.3 1 0 1 0 1.1.9.4 1.4.7 2.8.9 4.3zm-1.2-1.7c-.1-.6-.2-1.2-.2-1.7h-.1c-.1.6-.1 1.1-.2 1.7h.5z"/><path id="XMLID_29_" class="st3" d="M334.3 493v1h-1.1v1.2h1.3v.9h-2.3v-5.2h2.3v.9h-1.3v1.2h1.1z"/><path id="XMLID_28_" class="st3" d="M329.6 490.9h.9v4.3h1.3v.9h-2.2v-5.2z"/><path id="XMLID_27_" class="st3" d="M334.2 490c-.3.4-.6.8-1.1.6.2-.7.3-.7 1.1-.6z"/></g><g id="XMLID_21_"><path id="XMLID_25_" class="st3" d="M360.3 505.5l-4.2 9.7h5.9l4.2-9.7-3.9-9.3H386l-2.1-5.1h-35.8v5.1h8.3z"/><path id="XMLID_22_" class="st3" d="M392.1 491.1h-5.9l3.1 7.7 2.8 6.7-4.6 11.4h-65.9l4.7-11.4-3.9-9.3h2.1v-5.1h-10.1l6 14.4-6.9 16.5h77.7l6.9-16.5z"/></g></g></svg>