<svg xmlns="http://www.w3.org/2000/svg" viewBox="0 0 392.88 97.11"><g data-name="Camada 2"><g data-name="Camada 3"><path d="M132.02 35.03h62.08v62.08h-62.08zm85.51 0h62.08v62.08h-62.08zm85.5 0h62.08v62.08h-62.08z" fill="#da911f"/><path d="M18.62 58.26a41.47 41.47 0 0 1-9.76-1.32 32.33 32.33 0 0 1-8.61-3.21l4.94-11.29a26.38 26.38 0 0 0 6.14 2.43A25.64 25.64 0 0 0 18.21 46a9.09 9.09 0 0 0 5.27-1.36 3.77 3.77 0 0 0 2-3A2.78 2.78 0 0 0 24 39.51q-1.44-1-4.66-2.92l-2.53-1.49q-5.61-3.29-8.73-5.48A23.12 23.12 0 0 1 2.47 24 13.14 13.14 0 0 1 0 16.15a14 14 0 0 1 2.6-8.28 17.17 17.17 0 0 1 7.29-5.73 27.13 27.13 0 0 1 11-2.06 32.73 32.73 0 0 1 8.77 1.24 26.24 26.24 0 0 1 7.67 3.38l-4.45 10.13a62.77 62.77 0 0 0-6.72-2 25 25 0 0 0-5.16-.47 6.47 6.47 0 0 0-4 1.15 3.43 3.43 0 0 0-1.53 2.81 2.71 2.71 0 0 0 1.28 2.18A36 36 0 0 0 21 21l3 1.65a96 96 0 0 1 8.65 5.48 25.69 25.69 0 0 1 5.89 5.93A13 13 0 0 1 41 41.78a13.92 13.92 0 0 1-2.72 8.48 17.93 17.93 0 0 1-7.78 5.85 30.17 30.17 0 0 1-11.88 2.15zM88.83 45.4l1.4 11.79h-41v-56h39.6l1.4 11.79h-26v10.17h17.18l1.4 11.79H64.19V45.4zm9.64 11.79v-56H122q10.07 0 16.57 4.78t6.51 14.34a18.1 18.1 0 0 1-2 8.69 17.08 17.08 0 0 1-5.56 6.14l12.36 22.09H132.5l-9.06-17.64h-10v17.6zm31.15-36.92a6.9 6.9 0 0 0-2.11-5.48 8.76 8.76 0 0 0-6-1.85h-8.08v14.83h8.25a7.94 7.94 0 0 0 5.68-2.1 7.11 7.11 0 0 0 2.26-5.4zm21.91-18.46L166.28.33l13.93 38.89 13.35-38.07h14.91l-21 56h-15zm79.35-.66v56h-15v-56zm47.96 67.74a8.64 8.64 0 0 1-3.46 7.21 13 13 0 0 1-8.16 2.67 14.82 14.82 0 0 1-4.94-.9 17.36 17.36 0 0 1-4.62-2.47l3.13-7.09a15.3 15.3 0 0 0 4.62 1.24 4.11 4.11 0 0 0 1.81-.37 1.19 1.19 0 0 0 .74-1.12q0-2.39-7-3.13l2.8-7A28.32 28.32 0 0 1 251 53a25.35 25.35 0 0 1-8.2-9.93 31.74 31.74 0 0 1-2.8-13.65 30.59 30.59 0 0 1 3.71-15.16 26.77 26.77 0 0 1 10.2-10.43 29.26 29.26 0 0 1 14.8-3.75 32.73 32.73 0 0 1 8.77 1.24 26.48 26.48 0 0 1 7.71 3.38l-4.45 10.13a63.45 63.45 0 0 0-6.72-2 25 25 0 0 0-5.15-.49 11.18 11.18 0 0 0-6.47 2.14 15.65 15.65 0 0 0-5 6 19.32 19.32 0 0 0-1.94 8.81 18.75 18.75 0 0 0 2 8.82 14.52 14.52 0 0 0 5.19 5.89 12.66 12.66 0 0 0 6.8 2 20.5 20.5 0 0 0 10.63-3l5.68 11.21a29.47 29.47 0 0 1-11.53 3.71l-1 2.55a7.16 7.16 0 0 1 4.2 3.42 10.33 10.33 0 0 1 1.41 5zm10.22-39.47a30.87 30.87 0 0 1 3.71-15.21 26.57 26.57 0 0 1 10.3-10.46A29.59 29.59 0 0 1 318 0a30.3 30.3 0 0 1 15.45 3.79 25.73 25.73 0 0 1 10.05 10.38 30.75 30.75 0 0 1 3.5 14.67 31.46 31.46 0 0 1-3.67 15.29 26.4 26.4 0 0 1-10.26 10.46 32.3 32.3 0 0 1-30.36-.08 26.31 26.31 0 0 1-10.1-10.43 30.47 30.47 0 0 1-3.55-14.66zm29.09-16.9a12 12 0 0 0-6.89 2.11 14.79 14.79 0 0 0-4.94 5.93 19.83 19.83 0 0 0-1.85 8.77q0 7.26 3.58 11.87a11.77 11.77 0 0 0 9.85 4.61 12.46 12.46 0 0 0 9.85-4.4q3.83-4.41 3.83-12.57 0-7.17-3.67-11.74a11.89 11.89 0 0 0-9.76-4.58zm52.4 45.74a41.4 41.4 0 0 1-9.76-1.32 32.55 32.55 0 0 1-8.62-3.21l4.95-11.29a26.38 26.38 0 0 0 6.14 2.43 25.64 25.64 0 0 0 6.88 1.13 9.13 9.13 0 0 0 5.27-1.36 3.77 3.77 0 0 0 2-3 2.78 2.78 0 0 0-1.44-2.1c-1-.69-2.52-1.66-4.66-2.92l-2.55-1.49q-5.61-3.29-8.74-5.48A23.26 23.26 0 0 1 354.4 24a13.14 13.14 0 0 1-2.47-7.83 14 14 0 0 1 2.59-8.28 17.14 17.14 0 0 1 7.3-5.73 27.13 27.13 0 0 1 11-2.06 32.73 32.73 0 0 1 8.77 1.24 26.48 26.48 0 0 1 7.71 3.38l-4.45 10.13a63.45 63.45 0 0 0-6.72-2 25 25 0 0 0-5.15-.49 6.52 6.52 0 0 0-4 1.15 3.44 3.44 0 0 0-1.52 2.81 2.69 2.69 0 0 0 1.28 2.18 35.19 35.19 0 0 0 4.2 2.5l3 1.65a96 96 0 0 1 8.65 5.48 25.69 25.69 0 0 1 5.89 5.93 13 13 0 0 1 2.43 7.71 14 14 0 0 1-2.72 8.48 18 18 0 0 1-7.78 5.85 30.2 30.2 0 0 1-11.86 2.16z" fill="#fff"/></g></g></svg>