<svg xmlns="http://www.w3.org/2000/svg" viewBox="0 0 1471.62 712.96"><defs><style>.cls-1{fill:none;stroke:#fff;stroke-miterlimit:10;stroke-width:17px;}</style></defs><title>about</title><g id="Camada_2" data-name="Camada 2"><g id="Camada_2-2" data-name="Camada 2"><polyline class="cls-1" points="630.99 105.13 666.74 105.13 683.12 135.63 630.99 135.63"/><polyline class="cls-1" points="387.12 105.13 351.38 105.13 334.99 135.63 387.12 135.63"/><polyline class="cls-1" points="6.62 707.63 142.62 538.63 242.62 484.63 284.62 326.63 286.62 318.55 440.45 318.55 440.45 296.82 466.54 296.82 466.54 263.28 466.54 142.79 380.21 142.79 380.21 96.84 469.64 96.84 487.03 63.92 487.03 30.38 506.91 11.13 528.64 27.28 529.27 63.3 546.03 96.84 638.99 96.84 638.99 144.04 544.79 144.04 544.79 298.06 573.98 298.06 573.98 318.55 678.94 318.55 678.94 350.23 780.79 503.63 840.62 503.63 938.62 601.63"/><polyline class="cls-1" points="250.11 456.48 180.62 359.63 38.62 281.63"/><polyline class="cls-1" points="334.62 643.63 445.62 509.63 609.62 488.63 819.62 613.63"/><polyline class="cls-1" points="936.12 583.13 1027.12 521.13 1208.12 540.13 1294.12 521.13 1467.12 629.13"/></g></g></svg>