<?xml version="1.0" encoding="utf-8"?>
<!-- Generator: Adobe Illustrator 21.0.0, SVG Export Plug-In . SVG Version: 6.00 Build 0)  -->
<svg version="1.1" id="Camada_1" xmlns="http://www.w3.org/2000/svg" xmlns:xlink="http://www.w3.org/1999/xlink" x="0px" y="0px"
	 viewBox="0 0 1471.6 713" style="enable-background:new 0 0 1471.6 713;" xml:space="preserve">
<style type="text/css">
	.st0{fill:none;stroke:#FFFFFF;stroke-width:17;stroke-miterlimit:10;}
</style>
<title>about</title>
<g id="Camada_2">
	<g id="Camada_2-2">
		<polyline class="st0" points="631,105.1 666.7,105.1 683.1,135.6 631,135.6 		"/>
		<polyline class="st0" points="387.1,105.1 351.4,105.1 335,135.6 387.1,135.6 		"/>
		<polyline class="st0" points="6.6,707.6 142.6,538.6 242.6,484.6 284.6,326.6 286.6,318.5 440.5,318.5 440.5,296.8 466.5,296.8 
			466.5,263.3 466.5,142.8 380.2,142.8 380.2,96.8 469.6,96.8 487,63.9 487,30.4 506.9,11.1 528.6,27.3 529.3,63.3 546,96.8 
			639,96.8 639,144 544.8,144 544.8,298.1 574,298.1 574,318.5 678.9,318.5 678.9,350.2 780.8,503.6 840.6,503.6 938.6,601.6 		"/>
		<polyline class="st0" points="250.1,456.5 180.6,359.6 0,277 		"/>
		<polyline class="st0" points="334.6,643.6 445.6,509.6 609.6,488.6 819.6,613.6 		"/>
		<polyline class="st0" points="936.1,583.1 1027.1,521.1 1208.1,540.1 1294.1,521.1 1467.1,629.1 		"/>
	</g>
</g>
</svg>
