<svg xmlns="http://www.w3.org/2000/svg" viewBox="0 0 773.03 187.77"><defs><style>.cls-1{fill:#da911f;}.cls-2{fill:#fff;}</style></defs><title>about-txt-m</title><g id="Camada_2" data-name="Camada 2"><g id="Camada_2-2" data-name="Camada 2"><rect class="cls-1" x="374.03" y="86.92" width="100.85" height="100.85"/><rect class="cls-1" x="523.11" y="86.92" width="100.85" height="100.85"/><rect class="cls-1" x="672.19" y="86.92" width="100.85" height="100.85"/><path class="cls-2" d="M31.42,131.38A70.1,70.1,0,0,1,15,129.16,53.82,53.82,0,0,1,.42,123.73l8.34-19a44.73,44.73,0,0,0,10.36,4.1,43.24,43.24,0,0,0,11.61,1.88,15.42,15.42,0,0,0,8.89-2.3Q43,106.08,43,103.3c0-1.21-.81-2.39-2.43-3.55s-4.24-2.8-7.86-4.93l-4.31-2.51q-9.45-5.55-14.73-9.24a39.25,39.25,0,0,1-9.46-9.52A22.2,22.2,0,0,1,0,60.34a23.58,23.58,0,0,1,4.38-14,28.82,28.82,0,0,1,12.3-9.67,45.86,45.86,0,0,1,18.49-3.47A55.68,55.68,0,0,1,50,35.31,44.59,44.59,0,0,1,63,41l-7.51,17.1a106.76,106.76,0,0,0-11.33-3.33,41.94,41.94,0,0,0-8.69-.84,10.85,10.85,0,0,0-6.74,2,5.75,5.75,0,0,0-2.57,4.73,4.54,4.54,0,0,0,2.15,3.68,60.58,60.58,0,0,0,7.16,4.24l5,2.78a161.16,161.16,0,0,1,14.59,9.25,43.36,43.36,0,0,1,10,10,21.91,21.91,0,0,1,4.1,13,23.59,23.59,0,0,1-4.59,14.32,30.58,30.58,0,0,1-13.14,9.87A50.93,50.93,0,0,1,31.42,131.38Z"/><path class="cls-2" d="M76.05,82.72A52.21,52.21,0,0,1,82.3,57.07,44.93,44.93,0,0,1,99.68,39.41a50.08,50.08,0,0,1,25.17-6.32q15,0,26.06,6.39a43.53,43.53,0,0,1,17,17.52,52.06,52.06,0,0,1,5.91,24.75,53,53,0,0,1-6.19,25.79,44.4,44.4,0,0,1-17.31,17.65,50.55,50.55,0,0,1-25.44,6.33q-14.75,0-25.79-6.46a44.31,44.31,0,0,1-17-17.59A51.38,51.38,0,0,1,76.05,82.72Zm49.08-28.5a20.12,20.12,0,0,0-11.61,3.55,24.86,24.86,0,0,0-8.35,10,33.64,33.64,0,0,0-3.12,14.8q0,12.24,6,20t16.62,7.79A21,21,0,0,0,141.32,103q6.47-7.44,6.47-21.2,0-12.09-6.19-19.81A20,20,0,0,0,125.13,54.22Z"/><path class="cls-2" d="M264.85,101.35q0,15-11.33,21.62t-28.71,6.6H189.08V35H222q16.82,0,27.87,6.81t11,20.43a17.5,17.5,0,0,1-2.36,9,40.68,40.68,0,0,1-6.39,8.06,31.34,31.34,0,0,1,9.24,9.74A23.46,23.46,0,0,1,264.85,101.35Zm-30-37.81a7.1,7.1,0,0,0-3.62-6.4q-3.62-2.22-10-2.22h-6.81v16h5.7A26,26,0,0,0,230.58,69C233.4,67.78,234.82,66,234.82,63.54Zm3.89,37.26a8.61,8.61,0,0,0-3.62-7.37q-3.61-2.64-10-2.64h-10.7v18.9h11q6.12,0,9.73-2.29A7.37,7.37,0,0,0,238.71,100.8Z"/><path class="cls-2" d="M278.75,129.57V35h39.76q17,0,27.94,8.06t11,24.19A30.5,30.5,0,0,1,354,82a28.69,28.69,0,0,1-9.38,10.35l20.85,37.26H336.17l-15.3-29.75H304.05v29.75ZM331.3,67.29q0-6.12-3.55-9.25t-10.08-3.12H304.05v25H318a13.44,13.44,0,0,0,9.6-3.54A12,12,0,0,0,331.3,67.29Z"/><path class="cls-2" d="M444.88,109.69l2.37,19.88H378V35h66.87l2.37,19.88H403.32V72.16h29.05L434.74,92H403.32v17.65Z"/><path class="cls-2" d="M510.25,79.8v49.77H485V35h23.5l36.42,51.3V35h25.31v94.53H546.54Z"/><path class="cls-2" d="M585.47,82.72a52.21,52.21,0,0,1,6.25-25.65A44.93,44.93,0,0,1,609.1,39.41a50.08,50.08,0,0,1,25.17-6.32q15,0,26.06,6.39A43.53,43.53,0,0,1,677.3,57a52.06,52.06,0,0,1,5.91,24.75A53,53,0,0,1,677,107.54a44.4,44.4,0,0,1-17.31,17.65,50.55,50.55,0,0,1-25.44,6.33q-14.74,0-25.79-6.46a44.31,44.31,0,0,1-17-17.59A51.38,51.38,0,0,1,585.47,82.72Zm49.07-28.5a20.11,20.11,0,0,0-11.6,3.55,24.86,24.86,0,0,0-8.35,10,33.64,33.64,0,0,0-3.12,14.8q0,12.24,6,20t16.62,7.79A21,21,0,0,0,650.74,103q6.46-7.44,6.47-21.2,0-12.09-6.19-19.81A20.05,20.05,0,0,0,634.54,54.22ZM656.23,0,640.38,27.67,622,24.61,631.21,0Z"/><path class="cls-2" d="M723,131.38a70.17,70.17,0,0,1-16.47-2.22A54.08,54.08,0,0,1,692,123.73l8.34-19a45.1,45.1,0,0,0,10.36,4.1,43.24,43.24,0,0,0,11.61,1.88,15.45,15.45,0,0,0,8.9-2.3q3.33-2.3,3.33-5.07c0-1.21-.81-2.39-2.43-3.55s-4.24-2.8-7.85-4.93l-4.31-2.51q-9.46-5.55-14.74-9.24a39.39,39.39,0,0,1-9.45-9.52,22.21,22.21,0,0,1-4.18-13.21,23.58,23.58,0,0,1,4.38-14,28.86,28.86,0,0,1,12.31-9.67,45.79,45.79,0,0,1,18.49-3.47,55.73,55.73,0,0,1,14.81,2.08,44.53,44.53,0,0,1,13,5.7L747,58.11a107.45,107.45,0,0,0-11.33-3.33,42,42,0,0,0-8.69-.84,10.9,10.9,0,0,0-6.75,2,5.78,5.78,0,0,0-2.57,4.73,4.55,4.55,0,0,0,2.16,3.68A58.93,58.93,0,0,0,727,68.54l5,2.78a161.48,161.48,0,0,1,14.6,9.25,43.31,43.31,0,0,1,9.94,10,21.91,21.91,0,0,1,4.1,13,23.59,23.59,0,0,1-4.59,14.32,30.48,30.48,0,0,1-13.13,9.87A51,51,0,0,1,723,131.38Z"/></g></g></svg>