<?xml version="1.0" encoding="utf-8"?>
<!-- Generator: Adobe Illustrator 19.0.0, SVG Export Plug-In . SVG Version: 6.00 Build 0)  -->
<svg version="1.1" id="Camada_1" xmlns="http://www.w3.org/2000/svg" xmlns:xlink="http://www.w3.org/1999/xlink" x="0px" y="0px"
	 viewBox="0 0 408.9 546.4" style="enable-background:new 0 0 408.9 546.4;" xml:space="preserve">
<style type="text/css">
	.st0{fill:#13253B;}
	.st1{clip-path:url(#XMLID_70_);}
	.st2{fill:#F28C1A;}
	.st3{fill:#FFFFFF;}
</style>
<rect id="XMLID_14_" class="st0" width="408.9" height="546.4"/>
<g id="XMLID_16_">
	<defs>
		<rect id="XMLID_19_" x="1" width="408.9" height="546.4"/>
	</defs>
	<clipPath id="XMLID_70_">
		<use xlink:href="#XMLID_19_"  style="overflow:visible;"/>
	</clipPath>
	<g id="XMLID_18_" class="st1">
		<g id="XMLID_62_">
			<polygon id="XMLID_64_" class="st2" points="-8.4,429.1 290.8,280.5 275.4,11.9 -73.1,-290.7 -372.3,-142.1 -23.8,160.6 			"/>
			<polygon id="XMLID_63_" class="st2" points="-2.4,534.8 10.2,754.6 309.5,606 296.9,386.1 			"/>
		</g>
	</g>
</g>
<g id="XMLID_20_">
	<polygon id="XMLID_61_" class="st3" points="339.4,497.9 333.4,497.9 336.6,505.5 335.4,508.3 334.2,505.5 331.1,497.9 
		325.1,497.9 328.3,505.5 324.1,515.2 330.1,515.2 331.2,512.5 332.4,515.2 338.4,515.2 342.5,505.5 	"/>
	<g id="XMLID_54_">
		<g id="XMLID_55_">
			<polygon id="XMLID_57_" class="st2" points="382.1,509.9 388,509.9 389.9,505.5 386.8,497.9 380.8,497.9 384,505.5 			"/>
			<polygon id="XMLID_56_" class="st2" points="381.4,511.6 379.8,515.2 385.8,515.2 387.3,511.6 			"/>
		</g>
	</g>
	<path id="XMLID_51_" class="st3" d="M379,497.9h-3h-3h-2.3h-1h-5l3.2,7.6l-4.2,9.7h6l1.3-3h2.3l-1.3,3h6l4.2-9.7L379,497.9z
		 M374.6,509.3h-2.3l1.6-3.8l-1.1-2.5h2.3l1.1,2.5L374.6,509.3z"/>
	<path id="XMLID_45_" class="st3" d="M355.4,497.9h-1.5h-4.4h-2.4h-1.9h-4.1l3.2,7.6l-4.2,9.7h5.1h0.9h2.4h5.4h0.5l4.2-9.7
		L355.4,497.9z M348.2,510.2l2-4.7l-1.1-2.5h2.4l1.1,2.5l-2,4.7H348.2z"/>
	<g id="XMLID_26_">
		<path id="XMLID_40_" class="st3" d="M335.3,490.9c0.4,0,0.8,0,1.2,0c0.1,0.4,0.2,0.9,0.3,1.3c0.1,0.4,0.2,0.8,0.4,1.3
			c0.2-0.8,0.4-1.7,0.5-2.6c0.4,0,0.8,0,1.2,0c0,1.7,0,3.5,0,5.3c-0.3,0-0.6,0-0.9,0c0-0.9,0-1.8,0-2.7c0,0-0.1,0-0.1,0
			c-0.1,0.7-0.3,1.4-0.4,2.1c-0.8,0.1-0.8,0.1-0.9-0.6c-0.1-0.5-0.2-1-0.4-1.5c0,0.9,0,1.8,0,2.7c-0.3,0-0.6,0-0.9,0
			C335.3,494.5,335.3,492.7,335.3,490.9z"/>
		<path id="XMLID_36_" class="st3" d="M340.9,496.2c0-1.8,0-3.5,0-5.3c0.7,0.1,1.3,0,1.9,0.2c0.4,0.1,0.7,0.5,0.7,1c0,1,0,2.1,0,3.1
			c0,0.7-0.5,1.1-1.2,1.1C341.9,496.2,341.4,496.2,340.9,496.2z M341.9,495.2c0.5,0.1,0.7-0.1,0.7-0.5c0-0.8,0-1.5,0-2.3
			c0-0.4-0.2-0.6-0.7-0.5C341.9,493,341.9,494.1,341.9,495.2z"/>
		<path id="XMLID_33_" class="st3" d="M346.8,496.2c-0.3,0-0.7,0-1,0c0-0.3-0.1-0.5-0.2-0.8c-0.2,0-0.5,0-0.8,0
			c-0.1,0.2-0.1,0.5-0.2,0.8c-0.3,0-0.6,0-1,0c0.2-1.3,0.4-2.7,0.6-4c0-0.1,0-0.2,0.1-0.4c0.1-1,0.2-1.1,1.2-0.9
			c0.1,0,0.3,0.1,0.3,0.2C346.3,492.8,346.5,494.5,346.8,496.2z M345.6,494.5c-0.1-0.6-0.1-1.2-0.2-1.7c0,0-0.1,0-0.1,0
			c-0.1,0.6-0.1,1.1-0.2,1.7C345.2,494.5,345.4,494.5,345.6,494.5z"/>
		<path id="XMLID_30_" class="st3" d="M329.1,496.2c-0.4,0-0.6,0-1,0c-0.1-0.2-0.1-0.5-0.2-0.8c-0.3,0-0.5,0-0.8,0
			c0,0.2-0.1,0.5-0.2,0.8c-0.3,0-0.6,0-1,0c0.1-0.8,0.2-1.6,0.4-2.4c0.1-0.8,0.3-1.7,0.4-2.5c0-0.3,0.2-0.3,0.4-0.3c1,0,1,0,1.1,0.9
			C328.6,493.3,328.9,494.7,329.1,496.2z M327.9,494.5c-0.1-0.6-0.2-1.2-0.2-1.7c0,0-0.1,0-0.1,0c-0.1,0.6-0.1,1.1-0.2,1.7
			C327.5,494.5,327.6,494.5,327.9,494.5z"/>
		<path id="XMLID_29_" class="st3" d="M334.3,493c0,0.3,0,0.6,0,1c-0.4,0-0.7,0-1.1,0c0,0.4,0,0.8,0,1.2c0.4,0,0.8,0,1.3,0
			c0,0.3,0,0.6,0,0.9c-0.8,0-1.5,0-2.3,0c0-1.7,0-3.5,0-5.2c0.8,0,1.5,0,2.3,0c0,0.3,0,0.6,0,0.9c-0.4,0-0.8,0-1.3,0
			c0,0.4,0,0.8,0,1.2C333.6,493,334,493,334.3,493z"/>
		<path id="XMLID_28_" class="st3" d="M329.6,490.9c0.3,0,0.6,0,0.9,0c0,1.4,0,2.9,0,4.3c0.4,0,0.8,0,1.3,0c0,0.3,0,0.6,0,0.9
			c-0.7,0-1.5,0-2.2,0C329.6,494.5,329.6,492.7,329.6,490.9z"/>
		<path id="XMLID_27_" class="st3" d="M334.2,490c-0.3,0.4-0.6,0.8-1.1,0.6C333.3,489.9,333.4,489.9,334.2,490z"/>
	</g>
	<g id="XMLID_21_">
		<polygon id="XMLID_25_" class="st3" points="360.3,505.5 356.1,515.2 362,515.2 366.2,505.5 362.3,496.2 386,496.2 383.9,491.1 
			348.1,491.1 348.1,496.2 356.4,496.2 		"/>
		<polygon id="XMLID_22_" class="st3" points="392.1,491.1 389.9,491.1 386.2,491.1 389.3,498.8 392.1,505.5 387.5,516.9 
			387.5,516.9 324.1,516.9 321.6,516.9 326.3,505.5 322.4,496.2 324.5,496.2 324.5,491.1 314.4,491.1 320.4,505.5 313.5,522 
			324.1,522 325.1,522 387.5,522 391.2,522 398.1,505.5 		"/>
	</g>
</g>
</svg>
