<svg xmlns="http://www.w3.org/2000/svg" viewBox="0 0 750.21 280.8"><defs><style>.cls-1{fill:#da911f;}.cls-2{fill:#fff;}</style></defs><title>contact-txt</title><g id="Camada_2" data-name="Camada 2"><g id="Camada_4" data-name="Camada 4"><rect class="cls-1" x="194.25" y="45.3" width="292" height="88"/><rect class="cls-1" x="277.75" y="192.8" width="95" height="88"/><rect class="cls-1" x="409.75" y="192.8" width="95" height="88"/><rect class="cls-1" x="541.75" y="192.8" width="95" height="88"/><path class="cls-2" d="M68.54,74.66l2.37,19.88H1.67V0H68.54l2.37,19.88H27V37.12H56L58.4,57H27V74.66Z"/><path class="cls-2" d="M110.11,44.77V94.54H84.81V0h23.5l36.42,51.3V0H170V94.54H146.4Z"/><path class="cls-2" d="M182.55,0h80.91l2.36,19.88H235.65V94.54h-25.3V19.88h-27.8Z"/><path class="cls-2" d="M278.33,94.54V0H318.1Q335,0,346,8.06t11,24.19a30.44,30.44,0,0,1-3.4,14.67,28.74,28.74,0,0,1-9.39,10.36l20.86,37.26H335.75L320.46,64.79H303.64V94.54Zm52.56-62.29c0-4.07-1.19-7.16-3.55-9.24s-5.72-3.13-10.08-3.13H303.64v25h13.9a13.42,13.42,0,0,0,9.59-3.55A12,12,0,0,0,330.89,32.25Z"/><path class="cls-2" d="M444.47,74.66l2.36,19.88H377.6V0h66.87l2.36,19.88H402.9V37.12H432L434.32,57H402.9V74.66Z"/><path class="cls-2" d="M56.82,206.93l2,16.89H0V143.5H56.82l2,16.89H21.5V175H46.19l2,16.89H21.5v15Z"/><path class="cls-2" d="M124.62,185l-10.87,14.65-8.62,1.18L92.14,185v38.86H70.64V143.5H85.4l24.22,30.59,22.21-30.59h14.29v80.32h-21.5Z"/><path class="cls-2" d="M226.33,142a47.41,47.41,0,0,1,12.58,1.77,38.08,38.08,0,0,1,11,4.85l-6.38,14.53a92.15,92.15,0,0,0-9.62-2.84,36.14,36.14,0,0,0-7.39-.71,16,16,0,0,0-9.27,3.08,22.38,22.38,0,0,0-7.21,8.62,27.87,27.87,0,0,0-2.77,12.64,27,27,0,0,0,2.83,12.64,20.92,20.92,0,0,0,7.5,8.33,18.22,18.22,0,0,0,9.75,2.89,29.38,29.38,0,0,0,15.24-4.37l8.15,16.06a40.92,40.92,0,0,1-11.16,4.32,54.32,54.32,0,0,1-12.82,1.59q-12.77,0-22.21-5.26a35.83,35.83,0,0,1-14.47-14.58,44.67,44.67,0,0,1-5-21.5,44,44,0,0,1,5.32-21.74,38.25,38.25,0,0,1,14.7-14.94A42,42,0,0,1,226.33,142Z"/><path class="cls-2" d="M255.5,184a44.4,44.4,0,0,1,5.32-21.8,38,38,0,0,1,14.76-15A42.53,42.53,0,0,1,297,141.84q12.75,0,22.14,5.44a36.86,36.86,0,0,1,14.42,14.88,44.2,44.2,0,0,1,5,21,45,45,0,0,1-5.26,21.91,37.71,37.71,0,0,1-14.71,15A42.86,42.86,0,0,1,297,225.48q-12.53,0-21.92-5.49a37.81,37.81,0,0,1-14.47-15A43.76,43.76,0,0,1,255.5,184Zm41.7-24.22a17.12,17.12,0,0,0-9.86,3,21.18,21.18,0,0,0-7.09,8.51,28.54,28.54,0,0,0-2.66,12.58q0,10.4,5.14,17t14.12,6.61A17.81,17.81,0,0,0,311,201.2q5.51-6.31,5.5-18,0-10.27-5.26-16.83A17,17,0,0,0,297.2,159.8Z"/><path class="cls-2" d="M373,181.54v42.28h-21.5V143.5h20l30.95,43.59V143.5H424v80.32H403.87Z"/><path class="cls-2" d="M434.58,143.5h68.75l2,16.89H479.71v63.43h-21.5V160.39H434.58Z"/><path class="cls-2" d="M507.7,223.82l30.12-80.32h21.5l30,79.38L568.18,225l-5.79-17H534.63l-5.55,15.82Zm32.84-32.72h15.71l-8-21.85Z"/><path class="cls-2" d="M591.69,143.5h68.75l2,16.89H636.81v63.43h-21.5V160.39H591.69Z"/><path class="cls-2" d="M667.17,184a44.4,44.4,0,0,1,5.31-21.8,38.12,38.12,0,0,1,14.77-15,42.52,42.52,0,0,1,21.38-5.38q12.76,0,22.15,5.44a36.9,36.9,0,0,1,14.41,14.88,44.08,44.08,0,0,1,5,21A44.91,44.91,0,0,1,745,205.1a37.62,37.62,0,0,1-14.7,15,42.9,42.9,0,0,1-21.62,5.38q-12.52,0-21.91-5.49a37.74,37.74,0,0,1-14.47-15A43.65,43.65,0,0,1,667.17,184Zm41.7-24.22a17.15,17.15,0,0,0-9.87,3,21.16,21.16,0,0,0-7.08,8.51,28.4,28.4,0,0,0-2.66,12.58q0,10.4,5.14,17t14.11,6.61a17.83,17.83,0,0,0,14.12-6.32q5.49-6.31,5.49-18,0-10.27-5.26-16.83A17,17,0,0,0,708.87,159.8Z"/></g></g></svg>