<?xml version="1.0" encoding="utf-8"?>
<!-- Generator: Adobe Illustrator 19.0.0, SVG Export Plug-In . SVG Version: 6.00 Build 0)  -->
<svg version="1.1" xmlns="http://www.w3.org/2000/svg" xmlns:xlink="http://www.w3.org/1999/xlink" x="0px" y="0px"
	 viewBox="0 0 212 175" style="enable-background:new 0 0 212 175;" xml:space="preserve">
<style type="text/css">
	.st0{fill:#FFFFFF;}
</style>
<g id="Camada_2">
</g>
<g id="Camada_1">
	<g id="XMLID_1529_">
		<path id="XMLID_1530_" class="st0" d="M140.3,161.5l-35.2-31.8l-35.2,31.8l-2.5-1.1c-20.3-9.1-29.6-23.4-33.9-33.8
			c-4.6-11.3-4.4-20.5-4.4-20.9l0-1.8l8.3-7.6L24.9,85.1l-0.4-0.7C12.3,60.3,17.5,41.2,24,29.4C31,16.8,40.8,9.9,41.2,9.6l2.7-1.9
			l30.5,27.5l30.7-27.5l30.7,27.5l30.5-27.5l2.7,1.9c0.4,0.3,10.2,7.2,17.2,19.8c6.5,11.8,11.7,30.8-0.6,54.9l-0.4,0.7l-12.5,11.3
			l8.3,7.6l0,1.8c0,0.4,0.2,9.6-4.4,20.9c-4.3,10.4-13.6,24.7-33.9,33.8L140.3,161.5z M37.5,107.6c0.2,2.8,0.9,9,3.9,16.2
			c5.1,12.2,14.2,21.5,27,27.9l36.7-33.1l36.7,33.1c27.2-13.5,30.5-37.5,30.9-44.1l-12.3-11.3l18.2-16.4c8.1-16.4,8.3-31.9,0.5-46.2
			c-4-7.4-9.2-12.6-12.3-15.2l-30.9,27.9l-30.7-27.5L74.3,46.4L43.4,18.5c-3.1,2.7-8.3,7.9-12.3,15.2c-7.8,14.3-7.6,29.8,0.5,46.2
			l18.2,16.4L37.5,107.6z M142.4,135.4l-30.8-27l0-7V84.8l54.7-49.3l2.8,3.1c0.4,0.4,3.8,4.4,5.1,10.7c1.2,5.9,0.9,15-7.8,25.1
			l-0.2,0.2L142,96.3l13.4,12.1l0.3,1.3c0.1,0.5,2.4,11.5-10.6,23.2L142.4,135.4z M119.9,104.7l22.3,19.5c4.7-5.3,5.5-9.6,5.5-11.6
			l-18.1-16.3l30.6-27.6c5-5.8,7-11.7,5.9-17.4c-0.3-1.3-0.6-2.5-1.1-3.5l-45.1,40.7v13L119.9,104.7z M67.8,135.4l-2.7-2.5
			c-13-11.8-10.7-22.8-10.6-23.2l0.3-1.3l13.4-12.1L44,74.5l-0.2-0.2c-8.7-10-9.1-19.2-7.8-25.1c1.3-6.4,4.7-10.3,5.1-10.7l2.8-3.1
			l54.7,49.3v16.7l0,7L67.8,135.4z M62.5,112.6c0,2,0.8,6.3,5.5,11.6l22.3-19.5l0-3.2v-13L45.2,47.8c-0.4,1-0.8,2.2-1.1,3.5
			C43,57.1,45,62.9,50,68.7l30.6,27.6L62.5,112.6z M105.1,74.1L83.5,54.7l21.5-19.1l21.5,19.1L105.1,74.1z M96,54.7l9.1,8.2l9.1-8.2
			l-9.1-8L96,54.7z"/>
	</g>
</g>
</svg>
