<svg xmlns="http://www.w3.org/2000/svg" viewBox="0 0 154.61 65.83"><defs><style>.cls-1{fill:#31509e;}</style></defs><title>custom-plans-header</title><g id="Camada_2" data-name="Camada 2"><g id="Camada_1-2" data-name="Camada 1"><path class="cls-1" d="M14.72,14.56c4.46,2.25,8.81,4.67,13,7.35,1.4.89,12.87,9.41,13.34,8.92L43.18,32a34.19,34.19,0,0,0,0-15.23l-2.41.66c2.09,5-1,10.55,0,15.84l1.54-1.54a102.49,102.49,0,0,1-15.07-4.43c-1.5-.57-2.15,1.85-.66,2.41a101.52,101.52,0,0,0,15.06,4.43,1.27,1.27,0,0,0,1.54-1.53c-1-5.43,2.18-10.54,0-15.84a1.25,1.25,0,0,0-2.41.66,30.82,30.82,0,0,1-.06,13.91,1.26,1.26,0,0,0,2.09,1.21l.34-.35a1.3,1.3,0,0,0,.19-1.52c-1.72-3.65-8.21-6.89-11.42-9A152.11,152.11,0,0,0,16,12.4c-1.44-.73-2.7,1.43-1.27,2.16Z"/><path class="cls-1" d="M148.37,1.53a79.65,79.65,0,0,0-22.87,24.4h2.16L123,17.33l-2.16,1.26a21.46,21.46,0,0,1,3.33,7.21,7.23,7.23,0,0,0,.92,2.55c1.09,1.39,2,1.46,3.72,1,3.62-.87,7.51-3.31,10.94-4.83L154,18.3c1.47-.65.2-2.81-1.26-2.16l-18.63,8.23c-1.31.58-3.08,1.72-4.44,2-2.54.45-2.4-.31-3.22-2-1.22-2.53-1.62-4.59-3.4-7a1.25,1.25,0,0,0-2.16,1.26l4.65,8.6a1.26,1.26,0,0,0,2.16,0,76.68,76.68,0,0,1,22-23.5c1.31-.91.06-3.08-1.26-2.16Z"/><path class="cls-1" d="M80.73,21.31a131.9,131.9,0,0,1,7-19.44l-2.29-.3a128.83,128.83,0,0,0,7.1,21.15c.58,1.31,3.12,9.44,6.24,5.77,5.21-6.16-22.22-15-25.47-16l.3,2.28a74.82,74.82,0,0,1,30-9.17L102.47,4c-1.87,5.82-10,8.89-14.92,11.6-5.59,3-11.3,5.85-17.09,8.5-1.46.66-.19,2.82,1.26,2.16C79.25,22.82,86.63,19.08,93.8,15c4.53-2.6,9.39-5,11.09-10.3a1.26,1.26,0,0,0-1.21-1.58,77.91,77.91,0,0,0-31.3,9.52,1.26,1.26,0,0,0,.3,2.28c3.69,1.2,7.4,2.4,11,3.88a56.74,56.74,0,0,1,7.14,3.48c1,.58,5.15,4.08,5.69,3.89,1,.7.9.26-.26-1.34-.52-1.1-1-2.21-1.52-3.33-1.06-2.43-2-4.88-2.93-7.37A131.17,131.17,0,0,1,87.88.91,1.26,1.26,0,0,0,85.6.61a137.11,137.11,0,0,0-7.29,20,1.25,1.25,0,0,0,2.42.66Z"/><path class="cls-1" d="M13,61.39A124.85,124.85,0,0,0,6,46.2L4.26,47.91C11.6,52.32,18.52,59,26.79,61.52l.66-2.42L1.56,55.61l.3,2.29,18.81-9.65L19,46.54,6.09,64c-1,1.29,1.21,2.54,2.16,1.26L21.12,47.8c.8-1.08-.7-2.23-1.71-1.71L.6,55.74c-.89.45-.78,2.14.29,2.28l25.9,3.5c1.54.2,2.26-1.94.66-2.42C19.54,56.72,12.56,50,5.52,45.75a1.26,1.26,0,0,0-1.71,1.71,120.54,120.54,0,0,1,6.74,14.6c.57,1.48,3,.84,2.41-.67Z"/></g></g></svg>