<svg xmlns="http://www.w3.org/2000/svg" viewBox="0 0 147.29 107.79"><defs><style>.cls-1{fill:#c6101a;}</style></defs><title>custom-plans-ad_1</title><g id="Camada_2" data-name="Camada 2"><g id="Camada_1-2" data-name="Camada 1"><path class="cls-1" d="M124.94,76.07a147.7,147.7,0,0,1,6.94,14.05c1,2.38,2,4.78,2.86,7.22.63,1.73,1.33,6.47,3.43,6.91l.56,2.09a33.52,33.52,0,0,0,8.53-12.59l-2.41-.66c-1,5.29-6.68,8-8.74,12.83l2-.25a101.27,101.27,0,0,1-9.8-11.87c-.92-1.3-3.09,0-2.16,1.27a105.68,105.68,0,0,0,10.19,12.36,1.25,1.25,0,0,0,2-.25c2.18-5.14,7.92-7.7,9-13.43a1.25,1.25,0,0,0-2.41-.66A30.57,30.57,0,0,1,137,104.57a1.26,1.26,0,0,0,.55,2.09l.33.07a1.29,1.29,0,0,0,1.41-.57c.77-1.31.31-2.22-.12-3.66-1-3.36-2.25-6.68-3.55-9.94a149.58,149.58,0,0,0-8.48-17.75c-.78-1.41-2.94-.15-2.16,1.26Z"/><path class="cls-1" d="M24.43,34.09,22,17l-2.75,2.11A195,195,0,0,0,40.86,30.06a1.9,1.9,0,0,0,2.82-1.62,23.91,23.91,0,0,1,7.91-17.32l-2.28.29q8.2,6.11,16.92,11.4a1.88,1.88,0,0,0,2.56-.67A44,44,0,0,1,87.32,3.48L84.57,2.36c1.94,5.86,2.76,16,11.59,14.31,4.07-.79,7.56-3.83,11.12-5.78a80.5,80.5,0,0,1,15.59-6.4l-1.82-3.13c-3.12,2.43-15.54,13-10.19,17.61,2.72,2.34,8.61.49,11.73-.06,6.87-1.21,13.56-2.89,20.49-1l-.83-3.14c-2.74,2.59-30,16.52-15.6,21.61,1.78.62,3.55.12,5.36.23,4.86.31,2.76,2.3.26,3.54-2.08,1-5,.93-5.85,3.69-.6,2,.7,3.37,1.82,4.76,3.4,4.23,6.4,7.92,8.46,13l2.75-2.12a47.55,47.55,0,0,0-13.38-6.21c-1.26-.37-2.84.94-2.3,2.3l2.8,7.06a11.82,11.82,0,0,1,1.11,2.89c.26,3-.79,2.47-2.65,2.43-4.73-.09-9.57-3.1-14.2-4-2.51-.51-5.43-.68-7.55,1-3.62,2.87-1.26,7.19-2.9,10.83l2.57-.67c-21.31-10-42.31,4.53-63.23,8.06l2.12,2.75A60.5,60.5,0,0,1,52.07,73.24a1.88,1.88,0,0,0-1.82-3.13l-37.86,11,2.31,2.3a33,33,0,0,1,5.61-11.33,1.88,1.88,0,0,0-1.62-2.82L1.91,70.52l1.61,2.82c2.95-4,6.56-4.54,10.42-6.92,1.87-1.15,3.51-2.82,3.7-5.13.5-6-9.18-7.39-13.14-8.9l.44,3.43a46,46,0,0,1,12.93-5,1.89,1.89,0,0,0,.83-3.13l-7.85-8.32L10,42.54a34.7,34.7,0,0,1,14.3-2.67c2.42.06,2.42-3.69,0-3.75A37,37,0,0,0,9,38.93a1.9,1.9,0,0,0-.82,3.13l7.85,8.32.83-3.13A49.27,49.27,0,0,0,3.05,52.58,1.9,1.9,0,0,0,3.5,56c1.8.69,5.76,1.38,7.12,2.71,4.89,4.76,0,4.87-2.53,6.12a20.77,20.77,0,0,0-7.8,6.6,1.89,1.89,0,0,0,1.62,2.83L18.69,73l-1.62-2.82a35.77,35.77,0,0,0-6,12.23,1.89,1.89,0,0,0,2.31,2.3l37.86-11-1.83-3.14A63.85,63.85,0,0,0,38.6,84a1.89,1.89,0,0,0,2.11,2.75C60.25,83.46,81.18,69,101.06,78.32a1.9,1.9,0,0,0,2.56-.68c.8-1.77.73-3.1,1.06-5,.95-5.39,3.37-5.71,7.66-4.45,4.61,1.36,10.16,4.06,15,4,9.1-.11,1.44-14.07,0-17.65l-2.3,2.3a44.62,44.62,0,0,1,12.48,5.84c1.28.86,3.37-.59,2.76-2.11a45.19,45.19,0,0,0-4.86-9.23c-1.38-1.94-6-5.3-3.56-7.32,1-.8,3.29-.64,4.5-1.33a6.68,6.68,0,0,0,2.4-2.11,4.56,4.56,0,0,0,.47-4.36,6.13,6.13,0,0,0-3.77-3.11,12.28,12.28,0,0,0-3.49-.31c-3.56-.23-5.36-2.73-2.4-5.2,4.75-3.95,10.74-5.94,15.29-10.23a1.89,1.89,0,0,0-.83-3.14c-7.31-2-14.33-.45-21.61.86-1.92.34-4.53,1.18-6.5.94-1.28.63-2,.33-2.19-.88q.78-1.35,1.65-2.64A38.82,38.82,0,0,1,123.7,4c1.52-1.19-.14-3.64-1.82-3.14a85.27,85.27,0,0,0-16.49,6.78c-2.35,1.28-4.94,3.68-7.49,4.43-8.71,2.57-8.08-5.77-9.72-10.72A1.9,1.9,0,0,0,85.43.24a47.66,47.66,0,0,0-19.88,20l2.57-.68q-8.73-5.3-16.91-11.39a1.89,1.89,0,0,0-2.28.29,27.72,27.72,0,0,0-9,20l2.82-1.62A197.61,197.61,0,0,1,21.16,15.9c-1.55-.91-3,.58-2.75,2.11l2.41,17.07c.33,2.38,3.94,1.37,3.61-1Z"/><path class="cls-1" d="M34.05,42.78l.22,1.83-1.68.2-.77-6.28,2.64-.33a3.13,3.13,0,0,1,1.34.1,2.07,2.07,0,0,1,1,.65,2.19,2.19,0,0,1,.5,1.2,2,2,0,0,1-.22,1.26,2.21,2.21,0,0,1-.89.85,3.57,3.57,0,0,1-1.28.41Zm1.54-2.42a.92.92,0,0,0-.33-.65.89.89,0,0,0-.69-.18l-.91.11.23,1.82.92-.12a.86.86,0,0,0,.78-1Z"/><path class="cls-1" d="M39.67,37.32l.8,6.53-1.68.2L38,37.63Z"/><path class="cls-1" d="M42.85,40.23a2.28,2.28,0,0,0-.53.15,2.89,2.89,0,0,0-.56.26l-.59-1.16a5.5,5.5,0,0,1,1.93-.67,1.7,1.7,0,0,1,2.08,1.64l.35,2.77-.82.1-.53-.4a1.32,1.32,0,0,1-.94.69,1.75,1.75,0,0,1-1.31-.26,1.53,1.53,0,0,1-.57-1.08c-.1-.87.43-1.38,1.6-1.53l.53-.06a.53.53,0,0,0-.64-.45Zm.25,1.43a.39.39,0,0,0-.26.14.33.33,0,0,0-.07.27.36.36,0,0,0,.11.22.31.31,0,0,0,.23.06,1,1,0,0,0,.56-.32l-.05-.43Z"/><path class="cls-1" d="M48.82,39.5a1.29,1.29,0,0,0-.4.13,2.58,2.58,0,0,0-.47.24l.37,3-1.68.21-.56-4.49,1-.12.36.43a3.52,3.52,0,0,1,1.75-.84,1.5,1.5,0,0,1,1.28.33A1.86,1.86,0,0,1,51,39.61l.36,2.89-1.68.21L49.37,40a.66.66,0,0,0-.16-.37A.4.4,0,0,0,48.82,39.5Z"/><path class="cls-1" d="M54.74,42.19a2.62,2.62,0,0,1-1.89-.38,2.23,2.23,0,0,1-.91-1.67,2.4,2.4,0,0,1,.18-1.32,2.17,2.17,0,0,1,.82-.93,2.87,2.87,0,0,1,1.25-.44,3,3,0,0,1,1.36.11,2.12,2.12,0,0,1,1,.71A2.56,2.56,0,0,1,57,39.56a2.33,2.33,0,0,1-.18,1.3,2.12,2.12,0,0,1-.83.9A3,3,0,0,1,54.74,42.19Zm.56-2.42A1.26,1.26,0,0,0,55,39a.66.66,0,0,0-.61-.23.74.74,0,0,0-.57.34,1.12,1.12,0,0,0-.13.77,1.26,1.26,0,0,0,.29.71.71.71,0,0,0,.62.19.76.76,0,0,0,.58-.31A1.11,1.11,0,0,0,55.3,39.77Z"/><path class="cls-1" d="M64.81,40.85,64,41l-.29-.29a2.63,2.63,0,0,1-.56.38,1.88,1.88,0,0,1-.64.19,2.35,2.35,0,0,1-1.74-.38,2.3,2.3,0,0,1-.85-1.67,2.36,2.36,0,0,1,.42-1.87A2.44,2.44,0,0,1,62,36.49a2,2,0,0,1,.6,0l-.23-1.87L64,34.33Zm-2.24-.93a.79.79,0,0,0,.39-.19l-.23-1.9a1.58,1.58,0,0,0-.5-.06.65.65,0,0,0-.5.37,1.35,1.35,0,0,0-.11.83,1.21,1.21,0,0,0,.31.75A.71.71,0,0,0,62.57,39.92Z"/><path class="cls-1" d="M67.61,35.8a2.08,2.08,0,0,1,1.21.17,1.94,1.94,0,0,1,.83.75A2.67,2.67,0,0,1,70,37.86l.06.49-2.73.34a.8.8,0,0,0,.41.4,1.16,1.16,0,0,0,.69.08,2.67,2.67,0,0,0,1.19-.45l.61,1.08a2.49,2.49,0,0,1-.76.44,4.5,4.5,0,0,1-1.05.27,3.47,3.47,0,0,1-1.42-.1A2.16,2.16,0,0,1,66,39.73a2.35,2.35,0,0,1-.5-1.23,2.6,2.6,0,0,1,.16-1.32,2.12,2.12,0,0,1,.76-.94A2.52,2.52,0,0,1,67.61,35.8Zm.12,1.35a.57.57,0,0,0-.39.25.59.59,0,0,0-.11.46l1.16-.14a.75.75,0,0,0-.2-.42A.53.53,0,0,0,67.73,37.15Z"/><path class="cls-1" d="M75,34.89a2.09,2.09,0,0,1,1.21.17,2,2,0,0,1,.83.75A2.81,2.81,0,0,1,77.45,37l.06.49-2.73.34a.82.82,0,0,0,.4.4,1.18,1.18,0,0,0,.69.08,2.59,2.59,0,0,0,1.19-.45l.62,1.08a2.49,2.49,0,0,1-.76.44,4.77,4.77,0,0,1-1,.27,3.52,3.52,0,0,1-1.43-.1,2.18,2.18,0,0,1-1-.68,2.35,2.35,0,0,1-.5-1.23,2.49,2.49,0,0,1,.16-1.32,2.06,2.06,0,0,1,.76-.94A2.52,2.52,0,0,1,75,34.89Zm.12,1.35a.53.53,0,0,0-.39.25.6.6,0,0,0-.12.46l1.17-.14a.78.78,0,0,0-.2-.42A.53.53,0,0,0,75.14,36.24Z"/><path class="cls-1" d="M80.27,39.06a4.82,4.82,0,0,1-1,0,2.22,2.22,0,0,1-1-.29l.34-1.12a3.63,3.63,0,0,0,.68.15,2.79,2.79,0,0,0,.64,0,.54.54,0,0,0,.27-.09.16.16,0,0,0,.09-.16s0-.08-.14-.12a1.25,1.25,0,0,0-.34-.1,4.21,4.21,0,0,1-1.22-.45,1.1,1.1,0,0,1-.56-.85,1.3,1.3,0,0,1,.39-1.16,2.41,2.41,0,0,1,1.41-.58,4.4,4.4,0,0,1,.89,0,2.12,2.12,0,0,1,.86.27l-.34,1.13a3.87,3.87,0,0,0-.59-.13,2.48,2.48,0,0,0-.54,0,.92.92,0,0,0-.33.1.19.19,0,0,0-.11.16s.06.08.15.12a1.79,1.79,0,0,0,.36.1,4.18,4.18,0,0,1,1.2.45,1.1,1.1,0,0,1,.55.85,1.37,1.37,0,0,1-.33,1.16A2.17,2.17,0,0,1,80.27,39.06Z"/><path class="cls-1" d="M84.47,34.07l1.18-.14.32,1.3-1.33.16.13,1.11a.65.65,0,0,0,.2.43.5.5,0,0,0,.4.11,1.33,1.33,0,0,0,.63-.26l.62,1.09a1.61,1.61,0,0,1-.52.34,1.91,1.91,0,0,1-.67.21,2.68,2.68,0,0,1-1.06-.07,1.89,1.89,0,0,1-.85-.51,1.72,1.72,0,0,1-.41-.94L83,35.6l-.69.09-.16-1.33.69-.08-.15-1.21,1.66-.44Z"/><path class="cls-1" d="M89.41,36.61a1.68,1.68,0,0,0,.41-.13,3,3,0,0,0,.47-.24l-.37-3L91.6,33l.55,4.48-.81.1-.54-.4A3.52,3.52,0,0,1,89,38a1.53,1.53,0,0,1-1.28-.32,1.94,1.94,0,0,1-.56-1.21l-.35-2.9,1.68-.2.33,2.73a.67.67,0,0,0,.16.37A.45.45,0,0,0,89.41,36.61Z"/><path class="cls-1" d="M97.67,36.81l-.85.11-.29-.29A2.63,2.63,0,0,1,96,37a1.76,1.76,0,0,1-.64.19,2.13,2.13,0,0,1-2.59-2.05,2.21,2.21,0,0,1,2.08-2.7,2.07,2.07,0,0,1,.61,0l-.23-1.88,1.67-.3Zm-2.24-.93a.72.72,0,0,0,.39-.19l-.23-1.9a1.55,1.55,0,0,0-.5-.06.67.67,0,0,0-.5.36,1.48,1.48,0,0,0-.11.84,1.21,1.21,0,0,0,.31.75A.75.75,0,0,0,95.43,35.88Z"/><path class="cls-1" d="M101.15,36.49a2.67,2.67,0,0,1-1.89-.38,2.27,2.27,0,0,1-.91-1.68,2.36,2.36,0,0,1,.18-1.31,2.26,2.26,0,0,1,.82-.94,3.18,3.18,0,0,1,2.61-.32,2,2,0,0,1,1,.71,2.53,2.53,0,0,1,.48,1.28,2.31,2.31,0,0,1-.18,1.3,2.14,2.14,0,0,1-.83.91A3.08,3.08,0,0,1,101.15,36.49Zm.56-2.43a1.29,1.29,0,0,0-.31-.73.66.66,0,0,0-.61-.22.71.71,0,0,0-.57.34,1.11,1.11,0,0,0-.13.77,1.25,1.25,0,0,0,.29.7.69.69,0,0,0,.62.2.77.77,0,0,0,.58-.32A1.1,1.1,0,0,0,101.71,34.06Z"/><path class="cls-1" d="M106.25,35.86a4.82,4.82,0,0,1-1,0,2.23,2.23,0,0,1-1-.28l.35-1.12a3.57,3.57,0,0,0,.67.14,2.9,2.9,0,0,0,.64,0,.85.85,0,0,0,.27-.09c.07-.05.1-.1.09-.16s-.05-.08-.14-.12a1.23,1.23,0,0,0-.34-.11,4.44,4.44,0,0,1-1.22-.45,1.08,1.08,0,0,1-.56-.84,1.34,1.34,0,0,1,.39-1.16,2.42,2.42,0,0,1,1.42-.58,4.3,4.3,0,0,1,.88,0,2,2,0,0,1,.87.27l-.34,1.12a3.19,3.19,0,0,0-.6-.12,2,2,0,0,0-.54,0,.86.86,0,0,0-.32.1c-.08,0-.12.1-.11.16s0,.07.14.11a1.73,1.73,0,0,0,.36.11,3.73,3.73,0,0,1,1.21.45,1.1,1.1,0,0,1,.55.84,1.38,1.38,0,0,1-.34,1.17A2.12,2.12,0,0,1,106.25,35.86Z"/><path class="cls-1" d="M31.69,56.15,31.92,58l-1.69.21-.77-6.29,2.64-.32a3.29,3.29,0,0,1,1.34.09,2.1,2.1,0,0,1,1,.65,2.25,2.25,0,0,1,.5,1.2,2,2,0,0,1-.22,1.27,2.25,2.25,0,0,1-.88.85,3.67,3.67,0,0,1-1.29.4Zm1.54-2.41a1,1,0,0,0-.33-.66.84.84,0,0,0-.69-.17l-.9.11.22,1.81.92-.11a.9.9,0,0,0,.61-.33A.84.84,0,0,0,33.23,53.74Z"/><path class="cls-1" d="M40.9,55.54l.32,1.3-4.61.57-.77-6.29,4.45-.55.32,1.3-2.93.36.15,1.15,1.93-.24.32,1.31L38,54.7l.14,1.18Z"/><path class="cls-1" d="M42.36,56.7l-.77-6.29,2.65-.32a3.07,3.07,0,0,1,1.92.3,1.9,1.9,0,0,1,.93,1.52,2.09,2.09,0,0,1-.11,1,1.86,1.86,0,0,1-.54.76L48.13,56l-2,.24-1.26-1.85-1.12.13.25,2Zm3-4.57a.8.8,0,0,0-.31-.59,1,1,0,0,0-.7-.12l-.9.11.2,1.66.92-.11a.87.87,0,0,0,.61-.32A.78.78,0,0,0,45.35,52.13Z"/><path class="cls-1" d="M50.83,55.78a4.6,4.6,0,0,1-1.11,0,3.3,3.3,0,0,1-1-.25l.39-1.33a3,3,0,0,0,.73.19,2.64,2.64,0,0,0,.78,0,1.06,1.06,0,0,0,.58-.23.45.45,0,0,0,.18-.36c0-.08-.08-.15-.19-.22l-.57-.26-.3-.13c-.45-.2-.8-.36-1.06-.5a2.57,2.57,0,0,1-.7-.55,1.49,1.49,0,0,1-.39-.85,1.58,1.58,0,0,1,.18-1,1.9,1.9,0,0,1,.74-.75,3.2,3.2,0,0,1,1.2-.38,3.75,3.75,0,0,1,1,0,3,3,0,0,1,.91.27l-.36,1.2c-.34-.07-.6-.11-.78-.13a2.86,2.86,0,0,0-.58,0,.74.74,0,0,0-.44.18.41.41,0,0,0-.13.34.29.29,0,0,0,.17.22,4.62,4.62,0,0,0,.51.23l.36.14c.42.18.76.34,1.05.5a2.8,2.8,0,0,1,.74.58,1.51,1.51,0,0,1,.38.83,1.6,1.6,0,0,1-.19,1,2,2,0,0,1-.79.77A3.49,3.49,0,0,1,50.83,55.78Z"/><path class="cls-1" d="M53.62,52.15a3.45,3.45,0,0,1,.21-1.76,3,3,0,0,1,1-1.31,3.41,3.41,0,0,1,1.62-.63,3.5,3.5,0,0,1,1.79.21,3,3,0,0,1,1.27,1,3.68,3.68,0,0,1,.39,3.36,2.92,2.92,0,0,1-1,1.32,3.44,3.44,0,0,1-1.64.63,3.32,3.32,0,0,1-1.77-.22,3,3,0,0,1-1.28-1A3.56,3.56,0,0,1,53.62,52.15Zm3-2.3a1.37,1.37,0,0,0-.74.34,1.62,1.62,0,0,0-.47.73,2.23,2.23,0,0,0-.09,1,2.14,2.14,0,0,0,.57,1.28,1.33,1.33,0,0,0,1.17.38,1.39,1.39,0,0,0,1-.63,2.09,2.09,0,0,0,.26-1.46,2.07,2.07,0,0,0-.58-1.27A1.38,1.38,0,0,0,56.65,49.85Z"/><path class="cls-1" d="M63,50.8l.41,3.31-1.68.21L61,48l1.57-.19L65.38,51,65,47.54l1.68-.21.77,6.29-1.57.19Z"/><path class="cls-1" d="M68.47,53.49l1.58-6.58,1.69-.2,3.11,5.92L73.21,53l-.61-1.28L70.42,52l-.28,1.29Zm2.25-2.88L72,50.46l-.84-1.63Z"/><path class="cls-1" d="M77.43,51.05l2.67-.33.32,1.3-4.51.56-.77-6.29,1.68-.21Z"/><path class="cls-1" d="M82.39,45.4l.77,6.28-1.68.21L80.7,45.6Z"/><path class="cls-1" d="M86,50l3.09-.38.32,1.31-5,.61-.33-1.16,2.74-4.18L84,46.54l-.32-1.31,4.77-.58.32,1.17Z"/><path class="cls-1" d="M89.84,50.86l1.58-6.57,1.68-.21L96.22,50l-1.64.37L94,49.1l-2.18.26-.28,1.3ZM92.09,48l1.23-.16-.84-1.63Z"/><path class="cls-1" d="M102.71,46.05a3.62,3.62,0,0,1-.18,1.73,2.67,2.67,0,0,1-.92,1.24,3.09,3.09,0,0,1-1.52.58L97.28,50l-.77-6.29,2.85-.35a3.11,3.11,0,0,1,1.66.2,2.54,2.54,0,0,1,1.15,1A3.8,3.8,0,0,1,102.71,46.05Zm-1.74.21a2.27,2.27,0,0,0-.51-1.24,1.13,1.13,0,0,0-1-.38l-1.08.14.45,3.64,1-.13a1.22,1.22,0,0,0,.93-.6A2.19,2.19,0,0,0,101,46.26Z"/><path class="cls-1" d="M103.49,46a3.45,3.45,0,0,1,.21-1.76,3,3,0,0,1,1-1.31,3.41,3.41,0,0,1,1.62-.63,3.5,3.5,0,0,1,1.79.21,3,3,0,0,1,1.27,1,3.44,3.44,0,0,1,.59,1.6,3.53,3.53,0,0,1-.2,1.76,2.94,2.94,0,0,1-1,1.32,3.37,3.37,0,0,1-1.63.63,3.32,3.32,0,0,1-1.77-.22,3,3,0,0,1-1.28-1A3.34,3.34,0,0,1,103.49,46Zm3-2.3a1.37,1.37,0,0,0-.74.34,1.62,1.62,0,0,0-.47.73,2.1,2.1,0,0,0-.09,1,2.14,2.14,0,0,0,.56,1.28,1.34,1.34,0,0,0,1.17.38,1.4,1.4,0,0,0,1-.63,2.09,2.09,0,0,0,.25-1.46,2,2,0,0,0-.57-1.27A1.39,1.39,0,0,0,106.52,43.72Z"/><path class="cls-1" d="M39.07,69.68a334,334,0,0,1,53-9c2.39-.21,2.41-4,0-3.75a340.26,340.26,0,0,0-54,9.14c-2.34.6-1.35,4.22,1,3.62Z"/></g></g></svg>