<?xml version="1.0" encoding="utf-8"?>
<!-- Generator: Adobe Illustrator 21.0.0, SVG Export Plug-In . SVG Version: 6.00 Build 0)  -->
<svg version="1.1" id="Camada_1" xmlns="http://www.w3.org/2000/svg" xmlns:xlink="http://www.w3.org/1999/xlink" x="0px" y="0px"
	 viewBox="0 0 2371.5 922" style="enable-background:new 0 0 2371.5 922;" xml:space="preserve">
<style type="text/css">
	.st0{fill:#DA911F;}
	.st1{fill:none;stroke:#FFFFFF;stroke-width:17;stroke-miterlimit:10;}
</style>
<title>home</title>
<g id="Camada_2">
	<g id="Camada_1-2">
		<rect x="1192.5" y="651.1" class="st0" width="45" height="107.9"/>
		
			<rect x="649.5" y="489.5" transform="matrix(0.953 -0.303 0.303 0.953 -149.8048 237.4138)" class="st0" width="81.2" height="223.9"/>
		
			<rect x="622.6" y="452.8" transform="matrix(0.953 -0.303 0.303 0.953 -118.9036 221.1534)" class="st0" width="61.1" height="81.9"/>
		<polyline class="st1" points="1555.5,922 1555.5,338 2371.5,338 		"/>
		<circle class="st0" cx="1421.5" cy="539" r="45"/>
		<polyline class="st1" points="1552.8,338.5 1504.5,338.5 1504.5,250.5 2379,250.5 		"/>
		<polyline class="st1" points="831,863.5 831,649.5 970.9,649.5 970.9,759.5 1337,759.5 1337,489.5 1469,489.5 1469,850.5 
			1553.5,850.5 		"/>
		<polyline class="st1" points="903.5,649.5 903.5,595 970.5,595 970.5,649.5 		"/>
		<polyline class="st1" points="1168.5,759.5 1168.5,656.5 1208.5,656.5 1208.5,759.5 		"/>
		<line class="st1" x1="1188" y1="649.5" x2="1188" y2="552.5"/>
		<rect x="833" y="656.5" class="st1" width="69" height="69"/>
		<rect x="833" y="725.5" class="st1" width="69" height="69"/>
		<rect x="833" y="794.5" class="st1" width="69" height="69"/>
		<line class="st1" x1="1168.5" y1="708.5" x2="970.9" y2="708.5"/>
		<line class="st1" x1="1337.5" y1="708.5" x2="1208.5" y2="708.5"/>
		<path class="st1" d="M1189,561.5c-48,52.8-218.5,50.4-218.5,50.4"/>
		<path class="st1" d="M1337,612c0,0-91,1.2-149-47.6"/>
		<circle class="st1" cx="1403" cy="547.5" r="30"/>
		<line class="st1" x1="1316" y1="605.5" x2="1484" y2="605.5"/>
		<line class="st1" x1="1316.5" y1="489.5" x2="1484.5" y2="489.5"/>
		<polyline class="st1" points="1337,489.5 1403,412.5 1467,489.5 		"/>
		<line class="st1" x1="1375" y1="630.5" x2="1375" y2="831.5"/>
		<line class="st1" x1="1404" y1="631" x2="1404" y2="832"/>
		<line class="st1" x1="1433" y1="631.5" x2="1433" y2="832.5"/>
		<polyline class="st1" points="833,725.5 692,725.5 662,863.5 		"/>
		<polyline class="st1" points="705,849.5 722,768.5 831,768.5 		"/>
		<polyline class="st1" points="705,719.5 731,605.5 821,605.5 831,662.5 		"/>
		<polyline class="st1" points="748,600.5 768,477.5 786,477.5 811.7,605.5 		"/>
		<line class="st1" x1="776.8" y1="477.5" x2="776.8" y2="412.5"/>
		<polyline class="st1" points="740.2,725.5 755,649.5 793,649.5 806,719.5 		"/>
		<polyline class="st1" points="686.3,751.7 548.6,613.9 324,838.5 		"/>
		<line class="st1" x1="1469.3" y1="676.5" x2="1553.5" y2="676.5"/>
		<polyline class="st1" points="1511.4,676.5 1511.4,595.5 1553.5,595.5 		"/>
		<polyline class="st1" points="714.8,676.5 667,489.5 576,528.5 615.8,681.2 		"/>
		<polyline class="st1" points="649.5,497 635,444.5 573,474.5 590,525.5 		"/>
		<line class="st1" x1="599.7" y1="461.6" x2="584" y2="419.5"/>
		<polyline class="st1" points="460.7,701.8 460.7,585.5 520,585.5 520,539.5 448,539.5 439,517.5 439,489.5 419,477.5 		"/>
		<polyline class="st1" points="384.3,733 384.3,585.5 325,585.5 325,539.5 397,539.5 406,517.5 406,489.5 426,477.5 		"/>
		<polyline class="st1" points="520,547.5 553,547.5 558,577.5 520.5,577.5 		"/>
		<polyline class="st1" points="326,547.5 293,547.5 288,577.5 325.5,577.5 		"/>
		<polyline class="st1" points="426,733.5 333,733.5 333,730.5 333,630.5 165,630.5 0,630.5 		"/>
		<polyline class="st1" points="281.6,630.5 281.6,440.5 174,440.5 174,631 		"/>
		<line class="st1" x1="1638" y1="110.5" x2="1607.1" y2="247.5"/>
		<line class="st1" x1="1670" y1="110.5" x2="1709.9" y2="246.7"/>
		<rect x="1964" y="477.5" class="st1" width="131" height="58"/>
		<rect x="1656" y="667.5" class="st1" width="131" height="58"/>
		<line class="st1" x1="1555.5" y1="392.1" x2="2391" y2="392.1"/>
		<polygon class="st0" points="1512.5,99 1512.5,0 1566.5,0 1566.5,19 1643.5,19 1643.5,31 1771.5,31 1771.5,79 1647.5,79 
			1647.5,94 1569.5,94 1565.5,98 		"/>
		<rect x="1488" y="21.5" class="st1" width="54" height="99"/>
		<polyline class="st1" points="1542,34 1623,34 1623,110.5 1542,110.5 		"/>
		<polyline class="st1" points="1623,48.2 1747,48.2 1747,103 1623,103 		"/>
		<polyline class="st1" points="1747,71 1784,71 1784,48.5 		"/>
		<polyline class="st1" points="261,441 261,247.5 196,247.5 196,440.5 		"/>
	</g>
</g>
</svg>
