<svg xmlns="http://www.w3.org/2000/svg" viewBox="0 0 496.17 389.88"><defs><style>.cls-1{fill:#da911f;}.cls-2{fill:#fff;}</style></defs><title>home-txt</title><g id="Camada_2" data-name="Camada 2"><g id="Camada_1-2" data-name="Camada 1"><rect class="cls-1" x="192.64" y="318" width="71.88" height="71.88"/><rect class="cls-1" x="298.9" y="318" width="71.88" height="71.88"/><rect class="cls-1" x="405.15" y="318" width="71.88" height="71.88"/><polygon class="cls-1" points="496.17 121 438.66 65.9 171.15 65.9 228.67 121 171.15 174.24 438.66 174.24 496.17 121"/><path class="cls-2" d="M32.39,34l4,3.91-3.69,3.24-4.09-3.8a18.39,18.39,0,0,1-10,2.89A18.3,18.3,0,0,1,8.82,37.7,17.33,17.33,0,0,1,2.3,30.58,22.32,22.32,0,0,1,0,20.37,22.48,22.48,0,0,1,2.35,10,18,18,0,0,1,9,2.75,18.74,18.74,0,0,1,18.61,0a18.37,18.37,0,0,1,9.81,2.61A17.49,17.49,0,0,1,35,9.76,22.29,22.29,0,0,1,37.27,20,23.45,23.45,0,0,1,36,27.77,18.25,18.25,0,0,1,32.39,34Zm-8.17-.68L19.4,28.88l4.37-3.35L28,29.73A17.89,17.89,0,0,0,30.58,20a18,18,0,0,0-1.48-7.49,12.17,12.17,0,0,0-4.17-5.16,10.57,10.57,0,0,0-6.21-1.87,10.75,10.75,0,0,0-6.13,1.87,12.6,12.6,0,0,0-4.36,5.27,18.06,18.06,0,0,0-1.59,7.72,18.41,18.41,0,0,0,1.47,7.52A12.28,12.28,0,0,0,12.28,33a10.62,10.62,0,0,0,6.21,1.87A10.92,10.92,0,0,0,24.22,33.36Z"/><path class="cls-2" d="M43.85.91h6.41V25.08c0,3.14.82,5.56,2.44,7.26a8.68,8.68,0,0,0,6.58,2.55,8.65,8.65,0,0,0,6.59-2.58,10.14,10.14,0,0,0,2.44-7.23V.91h6.41V25.59a14.83,14.83,0,0,1-1.9,7.46,13.41,13.41,0,0,1-5.39,5.19,17,17,0,0,1-8.15,1.87,17,17,0,0,1-8.14-1.87,13.41,13.41,0,0,1-5.39-5.19,14.83,14.83,0,0,1-1.9-7.46Z"/><path class="cls-2" d="M108.87,34.49l1,5H84.13V.91h24.74l.91,5H90.49V17.42h12.82l1,5H90.49V34.49Z"/><path class="cls-2" d="M143.08,14.92l-8.4,12.2-2.44.34L122.31,14V39.49H116V.91h4l13.28,18.44L145.63.91h3.91V39.49h-6.46Z"/><path class="cls-2" d="M178.76.91V39.49h-6.35V.91Z"/><path class="cls-2" d="M195,12.14V39.49h-6.35V.91h6l19,27.17V.91h6.41V39.49H214Z"/><path class="cls-2" d="M225.62,1.31,232,.4l11.46,30.41L254.55.91h6.3L246.1,39.49h-5.56Z"/><path class="cls-2" d="M291.15,34.49l1,5h-25.7V.91h24.74l.9,5H272.77V17.42h12.82l1,5H272.77V34.49Z"/><path class="cls-2" d="M307.14,40.22a23.28,23.28,0,0,1-6-1,16.53,16.53,0,0,1-5.05-2.07l1.42-5.11a28,28,0,0,0,4.59,1.76,17.6,17.6,0,0,0,5,.8,10.67,10.67,0,0,0,5.73-1.28,4.13,4.13,0,0,0,.91-6.3A10.86,10.86,0,0,0,311,24.85q-1.67-1-4.85-2.55a32.27,32.27,0,0,1-8-5.42,9.12,9.12,0,0,1-2.7-6.72A9.07,9.07,0,0,1,297,5a10.54,10.54,0,0,1,4.48-3.63A16.65,16.65,0,0,1,308.34,0a20.14,20.14,0,0,1,5.41.77,28.8,28.8,0,0,1,5.14,2l-2.16,5a30.64,30.64,0,0,0-4-1.59,14.46,14.46,0,0,0-4.17-.56,9.27,9.27,0,0,0-4.82,1.13,3.67,3.67,0,0,0-1.87,3.35,4.34,4.34,0,0,0,1,2.81,9.27,9.27,0,0,0,2.61,2.15q1.62.94,5.08,2.7a55,55,0,0,1,5.81,3.37,13.28,13.28,0,0,1,3.58,3.63,9,9,0,0,1,1.39,5,9.3,9.3,0,0,1-1.65,5.44,10.68,10.68,0,0,1-4.85,3.72A20,20,0,0,1,307.14,40.22Z"/><path class="cls-2" d="M323.43.91h30.86l1,5.05H342V39.49h-6.46V6H323.43Z"/><path class="cls-2" d="M385.55,34.49l1,5h-25.7V.91h24.74l.9,5H367.17V17.42H380l1,5H367.17V34.49Z"/><path class="cls-2" d="M430.31,34.49l1,5h-25.7V.91h24.74l.91,5H411.93V17.42h12.82l1,5H411.93V34.49Z"/><path class="cls-2" d="M464.52,14.92l-8.4,12.2-2.44.34L443.75,14V39.49H437.4V.91h4l13.28,18.44L467.07.91H471V39.49h-6.46Z"/><path class="cls-2" d="M4.86,200.14v16.91H.93V193.19H4.65L16.36,210V193.19h4v23.86H16.57Z"/><path class="cls-2" d="M23.76,217.05l9.12-23.86h3.47l9.19,23.61-3.89.56-2.35-6.31H29.93l-2.28,6Zm12.49-29a.93.93,0,0,0,.72-.35,1.42,1.42,0,0,0,.33-.84h2.53a4,4,0,0,1-1,3,3.58,3.58,0,0,1-2.55.95,2.77,2.77,0,0,1-1.08-.18,3.74,3.74,0,0,1-.88-.52,4,4,0,0,0-.81-.49,2.42,2.42,0,0,0-1-.18,1,1,0,0,0-.71.37,1.31,1.31,0,0,0-.37.82H28.78a3.88,3.88,0,0,1,1-3,3.57,3.57,0,0,1,2.54-.93,2.92,2.92,0,0,1,1.1.17,4.05,4.05,0,0,1,.93.53,4.91,4.91,0,0,0,.9.47A2.65,2.65,0,0,0,36.25,188Zm-5.19,19.82h7.05l-3.58-9.3Z"/><path class="cls-2" d="M47.23,205.23a13.85,13.85,0,0,1,1.45-6.42,11.07,11.07,0,0,1,4.09-4.48,11.64,11.64,0,0,1,6-1.7,11.34,11.34,0,0,1,6.07,1.62,10.81,10.81,0,0,1,4,4.42,14.81,14.81,0,0,1,0,12.76,11.07,11.07,0,0,1-4.11,4.46,11.57,11.57,0,0,1-6,1.65,11.26,11.26,0,0,1-6-1.6,10.65,10.65,0,0,1-4-4.4A13.75,13.75,0,0,1,47.23,205.23ZM58.8,196A6.67,6.67,0,0,0,55,197.16a7.88,7.88,0,0,0-2.7,3.26,11.2,11.2,0,0,0-1,4.77,11.32,11.32,0,0,0,.91,4.65,7.52,7.52,0,0,0,2.58,3.21,6.57,6.57,0,0,0,3.84,1.16,6.79,6.79,0,0,0,3.81-1.13,7.62,7.62,0,0,0,2.68-3.21,11.44,11.44,0,0,0,1-4.89,11.19,11.19,0,0,0-.91-4.63,7.52,7.52,0,0,0-2.58-3.19A6.57,6.57,0,0,0,58.8,196Z"/><path class="cls-2" d="M86.62,208.49v8.56H82.69V193.19h7.12A11.12,11.12,0,0,1,96.49,195c1.7,1.22,2.54,3.12,2.54,5.7a7,7,0,0,1-1.31,4.31,7.89,7.89,0,0,1-3.47,2.6,13,13,0,0,1-4.76.84ZM94.89,201a4.07,4.07,0,0,0-1.31-3.44,6.19,6.19,0,0,0-3.84-1H86.62v8.74h3a6,6,0,0,0,3.73-1.06A4,4,0,0,0,94.89,201Z"/><path class="cls-2" d="M103.1,217.05V193.19h7.12a11.36,11.36,0,0,1,6.67,1.81,6.19,6.19,0,0,1,2.56,5.39,6.52,6.52,0,0,1-1.13,3.82,7.11,7.11,0,0,1-3,2.45l5.93,10.39H117l-5.19-9.4a14,14,0,0,1-1.93.1H107v9.3Zm12.21-16.49a3.58,3.58,0,0,0-1.33-3.12,6.58,6.58,0,0,0-3.83-.95H107v8h3a6.8,6.8,0,0,0,3.79-.94A3.35,3.35,0,0,0,115.31,200.56Z"/><path class="cls-2" d="M140,214l.6,3.09H124.71V193.19H140l.56,3.09H128.64v7.12h7.92l.6,3.09h-8.52V214Z"/><path class="cls-2" d="M154,192.7a15.26,15.26,0,0,1,3.09.39,11.09,11.09,0,0,1,3.08,1.09L159,197c-1.24-.4-2.16-.66-2.75-.79a11.42,11.42,0,0,0-2.33-.19,6.26,6.26,0,0,0-3.67,1.14,7.67,7.67,0,0,0-2.58,3.22,11.6,11.6,0,0,0-.94,4.83,11.93,11.93,0,0,0,.82,4.52,7.64,7.64,0,0,0,2.38,3.25,5.94,5.94,0,0,0,3.71,1.21,13,13,0,0,0,5.22-1.09l1.51,2.94a13.37,13.37,0,0,1-3.14,1.06,15.76,15.76,0,0,1-3.42.42,11.06,11.06,0,0,1-6.1-1.63,10.24,10.24,0,0,1-3.81-4.42,14.83,14.83,0,0,1-1.28-6.23,14.57,14.57,0,0,1,1.4-6.47,10.7,10.7,0,0,1,4-4.47A11,11,0,0,1,154,192.7Z"/><path class="cls-2" d="M168,193.19v23.86h-3.93V193.19Z"/><path class="cls-2" d="M179.64,217.5a14.26,14.26,0,0,1-3.72-.61,10.22,10.22,0,0,1-3.12-1.28l.87-3.16a18.19,18.19,0,0,0,2.84,1.09,10.77,10.77,0,0,0,3.09.49,6.54,6.54,0,0,0,3.54-.79,2.51,2.51,0,0,0,1.23-2.23,2.47,2.47,0,0,0-.66-1.66A6.55,6.55,0,0,0,182,208c-.69-.4-1.69-.93-3-1.58a19.89,19.89,0,0,1-5-3.35,6,6,0,0,1-.7-7.37,6.57,6.57,0,0,1,2.77-2.24,10.18,10.18,0,0,1,4.26-.83,12.27,12.27,0,0,1,3.35.48,17.45,17.45,0,0,1,3.18,1.21l-1.34,3.12a18.27,18.27,0,0,0-2.47-1,8.57,8.57,0,0,0-2.58-.35,5.67,5.67,0,0,0-3,.7,2.27,2.27,0,0,0-1.16,2.07,2.66,2.66,0,0,0,.62,1.73A5.84,5.84,0,0,0,178.6,202c.67.38,1.71.94,3.14,1.66a33.32,33.32,0,0,1,3.6,2.09,8.26,8.26,0,0,1,2.21,2.24,5.52,5.52,0,0,1,.86,3.07,5.76,5.76,0,0,1-1,3.37,6.64,6.64,0,0,1-3,2.3A12.35,12.35,0,0,1,179.64,217.5Z"/><path class="cls-2" d="M189.7,217.05l9.12-23.86h3.47l9.19,23.61-3.89.56-2.35-6.31h-9.36l-2.28,6Zm7.3-9.19h7.05l-3.58-9.3Z"/><path class="cls-2" d="M232.56,192.7a15.1,15.1,0,0,1,3.09.39,11,11,0,0,1,3.09,1.09L237.55,197c-1.24-.4-2.16-.66-2.76-.79a11.29,11.29,0,0,0-2.33-.19,6.26,6.26,0,0,0-3.67,1.14,7.73,7.73,0,0,0-2.57,3.22,11.44,11.44,0,0,0-.95,4.83,11.93,11.93,0,0,0,.82,4.52,7.66,7.66,0,0,0,2.39,3.25,5.89,5.89,0,0,0,3.7,1.21,13.07,13.07,0,0,0,5.23-1.09l1.5,2.94a13.37,13.37,0,0,1-3.14,1.06,15.76,15.76,0,0,1-3.42.42,11.06,11.06,0,0,1-6.1-1.63,10.22,10.22,0,0,1-3.8-4.42,14.68,14.68,0,0,1-1.28-6.23,14.44,14.44,0,0,1,1.4-6.47,10.61,10.61,0,0,1,4-4.47A11.05,11.05,0,0,1,232.56,192.7Z"/><path class="cls-2" d="M240.84,205.23a13.86,13.86,0,0,1,1.46-6.42,11.12,11.12,0,0,1,4.08-4.48,11.71,11.71,0,0,1,6-1.7,11.36,11.36,0,0,1,6.07,1.62,10.81,10.81,0,0,1,4.05,4.42,13.85,13.85,0,0,1,1.42,6.31,13.69,13.69,0,0,1-1.48,6.45,11.11,11.11,0,0,1-4.1,4.46,11.57,11.57,0,0,1-6,1.65,11.23,11.23,0,0,1-6-1.6,10.67,10.67,0,0,1-4-4.4A13.88,13.88,0,0,1,240.84,205.23ZM252.42,196a6.64,6.64,0,0,0-3.79,1.16,7.73,7.73,0,0,0-2.7,3.26,11.05,11.05,0,0,0-1,4.77,11.32,11.32,0,0,0,.91,4.65,7.52,7.52,0,0,0,2.58,3.21,6.57,6.57,0,0,0,3.84,1.16,6.73,6.73,0,0,0,3.8-1.13,7.64,7.64,0,0,0,2.69-3.21,12.46,12.46,0,0,0,.07-9.52,7.52,7.52,0,0,0-2.58-3.19A6.57,6.57,0,0,0,252.42,196Z"/><path class="cls-2" d="M272.23,200.14v16.91h-3.92V193.19H272L283.74,210V193.19h4v23.86H284Z"/><path class="cls-2" d="M291.14,193.19h19.08l.6,3.13h-8.18v20.73h-4V196.32h-7.51Z"/><path class="cls-2" d="M311.52,217.05l9.12-23.86h3.47l9.19,23.61-3.89.56-2.35-6.31h-9.37l-2.28,6Zm7.29-9.19h7.05l-3.57-9.3Z"/><path class="cls-2" d="M336.74,217.05V193.19h7.12a11.33,11.33,0,0,1,6.66,1.81,6.16,6.16,0,0,1,2.56,5.39,6.52,6.52,0,0,1-1.12,3.82,7.17,7.17,0,0,1-3,2.45l5.93,10.39h-4.25l-5.19-9.4a13.91,13.91,0,0,1-1.93.1h-2.87v9.3Zm12.2-16.49a3.55,3.55,0,0,0-1.33-3.12,6.55,6.55,0,0,0-3.82-.95h-3.12v8h3.05a6.82,6.82,0,0,0,3.79-.94A3.37,3.37,0,0,0,348.94,200.56Z"/><path class="cls-2" d="M376,192.7a15.09,15.09,0,0,1,3.08.39,11,11,0,0,1,3.09,1.09L381,197c-1.24-.4-2.16-.66-2.75-.79a11.46,11.46,0,0,0-2.34-.19,6.23,6.23,0,0,0-3.66,1.14,7.67,7.67,0,0,0-2.58,3.22,11.6,11.6,0,0,0-.95,4.83,11.93,11.93,0,0,0,.83,4.52A7.64,7.64,0,0,0,371.9,213a5.91,5.91,0,0,0,3.7,1.21,13,13,0,0,0,5.23-1.09l1.51,2.94a13.37,13.37,0,0,1-3.14,1.06,15.76,15.76,0,0,1-3.42.42,11.1,11.1,0,0,1-6.11-1.63,10.22,10.22,0,0,1-3.8-4.42,15.72,15.72,0,0,1,.12-12.7,10.68,10.68,0,0,1,4-4.47A11.09,11.09,0,0,1,376,192.7Z"/><path class="cls-2" d="M384.27,205.23a13.85,13.85,0,0,1,1.45-6.42,11.07,11.07,0,0,1,4.09-4.48,11.64,11.64,0,0,1,6-1.7,11.36,11.36,0,0,1,6.07,1.62,10.81,10.81,0,0,1,4.05,4.42,14.81,14.81,0,0,1-.05,12.76,11.14,11.14,0,0,1-4.11,4.46,11.57,11.57,0,0,1-6,1.65,11.26,11.26,0,0,1-6-1.6,10.65,10.65,0,0,1-4-4.4A13.75,13.75,0,0,1,384.27,205.23ZM395.84,196a6.67,6.67,0,0,0-3.79,1.16,7.88,7.88,0,0,0-2.7,3.26,11.2,11.2,0,0,0-1,4.77,11.32,11.32,0,0,0,.91,4.65,7.52,7.52,0,0,0,2.58,3.21,6.57,6.57,0,0,0,3.84,1.16,6.79,6.79,0,0,0,3.81-1.13,7.7,7.7,0,0,0,2.68-3.21,11.44,11.44,0,0,0,1-4.89,11.19,11.19,0,0,0-.91-4.63,7.52,7.52,0,0,0-2.58-3.19A6.57,6.57,0,0,0,395.84,196Z"/><path class="cls-2" d="M428.5,201.86l-5.2,7.54-1.5.21-6.14-8.31v15.75h-3.93V193.19h2.46l8.2,11.4,7.68-11.4h2.42v23.86h-4Z"/><path class="cls-2" d="M443.89,217.05,453,193.19h3.48l9.19,23.61-3.9.56-2.35-6.31h-9.36l-2.28,6Zm7.3-9.19h7.05l-3.58-9.3Z"/><path class="cls-2" d="M47.73,128.41l1.48,12.43H5.92V81.73H47.73l1.48,12.43H21.74v10.78H39.91l1.48,12.43H21.74v11Z"/><path class="cls-2" d="M112.58,110.93A33.47,33.47,0,0,1,109,126.75a25.2,25.2,0,0,1-10,10.43,29.19,29.19,0,0,1-14.69,3.66H57.9V81.73H84.67a29.24,29.24,0,0,1,15.17,3.74,24,24,0,0,1,9.52,10.34A34.18,34.18,0,0,1,112.58,110.93Zm-16.35,0q0-7.47-3.26-12.12a10.47,10.47,0,0,0-9.08-4.65H73.72v34.25h9.56a11.43,11.43,0,0,0,9.35-4.52C95,120.87,96.23,116.56,96.23,110.93Z"/><path class="cls-2" d="M121.27,81.73h15.82v35.72c0,3.6,1,6.39,2.95,8.39a11.48,11.48,0,0,0,15.48,0c2-2,2.95-4.79,2.95-8.39V81.73h15.82v36.51a24.07,24.07,0,0,1-3.3,12.9,21,21,0,0,1-9.3,8.13,36.19,36.19,0,0,1-27.82,0,21,21,0,0,1-9.3-8.13,24.07,24.07,0,0,1-3.3-12.9Z"/><path class="cls-2" d="M213.32,80.6a34.81,34.81,0,0,1,9.26,1.3,27.9,27.9,0,0,1,8.12,3.57L226,96.16a65.17,65.17,0,0,0-7.09-2.09,26.21,26.21,0,0,0-5.43-.52,11.77,11.77,0,0,0-6.82,2.26,16.49,16.49,0,0,0-5.3,6.35,20.39,20.39,0,0,0-2.05,9.3,19.86,19.86,0,0,0,2.09,9.3,15.31,15.31,0,0,0,5.52,6.12A13.32,13.32,0,0,0,214.1,129a21.6,21.6,0,0,0,11.21-3.21l6,11.82a30.24,30.24,0,0,1-8.21,3.17,40,40,0,0,1-9.43,1.18,33.11,33.11,0,0,1-16.35-3.87,26.39,26.39,0,0,1-10.64-10.74,32.77,32.77,0,0,1-3.7-15.82,32.43,32.43,0,0,1,3.91-16,28.28,28.28,0,0,1,10.83-11A30.87,30.87,0,0,1,213.32,80.6Z"/><path class="cls-2" d="M233.05,140.84l22.16-59.11H271l22.08,58.41-15.56,1.56-4.26-12.51H252.87l-4.09,11.65Zm24.16-24.08h11.56l-5.91-16.08Z"/><path class="cls-2" d="M337.62,153.18a9.12,9.12,0,0,1-3.65,7.6,13.65,13.65,0,0,1-8.61,2.83,15.45,15.45,0,0,1-5.21-1,17.91,17.91,0,0,1-4.87-2.6l3.3-7.48a15.84,15.84,0,0,0,4.87,1.3,4.25,4.25,0,0,0,1.91-.39,1.25,1.25,0,0,0,.78-1.17q0-2.52-7.39-3.3l3-7.39a29.83,29.83,0,0,1-13.47-5.22,26.65,26.65,0,0,1-8.65-10.47,33.44,33.44,0,0,1-3-14.39,32.32,32.32,0,0,1,3.91-16,28.32,28.32,0,0,1,10.82-11,30.92,30.92,0,0,1,15.6-4,34.75,34.75,0,0,1,9.26,1.3,27.84,27.84,0,0,1,8.13,3.57l-4.69,10.69a66.51,66.51,0,0,0-7.09-2.09,26.21,26.21,0,0,0-5.43-.52,11.75,11.75,0,0,0-6.82,2.26,16.42,16.42,0,0,0-5.31,6.35,20.52,20.52,0,0,0-2,9.3,19.86,19.86,0,0,0,2.09,9.3,15.31,15.31,0,0,0,5.52,6.12,13.27,13.27,0,0,0,7.17,2.13,21.6,21.6,0,0,0,11.21-3.21l6,11.82a31,31,0,0,1-12.17,3.91l-1,2.7a7.54,7.54,0,0,1,4.43,3.6A11,11,0,0,1,337.62,153.18Z"/><path class="cls-2" d="M346.66,140.84l22.16-59.11h15.82l22.08,58.41-15.56,1.56-4.26-12.51H366.47l-4.08,11.65Zm33.55-76.15a1.66,1.66,0,0,0,1.3-.87,2.88,2.88,0,0,0,.61-1.65h10.6q0,7.22-3.08,10.56A10,10,0,0,1,382,76.08a6.81,6.81,0,0,1-2.47-.39,12.16,12.16,0,0,1-2.22-1.18c-.81-.46-1.48-.81-2-1a5,5,0,0,0-2-.35A1.66,1.66,0,0,0,372,74a2.88,2.88,0,0,0-.61,1.65H360.48q0-7.22,3.21-10.56a10.45,10.45,0,0,1,7.83-3.34,6.61,6.61,0,0,1,2.39.39,13,13,0,0,1,2.21,1.17c.87.47,1.58.81,2.13,1A4.87,4.87,0,0,0,380.21,64.69Zm-9.39,52.07h11.56l-5.91-16.08Z"/><path class="cls-2" d="M410.2,111.54a32.55,32.55,0,0,1,3.91-16,27.93,27.93,0,0,1,10.86-11,31.24,31.24,0,0,1,15.74-4,32,32,0,0,1,16.29,4,27.26,27.26,0,0,1,10.61,10.95,32.52,32.52,0,0,1,3.69,15.47,33.09,33.09,0,0,1-3.87,16.13,27.76,27.76,0,0,1-10.82,11,31.65,31.65,0,0,1-15.9,4,31.31,31.31,0,0,1-16.13-4,27.68,27.68,0,0,1-10.65-11A32.14,32.14,0,0,1,410.2,111.54Zm30.68-17.82a12.6,12.6,0,0,0-7.26,2.22,15.51,15.51,0,0,0-5.21,6.26,20.9,20.9,0,0,0-2,9.26q0,7.65,3.78,12.51a12.42,12.42,0,0,0,10.39,4.87A13.15,13.15,0,0,0,451,124.19q4-4.65,4-13.26,0-7.56-3.87-12.38A12.53,12.53,0,0,0,440.88,93.72Z"/><path class="cls-2" d="M36,351.29A73,73,0,0,1,18.86,349a56.71,56.71,0,0,1-15.12-5.65l8.68-19.81a47.09,47.09,0,0,0,10.78,4.27,45,45,0,0,0,12.07,1.95q5.79,0,9.26-2.39C46.85,325.76,48,324,48,322.07q0-1.87-2.53-3.69t-8.17-5.13l-4.48-2.6Q23,304.86,17.48,301a41,41,0,0,1-9.83-9.91,23,23,0,0,1-4.34-13.74,24.61,24.61,0,0,1,4.55-14.54,30,30,0,0,1,12.81-10,47.5,47.5,0,0,1,19.23-3.62,58.21,58.21,0,0,1,15.41,2.17,46.76,46.76,0,0,1,13.52,5.93L61,275.06a112.45,112.45,0,0,0-11.79-3.47,43.82,43.82,0,0,0-9-.87,11.31,11.31,0,0,0-7,2,6,6,0,0,0-2.68,4.92,4.76,4.76,0,0,0,2.24,3.83,63.08,63.08,0,0,0,7.45,4.41l5.21,2.89a171.46,171.46,0,0,1,15.19,9.62,45.43,45.43,0,0,1,10.34,10.42,22.81,22.81,0,0,1,4.27,13.52,24.57,24.57,0,0,1-4.78,14.9,31.8,31.8,0,0,1-13.67,10.27A52.93,52.93,0,0,1,36,351.29Z"/><path class="cls-2" d="M82.43,300.66A54.26,54.26,0,0,1,88.94,274,46.63,46.63,0,0,1,107,255.61,52,52,0,0,1,133.2,249q15.62,0,27.12,6.65A45.23,45.23,0,0,1,178,273.91a54,54,0,0,1,6.15,25.74,55.05,55.05,0,0,1-6.44,26.83,46.11,46.11,0,0,1-18,18.37,52.59,52.59,0,0,1-26.47,6.59q-15.33,0-26.83-6.73a46.06,46.06,0,0,1-17.72-18.3A53.44,53.44,0,0,1,82.43,300.66ZM133.49,271a21,21,0,0,0-12.08,3.69,25.83,25.83,0,0,0-8.68,10.42,34.89,34.89,0,0,0-3.25,15.4q0,12.74,6.29,20.83t17.28,8.1a21.87,21.87,0,0,0,17.29-7.74q6.72-7.74,6.72-22.06,0-12.58-6.43-20.61A20.89,20.89,0,0,0,133.49,271Z"/><path class="cls-2" d="M200,349.41V251.05h41.37q17.64,0,29.07,8.39t11.43,25.17a31.61,31.61,0,0,1-3.55,15.26,29.89,29.89,0,0,1-9.76,10.78l21.7,38.76H259.76l-15.91-31h-17.5v31Zm54.68-64.8q0-6.36-3.69-9.62t-10.49-3.25H226.35v26h14.46a13.94,13.94,0,0,0,10-3.69A12.46,12.46,0,0,0,254.7,284.61Z"/><path class="cls-2" d="M293.17,251.05h84.18l2.46,20.69H348.42v77.67H322.1V271.74H293.17Z"/><path class="cls-2" d="M462.4,328.73l2.46,20.68h-72V251.05H462.4l2.46,20.69H419.15v17.93h30.23l2.46,20.69H419.15v18.37Z"/></g></g></svg>