<svg xmlns="http://www.w3.org/2000/svg" viewBox="0 0 2371.5 922"><defs><style>.cls-1{fill:#da911f;}.cls-2{fill:none;stroke:#fff;stroke-miterlimit:10;stroke-width:17px;}</style></defs><title>home</title><g id="Camada_2" data-name="Camada 2"><g id="Camada_1-2" data-name="Camada 1"><rect class="cls-1" x="1192.5" y="651.09" width="45" height="107.91"/><rect class="cls-1" x="649.53" y="489.42" width="81.24" height="223.94" transform="translate(-149.81 237.46) rotate(-17.64)"/><rect class="cls-1" x="622.64" y="452.71" width="61.13" height="81.95" transform="translate(-118.91 221.2) rotate(-17.64)"/><polyline class="cls-2" points="1555.5 922 1555.5 338 2371.5 338"/><circle class="cls-1" cx="1421.5" cy="539" r="45"/><polyline class="cls-2" points="1552.77 338.5 1504.5 338.5 1504.5 250.5 2209 250.5"/><polyline class="cls-2" points="831 863.5 831 649.5 970.91 649.5 970.91 759.5 1337 759.5 1337 489.5 1469 489.5 1469 850.5 1553.5 850.5"/><polyline class="cls-2" points="903.5 649.5 903.5 595 970.5 595 970.5 649.5"/><polyline class="cls-2" points="1168.5 759.5 1168.5 656.5 1208.5 656.5 1208.5 759.5"/><line class="cls-2" x1="1188" y1="649.5" x2="1188" y2="552.5"/><rect class="cls-2" x="833" y="656.5" width="69" height="69"/><rect class="cls-2" x="833" y="725.5" width="69" height="69"/><rect class="cls-2" x="833" y="794.5" width="69" height="69"/><line class="cls-2" x1="1168.5" y1="708.5" x2="970.91" y2="708.5"/><line class="cls-2" x1="1337.5" y1="708.5" x2="1208.5" y2="708.5"/><path class="cls-2" d="M1189,561.5c-48,52.75-218.5,50.43-218.5,50.43"/><path class="cls-2" d="M1337,612s-91,1.22-149-47.62"/><circle class="cls-2" cx="1403" cy="547.5" r="30"/><line class="cls-2" x1="1316" y1="605.5" x2="1484" y2="605.5"/><line class="cls-2" x1="1316.5" y1="489.5" x2="1484.5" y2="489.5"/><polyline class="cls-2" points="1337 489.5 1403 412.5 1467 489.5"/><line class="cls-2" x1="1375" y1="630.5" x2="1375" y2="831.5"/><line class="cls-2" x1="1404" y1="631" x2="1404" y2="832"/><line class="cls-2" x1="1433" y1="631.5" x2="1433" y2="832.5"/><polyline class="cls-2" points="833 725.5 692 725.5 662 863.5"/><polyline class="cls-2" points="705 849.5 722 768.5 831 768.5"/><polyline class="cls-2" points="705 719.5 731 605.5 821 605.5 831 662.5"/><polyline class="cls-2" points="748 600.5 768 477.5 786 477.5 811.68 605.5"/><line class="cls-2" x1="776.84" y1="477.5" x2="776.84" y2="412.5"/><polyline class="cls-2" points="740.17 725.5 755 649.5 793 649.5 806 719.5"/><polyline class="cls-2" points="686.31 751.66 548.57 613.93 324 838.5"/><line class="cls-2" x1="1469.29" y1="676.5" x2="1553.5" y2="676.5"/><polyline class="cls-2" points="1511.39 676.5 1511.39 595.5 1553.5 595.5"/><polyline class="cls-2" points="714.81 676.5 667 489.5 576 528.5 615.85 681.21"/><polyline class="cls-2" points="649.5 497 635 444.5 573 474.5 590 525.5"/><line class="cls-2" x1="599.74" y1="461.56" x2="584" y2="419.5"/><polyline class="cls-2" points="460.67 701.83 460.67 585.5 520 585.5 520 539.5 448 539.5 439 517.5 439 489.5 419 477.5"/><polyline class="cls-2" points="384.33 733 384.33 585.5 325 585.5 325 539.5 397 539.5 406 517.5 406 489.5 426 477.5"/><polyline class="cls-2" points="520 547.5 553 547.5 558 577.5 520.5 577.5"/><polyline class="cls-2" points="326 547.5 293 547.5 288 577.5 325.5 577.5"/><polyline class="cls-2" points="426 733.5 333 733.5 333 730.5 333 630.5 165 630.5 0 630.5"/><polyline class="cls-2" points="281.62 630.5 281.62 440.5 174 440.5 174 631"/><line class="cls-2" x1="1638" y1="110.5" x2="1607.1" y2="247.5"/><line class="cls-2" x1="1670" y1="110.5" x2="1709.95" y2="246.67"/><rect class="cls-2" x="1964" y="477.5" width="131" height="58"/><rect class="cls-2" x="1656" y="667.5" width="131" height="58"/><line class="cls-2" x1="1555.5" y1="392.08" x2="2151" y2="392.08"/><polygon class="cls-1" points="1512.5 99 1512.5 0 1566.5 0 1566.5 19 1643.5 19 1643.5 31 1771.5 31 1771.5 79 1647.5 79 1647.5 94 1569.5 94 1565.5 98 1512.5 99"/><rect class="cls-2" x="1488" y="21.5" width="54" height="99"/><polyline class="cls-2" points="1542 34 1623 34 1623 110.5 1542 110.5"/><polyline class="cls-2" points="1623 48.19 1747 48.19 1747 103 1623 103"/><polyline class="cls-2" points="1747 71 1784 71 1784 48.5"/><polyline class="cls-2" points="261 441 261 247.5 196 247.5 196 440.53"/><path class="cls-2" d="M261.28,358.5H365s-6-60-69-44c0,0-.44-21.33-34.72-21.17"/></g></g></svg>