<svg xmlns="http://www.w3.org/2000/svg" viewBox="0 0 128.69 94.53"><defs><style>.cls-1{fill:#da911f;}.cls-2{fill:#fff;}</style></defs><title>ico-4</title><g id="Camada_2" data-name="Camada 2"><g id="Camada_3" data-name="Camada 3"><g id="_Grupo_" data-name="&lt;Grupo&gt;"><circle id="_Caminho_" data-name="&lt;Caminho&gt;" class="cls-1" cx="64.34" cy="37.17" r="37.17"/><g id="_Grupo_2" data-name="&lt;Grupo&gt;"><g id="_Grupo_3" data-name="&lt;Grupo&gt;"><polygon class="cls-2" points="20.2 52.74 24.61 57.92 28.74 53.8 24.32 48.61 20.2 52.74"/></g><g id="_Grupo_4" data-name="&lt;Grupo&gt;"><path class="cls-2" d="M30.66,19.21l-8,3.43-6.08-7.26L0,29,13.13,44.42l4.12-4.12-9-10.56,7.59-6.22L64.28,81.35,112.7,23.52l7.72,6.34L70.1,88.72H58.46L45.33,73.3l-4.12,4.12L55.77,94.53h17l55.92-65.39L111.94,15.38l-6.18,7.38-8.25-3.55-1-.44-4.62-2-1.62,3.77C88.47,22.87,84.72,27,76.9,33.4a36.57,36.57,0,0,0-9.63,12.88,56.4,56.4,0,0,0-3.19,8.77,55.4,55.4,0,0,0-3.19-8.77A36.43,36.43,0,0,0,51.27,33.4C43.45,27,39.7,22.87,37.92,20.55L36.3,16.78l-4.63,2Zm-4.08,8.08,6.91-3c2.85,3.65,7.58,8.21,14.08,13.57C54.93,44,58.19,54.07,59.63,61.49c.44,2.27.74,4.44.94,6.39Zm41,41.11c.89-8.93,3.78-22.86,13.06-30.52C87.09,32.52,91.83,28,94.67,24.31l7.2,3.1Z"/></g></g></g></g></g></svg>