<svg xmlns="http://www.w3.org/2000/svg" viewBox="0 0 96.21 108.96"><defs><style>.cls-1{fill:#da911f;}.cls-2{fill:#fff;}</style></defs><title>ico-1</title><g id="Camada_2" data-name="Camada 2"><g id="Camada_3" data-name="Camada 3"><g id="_Grupo_" data-name="&lt;Grupo&gt;"><rect id="_Caminho_" data-name="&lt;Caminho&gt;" class="cls-1" x="28.31" y="21.85" width="67.36" height="87.11"/></g><g id="_Grupo_2" data-name="&lt;Grupo&gt;"><g id="_Grupo_3" data-name="&lt;Grupo&gt;"><rect class="cls-2" x="12.18" y="75.02" width="47.97" height="4.69"/></g></g><g id="_Grupo_4" data-name="&lt;Grupo&gt;"><g id="_Grupo_5" data-name="&lt;Grupo&gt;"><rect class="cls-2" x="12.18" y="65.1" width="47.97" height="4.69"/></g></g><g id="_Grupo_6" data-name="&lt;Grupo&gt;"><g id="_Grupo_7" data-name="&lt;Grupo&gt;"><rect class="cls-2" x="12.18" y="12.25" width="47.97" height="4.69"/></g></g><g id="_Grupo_8" data-name="&lt;Grupo&gt;"><g id="_Grupo_9" data-name="&lt;Grupo&gt;"><rect class="cls-2" x="12.18" y="50.62" width="32.81" height="4.69"/></g></g><g id="_Grupo_10" data-name="&lt;Grupo&gt;"><g id="_Grupo_11" data-name="&lt;Grupo&gt;"><rect class="cls-2" x="12.18" y="40.97" width="32.81" height="4.69"/></g></g><g id="_Grupo_12" data-name="&lt;Grupo&gt;"><g id="_Grupo_13" data-name="&lt;Grupo&gt;"><rect class="cls-2" x="12.18" y="31.32" width="32.81" height="4.69"/></g></g><g id="_Grupo_14" data-name="&lt;Grupo&gt;"><g id="_Grupo_15" data-name="&lt;Grupo&gt;"><g id="_Grupo_16" data-name="&lt;Grupo&gt;"><g id="_Grupo_17" data-name="&lt;Grupo&gt;"><polygon class="cls-2" points="70.55 51.13 58.29 38.87 61.91 35.26 70.55 43.9 92.6 21.85 96.21 25.46 70.55 51.13"/></g></g></g><g id="_Grupo_18" data-name="&lt;Grupo&gt;"><g id="_Grupo_19" data-name="&lt;Grupo&gt;"><path class="cls-2" d="M88.65,37.22c0,.47.06.94.06,1.42a16.71,16.71,0,1,1-5.52-12.39l3.61-3.61A21.68,21.68,0,1,0,93,32.84Z"/></g></g></g><g id="_Grupo_20" data-name="&lt;Grupo&gt;"><path class="cls-2" d="M0,0V20.26H6.07V6.07H66.24v9.5a17.72,17.72,0,0,1,6.06-.71V0Z"/></g><g id="_Grupo_21" data-name="&lt;Grupo&gt;"><g id="_Grupo_22" data-name="&lt;Grupo&gt;"><rect class="cls-2" y="28.85" width="6.07" height="9.79"/></g><g id="_Grupo_23" data-name="&lt;Grupo&gt;"><path class="cls-2" d="M66.24,62.39V88.13H6.07V67.44H0V94.19H72.3v-31A21.26,21.26,0,0,1,66.24,62.39Z"/></g></g></g></g></svg>