<svg xmlns="http://www.w3.org/2000/svg" viewBox="0 0 121.03 107.24"><defs><style>.cls-1{fill:#da911f;}.cls-2{fill:#fff;}</style></defs><title>ico-3</title><g id="Camada_2" data-name="Camada 2"><g id="Camada_3" data-name="Camada 3"><polygon id="_Caminho_" data-name="&lt;Caminho&gt;" class="cls-1" points="27.8 81.24 102.63 7.38 121.03 25.85 47.39 101.26 27.8 81.24"/><g id="_Grupo_" data-name="&lt;Grupo&gt;"><g id="_Grupo_2" data-name="&lt;Grupo&gt;"><rect class="cls-2" x="32.86" y="49.57" width="7.99" height="5.49" transform="translate(-26.2 41.38) rotate(-45)"/></g><g id="_Grupo_3" data-name="&lt;Grupo&gt;"><path class="cls-2" d="M32.32,60.73l-3.88-3.88L9.77,75.51v0a.93.93,0,0,0-.16.18l0,0-.12.16,0,0-.11.19a.3.3,0,0,1,0,.08l-.07.16,0,.08a.69.69,0,0,0-.05.13L6,86,4.85,89.44.14,103.63a2.75,2.75,0,0,0,3.47,3.47l14.19-4.71,3.48-1.15,9.37-3.11.13,0,.08,0L31,98l.08,0,.18-.12,0,0,.17-.12s0,0,0,0a1.37,1.37,0,0,0,.18-.16h0l52-52,.45.45a2.49,2.49,0,0,0,3.65-.23l7.75-7.76a2.47,2.47,0,0,0,.23-3.64l-.45-.46,11.05-11a2.74,2.74,0,0,0,0-3.89L88.36.8a2.75,2.75,0,0,0-3.88,0L73.38,11.91a2.74,2.74,0,0,0-3.41.37L62.21,20a2.76,2.76,0,0,0-.37,3.42L46.27,39l3.88,3.88,15-15L68.22,31,18.66,80.52,15.6,77.45ZM92,29.41,77.83,15.22l8.59-8.59,14.19,14.19ZM68,22l3.87-3.86L90,36.21l-3.87,3.87ZM73.8,36.55,24.25,86.11l-3-3L70.81,33.55Zm-47,52.14L76.39,39.14l3,3L29.78,91.64ZM9.78,92a22.32,22.32,0,0,1,3,2.48,23.11,23.11,0,0,1,2.48,3l-8.15,2.7Zm3.14-9.47L24.69,94.32l-5.86,1.94a25.65,25.65,0,0,0-3.5-4.36A25.29,25.29,0,0,0,11,88.41Z"/></g></g><g id="_Grupo_4" data-name="&lt;Grupo&gt;"><path class="cls-2" d="M27.9,42.09l3-3,4.72,4.72,2.59-2.59-4.73-4.72,3-3,4.72,4.73,2.59-2.59L39,31l3.07-3.06,4.72,4.72,3.88-3.88L45.4,23.45A2.76,2.76,0,0,0,45,20l-7.75-7.75a2.74,2.74,0,0,0-3.41-.37L22.76.8a2.76,2.76,0,0,0-3.89,0L.8,18.87a2.76,2.76,0,0,0,0,3.89L11.86,33.81l-.45.46a2.47,2.47,0,0,0,.23,3.64l7.75,7.76A2.49,2.49,0,0,0,23,45.9l.45-.45,5.25,5.24,3.88-3.88ZM6.63,20.82,20.82,6.63l8.59,8.59L15.22,29.41ZM21.1,40.08l-3.87-3.87,18.1-18.1L39.2,22Z"/></g><g id="_Grupo_5" data-name="&lt;Grupo&gt;"><path class="cls-2" d="M107.1,103.63l-4.71-14.19L101.24,86l-3.11-9.37a.69.69,0,0,0,0-.13l0-.08L98,76.22a.3.3,0,0,1,0-.08L97.82,76s0,0,0,0l-.12-.16s0,0,0,0a.93.93,0,0,0-.16-.18v0L78.8,56.85l-3.88,3.88L91.64,77.45l-3.06,3.07L71.85,63.8l-2.59,2.59L86,83.11l-3,3L66.27,69.38,63.68,72,80.4,88.69l-3,3L60.73,74.92,56.85,78.8,75.51,97.47h0a1.45,1.45,0,0,0,.18.16s0,0,0,0l.16.12,0,0,.19.12.08,0,.16.07.08,0,.13,0L86,101.24l3.48,1.15,14.19,4.71a2.75,2.75,0,0,0,3.47-3.47ZM88.41,96.26l-5.87-1.94L94.32,82.54l1.94,5.87a25.35,25.35,0,0,0-7.85,7.85Zm3.6,1.2A21.6,21.6,0,0,1,97.46,92l2.7,8.15Z"/></g></g></g></svg>