<svg xmlns="http://www.w3.org/2000/svg" viewBox="0 0 120.82 110.33"><defs><style>.cls-1{fill:#da911f;}.cls-2{fill:#fff;}</style></defs><title>ico-2</title><g id="Camada_2" data-name="Camada 2"><g id="Camada_3" data-name="Camada 3"><g id="_Grupo_" data-name="&lt;Grupo&gt;"><g id="_Grupo_2" data-name="&lt;Grupo&gt;"><polygon id="_Caminho_" data-name="&lt;Caminho&gt;" class="cls-1" points="8.64 58.31 63.07 10.89 120.82 57.96 67.2 110.33 8.64 58.31"/></g><g id="_Grupo_3" data-name="&lt;Grupo&gt;"><g id="_Grupo_4" data-name="&lt;Grupo&gt;"><g id="_Grupo_5" data-name="&lt;Grupo&gt;"><polygon id="_Caminho_2" data-name="&lt;Caminho&gt;" class="cls-2" points="39.4 108.8 0.86 71.58 4.8 67.5 39.54 101.06 93.34 52.64 39.42 8.06 22.92 21.04 19.42 16.59 39.51 0.78 102.01 52.46 39.4 108.8"/><g id="_Grupo_6" data-name="&lt;Grupo&gt;"><path class="cls-2" d="M39.38,109.64,0,71.59l4.78-5,34.77,33.59L92.41,52.66l-53-43.82L22.82,21.89l-4.26-5.4L39.52,0,103,52.44l-.53.48ZM1.72,71.56,39.41,108l61.67-55.49L39.5,1.57,20.28,16.69,23,20.18,39.43,7.27,94.28,52.62l-.53.48L39.52,101.9,4.81,68.37Z"/></g></g></g><g id="_Grupo_7" data-name="&lt;Grupo&gt;"><g id="_Grupo_8" data-name="&lt;Grupo&gt;"><g id="_Grupo_9" data-name="&lt;Grupo&gt;"><polygon class="cls-2" points="100.51 99.27 88.73 99.27 94.85 87.71 94.85 52.55 100.51 52.55 100.51 89.12 98.14 93.61 100.51 93.61 100.51 99.27"/></g><g id="_Grupo_10" data-name="&lt;Grupo&gt;"><path class="cls-2" d="M101.12,99.88H87.72l6.52-12.32V51.94h6.88V89.27l-2,3.73h2ZM89.74,98.66H99.9V94.22H97.12L99.9,89V53.16H95.46V87.87Z"/></g></g></g><g id="_Grupo_11" data-name="&lt;Grupo&gt;"><g id="_Grupo_12" data-name="&lt;Grupo&gt;"><g id="_Grupo_13" data-name="&lt;Grupo&gt;"><path class="cls-2" d="M58.27,105.52c-2.18,0-6.07-.38-8.59-2.86A7.9,7.9,0,0,1,47.46,96l5.64.51a2.31,2.31,0,0,0,.55,2.07c1,1,3.2,1.24,4.67,1.24h0c3.51-3.21,18.31-16.79,21.92-20.4,2.11-2.11.51-8.23-.6-10.87l5.21-2.21c.5,1.19,4.76,11.72-.61,17.09C80.13,87.63,62.21,104,61.44,104.73l-.68.62-.93.1A15.33,15.33,0,0,1,58.27,105.52Z"/></g><g id="_Grupo_14" data-name="&lt;Grupo&gt;"><path class="cls-2" d="M58.27,106.13c-2.21,0-6.33-.39-9-3A8.5,8.5,0,0,1,46.85,96l.06-.6,6.85.62,0,.6c-.1,1.12.24,1.46.37,1.59.77.75,2.62,1,4.06,1.06C62.58,95.18,76.38,82.51,79.86,79c1.77-1.77.39-7.52-.74-10.2l-.23-.56,6.33-2.69.24.56c.52,1.23,4.91,12.11-.73,17.76-4.16,4.15-22.11,20.58-22.87,21.27l-.84.77-1.12.12C59.68,106.08,59.09,106.13,58.27,106.13ZM48,96.7a7.18,7.18,0,0,0,2.08,5.52c2.38,2.34,6.13,2.69,8.16,2.69.76,0,1.3,0,1.5-.06l.72-.08.54-.49c.76-.7,18.7-17.11,22.83-21.25,4.6-4.59,1.67-13.36.71-15.84l-4.1,1.73c1,2.63,2.58,8.64.25,11C77.17,83.44,63,96.42,58.78,100.31l-.17.16h-.29c-.86,0-3.76-.1-5.09-1.41a2.62,2.62,0,0,1-.76-2Z"/></g></g></g><g id="_Grupo_15" data-name="&lt;Grupo&gt;"><g id="_Grupo_16" data-name="&lt;Grupo&gt;"><g id="_Grupo_17" data-name="&lt;Grupo&gt;"><rect class="cls-2" x="6.39" y="24.12" width="11.39" height="5.66" transform="translate(-14.49 14.06) rotate(-39.96)"/></g><g id="_Grupo_18" data-name="&lt;Grupo&gt;"><path class="cls-2" d="M9.47,33.64,5.05,28.36l9.66-8.09,4.42,5.27ZM6.76,28.52l2.86,3.4,7.79-6.53L14.56,22Z"/></g></g></g></g></g></g></g></svg>