<svg xmlns="http://www.w3.org/2000/svg" viewBox="0 0 196.52 74.29"><defs><style>.cls-1{fill:#fff;}.cls-2{fill:#d9912a;}</style></defs><title>logo</title><g id="Camada_2" data-name="Camada 2"><g id="Camada_1-2" data-name="Camada 1"><polygon id="_Caminho_" data-name="&lt;Caminho&gt;" class="cls-1" points="60.1 18.41 46.27 18.41 53.61 36.05 50.87 42.48 48.19 36.05 40.85 18.41 27.02 18.41 34.36 36.05 24.68 58.7 38.52 58.7 41.22 52.37 43.94 58.7 57.77 58.7 67.44 36.05 60.1 18.41"/><g id="_Grupo_" data-name="&lt;Grupo&gt;"><g id="_Grupo_2" data-name="&lt;Grupo&gt;"><polygon id="_Caminho_2" data-name="&lt;Caminho&gt;" class="cls-2" points="159.37 46.29 173.2 46.29 177.57 36.05 170.23 18.41 156.4 18.41 163.74 36.05 159.37 46.29"/><polygon id="_Caminho_3" data-name="&lt;Caminho&gt;" class="cls-2" points="157.65 50.32 154.07 58.7 167.9 58.7 171.48 50.32 157.65 50.32"/></g></g><path id="_Caminho_composto_" data-name="&lt;Caminho composto&gt;" class="cls-1" d="M152.15,18.42H119.22l7.34,17.63L116.88,58.7h13.83l3-6.93H139l-3,6.93h13.83l9.67-22.65ZM141.91,44.84h-5.27l3.75-8.79-2.45-5.88h5.27l2.45,5.88Z"/><path id="_Caminho_composto_2" data-name="&lt;Caminho composto&gt;" class="cls-1" d="M97.43,18.42H64.17l7.34,17.63L61.84,58.7H95.1l9.68-22.65ZM80.69,47l4.65-10.9-2.45-5.88H88.5L91,36.05,86.29,47Z"/><g id="_Grupo_3" data-name="&lt;Grupo&gt;"><path id="_Caminho_4" data-name="&lt;Caminho&gt;" class="cls-1" d="M50.61,2.22h2.75c.22,1,.44,2,.66,3a13.31,13.31,0,0,0,.88,2.94l1.26-6h2.78V14.47h-2V8.23l-.22,0L55.74,13c-1.81.34-1.86.31-2.21-1.34a22.11,22.11,0,0,0-.87-3.43v6.24h-2Z"/><path id="_Caminho_composto_3" data-name="&lt;Caminho composto&gt;" class="cls-1" d="M63.63,14.52V2.09a38.06,38.06,0,0,1,4.47.41,2.19,2.19,0,0,1,1.56,2.25c0,2.41.08,4.83,0,7.24A2.52,2.52,0,0,1,67,14.51C65.88,14.55,64.8,14.52,63.63,14.52Zm2.3-2.29c1.12.24,1.52-.26,1.53-1.19,0-1.79,0-3.59,0-5.39,0-1-.48-1.36-1.52-1.07Z"/><path id="_Caminho_composto_4" data-name="&lt;Caminho composto&gt;" class="cls-1" d="M77.4,14.47H75.14l-.35-1.77H73l-.37,1.78H70.4c.51-3.12,1-6.18,1.49-9.23,0-.28.1-.57.14-.85.33-2.39.4-2.46,2.78-2.2.24,0,.64.28.67.47C76.14,6.58,76.76,10.49,77.4,14.47Zm-2.85-4-.51-4h-.3l-.51,4Z"/><path id="_Caminho_composto_5" data-name="&lt;Caminho composto&gt;" class="cls-1" d="M36.24,14.48H34l-.37-1.79H31.85l-.36,1.76H29.26c.29-1.87.57-3.73.87-5.6s.67-3.91.94-5.88c.09-.66.38-.8,1-.81,2.26,0,2.22,0,2.55,2.14C35.11,7.66,35.68,11,36.24,14.48Zm-2.85-4-.52-4h-.29l-.51,4Z"/><path id="_Caminho_5" data-name="&lt;Caminho&gt;" class="cls-1" d="M48.41,7.13V9.37H46v2.9h3v2.19H43.67V2.26H49V4.42H46V7.13Z"/><path id="_Caminho_6" data-name="&lt;Caminho&gt;" class="cls-1" d="M37.49,2.24h2.19V12.3h3v2.16H37.49Z"/><path id="_Caminho_7" data-name="&lt;Caminho&gt;" class="cls-1" d="M48.2.13c-.64,1-1.28,1.78-2.55,1.32C46.1-.07,46.26-.15,48.2.13Z"/></g><g id="_Grupo_4" data-name="&lt;Grupo&gt;"><polygon id="_Caminho_8" data-name="&lt;Caminho&gt;" class="cls-1" points="108.63 36.05 98.96 58.7 112.79 58.7 122.46 36.05 113.44 14.39 168.51 14.39 163.62 2.64 80.46 2.64 80.46 14.39 99.61 14.39 108.63 36.05"/><polygon id="_Caminho_9" data-name="&lt;Caminho&gt;" class="cls-1" points="182.6 2.64 177.57 2.64 168.93 2.64 176.23 20.54 182.69 36.05 171.97 62.54 171.96 62.54 24.68 62.54 18.73 62.54 29.76 36.05 20.74 14.39 25.59 14.39 25.59 2.64 2.06 2.64 15.93 36.05 0 74.29 24.68 74.29 26.91 74.29 171.96 74.29 180.59 74.29 196.52 36.05 182.6 2.64"/></g></g></g></svg>