<?xml version="1.0" encoding="utf-8"?>
<!-- Generator: Adobe Illustrator 19.0.0, SVG Export Plug-In . SVG Version: 6.00 Build 0)  -->
<svg version="1.1" id="Camada_1" xmlns="http://www.w3.org/2000/svg" xmlns:xlink="http://www.w3.org/1999/xlink" x="0px" y="0px"
	 viewBox="0 0 933 359" style="enable-background:new 0 0 933 359;" xml:space="preserve">
<style type="text/css">
	.st0{fill:#13253B;}
	.st1{fill:#F28C1A;}
</style>
<polygon id="XMLID_3966_" class="st0" points="289.6,91.7 224.8,91.7 259.2,174.3 246.3,204.4 233.8,174.3 199.3,91.7 134.5,91.7 
	169,174.3 123.6,280.5 188.4,280.5 201.1,250.8 213.8,280.5 278.6,280.5 324,174.3 "/>
<g id="XMLID_3959_">
	<g id="XMLID_25_">
		<polygon id="XMLID_27_" class="st1" points="754.8,222.3 819.6,222.3 840.1,174.3 805.7,91.7 740.9,91.7 775.3,174.3 		"/>
		<polygon id="XMLID_26_" class="st1" points="746.7,241.2 729.9,280.5 794.7,280.5 811.5,241.2 		"/>
	</g>
</g>
<path id="XMLID_3951_" class="st0" d="M720.9,91.7h-32.4h-32.4h-24.7h-10.4h-54.5l34.4,82.6l-45.3,106.1h64.8l13.9-32.5h24.7
	l-13.9,32.5H710l45.3-106.1L720.9,91.7z M673,215.5h-24.7l17.6-41.2l-11.5-27.6h24.7l11.5,27.6L673,215.5z"/>
<path id="XMLID_3943_" class="st0" d="M464.5,91.7h-16.9h-48h-26.3h-20.7h-44.2l34.4,82.6l-45.3,106.1h55.1h9.7h26.3h58.9h5.9
	l45.3-106.1L464.5,91.7z M386,225.4l21.8-51.1l-11.5-27.6h26.3l11.5,27.6l-21.8,51.1H386z"/>
<g id="XMLID_3908_">
	<path id="XMLID_3942_" class="st0" d="M245.1,15.8c4.5,0,8.6,0,12.9,0c1,4.8,2.1,9.6,3.1,14.3c1,4.6,2,9.1,4.1,13.8
		c2-9.2,3.9-18.5,5.9-28c4.3,0,8.4,0,13,0c0,19.1,0,38.1,0,57.3c-3.2,0-6.1,0-9.5,0c0-9.9,0-19.5,0-29.2c-0.3,0-0.7-0.1-1-0.1
		c-1.5,7.5-3,15-4.5,22.4c-8.5,1.6-8.7,1.5-10.3-6.3c-1.1-5.4-2.1-10.8-4.1-16.1c0,9.6,0,19.3,0,29.2c-3.3,0-6.2,0-9.6,0
		C245.1,54.2,245.1,35.2,245.1,15.8z"/>
	<path id="XMLID_3939_" class="st0" d="M306.1,73.4c0-19.5,0-38.2,0-58.2c7.2,0.6,14.2,0.5,21,1.9c4.8,1,7.2,5.7,7.3,10.5
		c0.3,11.3,0.4,22.6-0.1,33.9c-0.3,7.4-5.2,11.6-12.6,11.8C316.7,73.6,311.6,73.4,306.1,73.4z M316.9,62.7c5.2,1.1,7.1-1.2,7.1-5.6
		c0.1-8.4,0.1-16.8,0-25.3c0-4.5-2.3-6.4-7.1-5.1C316.9,38.7,316.9,50.6,316.9,62.7z"/>
	<path id="XMLID_3936_" class="st0" d="M370.6,73.2c-3.8,0-7.1,0-10.5,0c-0.5-2.7-1.1-5.3-1.6-8.3c-2.7,0-5.3,0-8.3,0
		c-0.6,2.7-1.1,5.4-1.8,8.3c-3.3,0-6.6,0-10.5,0c2.4-14.6,4.7-28.9,7-43.2c0.2-1.3,0.5-2.7,0.6-4c1.6-11.2,1.9-11.5,13-10.3
		c1.2,0.1,3,1.3,3.2,2.2C364.7,36.2,367.6,54.5,370.6,73.2z M357.3,54.4c-0.8-6.6-1.6-12.6-2.4-18.6c-0.5,0-0.9,0-1.4,0
		c-0.8,6.1-1.6,12.1-2.4,18.6C353.2,54.4,354.8,54.4,357.3,54.4z"/>
	<path id="XMLID_3933_" class="st0" d="M177.7,73.2c-3.8,0-7,0-10.5,0c-0.6-2.7-1.1-5.4-1.8-8.4c-2.7,0-5.4,0-8.3,0
		c-0.5,2.7-1.1,5.3-1.7,8.3c-3.2,0-6.4,0-10.5,0c1.4-8.8,2.7-17.5,4.1-26.2c1.5-9.2,3.2-18.3,4.4-27.5c0.4-3.1,1.8-3.8,4.6-3.8
		c10.6-0.1,10.4-0.2,12,10C172.5,41.3,175.1,56.9,177.7,73.2z M164.4,54.4c-0.9-6.6-1.7-12.7-2.4-18.8c-0.5,0-0.9,0-1.4,0
		c-0.8,6.1-1.6,12.3-2.4,18.8C160.4,54.4,162,54.4,164.4,54.4z"/>
	<path id="XMLID_3932_" class="st0" d="M234.8,38.8c0,3.8,0,6.9,0,10.5c-3.9,0-7.6,0-11.5,0c0,4.7,0,8.8,0,13.6c4.5,0,9.2,0,14.2,0
		c0,3.7,0,6.8,0,10.3c-8.2,0-16.4,0-24.9,0c0-19,0-37.9,0-57.1c8.2,0,16.4,0,24.9,0c0,3.2,0,6.3,0,10.1c-4.6,0-9.2,0-14.2,0
		c0,4.4,0,8.2,0,12.7C227,38.8,230.8,38.8,234.8,38.8z"/>
	<path id="XMLID_3931_" class="st0" d="M183.6,15.9c3.4,0,6.5,0,10.2,0c0,15.6,0,31.1,0,47.1c4.9,0,9.2,0,13.9,0c0,3.7,0,6.8,0,10.2
		c-8,0-15.9,0-24.2,0C183.6,54.2,183.6,35.2,183.6,15.9z"/>
	<path id="XMLID_3930_" class="st0" d="M233.8,6c-3,4.7-6,8.4-12,6.2C224,5.1,224.7,4.7,233.8,6z"/>
</g>
<g id="XMLID_3901_">
	<polygon id="XMLID_3907_" class="st0" points="517,174.3 471.7,280.5 536.5,280.5 581.8,174.3 539.5,72.8 797.6,72.8 774.7,17.7 
		385,17.7 385,72.8 474.7,72.8 	"/>
	<polygon id="XMLID_3906_" class="st0" points="863.7,17.7 840.1,17.7 799.6,17.7 833.8,101.6 864.1,174.3 813.8,298.5 813.8,298.5 
		123.6,298.5 95.7,298.5 147.4,174.3 105.1,72.8 127.8,72.8 127.8,17.7 17.6,17.7 82.6,174.3 7.9,353.5 123.6,353.5 134.1,353.5 
		813.8,353.5 854.2,353.5 928.9,174.3 	"/>
</g>
</svg>
