<svg xmlns="http://www.w3.org/2000/svg" viewBox="0 0 317.01 666.14"><defs><style>.cls-1{fill:#329b64;}</style></defs><title>plan-border-hover</title><g id="Camada_2" data-name="Camada 2"><g id="Camada_1-2" data-name="Camada 1"><path class="cls-1" d="M2.58,9.21q119.54-3.32,239.12-4Q275.57,5,309.46,5c3.22,0,3.22-5,0-5Q189.88,0,70.32,2.54,36.45,3.27,2.58,4.21c-3.22.09-3.23,5.09,0,5Z"/><path class="cls-1" d="M7.32,666.14c74.73-2.08,149.42-4,224.18-4.16q41.36-.11,82.71-.05c3.21,0,3.22-5,0-5-76.41,0-152.79.15-229.18,2.1q-38.85,1-77.71,2.11c-3.21.09-3.22,5.09,0,5Z"/><path class="cls-1" d="M.08,6.43Q-.19,134.73.46,263q.68,127.8,2.26,255.58Q3.62,591,4.83,663.36c0,3.21,5,3.22,5,0l.3-22.76c0-3.22-5-3.22-5,0l-.3,22.76h5Q7.7,535.08,6.5,406.79,5.32,279,5.07,151.2q-.15-72.39,0-144.77c0-3.22-5-3.23-5,0Z"/><path class="cls-1" d="M312,636.67l-.3,22.76h5q-2.13-128.28-3.33-256.57-1.19-127.78-1.44-255.59-.13-72.39,0-144.77c0-3.22-5-3.22-5,0q-.29,128.3.38,256.59.66,127.8,2.26,255.59.9,72.38,2.11,144.75c.05,3.22,5,3.22,5,0l.3-22.76c0-3.22-5-3.22-5,0Z"/></g></g></svg>