<svg xmlns="http://www.w3.org/2000/svg" viewBox="0 0 313.79 660.24"><defs><style>.cls-1{fill:#31509e;}</style></defs><title>plan-border</title><g id="Camada_2" data-name="Camada 2"><g id="Camada_1-2" data-name="Camada 1"><path class="cls-1" d="M2.5,8.32C82.22,6,162,5.32,241.75,5.08Q274.18,5,306.62,5c3.22,0,3.22-5,0-5C226.86,0,147.1.3,67.35,1.79Q34.92,2.39,2.5,3.32c-3.21.1-3.22,5.1,0,5Z"/><path class="cls-1" d="M13.77,660.24c72-2.14,144-6.14,216.05-7.12,27.06-.36,54.13-.45,81.19-.45,3.22,0,3.22-5,0-5-74,0-147.73,2.08-221.63,5q-37.8,1.49-75.61,2.6c-3.21.09-3.23,5.09,0,5Z"/><path class="cls-1" d="M0,5.82C1.35,90.43,1.62,175.05,2.12,259.67c.5,84.88,1.23,169.77,3.53,254.63Q7.59,586,11.27,657.74c.17,3.19,5,3.24,5,0,0-11.63-1.69-23.21-1.72-34.84,0-3.22-5-3.22-5,0,0,11.63,1.69,23.21,1.72,34.84h5c-4.47-84.57-6.65-169.23-7.83-253.9C7.25,319,7,234.09,6.49,149.22Q6,77.52,5,5.82c0-3.21-5-3.22-5,0Z"/><path class="cls-1" d="M304.12,2.5q-.25,126.45.35,252.88t2.1,252.88q.84,70.95,1.94,141.91c.05,3.22,5,3.23,5,0l.28-22.44c0-3.21-5-3.22-5,0l-.28,22.44h5q-2-126.42-3.07-252.86T309.1,144.44q-.12-71,0-141.94c0-3.22-5-3.22-5,0Z"/></g></g></svg>