<?xml version="1.0" standalone="no"?>
<!DOCTYPE svg PUBLIC "-//W3C//DTD SVG 1.1//EN" "http://www.w3.org/Graphics/SVG/1.1/DTD/svg11.dtd" >
<svg xmlns="http://www.w3.org/2000/svg" xmlns:xlink="http://www.w3.org/1999/xlink" version="1.1">
<metadata>
Created by FontForge 20170731 at Wed Feb 10 19:18:13 2016
 By Aleksey,,,
Copyright (c) 2016 by Iulian Maftei All rights reserved.
</metadata>
<defs>
<font id="MoskThin100" horiz-adv-x="572" >
  <font-face 
    font-family="Mosk Thin 100"
    font-weight="250"
    font-stretch="normal"
    units-per-em="1000"
    panose-1="2 0 5 6 0 0 0 2 0 4"
    ascent="800"
    descent="-200"
    x-height="485"
    cap-height="680"
    bbox="-17 -230 1129 909"
    underline-thickness="50"
    underline-position="-175"
    unicode-range="U+0020-FB02"
  />
<missing-glyph horiz-adv-x="240" 
 />
    <glyph glyph-name=".notdef" horiz-adv-x="240" 
 />
    <glyph glyph-name=".null" horiz-adv-x="0" 
 />
    <glyph glyph-name="nonmarkingreturn" horiz-adv-x="333" 
 />
    <glyph glyph-name="space" unicode=" " horiz-adv-x="240" 
 />
    <glyph glyph-name="exclam" unicode="!" horiz-adv-x="138" 
d="M99 164l-45 21v517h54zM30 38q0 16 10.5 27t27.5 11q16 0 27.5 -11t11.5 -27t-11.5 -27t-27.5 -11q-17 0 -27.5 11t-10.5 27z" />
    <glyph glyph-name="quotedbl" unicode="&#x22;" horiz-adv-x="275" 
d="M45 663q0 16 10 27.5t28 11.5q17 0 28 -13.5t11 -29.5q0 -46 -22.5 -83.5t-63.5 -57.5l-16 25q60 32 61 82q-16 0 -26 13t-10 25zM168 663q0 16 10 27.5t28 11.5q17 0 28 -13.5t11 -29.5q0 -46 -22.5 -83.5t-63.5 -57.5l-16 25q60 32 61 82q-16 0 -26 13t-10 25z" />
    <glyph glyph-name="dollar" unicode="$" horiz-adv-x="534" 
d="M55 29l15 39q32 -16 76 -27.5t90 -11.5q55 0 95.5 18t61 48t20.5 65q0 53 -43.5 92t-137.5 78q-92 38 -137 86.5t-45 118.5q0 57 38 99t105 56v97l40 10v-103q10 2 23 2q23 0 44 -3v97l41 10v-114q44 -10 83 -29l-22 -36q-36 16 -67 25t-77 9q-70 0 -113 -36t-43 -89
q0 -55 44 -95.5t137 -79.5q94 -39 137.5 -85.5t43.5 -112.5q0 -55 -31.5 -96t-91.5 -60v-112h-41v103q-32 -5 -63 -5h-4v-98h-40v101q-43 5 -84 16.5t-54 22.5z" />
    <glyph glyph-name="percent" unicode="%" horiz-adv-x="809" 
d="M218 0l308 710l47 -4l-309 -710zM40 532q0 51 20 89.5t54.5 59.5t77.5 21q69 0 110.5 -45t41.5 -125q0 -50 -20.5 -88.5t-55 -59.5t-75.5 -21q-68 0 -110.5 45t-42.5 124zM297 532q0 62 -29 97.5t-76 35.5q-27 0 -51 -15.5t-39 -45.5t-15 -72q0 -60 31 -96t75 -36
q43 0 73.5 35t30.5 97zM465 168q0 51 20 89.5t54.5 59.5t77.5 21q69 0 110.5 -45t41.5 -125q0 -50 -20.5 -88.5t-55 -59.5t-75.5 -21q-68 0 -110.5 45t-42.5 124zM722 168q0 62 -29 97t-76 35q-42 0 -73.5 -35t-31.5 -97q0 -60 31 -96t75 -36q43 0 73.5 35t30.5 97z" />
    <glyph glyph-name="ampersand" unicode="&#x26;" horiz-adv-x="647" 
d="M607 27l-25 -27l-97 88q-35 -47 -86.5 -74t-112.5 -27q-66 0 -120 26t-85 74t-31 113q0 64 29 117.5t79 86.5q-37 56 -37 118q0 47 22 87t61 63.5t86 23.5q46 0 85 -11.5t66 -27.5l-20 -35q-37 18 -59.5 25.5t-62.5 7.5q-37 0 -67 -18t-47 -47.5t-17 -63.5
q0 -51 26.5 -94.5t82.5 -96.5l198 -185q25 42 38.5 92.5t13.5 96.5l36 -11q0 -55 -14.5 -109t-41.5 -99zM289 28q49 0 91 24t73 65l-211 193q-40 36 -60 61q-42 -30 -63.5 -73.5t-21.5 -95.5q0 -51 27.5 -91t71.5 -61.5t93 -21.5z" />
    <glyph glyph-name="quotesingle" unicode="'" horiz-adv-x="152" 
d="M45 663q0 16 10 27.5t28 11.5q17 0 28 -13.5t11 -29.5q0 -46 -22.5 -83.5t-63.5 -57.5l-16 25q60 32 61 82q-16 0 -26 13t-10 25z" />
    <glyph glyph-name="parenleft" unicode="(" horiz-adv-x="239" 
d="M101 321q0 -49 15 -118t40 -131t53 -91l-40 -18q-59 76 -89 173t-30 184q0 86 30 183t89 172l40 -18q-28 -30 -53 -91t-40 -129t-15 -116z" />
    <glyph glyph-name="parenright" unicode=")" horiz-adv-x="239" 
d="M138 319q0 48 -15.5 116.5t-40.5 130t-52 91.5l40 18q58 -76 88.5 -173.5t30.5 -181.5q0 -86 -30.5 -183t-88.5 -174l-40 18q27 29 52 90.5t40.5 130.5t15.5 117z" />
    <glyph glyph-name="asterisk" unicode="*" horiz-adv-x="313" 
d="M137 774h35v-120l118 31l13 -32l-116 -29l79 -119l-31 -16l-79 113l-74 -113l-36 16l79 119l-115 29l12 32l115 -31v120z" />
    <glyph glyph-name="plus" unicode="+" horiz-adv-x="527" 
d="M287 292h200l10 -37h-210v-251l-49 4v247h-200l-8 37h208v242l49 -3v-239z" />
    <glyph glyph-name="comma" unicode="," horiz-adv-x="152" 
d="M45 37q0 16 10 27.5t28 11.5q17 0 28 -13.5t11 -29.5q0 -46 -22.5 -83.5t-63.5 -57.5l-16 25q60 32 61 82q-16 0 -26 13t-10 25z" />
    <glyph glyph-name="hyphen" unicode="-" horiz-adv-x="311" 
d="M30 292h243l8 -39h-243z" />
    <glyph glyph-name="period" unicode="." horiz-adv-x="137" 
d="M107 38q0 -16 -11.5 -27t-27.5 -11q-17 0 -27.5 11t-10.5 27t10.5 27t27.5 11q16 0 27.5 -11t11.5 -27z" />
    <glyph glyph-name="slash" unicode="/" horiz-adv-x="375" 
d="M10 0l308 710l47 -4l-309 -710z" />
    <glyph glyph-name="zero" unicode="0" horiz-adv-x="570" 
d="M286 -13q-71 0 -127 38.5t-87.5 107.5t-31.5 155q0 83 31.5 149.5t87.5 104t127 37.5q70 0 125.5 -37.5t87 -103.5t31.5 -149q0 -86 -31.5 -155t-87 -108t-125.5 -39zM286 538q-56 0 -100.5 -32t-69.5 -88t-25 -127q0 -75 25 -135t69.5 -94t100.5 -34q55 0 99 33t69 92
t25 133q0 72 -25 129.5t-69 90t-99 32.5z" />
    <glyph glyph-name="one" unicode="1" horiz-adv-x="300" 
d="M220 566v-566h-49v508l-143 -63l-18 36l175 85h35z" />
    <glyph glyph-name="two" unicode="2" horiz-adv-x="470" 
d="M38 527q37 22 80.5 37t100.5 15t102.5 -21t71.5 -57.5t26 -82.5q0 -55 -36.5 -107.5t-112.5 -114.5l-195 -157h367l8 -39h-425v50l225 188q68 57 92.5 94t24.5 85q0 53 -42.5 87.5t-107.5 34.5q-48 0 -84.5 -12.5t-72.5 -33.5l-22 34v0z" />
    <glyph glyph-name="three" unicode="3" horiz-adv-x="447" 
d="M11 520q93 59 194 59q59 0 101 -22.5t63 -59.5t21 -80q0 -52 -32.5 -92.5t-81.5 -56.5q57 -13 91.5 -57.5t34.5 -104.5q0 -51 -26.5 -92.5t-74.5 -65.5t-111 -24q-52 0 -101.5 15t-88.5 37l33 34q39 -23 74 -34t86 -11q40 0 76.5 18t59 50t22.5 71q0 67 -48.5 105
t-148.5 38h-18l-10 39h34q83 0 131 36t48 94q0 30 -17 58.5t-48.5 46t-71.5 17.5q-85 0 -160 -49l-31 31v0z" />
    <glyph glyph-name="four" unicode="4" horiz-adv-x="512" 
d="M375 113h117l-8 -39h-109v-143h-49v143h-307l-9 51l337 446h28v-458zM326 113v357l-266 -357h266z" />
    <glyph glyph-name="five" unicode="5" horiz-adv-x="491" 
d="M247 289q-37 0 -73 -17.5t-58 -41.5h-36l15 336h317l-3 -39h-269l-11 -238q26 20 57 30.5t57 10.5q104 0 156 -56.5t52 -143.5q0 -57 -27 -103.5t-79 -74.5t-125 -28q-86 0 -180 50l24 36q76 -45 160 -45q82 0 128.5 45.5t46.5 119.5q0 72 -41.5 115.5t-110.5 43.5z" />
    <glyph glyph-name="six" unicode="6" horiz-adv-x="492" 
d="M452 190q0 -52 -25.5 -99t-70.5 -75.5t-102 -28.5q-97 0 -155.5 71.5t-58.5 201.5q0 107 48.5 188t125 128t161.5 58l18 -40q-62 -3 -128 -39t-114.5 -99t-60.5 -142q69 73 163 73q61 0 106.5 -27.5t69 -72.5t23.5 -97zM401 185q0 69 -40 115t-108 46q-49 0 -95 -27
t-71 -63q2 -109 44.5 -168.5t120.5 -59.5q45 0 79 22.5t52 59t18 75.5z" />
    <glyph glyph-name="seven" unicode="7" horiz-adv-x="429" 
d="M409 537l-240 -606l-46 20l237 576h-342l-8 39h377z" />
    <glyph glyph-name="eight" unicode="8" horiz-adv-x="501" 
d="M68 481q0 69 46.5 115.5t136.5 46.5q61 0 102 -23t60.5 -60t19.5 -79q0 -47 -31.5 -84.5t-76.5 -57.5q55 -13 95.5 -61t40.5 -109q0 -50 -23.5 -91t-71 -66t-115.5 -25q-103 0 -157 51.5t-54 130.5q0 36 18.5 72t50 63t68.5 35q-48 19 -78.5 56.5t-30.5 85.5zM384 484
q0 49 -35 83.5t-101 34.5q-63 0 -96.5 -35t-33.5 -83q0 -44 36 -79.5t97 -44.5q60 9 96.5 45.5t36.5 78.5zM410 162q0 59 -41.5 102t-117.5 52q-77 -9 -118.5 -51.5t-41.5 -102.5q0 -37 21 -68t57.5 -48.5t81.5 -17.5q43 0 79.5 17.5t58 48t21.5 68.5z" />
    <glyph glyph-name="nine" unicode="9" horiz-adv-x="492" 
d="M452 305q0 -107 -48.5 -188t-125 -128t-161.5 -58l-18 40q62 3 128 39t114.5 99t60.5 142q-69 -73 -163 -73q-61 0 -106.5 27.5t-69 72.5t-23.5 97t25.5 99t70.5 75.5t102 28.5q97 0 155.5 -71.5t58.5 -201.5zM405 309q-3 110 -45.5 169t-119.5 59q-45 0 -79 -22.5
t-52 -59t-18 -75.5q0 -69 40 -115t108 -46q48 0 94 27t72 63z" />
    <glyph glyph-name="colon" unicode=":" horiz-adv-x="137" 
d="M107 403q0 -16 -11.5 -27t-27.5 -11q-17 0 -27.5 11t-10.5 27t10.5 27t27.5 11q16 0 27.5 -11t11.5 -27zM107 84q0 -16 -11.5 -27t-27.5 -11q-17 0 -27.5 11t-10.5 27t10.5 27t27.5 11q16 0 27.5 -11t11.5 -27z" />
    <glyph glyph-name="semicolon" unicode=";" horiz-adv-x="152" 
d="M122 403q0 -16 -11.5 -27t-27.5 -11q-17 0 -27.5 11t-10.5 27t10.5 27t27.5 11q16 0 27.5 -11t11.5 -27zM45 83q0 16 10 27.5t28 11.5q17 0 28 -13.5t11 -29.5q0 -46 -22.5 -83.5t-63.5 -57.5l-16 25q60 32 61 82q-16 0 -26 13t-10 25z" />
    <glyph glyph-name="less" unicode="&#x3c;" horiz-adv-x="322" 
d="M76 245l226 -191l-23 -35l-249 212v28l249 211l23 -34z" />
    <glyph glyph-name="equal" unicode="=" horiz-adv-x="497" 
d="M30 371h430l7 -39h-429zM30 179h430l7 -39h-429z" />
    <glyph glyph-name="greater" unicode="&#x3e;" horiz-adv-x="322" 
d="M43 470l249 -212v-28l-249 -211l-23 34l226 191l-226 191z" />
    <glyph glyph-name="question" unicode="?" horiz-adv-x="392" 
d="M10 641q29 26 75 43.5t101 17.5q86 0 131 -44.5t45 -119.5q0 -58 -45.5 -114t-127.5 -92l-10 -195l-33 21l-7 205q79 25 124.5 71t45.5 103q0 59 -33.5 91.5t-91.5 32.5q-50 0 -85.5 -14.5t-80.5 -46.5zM116 38q0 16 10.5 27t27.5 11q16 0 27.5 -11t11.5 -27t-11.5 -27
t-27.5 -11q-17 0 -27.5 11t-10.5 27z" />
    <glyph glyph-name="at" unicode="@" horiz-adv-x="760" 
d="M511 404l16 -20l-24 -201q-1 -7 -1 -19q0 -62 58 -62q49 0 80.5 50t31.5 145q0 76 -31 134t-89.5 90t-137.5 32q-93 0 -166.5 -42.5t-115 -119.5t-41.5 -177q0 -81 35.5 -142t96.5 -94t136 -33q44 0 88.5 9t74.5 26l13 -38q-73 -38 -187 -38q-83 0 -153.5 38t-112.5 108
t-42 163q0 105 44.5 192t129.5 138t203 51q89 0 157.5 -37.5t107 -103.5t38.5 -149q0 -118 -43 -180.5t-119 -62.5q-52 0 -80 38q-19 -14 -45 -23.5t-49 -9.5q-70 0 -113.5 40.5t-43.5 104.5q0 55 29 99t77.5 69t106.5 25h71zM278 211q0 -50 29 -79t77 -29q21 0 43 6.5
t35 15.5q-7 18 -7 39q0 10 2 26l23 177h-45q-42 0 -78 -19t-57.5 -54.5t-21.5 -82.5z" />
    <glyph glyph-name="A" unicode="A" 
d="M10 0l247 680h46l259 -675l-50 -11l-81 219h-295l-77 -213h-49zM150 252h267l-136 362z" />
    <glyph glyph-name="B" unicode="B" horiz-adv-x="565" 
d="M525 188q0 -100 -70 -144t-186 -44h-169v680h142q116 0 180.5 -40.5t64.5 -136.5q0 -48 -28 -83.5t-73 -57.5q66 -20 102.5 -63t36.5 -111zM435 502q0 74 -47 106.5t-134 32.5h-104v-269h91q86 1 140 32t54 98zM473 186q0 74 -48 110.5t-133 36.5h-142v-294h131
q86 0 139 36t53 111z" />
    <glyph glyph-name="C" unicode="C" horiz-adv-x="553" 
d="M360 694q37 0 87.5 -10t75.5 -27l-20 -36q-38 16 -67 23t-78 7q-72 -1 -129.5 -39.5t-90.5 -109.5t-33 -165q0 -83 29 -153.5t84.5 -112.5t130.5 -42q49 0 83.5 8t66.5 22l24 -36q-28 -15 -77.5 -26t-91.5 -11q-100 0 -168.5 47.5t-102 127t-33.5 175.5q0 100 37 181.5
t107.5 129t165.5 47.5z" />
    <glyph glyph-name="D" unicode="D" horiz-adv-x="662" 
d="M612 344q0 -97 -32 -175t-97.5 -123.5t-161.5 -45.5h-221v680h224q148 0 218 -93t70 -243zM561 343q0 83 -25.5 150.5t-77 107.5t-126.5 40h-183v-602h173q70 0 124.5 39.5t84.5 108.5t30 156z" />
    <glyph glyph-name="E" unicode="E" horiz-adv-x="495" 
d="M472 39l6 -39h-378v680h373l5 -39h-329v-273h240l5 -39h-245v-290h323z" />
    <glyph glyph-name="F" unicode="F" horiz-adv-x="463" 
d="M149 364h229l6 -39h-235v-325h-49v680h336l7 -39h-294v-277z" />
    <glyph glyph-name="G" unicode="G" horiz-adv-x="614" 
d="M503 303h-153l6 39h196v-311q-28 -19 -77.5 -32t-92.5 -13q-101 0 -176.5 45.5t-115.5 125t-40 179.5q0 103 43.5 184.5t121 127.5t173.5 46q37 0 89 -10t77 -27l-19 -33q-37 15 -67 22t-78 7q-81 0 -146 -41t-102 -113t-37 -163q0 -88 35.5 -158t98.5 -109.5t142 -39.5
q59 0 122 23v251z" />
    <glyph glyph-name="H" unicode="H" horiz-adv-x="655" 
d="M555 680v-680h-49v325h-357v-325h-49v680l49 5v-321h357v316h49z" />
    <glyph glyph-name="I" unicode="I" horiz-adv-x="249" 
d="M149 680v-680h-49v680h49z" />
    <glyph glyph-name="J" unicode="J" horiz-adv-x="237" 
d="M10 -70q37 14 54.5 25.5t25.5 32.5t8 61v631h49v-638q0 -43 -8.5 -68.5t-32.5 -43.5t-72 -32l-24 32v0z" />
    <glyph glyph-name="K" unicode="K" horiz-adv-x="580" 
d="M149 269v-269h-49v680h49v-355l336 370l34 -32l-250 -266l301 -397h-62l-272 362z" />
    <glyph glyph-name="L" unicode="L" horiz-adv-x="491" 
d="M149 39h327l5 -39h-381v680h49v-641z" />
    <glyph glyph-name="M" unicode="M" horiz-adv-x="723" 
d="M574 566l-201 -317l-20 -4l-204 316v-561h-49v680h22l239 -362l235 362h27v-680h-49v566z" />
    <glyph glyph-name="N" unicode="N" horiz-adv-x="658" 
d="M149 574v-574h-49v680h28l347 -510l34 -59v569h49v-680h-27l-368 545z" />
    <glyph glyph-name="O" unicode="O" horiz-adv-x="707" 
d="M50 337q0 103 39.5 184.5t109.5 128t158 46.5q86 0 154.5 -45t107 -125t38.5 -181q0 -103 -39.5 -184.5t-109.5 -128t-157 -46.5q-86 0 -155 45t-107.5 125t-38.5 181zM358 654q-73 0 -130.5 -41t-90 -113t-32.5 -162q0 -89 31.5 -160t87 -111t125.5 -40q73 0 130.5 41
t90 113t32.5 163q0 89 -31.5 159.5t-87 110.5t-125.5 40z" />
    <glyph glyph-name="P" unicode="P" horiz-adv-x="548" 
d="M149 264v-264h-49v680h163q113 0 179 -49.5t66 -155.5q0 -105 -71.5 -158t-184.5 -53h-103zM458 474q0 85 -48.5 125.5t-134.5 40.5h-126v-337h115q84 0 139 44.5t55 126.5z" />
    <glyph glyph-name="Q" unicode="Q" horiz-adv-x="707" 
d="M567 83l83 -82l-32 -25l-82 77q-38 -33 -85 -50t-100 -17q-86 0 -155 45t-107.5 125t-38.5 181q0 103 39.5 184.5t109.5 128t158 46.5q86 0 154.5 -45t107 -125t38.5 -181q0 -78 -23.5 -145.5t-66.5 -116.5zM501 85l-96 91l34 33l93 -91q33 43 51.5 101t18.5 125
q0 89 -31.5 159.5t-87 110.5t-125.5 40q-73 0 -130.5 -41t-90 -113t-32.5 -162q0 -89 31.5 -160t87 -111t125.5 -40q88 0 152 58z" />
    <glyph glyph-name="R" unicode="R" 
d="M100 0v680h163q114 0 179.5 -46t65.5 -148q0 -66 -33 -110.5t-90 -66.5l177 -309h-55l-164 296q-41 -10 -91 -10h-103v-286h-49zM458 484q0 82 -53.5 119t-139.5 37h-116v-315h105q84 0 144 40t60 119z" />
    <glyph glyph-name="S" unicode="S" horiz-adv-x="504" 
d="M237 -13q-44 0 -104.5 13.5t-77.5 28.5l15 39q32 -16 76 -27.5t90 -11.5q55 0 95.5 18t61 48t20.5 65q0 53 -43.5 92t-137.5 78q-92 38 -137 86.5t-45 118.5q0 46 25 82.5t71.5 57.5t109.5 21q47 0 90.5 -11t77.5 -28l-22 -36q-36 16 -67 25t-77 9q-70 0 -113 -36
t-43 -89q0 -55 44 -95.5t137 -79.5q94 -39 137.5 -85.5t43.5 -112.5q0 -77 -59.5 -123.5t-167.5 -46.5z" />
    <glyph glyph-name="T" unicode="T" horiz-adv-x="534" 
d="M10 680h509l5 -39h-233v-641h-49v641h-232v39z" />
    <glyph glyph-name="U" unicode="U" horiz-adv-x="658" 
d="M90 680h49v-444q0 -58 23.5 -105t67 -74.5t99.5 -27.5q58 0 101 27t66 74.5t23 105.5v444h49v-441q0 -73 -28 -130t-81.5 -89t-129.5 -32q-75 0 -129 32t-82 89t-28 130v441z" />
    <glyph glyph-name="V" unicode="V" 
d="M10 674l50 11l231 -620l222 614h49l-247 -680h-46z" />
    <glyph glyph-name="W" unicode="W" horiz-adv-x="812" 
d="M579 -1l-172 594l-152 -594h-46l-199 675l50 11l171 -606l152 600h49l169 -600l152 600h49l-177 -680h-46z" />
    <glyph glyph-name="X" unicode="X" horiz-adv-x="523" 
d="M261 311l-193 -311h-58l227 350l-199 318l48 23l185 -312l188 301h54l-215 -343l215 -337h-59z" />
    <glyph glyph-name="Y" unicode="Y" horiz-adv-x="530" 
d="M284 274v-274h-49v269l-225 399l49 21l200 -368l204 359h57z" />
    <glyph glyph-name="Z" unicode="Z" horiz-adv-x="539" 
d="M79 39h420l5 -39h-468l-6 50l433 591h-406l-10 39h457l5 -49z" />
    <glyph glyph-name="bracketleft" unicode="[" horiz-adv-x="265" 
d="M255 -88h-155v784h155l-8 -39h-98v-706h98z" />
    <glyph glyph-name="backslash" unicode="\" horiz-adv-x="375" 
d="M57 710l308 -710l-47 -4l-308 710z" />
    <glyph glyph-name="bracketright" unicode="]" horiz-adv-x="265" 
d="M10 696h155v-784h-155l8 39h98v706h-98z" />
    <glyph glyph-name="asciicircum" unicode="^" horiz-adv-x="417" 
d="M349 143l-145 205l-146 -205h-48l172 247h43l172 -247h-48z" />
    <glyph glyph-name="underscore" unicode="_" horiz-adv-x="429" 
d="M30 39h361l8 -39h-361z" />
    <glyph glyph-name="grave" unicode="`" horiz-adv-x="137" 
d="M127 600l-32 -11l-85 153h61z" />
    <glyph glyph-name="a" unicode="a" horiz-adv-x="475" 
d="M244 457q-44 0 -73 -8t-66 -26l-19 33q26 18 74 30t81 12q81 0 124.5 -42.5t43.5 -115.5v-340h-38l-8 52q-26 -29 -65 -47t-83 -18q-79 0 -121 41.5t-42 107.5q0 68 48 106.5t125 38.5h135v60q0 53 -29.5 84.5t-86.5 31.5zM229 244q-63 0 -94.5 -30t-31.5 -78
q0 -46 31.5 -77t84.5 -31q45 0 80.5 22t60.5 59v135h-131z" />
    <glyph glyph-name="b" unicode="b" horiz-adv-x="512" 
d="M472 240q0 -113 -56 -183t-160 -70q-34 0 -70 15t-64 37l-14 -39h-28v696l49 10v-260q58 52 134 52q104 0 156.5 -70t52.5 -188zM421 239q0 95 -40 156.5t-118 61.5q-44 0 -74 -16.5t-60 -48.5v-309q61 -55 129 -55q52 0 88.5 28.5t55.5 76.5t19 106z" />
    <glyph glyph-name="c" unicode="c" horiz-adv-x="449" 
d="M259 28q31 0 56 5t46.5 16t26.5 13l20 -34q-29 -18 -72.5 -29.5t-76.5 -11.5q-105 0 -162 71t-57 187q0 73 27 130.5t78 90t121 32.5q31 0 75 -12t72 -30l-20 -33q-35 17 -62 25.5t-67 8.5q-52 0 -91.5 -28.5t-60.5 -77t-21 -105.5q0 -61 19.5 -110.5t57.5 -78.5t91 -29z
" />
    <glyph glyph-name="d" unicode="d" horiz-adv-x="512" 
d="M432 0h-27l-18 43q-61 -56 -138 -56q-104 0 -156.5 70t-52.5 188q0 113 56 183t160 70q32 0 65.5 -13t61.5 -33v244l49 9v-705zM383 93v309q-61 55 -129 55q-52 0 -88.5 -28.5t-55.5 -76.5t-19 -106q0 -95 40 -156.5t118 -61.5q44 0 74 16.5t60 48.5z" />
    <glyph glyph-name="e" unicode="e" horiz-adv-x="480" 
d="M252 498q55 0 98 -33t66.5 -91.5t23.5 -131.5h-349q1 -94 43.5 -154t127.5 -60q48 0 80 9t63 25l20 -37q-28 -17 -74.5 -27.5t-80.5 -10.5q-115 0 -172.5 70t-57.5 188q0 114 54.5 183.5t157.5 69.5zM245 457q-68 0 -106.5 -50.5t-45.5 -127.5h295q-8 79 -42 128.5
t-101 49.5z" />
    <glyph glyph-name="f" unicode="f" horiz-adv-x="264" 
d="M93 433h-73v37h73v93q0 65 26.5 102t78.5 37q32 0 66 -13l-12 -37q-6 3 -19 6t-22 3q-69 0 -69 -82v-109h88l21 -37h-109v-663h-49v663z" />
    <glyph glyph-name="g" unicode="g" horiz-adv-x="508" 
d="M432 -62q0 -75 -50 -121.5t-142 -46.5q-34 0 -86.5 12t-78.5 29l19 35q40 -18 71 -26.5t73 -8.5q64 0 104.5 30t40.5 87v111q-58 -52 -134 -52q-104 0 -156.5 70t-52.5 188q0 113 56 183t160 70q35 0 72 -16t65 -38l12 41h27v-547zM383 93v309q-61 55 -129 55
q-52 0 -88.5 -28.5t-55.5 -76.5t-19 -106q0 -95 40 -156.5t118 -61.5q44 0 74 16.5t60 48.5z" />
    <glyph glyph-name="h" unicode="h" horiz-adv-x="510" 
d="M444 337v-337h-49v337q0 56 -20 88t-71 32q-79 0 -175 -98v-359h-49v696l49 10v-296q32 37 79.5 62.5t91.5 25.5q74 0 109 -43.5t35 -117.5z" />
    <glyph glyph-name="i" unicode="i" horiz-adv-x="189" 
d="M133 638q0 -16 -11 -27t-28 -11t-27.5 11t-10.5 27t10.5 27t27.5 11q16 0 27.5 -11t11.5 -27zM119 485v-485h-49v485h49z" />
    <glyph glyph-name="j" unicode="j" horiz-adv-x="206" 
d="M63 638q0 16 10.5 27t27.5 11q16 0 27.5 -11t11.5 -27t-11 -27t-28 -11t-27.5 11t-10.5 27zM126 485v-715h-49v715h49z" />
    <glyph glyph-name="k" unicode="k" horiz-adv-x="449" 
d="M129 206v-206h-49v696l49 10v-442l225 234l37 -31l-155 -154l213 -313h-59l-187 280z" />
    <glyph glyph-name="l" unicode="l" horiz-adv-x="209" 
d="M129 706v-706h-49v696z" />
    <glyph glyph-name="m" unicode="m" horiz-adv-x="776" 
d="M710 337v-337h-49v337q0 58 -17 89t-64 31q-70 0 -162 -90q1 -10 1 -30v-337h-49v337q0 58 -17 89t-64 31q-38 0 -81.5 -26.5t-88.5 -71.5v-359h-49v485h38l10 -76q31 36 80 62.5t87 26.5q98 0 125 -88q31 36 79.5 62t86.5 26q70 0 102 -43t32 -118z" />
    <glyph glyph-name="n" unicode="n" horiz-adv-x="500" 
d="M294 457q-79 0 -175 -98v-359h-49v485h38l10 -76q32 37 80 63t92 26q74 0 109 -43.5t35 -117.5v-337h-49v337q0 56 -20 88t-71 32z" />
    <glyph glyph-name="o" unicode="o" horiz-adv-x="523" 
d="M259 -13q-105 1 -162 71.5t-57 186.5q0 72 26.5 129.5t77.5 90.5t121 33q105 -1 161.5 -71.5t56.5 -186.5q0 -72 -26.5 -129.5t-77.5 -90.5t-120 -33zM432 239q0 61 -19.5 110.5t-57.5 78.5t-91 29q-52 0 -91.5 -28.5t-60.5 -77t-21 -105.5q0 -61 19.5 -110.5t57.5 -78.5
t91 -29q52 0 91.5 28.5t60.5 77t21 105.5z" />
    <glyph glyph-name="p" unicode="p" horiz-adv-x="508" 
d="M468 240q0 -113 -56 -183t-160 -70q-32 0 -65.5 13t-61.5 33v-263h-49v715h28l14 -46q62 59 141 59q104 0 156.5 -70t52.5 -188zM417 239q0 95 -40 156.5t-118 61.5q-44 0 -74 -16.5t-60 -48.5v-309q61 -55 129 -55q52 0 88.5 28.5t55.5 76.5t19 106z" />
    <glyph glyph-name="q" unicode="q" horiz-adv-x="508" 
d="M432 -230h-49v269q-59 -52 -134 -52q-104 0 -156.5 70t-52.5 188q0 113 56 183t160 70q35 0 71.5 -15.5t64.5 -37.5l13 40h27v-715zM383 93v309q-61 55 -129 55q-52 0 -88.5 -28.5t-55.5 -76.5t-19 -106q0 -95 40 -156.5t118 -61.5q44 0 74 16.5t60 48.5z" />
    <glyph glyph-name="r" unicode="r" horiz-adv-x="302" 
d="M292 447q-43 0 -92.5 -28t-80.5 -62v-357h-49v485h28l18 -77q34 28 79.5 52.5t79.5 24.5l17 -38v0z" />
    <glyph glyph-name="s" unicode="s" horiz-adv-x="406" 
d="M189 -13q-34 0 -77.5 10.5t-69.5 27.5l18 41q36 -18 66.5 -28t64.5 -10q60 0 94 24.5t34 66.5q0 60 -128 110q-141 55 -141 135q0 59 44 96.5t123 37.5q32 0 72.5 -11.5t64.5 -28.5l-20 -35q-35 17 -60 25.5t-64 8.5q-50 0 -81.5 -26.5t-31.5 -62.5q0 -31 32 -55t90 -47
q68 -27 107.5 -61.5t39.5 -81.5q0 -136 -177 -136z" />
    <glyph glyph-name="t" unicode="t" horiz-adv-x="292" 
d="M141 470h88l21 -37h-109v-310q0 -40 17 -67.5t51 -27.5q20 0 41 9l12 -38q-3 0 -27 -7q-20 -5 -39 -5q-48 0 -76 33.5t-28 95.5v317h-72v37h72v131l49 22v-153z" />
    <glyph glyph-name="u" unicode="u" horiz-adv-x="500" 
d="M206 28q79 0 175 98v359h49v-485h-38l-10 76q-32 -37 -80 -63t-92 -26q-74 0 -109 43.5t-35 117.5v337h49v-337q0 -56 20 -88t71 -32z" />
    <glyph glyph-name="v" unicode="v" horiz-adv-x="430" 
d="M420 485l-180 -485h-47l-183 474l46 18l160 -436l154 429h50z" />
    <glyph glyph-name="w" unicode="w" horiz-adv-x="642" 
d="M632 485l-144 -485h-47l-126 409l-115 -409h-47l-143 473l46 18l119 -427l123 421h42l126 -421l116 421h50z" />
    <glyph glyph-name="x" unicode="x" horiz-adv-x="405" 
d="M196 207l-130 -207h-56l161 244l-141 230l43 20l136 -227l132 218h54l-160 -253l147 -232h-55z" />
    <glyph glyph-name="y" unicode="y" horiz-adv-x="430" 
d="M420 485l-180 -485v-230h-49v235l-181 469l46 18l160 -436l154 429h50z" />
    <glyph glyph-name="z" unicode="z" horiz-adv-x="432" 
d="M57 485h344l3 -32l-325 -416h309l10 -37h-362l-8 31l322 417h-277z" />
    <glyph glyph-name="braceleft" unicode="{" horiz-adv-x="265" 
d="M193 419q0 -41 -18.5 -70t-45.5 -42q27 -13 45.5 -42t18.5 -70q0 -28 -19 -70t-19 -71q0 -23 19 -41.5t53 -18.5h19l9 -39h-26q-61 0 -92.5 28t-31.5 77q0 32 18 72q18 41 18 72q0 36 -23.5 60t-54.5 24h-33v38h33q31 0 54.5 24t23.5 60q0 32 -18 72q-18 41 -18 72
q0 49 31.5 77t92.5 28h26l-9 -39h-19q-34 0 -53 -18.5t-19 -41.5q0 -29 19 -71t19 -70z" />
    <glyph glyph-name="bar" unicode="|" horiz-adv-x="249" 
d="M100 0v710l49 -4v-710z" />
    <glyph glyph-name="braceright" unicode="}" horiz-adv-x="265" 
d="M72 195q0 41 18.5 70t45.5 42q-27 13 -45.5 42t-18.5 70q0 28 19 70t19 71q0 23 -19 41.5t-53 18.5h-19l-9 39h26q61 0 92.5 -28t31.5 -77q0 -31 -18 -72q-18 -40 -18 -72q0 -36 23.5 -60t54.5 -24h33v-38h-33q-31 0 -54.5 -24t-23.5 -60q0 -31 18 -72q18 -40 18 -72
q0 -49 -31.5 -77t-92.5 -28h-26l9 39h19q34 0 53 18.5t19 41.5q0 29 -19 71t-19 70z" />
    <glyph glyph-name="asciitilde" unicode="~" horiz-adv-x="374" 
d="M117 257q-19 0 -33 -12t-14 -30h-40q0 36 24 58t63 22q42 0 78 -24t62 -24q19 0 33 12t14 30h40q0 -35 -23.5 -57.5t-62.5 -22.5q-34 0 -70 24t-71 24z" />
    <glyph glyph-name="uni00A0" unicode="&#xa0;" horiz-adv-x="230" 
 />
    <glyph glyph-name="exclamdown" unicode="&#xa1;" horiz-adv-x="138" 
d="M108 664q0 -16 -10.5 -27t-27.5 -11q-16 0 -27.5 11t-11.5 27t11.5 27t27.5 11q17 0 27.5 -11t10.5 -27zM39 538l45 -21v-517h-54z" />
    <glyph glyph-name="cent" unicode="&#xa2;" horiz-adv-x="449" 
d="M284 -11v-100h-44v99q-96 7 -148 76.5t-52 180.5q0 104 53 173t147 79v98l44 10v-108q31 -3 67.5 -14.5t61.5 -26.5l-20 -33q-35 17 -62 25.5t-67 8.5q-52 0 -91.5 -28.5t-60.5 -77t-21 -105.5q0 -61 19.5 -110.5t57.5 -78.5t91 -29q31 0 53 4.5t40.5 12.5t35.5 17
l20 -34q-24 -15 -58.5 -25.5t-65.5 -13.5z" />
    <glyph glyph-name="sterling" unicode="&#xa3;" horiz-adv-x="426" 
d="M416 0h-346l-2 39q65 1 65 83v212h-71l-2 37h73v174q0 65 26.5 102t78.5 37q32 0 66 -13l-12 -37q-6 3 -19 6t-22 3q-69 0 -69 -82v-190h140l22 -37h-162v-191q0 -38 -7 -62.5t-27 -41.5h262z" />
    <glyph glyph-name="currency" unicode="&#xa4;" horiz-adv-x="661" 
d="M325 -13q-97 0 -161 61l-105 -102l-29 32l105 104q-48 68 -48 164q0 89 49 155l-106 104l29 32l106 -103q33 31 76.5 47.5t93.5 16.5q97 0 162 -63l105 102l29 -32l-105 -104q23 -34 35.5 -75.5t12.5 -86.5q0 -43 -13 -83t-38 -72l108 -106l-29 -32l-109 105
q-31 -30 -74.5 -47t-93.5 -17zM325 28q57 0 102 28.5t70.5 76.5t25.5 106q0 59 -22.5 109t-65 79.5t-100.5 29.5q-56 0 -101 -29t-70.5 -77.5t-25.5 -104.5q0 -62 24 -111.5t67 -78t96 -28.5z" />
    <glyph glyph-name="yen" unicode="&#xa5;" horiz-adv-x="530" 
d="M284 129h179l5 -39h-184v-90h-49v90h-168l-5 39h173v130h-168l-5 39h157l-209 370l49 21l200 -368l204 359h57l-222 -382h165l5 -39h-184v-130z" />
    <glyph glyph-name="brokenbar" unicode="&#xa6;" horiz-adv-x="249" 
d="M100 410v300l49 -4v-300zM100 0v292l49 -4v-292z" />
    <glyph glyph-name="section" unicode="&#xa7;" horiz-adv-x="570" 
d="M455 107q9 -26 9 -56q0 -77 -59.5 -123.5t-167.5 -46.5q-44 0 -104.5 13.5t-77.5 28.5l15 39q32 -16 76 -27.5t90 -11.5q55 0 95.5 18t61 48t20.5 65q0 53 -43.5 92t-137.5 78q-92 38 -137 86.5t-45 118.5q0 41 19.5 74.5t56.5 54.5q-10 27 -10 61q0 46 25 82.5
t71.5 57.5t109.5 21q47 0 90.5 -11t77.5 -28l-22 -36q-36 16 -67 25t-77 9q-70 0 -113 -36t-43 -89q0 -55 44 -95.5t137 -79.5q94 -39 137.5 -85.5t43.5 -112.5q0 -43 -19 -77.5t-56 -56.5zM479 244q0 53 -43.5 92t-137.5 78q-109 46 -150 102q-22 -17 -34 -41t-12 -51
q0 -55 44 -95.5t137 -79.5q108 -45 148 -98q24 17 36 41t12 52z" />
    <glyph glyph-name="dieresis" unicode="&#xa8;" horiz-adv-x="253" 
d="M84 655q0 -16 -11 -26.5t-26 -10.5q-17 0 -27 10.5t-10 26.5t10 26t27 10q15 0 26 -10.5t11 -25.5zM243 655q0 -16 -11 -26.5t-26 -10.5q-17 0 -27 10.5t-10 26.5t10 26t27 10q15 0 26 -10.5t11 -25.5z" />
    <glyph glyph-name="copyright" unicode="&#xa9;" horiz-adv-x="787" 
d="M393 686q104 0 184.5 -45.5t125 -125.5t44.5 -179q0 -98 -44.5 -177.5t-125 -125t-184.5 -45.5q-108 0 -188 45.5t-122.5 124.5t-42.5 178t43.5 179t124 125.5t185.5 45.5zM393 648q-91 0 -160.5 -41t-107.5 -111.5t-38 -158.5t38 -159t107.5 -112t160.5 -41t161 41
t108 112.5t38 158.5t-38 158t-108 112t-161 41zM533 162q-21 -18 -58.5 -30t-68.5 -12q-57 0 -104 25.5t-74.5 75.5t-27.5 120t27.5 120t74.5 75.5t104 25.5q31 0 68.5 -12t58.5 -30l-20 -31q-54 34 -109 34q-68 0 -111.5 -49.5t-43.5 -132.5t43.5 -132.5t111.5 -49.5
q55 0 109 34z" />
    <glyph glyph-name="ordfeminine" unicode="&#xaa;" horiz-adv-x="332" 
d="M166 663q-21 0 -38 -3.5t-32.5 -10t-21.5 -8.5l-12 32q18 12 49.5 20.5t53.5 8.5q60 0 93.5 -35.5t33.5 -86.5v-208h-32l-11 36q-17 -20 -42.5 -32.5t-51.5 -12.5q-53 0 -84 29.5t-31 73.5q0 45 34 71.5t86 26.5h86v23q0 35 -20.5 55.5t-59.5 20.5zM169 533
q-41 0 -62.5 -19t-21.5 -48q0 -26 19.5 -47.5t50.5 -21.5q27 0 51 13.5t40 36.5v86h-77z" />
    <glyph glyph-name="guillemotleft" unicode="&#xab;" horiz-adv-x="363" 
d="M170 84l-140 145v32l140 145l21 -31l-122 -130l122 -130zM322 84l-140 145v32l140 145l21 -31l-123 -130l123 -130z" />
    <glyph glyph-name="logicalnot" unicode="&#xac;" horiz-adv-x="505" 
d="M10 406h457l8 -50v-244l-49 5v250h-408z" />
    <glyph glyph-name="registered" unicode="&#xae;" horiz-adv-x="715" 
d="M358 798q92 0 164 -41t112.5 -112t40.5 -158t-40.5 -157.5t-112.5 -111t-164 -40.5t-164.5 40.5t-113 111t-40.5 157.5q0 88 40 159t112 111.5t166 40.5zM358 760q-81 0 -142 -35.5t-94.5 -97.5t-33.5 -139q0 -76 33.5 -138t94.5 -98.5t142 -36.5q80 0 140.5 36.5
t94 98.5t33.5 138q0 77 -33 139t-94 97.5t-141 35.5zM480 572q0 -36 -21 -63t-52 -40l98 -165h-47l-90 159h-14q-5 -1 -15 -1h-42v-158h-40v376h87q63 0 99.5 -26t36.5 -82zM437 571q0 45 -25.5 60.5t-74.5 15.5h-40v-153h35q105 0 105 77z" />
    <glyph glyph-name="degree" unicode="&#xb0;" horiz-adv-x="243" 
d="M10 599q0 43 30.5 73t75.5 30t76 -30t31 -73q0 -45 -30.5 -73t-76.5 -28t-76 28t-30 73zM50 600q0 -27 19.5 -49t50.5 -22t47.5 21.5t16.5 49.5q0 26 -19.5 48t-48.5 22t-47.5 -21.5t-18.5 -48.5z" />
    <glyph glyph-name="plusminus" unicode="&#xb1;" horiz-adv-x="492" 
d="M266 345h181l8 -37h-189v-200l-49 5v195h-179l-8 37h187v189l49 -3v-186zM30 37h424l8 -37h-424z" />
    <glyph glyph-name="twosuperior" unicode="&#xb2;" horiz-adv-x="342" 
d="M29 733q28 15 68.5 26.5t74.5 11.5q44 0 75 -17t46 -44.5t15 -56.5q0 -42 -23.5 -80.5t-77.5 -87.5l-131 -116h240l6 -33h-297v37l156 142q49 45 66 77q16 31 16 55q0 33 -23.5 61t-69.5 28q-44 0 -124 -34l-17 31v0z" />
    <glyph glyph-name="threesuperior" unicode="&#xb3;" horiz-adv-x="354" 
d="M9 727q34 21 68.5 32.5t77.5 11.5q71 0 108 -34t37 -86q0 -40 -22.5 -70.5t-57.5 -42.5q42 -10 65.5 -42t23.5 -80q0 -60 -44.5 -99t-121.5 -39q-39 0 -76 11.5t-67 28.5l24 32q29 -17 56 -25t67 -8q47 0 82 27t35 71q0 52 -30.5 78t-105.5 26h-25l-7 33h37
q60 0 90.5 26.5t30.5 71.5q0 35 -28 60t-72 25q-64 0 -123 -38l-22 30v0z" />
    <glyph glyph-name="acute" unicode="&#xb4;" horiz-adv-x="137" 
d="M127 742l-85 -153l-32 11l56 142h61z" />
    <glyph glyph-name="mu" unicode="&#xb5;" horiz-adv-x="510" 
d="M440 0h-38l-10 76q-32 -37 -80 -63t-92 -26q-58 0 -95 29v-224l-49 -11v704h49v-337q0 -56 20 -88t71 -32q79 0 175 98v359h49v-485z" />
    <glyph glyph-name="paragraph" unicode="&#xb6;" horiz-adv-x="808" 
d="M383 641v-641h-49v264h-38q-72 0 -130 24t-92 72t-34 115q0 101 66.5 153t178.5 52h483v-39h-112v-641h-49v641h-224z" />
    <glyph glyph-name="cedilla" unicode="&#xb8;" horiz-adv-x="206" 
d="M154 -138q0 23 -27 42t-72 19l34 90h41l-25 -64q43 -8 67 -32.5t24 -52.5q0 -38 -30 -61.5t-79 -23.5q-19 0 -42 5.5t-35 13.5l15 31q34 -14 59 -14q30 0 50 14t20 33z" />
    <glyph glyph-name="onesuperior" unicode="&#xb9;" horiz-adv-x="240" 
d="M160 765v-429h-43v380l-84 -41l-23 25l126 65h24z" />
    <glyph glyph-name="ordmasculine" unicode="&#xba;" horiz-adv-x="344" 
d="M20 532q0 50 21 89t55.5 60t74.5 21q41 0 76 -20.5t56 -59t21 -90.5q0 -50 -21 -88.5t-55.5 -59.5t-75.5 -21t-75.5 20t-55.5 58.5t-21 90.5zM279 532q0 62 -30.5 98.5t-77.5 36.5q-27 0 -51.5 -16t-39.5 -46.5t-15 -72.5q0 -60 31.5 -96.5t75.5 -36.5q27 0 52 15.5
t40 45.5t15 72z" />
    <glyph glyph-name="guillemotright" unicode="&#xbb;" horiz-adv-x="363" 
d="M41 406l140 -145v-32l-140 -145l-21 31l123 130l-123 130zM193 406l140 -145v-32l-140 -145l-21 31l122 130l-122 130z" />
    <glyph glyph-name="onequarter" unicode="&#xbc;" horiz-adv-x="710" 
d="M160 765v-429h-43v380l-84 -41l-23 25l126 65h24zM25 -134l506 834h45l-501 -834h-50zM605 -31h85l-4 -34h-81v-98h-44v98h-233l-4 34l253 352h28v-352zM561 -31v269l-190 -269h190z" />
    <glyph glyph-name="onehalf" unicode="&#xbd;" horiz-adv-x="758" 
d="M160 765v-429h-43v380l-84 -41l-23 25l126 65h24zM35 -134l506 834h45l-501 -834h-50zM445 287q28 15 68.5 26.5t74.5 11.5q44 0 75 -17t46 -44.5t15 -56.5q0 -42 -23.5 -80.5t-77.5 -87.5l-131 -116h240l6 -33h-297v37l156 142q49 45 66 77q16 31 16 55q0 33 -23.5 61
t-69.5 28q-44 0 -124 -34z" />
    <glyph glyph-name="threequarters" unicode="&#xbe;" horiz-adv-x="773" 
d="M9 727q34 21 68.5 32.5t77.5 11.5q71 0 108 -34t37 -86q0 -40 -22.5 -70.5t-57.5 -42.5q42 -10 65.5 -42t23.5 -80q0 -60 -44.5 -99t-121.5 -39q-39 0 -76 11.5t-67 28.5l24 32q29 -17 56 -25t67 -8q47 0 82 27t35 71q0 52 -30.5 78t-105.5 26h-25l-7 33h37
q60 0 90.5 26.5t30.5 71.5q0 35 -28 60t-72 25q-64 0 -123 -38zM115 -134l506 834h45l-501 -834h-50zM668 -31h85l-4 -34h-81v-98h-44v98h-233l-4 34l253 352h28v-352zM624 -31v269l-190 -269h190z" />
    <glyph glyph-name="questiondown" unicode="&#xbf;" horiz-adv-x="392" 
d="M276 584q0 -16 -10.5 -27t-27.5 -11q-16 0 -27.5 11t-11.5 27t11.5 27t27.5 11q17 0 27.5 -11t10.5 -27zM382 -19q-29 -26 -75 -43.5t-101 -17.5q-86 0 -131 44.5t-45 119.5q0 58 45.5 114t127.5 92l10 195l33 -21l7 -205q-79 -25 -124.5 -71t-45.5 -103
q0 -59 33.5 -91.5t91.5 -32.5q50 0 85.5 14.5t80.5 46.5z" />
    <glyph glyph-name="Agrave" unicode="&#xc0;" 
d="M318 750l-32 -11l-85 153h61zM10 0l247 680h46l259 -675l-50 -11l-81 219h-295l-77 -213h-49zM150 252h267l-136 362z" />
    <glyph glyph-name="Aacute" unicode="&#xc1;" 
d="M356 892l-85 -153l-32 11l56 142h61zM10 0l247 680h46l259 -675l-50 -11l-81 219h-295l-77 -213h-49zM150 252h267l-136 362z" />
    <glyph glyph-name="Acircumflex" unicode="&#xc2;" 
d="M371 740l-83 118l-86 -118l-41 10l106 143h40l105 -139zM10 0l247 680h46l259 -675l-50 -11l-81 219h-295l-77 -213h-49zM150 252h267l-136 362z" />
    <glyph glyph-name="Atilde" unicode="&#xc3;" 
d="M332 796q20 0 31.5 14.5t13.5 38.5h38q0 -45 -23.5 -68t-59.5 -23q-34 0 -60 29q-27 28 -52 28q-40 0 -45 -53h-39q0 45 23.5 68t59.5 23q43 0 65 -28q23 -29 48 -29zM10 0l247 680h46l259 -675l-50 -11l-81 219h-295l-77 -213h-49zM150 252h267l-136 362z" />
    <glyph glyph-name="Adieresis" unicode="&#xc4;" 
d="M236 805q0 -16 -11 -26.5t-26 -10.5q-17 0 -27 10.5t-10 26.5t10 26t27 10q15 0 26 -10.5t11 -25.5zM395 805q0 -16 -11 -26.5t-26 -10.5q-17 0 -27 10.5t-10 26.5t10 26t27 10q15 0 26 -10.5t11 -25.5zM10 0l247 680h46l259 -675l-50 -11l-81 219h-295l-77 -213h-49z
M150 252h267l-136 362z" />
    <glyph glyph-name="Aring" unicode="&#xc5;" 
d="M190 825q0 36 26.5 60t62.5 24t62 -24t26 -60q0 -35 -25.5 -58t-62.5 -23t-63 23t-26 58zM229 825q0 -22 14 -36.5t36 -14.5t35.5 14.5t13.5 36.5q0 23 -13.5 38t-35.5 15t-36 -15t-14 -38zM10 0l247 680h46l259 -675l-50 -11l-81 219h-295l-77 -213h-49zM150 252h267
l-136 362z" />
    <glyph glyph-name="AE" unicode="&#xc6;" horiz-adv-x="829" 
d="M809 0h-375v213h-244l-130 -218l-50 10l416 675h378l5 -39h-326v-273h240l5 -39h-245v-290h320zM434 252v359l-220 -359h220z" />
    <glyph glyph-name="Ccedilla" unicode="&#xc7;" horiz-adv-x="553" 
d="M370 -14l-15 -37q43 -8 67 -32.5t24 -52.5q0 -38 -30 -61.5t-79 -23.5q-19 0 -42 5.5t-35 13.5l15 31q34 -14 59 -14q30 0 50 14t20 33q0 23 -27 42t-72 19l24 64q-92 6 -154.5 54.5t-93.5 125.5t-31 169q0 100 37 181.5t107.5 129t165.5 47.5q37 0 87.5 -10t75.5 -27
l-20 -36q-38 16 -67 23t-78 7q-72 -1 -129.5 -39.5t-90.5 -109.5t-33 -165q0 -83 29 -153.5t84.5 -112.5t130.5 -42q49 0 83.5 8t66.5 22l24 -36q-26 -14 -69.5 -24.5t-83.5 -12.5z" />
    <glyph glyph-name="Egrave" unicode="&#xc8;" horiz-adv-x="495" 
d="M312 750l-32 -11l-85 153h61zM472 39l6 -39h-378v680h373l5 -39h-329v-273h240l5 -39h-245v-290h323z" />
    <glyph glyph-name="Eacute" unicode="&#xc9;" horiz-adv-x="495" 
d="M350 892l-85 -153l-32 11l56 142h61zM472 39l6 -39h-378v680h373l5 -39h-329v-273h240l5 -39h-245v-290h323z" />
    <glyph glyph-name="Ecircumflex" unicode="&#xca;" horiz-adv-x="495" 
d="M365 740l-83 118l-86 -118l-41 10l106 143h40l105 -139zM472 39l6 -39h-378v680h373l5 -39h-329v-273h240l5 -39h-245v-290h323z" />
    <glyph glyph-name="Edieresis" unicode="&#xcb;" horiz-adv-x="495" 
d="M230 805q0 -16 -11 -26.5t-26 -10.5q-17 0 -27 10.5t-10 26.5t10 26t27 10q15 0 26 -10.5t11 -25.5zM389 805q0 -16 -11 -26.5t-26 -10.5q-17 0 -27 10.5t-10 26.5t10 26t27 10q15 0 26 -10.5t11 -25.5zM472 39l6 -39h-378v680h373l5 -39h-329v-273h240l5 -39h-245v-290
h323z" />
    <glyph glyph-name="Igrave" unicode="&#xcc;" horiz-adv-x="249" 
d="M162 750l-32 -11l-85 153h61zM149 680v-680h-49v680h49z" />
    <glyph glyph-name="Iacute" unicode="&#xcd;" horiz-adv-x="249" 
d="M200 892l-85 -153l-32 11l56 142h61zM149 680v-680h-49v680h49z" />
    <glyph glyph-name="Icircumflex" unicode="&#xce;" horiz-adv-x="249" 
d="M215 740l-83 118l-86 -118l-41 10l106 143h40l105 -139zM149 680v-680h-49v680h49z" />
    <glyph glyph-name="Idieresis" unicode="&#xcf;" horiz-adv-x="249" 
d="M80 805q0 -16 -11 -26.5t-26 -10.5q-17 0 -27 10.5t-10 26.5t10 26t27 10q15 0 26 -10.5t11 -25.5zM239 805q0 -16 -11 -26.5t-26 -10.5q-17 0 -27 10.5t-10 26.5t10 26t27 10q15 0 26 -10.5t11 -25.5zM149 680v-680h-49v680h49z" />
    <glyph glyph-name="Eth" unicode="&#xd0;" horiz-adv-x="662" 
d="M612 344q0 -97 -32 -175t-97.5 -123.5t-161.5 -45.5h-221v314h-80l-10 39h90v327h224q148 0 218 -93t70 -243zM561 343q0 83 -25.5 150.5t-77 107.5t-126.5 40h-183v-288h109l10 -39h-119v-275h173q70 0 124.5 39.5t84.5 108.5t30 156z" />
    <glyph glyph-name="Ntilde" unicode="&#xd1;" horiz-adv-x="658" 
d="M381 796q20 0 31.5 14.5t13.5 38.5h38q0 -45 -23.5 -68t-59.5 -23q-34 0 -60 29q-27 28 -52 28q-40 0 -45 -53h-39q0 45 23.5 68t59.5 23q43 0 65 -28q23 -29 48 -29zM149 574v-574h-49v680h28l347 -510l34 -59v569h49v-680h-27l-368 545z" />
    <glyph glyph-name="Ograve" unicode="&#xd2;" horiz-adv-x="707" 
d="M394 750l-32 -11l-85 153h61zM50 337q0 103 39.5 184.5t109.5 128t158 46.5q86 0 154.5 -45t107 -125t38.5 -181q0 -103 -39.5 -184.5t-109.5 -128t-157 -46.5q-86 0 -155 45t-107.5 125t-38.5 181zM358 654q-73 0 -130.5 -41t-90 -113t-32.5 -162q0 -89 31.5 -160
t87 -111t125.5 -40q73 0 130.5 41t90 113t32.5 163q0 89 -31.5 159.5t-87 110.5t-125.5 40z" />
    <glyph glyph-name="Oacute" unicode="&#xd3;" horiz-adv-x="707" 
d="M432 892l-85 -153l-32 11l56 142h61zM50 337q0 103 39.5 184.5t109.5 128t158 46.5q86 0 154.5 -45t107 -125t38.5 -181q0 -103 -39.5 -184.5t-109.5 -128t-157 -46.5q-86 0 -155 45t-107.5 125t-38.5 181zM358 654q-73 0 -130.5 -41t-90 -113t-32.5 -162
q0 -89 31.5 -160t87 -111t125.5 -40q73 0 130.5 41t90 113t32.5 163q0 89 -31.5 159.5t-87 110.5t-125.5 40z" />
    <glyph glyph-name="Ocircumflex" unicode="&#xd4;" horiz-adv-x="707" 
d="M447 740l-83 118l-86 -118l-41 10l106 143h40l105 -139zM50 337q0 103 39.5 184.5t109.5 128t158 46.5q86 0 154.5 -45t107 -125t38.5 -181q0 -103 -39.5 -184.5t-109.5 -128t-157 -46.5q-86 0 -155 45t-107.5 125t-38.5 181zM358 654q-73 0 -130.5 -41t-90 -113
t-32.5 -162q0 -89 31.5 -160t87 -111t125.5 -40q73 0 130.5 41t90 113t32.5 163q0 89 -31.5 159.5t-87 110.5t-125.5 40z" />
    <glyph glyph-name="Otilde" unicode="&#xd5;" horiz-adv-x="707" 
d="M408 796q20 0 31.5 14.5t13.5 38.5h38q0 -45 -23.5 -68t-59.5 -23q-34 0 -60 29q-27 28 -52 28q-40 0 -45 -53h-39q0 45 23.5 68t59.5 23q43 0 65 -28q23 -29 48 -29zM50 337q0 103 39.5 184.5t109.5 128t158 46.5q86 0 154.5 -45t107 -125t38.5 -181
q0 -103 -39.5 -184.5t-109.5 -128t-157 -46.5q-86 0 -155 45t-107.5 125t-38.5 181zM358 654q-73 0 -130.5 -41t-90 -113t-32.5 -162q0 -89 31.5 -160t87 -111t125.5 -40q73 0 130.5 41t90 113t32.5 163q0 89 -31.5 159.5t-87 110.5t-125.5 40z" />
    <glyph glyph-name="Odieresis" unicode="&#xd6;" horiz-adv-x="707" 
d="M312 805q0 -16 -11 -26.5t-26 -10.5q-17 0 -27 10.5t-10 26.5t10 26t27 10q15 0 26 -10.5t11 -25.5zM471 805q0 -16 -11 -26.5t-26 -10.5q-17 0 -27 10.5t-10 26.5t10 26t27 10q15 0 26 -10.5t11 -25.5zM50 337q0 103 39.5 184.5t109.5 128t158 46.5q86 0 154.5 -45
t107 -125t38.5 -181q0 -103 -39.5 -184.5t-109.5 -128t-157 -46.5q-86 0 -155 45t-107.5 125t-38.5 181zM358 654q-73 0 -130.5 -41t-90 -113t-32.5 -162q0 -89 31.5 -160t87 -111t125.5 -40q73 0 130.5 41t90 113t32.5 163q0 89 -31.5 159.5t-87 110.5t-125.5 40z" />
    <glyph glyph-name="multiply" unicode="&#xd7;" horiz-adv-x="470" 
d="M374 31l-143 176l-150 -176h-51l183 219l-166 214h49l140 -176l153 176h51l-183 -219l166 -214h-49z" />
    <glyph glyph-name="Oslash" unicode="&#xd8;" horiz-adv-x="707" 
d="M657 345q0 -103 -39.5 -184.5t-109.5 -128t-157 -46.5q-86 0 -155 45t-107.5 125t-38.5 181q0 103 39.5 184.5t109.5 128t158 46.5q86 0 154.5 -45t107 -125t38.5 -181zM214 74l238 559q-42 21 -94 21q-73 0 -130.5 -41t-90 -113t-32.5 -162q0 -85 29 -154t80 -110z
M602 344q0 85 -28.5 153.5t-78.5 108.5l-239 -558q42 -21 93 -21q73 0 130.5 41t90 113t32.5 163z" />
    <glyph glyph-name="Ugrave" unicode="&#xd9;" horiz-adv-x="658" 
d="M366 750l-32 -11l-85 153h61zM90 680h49v-444q0 -58 23.5 -105t67 -74.5t99.5 -27.5q58 0 101 27t66 74.5t23 105.5v444h49v-441q0 -73 -28 -130t-81.5 -89t-129.5 -32q-75 0 -129 32t-82 89t-28 130v441z" />
    <glyph glyph-name="Uacute" unicode="&#xda;" horiz-adv-x="658" 
d="M404 892l-85 -153l-32 11l56 142h61zM90 680h49v-444q0 -58 23.5 -105t67 -74.5t99.5 -27.5q58 0 101 27t66 74.5t23 105.5v444h49v-441q0 -73 -28 -130t-81.5 -89t-129.5 -32q-75 0 -129 32t-82 89t-28 130v441z" />
    <glyph glyph-name="Ucircumflex" unicode="&#xdb;" horiz-adv-x="658" 
d="M419 740l-83 118l-86 -118l-41 10l106 143h40l105 -139zM90 680h49v-444q0 -58 23.5 -105t67 -74.5t99.5 -27.5q58 0 101 27t66 74.5t23 105.5v444h49v-441q0 -73 -28 -130t-81.5 -89t-129.5 -32q-75 0 -129 32t-82 89t-28 130v441z" />
    <glyph glyph-name="Udieresis" unicode="&#xdc;" horiz-adv-x="658" 
d="M284 805q0 -16 -11 -26.5t-26 -10.5q-17 0 -27 10.5t-10 26.5t10 26t27 10q15 0 26 -10.5t11 -25.5zM443 805q0 -16 -11 -26.5t-26 -10.5q-17 0 -27 10.5t-10 26.5t10 26t27 10q15 0 26 -10.5t11 -25.5zM90 680h49v-444q0 -58 23.5 -105t67 -74.5t99.5 -27.5q58 0 101 27
t66 74.5t23 105.5v444h49v-441q0 -73 -28 -130t-81.5 -89t-129.5 -32q-75 0 -129 32t-82 89t-28 130v441z" />
    <glyph glyph-name="Yacute" unicode="&#xdd;" horiz-adv-x="530" 
d="M334 892l-85 -153l-32 11l56 142h61zM284 274v-274h-49v269l-225 399l49 21l200 -368l204 359h57z" />
    <glyph glyph-name="Thorn" unicode="&#xde;" horiz-adv-x="548" 
d="M508 395q0 -105 -71.5 -158t-184.5 -53h-103v-184h-49v680h49v-80h114q113 0 179 -49.5t66 -155.5zM458 394q0 85 -48.5 125.5t-134.5 40.5h-126v-337h115q84 0 139 44.5t55 126.5z" />
    <glyph glyph-name="germandbls" unicode="&#xdf;" horiz-adv-x="544" 
d="M130 -230h-50v703q0 97 51.5 152t144.5 55q82 0 135.5 -46.5t53.5 -130.5q0 -52 -25 -90t-71 -57q57 -16 93.5 -60.5t36.5 -107.5q0 -100 -69.5 -144t-186.5 -44h-38v39h51q86 0 138.5 36t52.5 111q0 74 -48 110.5t-133 36.5h-45v39h27q88 0 126.5 32.5t38.5 97.5
q0 64 -38.5 100.5t-95.5 36.5q-71 0 -110 -47t-39 -119v-703z" />
    <glyph glyph-name="agrave" unicode="&#xe0;" horiz-adv-x="475" 
d="M244 457q-44 0 -73 -8t-66 -26l-19 33q26 18 74 30t81 12q81 0 124.5 -42.5t43.5 -115.5v-340h-38l-8 52q-26 -29 -65 -47t-83 -18q-79 0 -121 41.5t-42 107.5q0 68 48 106.5t125 38.5h135v60q0 53 -29.5 84.5t-86.5 31.5zM229 244q-63 0 -94.5 -30t-31.5 -78
q0 -46 31.5 -77t84.5 -31q45 0 80.5 22t60.5 59v135h-131zM275 600l-32 -11l-85 153h61z" />
    <glyph glyph-name="aacute" unicode="&#xe1;" horiz-adv-x="475" 
d="M244 457q-44 0 -73 -8t-66 -26l-19 33q26 18 74 30t81 12q81 0 124.5 -42.5t43.5 -115.5v-340h-38l-8 52q-26 -29 -65 -47t-83 -18q-79 0 -121 41.5t-42 107.5q0 68 48 106.5t125 38.5h135v60q0 53 -29.5 84.5t-86.5 31.5zM229 244q-63 0 -94.5 -30t-31.5 -78
q0 -46 31.5 -77t84.5 -31q45 0 80.5 22t60.5 59v135h-131zM314 742l-85 -153l-32 11l56 142h61z" />
    <glyph glyph-name="acircumflex" unicode="&#xe2;" horiz-adv-x="475" 
d="M244 457q-44 0 -73 -8t-66 -26l-19 33q26 18 74 30t81 12q81 0 124.5 -42.5t43.5 -115.5v-340h-38l-8 52q-26 -29 -65 -47t-83 -18q-79 0 -121 41.5t-42 107.5q0 68 48 106.5t125 38.5h135v60q0 53 -29.5 84.5t-86.5 31.5zM229 244q-63 0 -94.5 -30t-31.5 -78
q0 -46 31.5 -77t84.5 -31q45 0 80.5 22t60.5 59v135h-131zM334 589l-83 118l-86 -118l-41 10l106 143h40l105 -139z" />
    <glyph glyph-name="atilde" unicode="&#xe3;" horiz-adv-x="475" 
d="M244 457q-44 0 -73 -8t-66 -26l-19 33q26 18 74 30t81 12q81 0 124.5 -42.5t43.5 -115.5v-340h-38l-8 52q-26 -29 -65 -47t-83 -18q-79 0 -121 41.5t-42 107.5q0 68 48 106.5t125 38.5h135v60q0 53 -29.5 84.5t-86.5 31.5zM229 244q-63 0 -94.5 -30t-31.5 -78
q0 -46 31.5 -77t84.5 -31q45 0 80.5 22t60.5 59v135h-131zM297 646q20 0 31.5 14.5t13.5 38.5h38q0 -45 -23.5 -68t-59.5 -23q-34 0 -60 29q-27 28 -52 28q-40 0 -45 -53h-39q0 45 23.5 68t59.5 23q43 0 65 -28q23 -29 48 -29z" />
    <glyph glyph-name="adieresis" unicode="&#xe4;" horiz-adv-x="475" 
d="M244 457q-44 0 -73 -8t-66 -26l-19 33q26 18 74 30t81 12q81 0 124.5 -42.5t43.5 -115.5v-340h-38l-8 52q-26 -29 -65 -47t-83 -18q-79 0 -121 41.5t-42 107.5q0 68 48 106.5t125 38.5h135v60q0 53 -29.5 84.5t-86.5 31.5zM229 244q-63 0 -94.5 -30t-31.5 -78
q0 -46 31.5 -77t84.5 -31q45 0 80.5 22t60.5 59v135h-131zM201 655q0 -16 -11 -26.5t-26 -10.5q-17 0 -27 10.5t-10 26.5t10 26t27 10q15 0 26 -10.5t11 -25.5zM360 655q0 -16 -11 -26.5t-26 -10.5q-17 0 -27 10.5t-10 26.5t10 26t27 10q15 0 26 -10.5t11 -25.5z" />
    <glyph glyph-name="aring" unicode="&#xe5;" horiz-adv-x="475" 
d="M244 457q-44 0 -73 -8t-66 -26l-19 33q26 18 74 30t81 12q81 0 124.5 -42.5t43.5 -115.5v-340h-38l-8 52q-26 -29 -65 -47t-83 -18q-79 0 -121 41.5t-42 107.5q0 68 48 106.5t125 38.5h135v60q0 53 -29.5 84.5t-86.5 31.5zM229 244q-63 0 -94.5 -30t-31.5 -78
q0 -46 31.5 -77t84.5 -31q45 0 80.5 22t60.5 59v135h-131zM149 675q0 36 26.5 60t62.5 24t62 -24t26 -60q0 -35 -25.5 -58t-62.5 -23t-63 23t-26 58zM188 675q0 -22 14 -36.5t36 -14.5t35.5 14.5t13.5 36.5q0 23 -13.5 38t-35.5 15t-36 -15t-14 -38z" />
    <glyph glyph-name="ae" unicode="&#xe6;" horiz-adv-x="795" 
d="M720 62l20 -37q-28 -17 -74.5 -27.5t-80.5 -10.5q-66 0 -113.5 24t-75.5 68q-28 -45 -70.5 -68.5t-110.5 -23.5q-79 0 -121 41.5t-42 107.5q0 68 48 106.5t125 38.5h131q2 18 4 29v31q0 53 -29.5 84.5t-86.5 31.5q-44 0 -73 -8t-66 -26l-19 33q26 18 74 30t81 12
q60 0 99 -23t56 -65q27 42 70 65t101 23q55 0 98 -33t66.5 -91.5t23.5 -131.5h-349q1 -94 43.5 -154t127.5 -60q48 0 80 9t63 25zM408 279h295q-8 79 -42 128.5t-101 49.5q-68 0 -106.5 -50.5t-45.5 -127.5zM376 120q-21 54 -21 124h-126q-63 0 -94.5 -30t-31.5 -78
q0 -46 31.5 -77t84.5 -31q56 0 93.5 24.5t63.5 67.5z" />
    <glyph glyph-name="ccedilla" unicode="&#xe7;" horiz-adv-x="449" 
d="M275 -12l-15 -39q43 -8 67 -32.5t24 -52.5q0 -38 -30 -61.5t-79 -23.5q-19 0 -42 5.5t-35 13.5l15 31q34 -14 59 -14q30 0 50 14t20 33q0 23 -27 42t-72 19l25 65q-94 9 -144.5 78.5t-50.5 178.5q0 73 27 130.5t78 90t121 32.5q31 0 75 -12t72 -30l-20 -33
q-35 17 -62 25.5t-67 8.5q-52 0 -91.5 -28.5t-60.5 -77t-21 -105.5q0 -61 19.5 -110.5t57.5 -78.5t91 -29q31 0 53 4.5t40.5 12.5t35.5 17l20 -34q-25 -16 -63 -27t-70 -13z" />
    <glyph glyph-name="egrave" unicode="&#xe8;" horiz-adv-x="480" 
d="M252 498q55 0 98 -33t66.5 -91.5t23.5 -131.5h-349q1 -94 43.5 -154t127.5 -60q48 0 80 9t63 25l20 -37q-28 -17 -74.5 -27.5t-80.5 -10.5q-115 0 -172.5 70t-57.5 188q0 114 54.5 183.5t157.5 69.5zM245 457q-68 0 -106.5 -50.5t-45.5 -127.5h295q-8 79 -42 128.5
t-101 49.5zM285 600l-32 -11l-85 153h61z" />
    <glyph glyph-name="eacute" unicode="&#xe9;" horiz-adv-x="480" 
d="M252 498q55 0 98 -33t66.5 -91.5t23.5 -131.5h-349q1 -94 43.5 -154t127.5 -60q48 0 80 9t63 25l20 -37q-28 -17 -74.5 -27.5t-80.5 -10.5q-115 0 -172.5 70t-57.5 188q0 114 54.5 183.5t157.5 69.5zM245 457q-68 0 -106.5 -50.5t-45.5 -127.5h295q-8 79 -42 128.5
t-101 49.5zM324 742l-85 -153l-32 11l56 142h61z" />
    <glyph glyph-name="ecircumflex" unicode="&#xea;" horiz-adv-x="480" 
d="M252 498q55 0 98 -33t66.5 -91.5t23.5 -131.5h-349q1 -94 43.5 -154t127.5 -60q48 0 80 9t63 25l20 -37q-28 -17 -74.5 -27.5t-80.5 -10.5q-115 0 -172.5 70t-57.5 188q0 114 54.5 183.5t157.5 69.5zM245 457q-68 0 -106.5 -50.5t-45.5 -127.5h295q-8 79 -42 128.5
t-101 49.5zM344 589l-83 118l-86 -118l-41 10l106 143h40l105 -139z" />
    <glyph glyph-name="edieresis" unicode="&#xeb;" horiz-adv-x="480" 
d="M252 498q55 0 98 -33t66.5 -91.5t23.5 -131.5h-349q1 -94 43.5 -154t127.5 -60q48 0 80 9t63 25l20 -37q-28 -17 -74.5 -27.5t-80.5 -10.5q-115 0 -172.5 70t-57.5 188q0 114 54.5 183.5t157.5 69.5zM245 457q-68 0 -106.5 -50.5t-45.5 -127.5h295q-8 79 -42 128.5
t-101 49.5zM211 655q0 -16 -11 -26.5t-26 -10.5q-17 0 -27 10.5t-10 26.5t10 26t27 10q15 0 26 -10.5t11 -25.5zM370 655q0 -16 -11 -26.5t-26 -10.5q-17 0 -27 10.5t-10 26.5t10 26t27 10q15 0 26 -10.5t11 -25.5z" />
    <glyph glyph-name="igrave" unicode="&#xec;" horiz-adv-x="189" 
d="M119 485v-485h-49v485h49zM131 600l-32 -11l-85 153h61z" />
    <glyph glyph-name="iacute" unicode="&#xed;" horiz-adv-x="189" 
d="M119 485v-485h-49v485h49zM170 742l-85 -153l-32 11l56 142h61z" />
    <glyph glyph-name="icircumflex" unicode="&#xee;" horiz-adv-x="189" 
d="M119 485v-485h-49v485h49zM193 589l-83 118l-86 -118l-41 10l106 143h40l105 -139z" />
    <glyph glyph-name="idieresis" unicode="&#xef;" horiz-adv-x="189" 
d="M119 485v-485h-49v485h49zM60 655q0 -16 -11 -26.5t-26 -10.5q-17 0 -27 10.5t-10 26.5t10 26t27 10q15 0 26 -10.5t11 -25.5zM219 655q0 -16 -11 -26.5t-26 -10.5q-17 0 -27 10.5t-10 26.5t10 26t27 10q15 0 26 -10.5t11 -25.5z" />
    <glyph glyph-name="eth" unicode="&#xf0;" horiz-adv-x="523" 
d="M483 240q0 -72 -26.5 -129.5t-77.5 -90.5t-120 -33q-105 1 -162 71.5t-57 186.5q0 72 26.5 129.5t77.5 90.5t121 33q72 -1 122 -39q-50 105 -148 179l-130 -66l-19 38l111 55q-49 31 -100 53l13 32q67 -27 128 -65l116 57l18 -35l-96 -48q102 -77 152.5 -183.5
t50.5 -235.5zM432 239q0 82 -20 152q-69 66 -148 66q-52 0 -91.5 -28.5t-60.5 -77t-21 -105.5q0 -61 19.5 -110.5t57.5 -78.5t91 -29q52 0 91.5 28.5t60.5 77t21 105.5z" />
    <glyph glyph-name="ntilde" unicode="&#xf1;" horiz-adv-x="500" 
d="M294 457q-79 0 -175 -98v-359h-49v485h38l10 -76q32 37 80 63t92 26q74 0 109 -43.5t35 -117.5v-337h-49v337q0 56 -20 88t-71 32zM317 646q20 0 31.5 14.5t13.5 38.5h38q0 -45 -23.5 -68t-59.5 -23q-34 0 -60 29q-27 28 -52 28q-40 0 -45 -53h-39q0 45 23.5 68t59.5 23
q43 0 65 -28q23 -29 48 -29z" />
    <glyph glyph-name="ograve" unicode="&#xf2;" horiz-adv-x="523" 
d="M259 -13q-105 1 -162 71.5t-57 186.5q0 72 26.5 129.5t77.5 90.5t121 33q105 -1 161.5 -71.5t56.5 -186.5q0 -72 -26.5 -129.5t-77.5 -90.5t-120 -33zM432 239q0 61 -19.5 110.5t-57.5 78.5t-91 29q-52 0 -91.5 -28.5t-60.5 -77t-21 -105.5q0 -61 19.5 -110.5t57.5 -78.5
t91 -29q52 0 91.5 28.5t60.5 77t21 105.5zM300 600l-32 -11l-85 153h61z" />
    <glyph glyph-name="oacute" unicode="&#xf3;" horiz-adv-x="523" 
d="M259 -13q-105 1 -162 71.5t-57 186.5q0 72 26.5 129.5t77.5 90.5t121 33q105 -1 161.5 -71.5t56.5 -186.5q0 -72 -26.5 -129.5t-77.5 -90.5t-120 -33zM432 239q0 61 -19.5 110.5t-57.5 78.5t-91 29q-52 0 -91.5 -28.5t-60.5 -77t-21 -105.5q0 -61 19.5 -110.5t57.5 -78.5
t91 -29q52 0 91.5 28.5t60.5 77t21 105.5zM339 742l-85 -153l-32 11l56 142h61z" />
    <glyph glyph-name="ocircumflex" unicode="&#xf4;" horiz-adv-x="523" 
d="M259 -13q-105 1 -162 71.5t-57 186.5q0 72 26.5 129.5t77.5 90.5t121 33q105 -1 161.5 -71.5t56.5 -186.5q0 -72 -26.5 -129.5t-77.5 -90.5t-120 -33zM432 239q0 61 -19.5 110.5t-57.5 78.5t-91 29q-52 0 -91.5 -28.5t-60.5 -77t-21 -105.5q0 -61 19.5 -110.5t57.5 -78.5
t91 -29q52 0 91.5 28.5t60.5 77t21 105.5zM359 589l-83 118l-86 -118l-41 10l106 143h40l105 -139z" />
    <glyph glyph-name="otilde" unicode="&#xf5;" horiz-adv-x="523" 
d="M259 -13q-105 1 -162 71.5t-57 186.5q0 72 26.5 129.5t77.5 90.5t121 33q105 -1 161.5 -71.5t56.5 -186.5q0 -72 -26.5 -129.5t-77.5 -90.5t-120 -33zM432 239q0 61 -19.5 110.5t-57.5 78.5t-91 29q-52 0 -91.5 -28.5t-60.5 -77t-21 -105.5q0 -61 19.5 -110.5t57.5 -78.5
t91 -29q52 0 91.5 28.5t60.5 77t21 105.5zM322 646q20 0 31.5 14.5t13.5 38.5h38q0 -45 -23.5 -68t-59.5 -23q-34 0 -60 29q-27 28 -52 28q-40 0 -45 -53h-39q0 45 23.5 68t59.5 23q43 0 65 -28q23 -29 48 -29z" />
    <glyph glyph-name="odieresis" unicode="&#xf6;" horiz-adv-x="523" 
d="M259 -13q-105 1 -162 71.5t-57 186.5q0 72 26.5 129.5t77.5 90.5t121 33q105 -1 161.5 -71.5t56.5 -186.5q0 -72 -26.5 -129.5t-77.5 -90.5t-120 -33zM432 239q0 61 -19.5 110.5t-57.5 78.5t-91 29q-52 0 -91.5 -28.5t-60.5 -77t-21 -105.5q0 -61 19.5 -110.5t57.5 -78.5
t91 -29q52 0 91.5 28.5t60.5 77t21 105.5zM226 655q0 -16 -11 -26.5t-26 -10.5q-17 0 -27 10.5t-10 26.5t10 26t27 10q15 0 26 -10.5t11 -25.5zM385 655q0 -16 -11 -26.5t-26 -10.5q-17 0 -27 10.5t-10 26.5t10 26t27 10q15 0 26 -10.5t11 -25.5z" />
    <glyph glyph-name="divide" unicode="&#xf7;" horiz-adv-x="497" 
d="M287 415q0 -16 -11.5 -27t-27.5 -11q-17 0 -27.5 11t-10.5 27t10.5 27t27.5 11q16 0 27.5 -11t11.5 -27zM30 292h427l10 -37h-429zM290 112q0 -16 -11.5 -27t-27.5 -11q-17 0 -27.5 11t-10.5 27t10.5 27t27.5 11q16 0 27.5 -11t11.5 -27z" />
    <glyph glyph-name="oslash" unicode="&#xf8;" horiz-adv-x="523" 
d="M483 240q0 -72 -26.5 -129.5t-77.5 -90.5t-120 -33q-105 1 -162 71.5t-57 186.5q0 72 26.5 129.5t77.5 90.5t121 33q105 -1 161.5 -71.5t56.5 -186.5zM153 70l190 366q-37 21 -79 21q-52 0 -91.5 -28.5t-60.5 -77t-21 -105.5q0 -55 16 -100.5t46 -75.5zM432 239
q0 50 -14 93.5t-40 73.5l-188 -362q32 -16 69 -16q52 0 91.5 28.5t60.5 77t21 105.5z" />
    <glyph glyph-name="ugrave" unicode="&#xf9;" horiz-adv-x="500" 
d="M206 28q79 0 175 98v359h49v-485h-38l-10 76q-32 -37 -80 -63t-92 -26q-74 0 -109 43.5t-35 117.5v337h49v-337q0 -56 20 -88t71 -32zM282 600l-32 -11l-85 153h61z" />
    <glyph glyph-name="uacute" unicode="&#xfa;" horiz-adv-x="500" 
d="M206 28q79 0 175 98v359h49v-485h-38l-10 76q-32 -37 -80 -63t-92 -26q-74 0 -109 43.5t-35 117.5v337h49v-337q0 -56 20 -88t71 -32zM321 742l-85 -153l-32 11l56 142h61z" />
    <glyph glyph-name="ucircumflex" unicode="&#xfb;" horiz-adv-x="500" 
d="M206 28q79 0 175 98v359h49v-485h-38l-10 76q-32 -37 -80 -63t-92 -26q-74 0 -109 43.5t-35 117.5v337h49v-337q0 -56 20 -88t71 -32zM341 589l-83 118l-86 -118l-41 10l106 143h40l105 -139z" />
    <glyph glyph-name="udieresis" unicode="&#xfc;" horiz-adv-x="500" 
d="M206 28q79 0 175 98v359h49v-485h-38l-10 76q-32 -37 -80 -63t-92 -26q-74 0 -109 43.5t-35 117.5v337h49v-337q0 -56 20 -88t71 -32zM208 655q0 -16 -11 -26.5t-26 -10.5q-17 0 -27 10.5t-10 26.5t10 26t27 10q15 0 26 -10.5t11 -25.5zM367 655q0 -16 -11 -26.5
t-26 -10.5q-17 0 -27 10.5t-10 26.5t10 26t27 10q15 0 26 -10.5t11 -25.5z" />
    <glyph glyph-name="yacute" unicode="&#xfd;" horiz-adv-x="430" 
d="M420 485l-180 -485v-230h-49v235l-181 469l46 18l160 -436l154 429h50zM285 742l-85 -153l-32 11l56 142h61z" />
    <glyph glyph-name="thorn" unicode="&#xfe;" horiz-adv-x="508" 
d="M468 240q0 -113 -56 -183t-160 -70q-32 0 -65.5 13t-61.5 33v-241l-49 -11v915l49 10v-260q58 52 134 52q104 0 156.5 -70t52.5 -188zM417 239q0 95 -40 156.5t-118 61.5q-44 0 -74 -16.5t-60 -48.5v-309q61 -55 129 -55q52 0 88.5 28.5t55.5 76.5t19 106z" />
    <glyph glyph-name="ydieresis" unicode="&#xff;" horiz-adv-x="430" 
d="M420 485l-180 -485v-230h-49v235l-181 469l46 18l160 -436l154 429h50zM172 655q0 -16 -11 -26.5t-26 -10.5q-17 0 -27 10.5t-10 26.5t10 26t27 10q15 0 26 -10.5t11 -25.5zM331 655q0 -16 -11 -26.5t-26 -10.5q-17 0 -27 10.5t-10 26.5t10 26t27 10q15 0 26 -10.5
t11 -25.5z" />
    <glyph glyph-name="dotlessi" unicode="&#x131;" horiz-adv-x="189" 
d="M119 485v-485h-49v485h49z" />
    <glyph glyph-name="Lslash" unicode="&#x141;" horiz-adv-x="491" 
d="M32 219l-22 36l90 78v347h49v-304l110 96l22 -34l-132 -116v-283h327l5 -39h-381v279z" />
    <glyph glyph-name="lslash" unicode="&#x142;" horiz-adv-x="271" 
d="M160 394l89 78l22 -34l-111 -98v-340h-49v297l-89 -78l-22 36l111 96v345l49 10v-312z" />
    <glyph glyph-name="OE" unicode="&#x152;" horiz-adv-x="892" 
d="M497 12q-31 -11 -70 -18.5t-73 -7.5q-100 0 -168.5 47.5t-102 127t-33.5 175.5q0 100 37 181.5t107.5 129t165.5 47.5q28 0 68 -6.5t69 -17.5v10h370l5 -39h-326v-273h240l5 -39h-245v-290h320l6 -39h-375v12zM497 58v565q-34 14 -63.5 21t-75.5 7q-72 -1 -129.5 -39.5
t-90.5 -109.5t-33 -165q0 -83 29 -153.5t84.5 -112.5t130.5 -42q49 0 83 7.5t65 21.5z" />
    <glyph glyph-name="oe" unicode="&#x153;" horiz-adv-x="758" 
d="M683 62l20 -37q-28 -17 -74.5 -27.5t-80.5 -10.5q-83 0 -141 40q-29 -17 -72.5 -28.5t-75.5 -11.5q-105 0 -162 71t-57 187q0 73 27 130.5t78 90t121 32.5q29 0 70 -10.5t70 -27.5q51 38 124 38q55 0 98 -33t66.5 -91.5t23.5 -131.5h-349q1 -94 43.5 -154t127.5 -60
q48 0 80 9t63 25zM259 28q40 0 64.5 7t52.5 21q-58 68 -58 189q0 118 57 187q-25 12 -51 18.5t-60 6.5q-52 0 -91.5 -28.5t-60.5 -77t-21 -105.5q0 -61 19.5 -110.5t57.5 -78.5t91 -29zM371 279h295q-8 79 -42 128.5t-101 49.5q-68 0 -106.5 -50.5t-45.5 -127.5z" />
    <glyph glyph-name="Scaron" unicode="&#x160;" horiz-adv-x="504" 
d="M173 892l86 -118l83 118l41 -14l-105 -139h-40l-106 143zM237 -13q-44 0 -104.5 13.5t-77.5 28.5l15 39q32 -16 76 -27.5t90 -11.5q55 0 95.5 18t61 48t20.5 65q0 53 -43.5 92t-137.5 78q-92 38 -137 86.5t-45 118.5q0 46 25 82.5t71.5 57.5t109.5 21q47 0 90.5 -11
t77.5 -28l-22 -36q-36 16 -67 25t-77 9q-70 0 -113 -36t-43 -89q0 -55 44 -95.5t137 -79.5q94 -39 137.5 -85.5t43.5 -112.5q0 -77 -59.5 -123.5t-167.5 -46.5z" />
    <glyph glyph-name="scaron" unicode="&#x161;" horiz-adv-x="406" 
d="M189 -13q-34 0 -77.5 10.5t-69.5 27.5l18 41q36 -18 66.5 -28t64.5 -10q60 0 94 24.5t34 66.5q0 60 -128 110q-141 55 -141 135q0 59 44 96.5t123 37.5q32 0 72.5 -11.5t64.5 -28.5l-20 -35q-35 17 -60 25.5t-64 8.5q-50 0 -81.5 -26.5t-31.5 -62.5q0 -31 32 -55t90 -47
q68 -27 107.5 -61.5t39.5 -81.5q0 -136 -177 -136zM128 742l86 -118l83 118l41 -14l-105 -139h-40l-106 143z" />
    <glyph glyph-name="Ydieresis" unicode="&#x178;" horiz-adv-x="530" 
d="M214 805q0 -16 -11 -26.5t-26 -10.5q-17 0 -27 10.5t-10 26.5t10 26t27 10q15 0 26 -10.5t11 -25.5zM373 805q0 -16 -11 -26.5t-26 -10.5q-17 0 -27 10.5t-10 26.5t10 26t27 10q15 0 26 -10.5t11 -25.5zM284 274v-274h-49v269l-225 399l49 21l200 -368l204 359h57z" />
    <glyph glyph-name="Zcaron" unicode="&#x17d;" horiz-adv-x="539" 
d="M185 892l86 -118l83 118l41 -14l-105 -139h-40l-106 143zM79 39h420l5 -39h-468l-6 50l433 591h-406l-10 39h457l5 -49z" />
    <glyph glyph-name="zcaron" unicode="&#x17e;" horiz-adv-x="432" 
d="M57 485h344l3 -32l-325 -416h309l10 -37h-362l-8 31l322 417h-277zM138 742l86 -118l83 118l41 -14l-105 -139h-40l-106 143z" />
    <glyph glyph-name="florin" unicode="&#x192;" horiz-adv-x="293" 
d="M49 433v37h73v93q0 65 26.5 102t78.5 37q32 0 66 -13l-12 -37q-6 3 -19 6t-22 3q-69 0 -69 -82v-109h88l21 -37h-109v-360q0 -65 -26.5 -102t-78.5 -37q-32 0 -66 13l12 37q6 -3 19 -6t22 -3q69 0 69 82v376h-73z" />
    <glyph glyph-name="circumflex" unicode="&#x2c6;" horiz-adv-x="271" 
d="M220 589l-83 118l-86 -118l-41 10l106 143h40l105 -139z" />
    <glyph glyph-name="caron" unicode="&#x2c7;" horiz-adv-x="271" 
d="M51 742l86 -118l83 118l41 -14l-105 -139h-40l-106 143z" />
    <glyph glyph-name="breve" unicode="&#x2d8;" horiz-adv-x="280" 
d="M140 640q41 0 65 26.5t24 64.5h41q0 -54 -34 -92t-96 -38q-60 0 -95 38.5t-35 91.5h41q0 -37 24.5 -64t64.5 -27z" />
    <glyph glyph-name="dotaccent" unicode="&#x2d9;" horiz-adv-x="97" 
d="M87 656q0 -16 -11.5 -27t-27.5 -11q-17 0 -27.5 11t-10.5 27t10.5 27t27.5 11q16 0 27.5 -11t11.5 -27z" />
    <glyph glyph-name="ring" unicode="&#x2da;" horiz-adv-x="197" 
d="M10 675q0 36 26.5 60t62.5 24t62 -24t26 -60q0 -35 -25.5 -58t-62.5 -23t-63 23t-26 58zM49 675q0 -22 14 -36.5t36 -14.5t35.5 14.5t13.5 36.5q0 23 -13.5 38t-35.5 15t-36 -15t-14 -38z" />
    <glyph glyph-name="ogonek" unicode="&#x2db;" horiz-adv-x="205" 
d="M10 -111q0 28 17.5 60.5t44.5 54.5l37 -4q-27 -25 -40 -52t-13 -60q0 -27 20 -43t42 -16q29 0 55 21l22 -27q-13 -13 -34.5 -21.5t-45.5 -8.5q-45 0 -75 27t-30 69z" />
    <glyph glyph-name="tilde" unicode="&#x2dc;" horiz-adv-x="299" 
d="M206 646q20 0 31.5 14.5t13.5 38.5h38q0 -45 -23.5 -68t-59.5 -23q-34 0 -60 29q-27 28 -52 28q-40 0 -45 -53h-39q0 45 23.5 68t59.5 23q43 0 65 -28q23 -29 48 -29z" />
    <glyph glyph-name="hungarumlaut" unicode="&#x2dd;" horiz-adv-x="265" 
d="M127 742l-85 -153l-32 11l56 142h61zM255 742l-85 -153l-32 11l56 142h61z" />
    <glyph glyph-name="endash" unicode="&#x2013;" horiz-adv-x="432" 
d="M30 293h364l8 -39h-364z" />
    <glyph glyph-name="emdash" unicode="&#x2014;" horiz-adv-x="524" 
d="M30 293h456l8 -39h-456z" />
    <glyph glyph-name="quoteleft" unicode="&#x2018;" horiz-adv-x="152" 
d="M107 557q0 -16 -10 -27.5t-28 -11.5q-17 0 -28 13.5t-11 29.5q0 46 22.5 83.5t63.5 57.5l16 -25q-60 -32 -61 -82q16 0 26 -13t10 -25z" />
    <glyph glyph-name="quoteright" unicode="&#x2019;" horiz-adv-x="152" 
d="M45 663q0 16 10 27.5t28 11.5q17 0 28 -13.5t11 -29.5q0 -46 -22.5 -83.5t-63.5 -57.5l-16 25q60 32 61 82q-16 0 -26 13t-10 25z" />
    <glyph glyph-name="quotesinglbase" unicode="&#x201a;" horiz-adv-x="152" 
d="M45 37q0 16 10 27.5t28 11.5q17 0 28 -13.5t11 -29.5q0 -46 -22.5 -83.5t-63.5 -57.5l-16 25q60 32 61 82q-16 0 -26 13t-10 25z" />
    <glyph glyph-name="quotedblleft" unicode="&#x201c;" horiz-adv-x="275" 
d="M107 557q0 -16 -10 -27.5t-28 -11.5q-17 0 -28 13.5t-11 29.5q0 46 22.5 83.5t63.5 57.5l16 -25q-60 -32 -61 -82q16 0 26 -13t10 -25zM230 557q0 -16 -10 -27.5t-28 -11.5q-17 0 -28 13.5t-11 29.5q0 46 22.5 83.5t63.5 57.5l16 -25q-60 -32 -61 -82q16 0 26 -13t10 -25
z" />
    <glyph glyph-name="quotedblright" unicode="&#x201d;" horiz-adv-x="275" 
d="M45 663q0 16 10 27.5t28 11.5q17 0 28 -13.5t11 -29.5q0 -46 -22.5 -83.5t-63.5 -57.5l-16 25q60 32 61 82q-16 0 -26 13t-10 25zM168 663q0 16 10 27.5t28 11.5q17 0 28 -13.5t11 -29.5q0 -46 -22.5 -83.5t-63.5 -57.5l-16 25q60 32 61 82q-16 0 -26 13t-10 25z" />
    <glyph glyph-name="quotedblbase" unicode="&#x201e;" horiz-adv-x="275" 
d="M45 37q0 16 10 27.5t28 11.5q17 0 28 -13.5t11 -29.5q0 -46 -22.5 -83.5t-63.5 -57.5l-16 25q60 32 61 82q-16 0 -26 13t-10 25zM168 37q0 16 10 27.5t28 11.5q17 0 28 -13.5t11 -29.5q0 -46 -22.5 -83.5t-63.5 -57.5l-16 25q60 32 61 82q-16 0 -26 13t-10 25z" />
    <glyph glyph-name="dagger" unicode="&#x2020;" horiz-adv-x="366" 
d="M154 619v164l49 -3v-161h114l19 -37h-133v-586l-49 4v582h-105l-19 37h124z" />
    <glyph glyph-name="daggerdbl" unicode="&#x2021;" horiz-adv-x="376" 
d="M211 192v-191l-49 -7v198h-113l-19 37h132v311h-113l-19 37h132v206l49 -3v-203h116l19 -37h-135v-311h116l19 -37h-135z" />
    <glyph glyph-name="bullet" unicode="&#x2022;" horiz-adv-x="183" 
d="M153 326q0 -25 -18 -43t-43 -18q-26 0 -44 18t-18 43q0 26 18 44t44 18q25 0 43 -18t18 -44z" />
    <glyph glyph-name="ellipsis" unicode="&#x2026;" horiz-adv-x="357" 
d="M103 36q0 -16 -10 -26t-25 -10q-16 0 -27 10t-11 26t11 26t27 10q15 0 25 -10t10 -26zM215 36q0 -16 -10 -26t-25 -10q-16 0 -27 10t-11 26t11 26t27 10q15 0 25 -10t10 -26zM327 36q0 -16 -10 -26t-25 -10q-16 0 -27 10t-11 26t11 26t27 10q15 0 25 -10t10 -26z" />
    <glyph glyph-name="perthousand" unicode="&#x2030;" horiz-adv-x="1169" 
d="M218 0l308 710l47 -4l-309 -710zM40 532q0 51 20 89.5t54.5 59.5t77.5 21q69 0 110.5 -45t41.5 -125q0 -50 -20.5 -88.5t-55 -59.5t-75.5 -21q-68 0 -110.5 45t-42.5 124zM297 532q0 62 -29 97.5t-76 35.5q-27 0 -51 -15.5t-39 -45.5t-15 -72q0 -60 31 -96t75 -36
q43 0 73.5 35t30.5 97zM465 168q0 51 20 89.5t54.5 59.5t77.5 21q69 0 110.5 -45t41.5 -125q0 -50 -20.5 -88.5t-55 -59.5t-75.5 -21q-68 0 -110.5 45t-42.5 124zM825 168q0 51 20 89.5t54.5 59.5t77.5 21q69 0 110.5 -45t41.5 -125q0 -50 -20.5 -88.5t-55 -59.5t-75.5 -21
q-68 0 -110.5 45t-42.5 124zM722 168q0 62 -29 97t-76 35q-42 0 -73.5 -35t-31.5 -97q0 -60 31 -96t75 -36q43 0 73.5 35t30.5 97zM1082 168q0 62 -29 97t-76 35q-42 0 -73.5 -35t-31.5 -97q0 -60 31 -96t75 -36q43 0 73.5 35t30.5 97z" />
    <glyph glyph-name="guilsinglleft" unicode="&#x2039;" horiz-adv-x="211" 
d="M170 83l-140 148v28l140 149l21 -35l-119 -128l119 -128z" />
    <glyph glyph-name="guilsinglright" unicode="&#x203a;" horiz-adv-x="211" 
d="M41 408l140 -148v-28l-140 -149l-21 35l119 128l-119 128z" />
    <glyph glyph-name="fraction" unicode="&#x2044;" horiz-adv-x="375" 
d="M10 0l308 710l47 -4l-309 -710z" />
    <glyph glyph-name="Euro" unicode="&#x20ac;" horiz-adv-x="593" 
d="M539 59l24 -36q-28 -15 -77.5 -26t-91.5 -11q-118 0 -192.5 66t-99.5 174h-97l-5 39h95q-5 38 -5 71t5 71h-90l-5 39h103q26 112 104 180t193 68q37 0 87.5 -10t75.5 -27l-20 -36q-38 16 -67 23t-78 7q-86 -1 -150.5 -55.5t-89.5 -149.5h243l5 -39h-256q-5 -37 -5 -70
q0 -37 6 -72h250l5 -39h-246q24 -88 84 -142.5t145 -54.5q49 0 83.5 8t66.5 22z" />
    <glyph glyph-name="trademark" unicode="&#x2122;" horiz-adv-x="711" 
d="M10 680h278l3 -32h-118v-342h-44v342h-119v32zM623 584l-104 -153l-12 -2l-105 154v-277h-41v374h19l133 -197l128 197h20v-374h-38v278z" />
    <glyph glyph-name="minus" unicode="&#x2212;" horiz-adv-x="466" 
d="M30 293h398l8 -39h-398z" />
    <glyph glyph-name="fi" unicode="&#xfb01;" horiz-adv-x="453" 
d="M93 433h-73v37h73v93q0 65 26.5 102t78.5 37q32 0 66 -13l-12 -37q-6 3 -19 6t-22 3q-69 0 -69 -82v-109h88l21 -37h-109v-663h-49v663zM397 638q0 -16 -11 -27t-28 -11t-27.5 11t-10.5 27t10.5 27t27.5 11q16 0 27.5 -11t11.5 -27zM383 485v-485h-49v485h49z" />
    <glyph glyph-name="fl" unicode="&#xfb02;" horiz-adv-x="473" 
d="M93 433h-73v37h73v93q0 65 26.5 102t78.5 37q32 0 66 -13l-12 -37q-6 3 -19 6t-22 3q-69 0 -69 -82v-109h88l21 -37h-109v-663h-49v663zM393 706v-706h-49v696z" />
  </font>
</defs>
</svg>
